#usda 1.0
(
    defaultPrim = "AkabaneShrine"
    upAxis = "Y"
)

def Xform "AkabaneShrine"
{
    def Mesh "ground"
    {
        int[] faceVertexCounts = [3, 3, 3, 3, 3, 3, 3, 3, 3, 3, 3, 3]
        int[] faceVertexIndices = [1, 3, 0, 4, 1, 0, 0, 3, 2, 2, 4, 0, 1, 7, 3, 5, 1, 4, 5, 7, 1, 3, 7, 2, 6, 4, 2, 2, 7, 6, 6, 5, 4, 7, 5, 6]
        point3f[] points = [(0, -0.005, 0), (0, -0.005, 20), (0, 0.005, 0), (0, 0.005, 20), (15, -0.005, 0), (15, -0.005, 20), (15, 0.005, 0), (15, 0.005, 20)]
    }

    def Mesh "stone_path"
    {
        int[] faceVertexCounts = [3, 3, 3, 3, 3, 3, 3, 3, 3, 3, 3, 3]
        int[] faceVertexIndices = [1, 3, 0, 4, 1, 0, 0, 3, 2, 2, 4, 0, 1, 7, 3, 5, 1, 4, 5, 7, 1, 3, 7, 2, 6, 4, 2, 2, 7, 6, 6, 5, 4, 7, 5, 6]
        point3f[] points = [(6.5, 0, 0), (6.5, 0, 20), (6.5, 0.05, 0), (6.5, 0.05, 20), (8.5, 0, 0), (8.5, 0, 20), (8.5, 0.05, 0), (8.5, 0.05, 20)]
    }

    def Mesh "torii_left_post"
    {
        int[] faceVertexCounts = [3, 3, 3, 3, 3, 3, 3, 3, 3, 3, 3, 3, 3, 3, 3, 3, 3, 3, 3, 3, 3, 3, 3, 3, 3, 3, 3, 3, 3, 3, 3, 3]
        int[] faceVertexIndices = [1, 0, 4, 1, 4, 2, 2, 4, 5, 2, 5, 3, 4, 0, 6, 4, 6, 5, 5, 6, 7, 5, 7, 3, 6, 0, 8, 6, 8, 7, 7, 8, 9, 7, 9, 3, 8, 0, 10, 8, 10, 9, 9, 10, 11, 9, 11, 3, 10, 0, 12, 10, 12, 11, 11, 12, 13, 11, 13, 3, 12, 0, 14, 12, 14, 13, 13, 14, 15, 13, 15, 3, 14, 0, 16, 14, 16, 15, 15, 16, 17, 15, 17, 3, 16, 0, 1, 16, 1, 17, 17, 1, 2, 17, 2, 3]
        point3f[] points = [(6, 2, -0.5), (6.15, 2, -0.5), (6.15, 2, 3.5), (6, 2, 3.5), (6.106066, 2.106066, -0.5), (6.106066, 2.106066, 3.5), (6, 2.15, -0.5), (6, 2.15, 3.5), (5.893934, 2.106066, -0.5), (5.893934, 2.106066, 3.5), (5.85, 2, -0.5), (5.85, 2, 3.5), (5.893934, 1.893934, -0.5), (5.893934, 1.893934, 3.5), (6, 1.85, -0.5), (6, 1.85, 3.5), (6.106066, 1.893934, -0.5), (6.106066, 1.893934, 3.5)]
    }

    def Mesh "torii_right_post"
    {
        int[] faceVertexCounts = [3, 3, 3, 3, 3, 3, 3, 3, 3, 3, 3, 3, 3, 3, 3, 3, 3, 3, 3, 3, 3, 3, 3, 3, 3, 3, 3, 3, 3, 3, 3, 3]
        int[] faceVertexIndices = [1, 0, 4, 1, 4, 2, 2, 4, 5, 2, 5, 3, 4, 0, 6, 4, 6, 5, 5, 6, 7, 5, 7, 3, 6, 0, 8, 6, 8, 7, 7, 8, 9, 7, 9, 3, 8, 0, 10, 8, 10, 9, 9, 10, 11, 9, 11, 3, 10, 0, 12, 10, 12, 11, 11, 12, 13, 11, 13, 3, 12, 0, 14, 12, 14, 13, 13, 14, 15, 13, 15, 3, 14, 0, 16, 14, 16, 15, 15, 16, 17, 15, 17, 3, 16, 0, 1, 16, 1, 17, 17, 1, 2, 17, 2, 3]
        point3f[] points = [(9, 2, -0.5), (9.15, 2, -0.5), (9.15, 2, 3.5), (9, 2, 3.5), (9.106066, 2.106066, -0.5), (9.106066, 2.106066, 3.5), (9, 2.15, -0.5), (9, 2.15, 3.5), (8.893934, 2.106066, -0.5), (8.893934, 2.106066, 3.5), (8.85, 2, -0.5), (8.85, 2, 3.5), (8.893934, 1.893934, -0.5), (8.893934, 1.893934, 3.5), (9, 1.85, -0.5), (9, 1.85, 3.5), (9.106066, 1.893934, -0.5), (9.106066, 1.893934, 3.5)]
    }

    def Mesh "torii_kasagi"
    {
        int[] faceVertexCounts = [3, 3, 3, 3, 3, 3, 3, 3, 3, 3, 3, 3]
        int[] faceVertexIndices = [1, 3, 0, 4, 1, 0, 0, 3, 2, 2, 4, 0, 1, 7, 3, 5, 1, 4, 5, 7, 1, 3, 7, 2, 6, 4, 2, 2, 7, 6, 6, 5, 4, 7, 5, 6]
        point3f[] points = [(5.5, 3.85, 1.35), (5.5, 3.85, 1.65), (5.5, 4.15, 1.35), (5.5, 4.15, 1.65), (9.5, 3.85, 1.35), (9.5, 3.85, 1.65), (9.5, 4.15, 1.35), (9.5, 4.15, 1.65)]
    }

    def Mesh "torii_shimaki"
    {
        int[] faceVertexCounts = [3, 3, 3, 3, 3, 3, 3, 3, 3, 3, 3, 3]
        int[] faceVertexIndices = [1, 3, 0, 4, 1, 0, 0, 3, 2, 2, 4, 0, 1, 7, 3, 5, 1, 4, 5, 7, 1, 3, 7, 2, 6, 4, 2, 2, 7, 6, 6, 5, 4, 7, 5, 6]
        point3f[] points = [(5.8, 3.5, 1.4), (5.8, 3.5, 1.6), (5.8, 3.7, 1.4), (5.8, 3.7, 1.6), (9.2, 3.5, 1.4), (9.2, 3.5, 1.6), (9.2, 3.7, 1.4), (9.2, 3.7, 1.6)]
    }

    def Mesh "lantern_0_base"
    {
        int[] faceVertexCounts = [3, 3, 3, 3, 3, 3, 3, 3, 3, 3, 3, 3]
        int[] faceVertexIndices = [1, 3, 0, 4, 1, 0, 0, 3, 2, 2, 4, 0, 1, 7, 3, 5, 1, 4, 5, 7, 1, 3, 7, 2, 6, 4, 2, 2, 7, 6, 6, 5, 4, 7, 5, 6]
        point3f[] points = [(4.25, 0, 5.75), (4.25, 0, 6.25), (4.25, 0.5, 5.75), (4.25, 0.5, 6.25), (4.75, 0, 5.75), (4.75, 0, 6.25), (4.75, 0.5, 5.75), (4.75, 0.5, 6.25)]
    }

    def Mesh "lantern_0_body"
    {
        int[] faceVertexCounts = [3, 3, 3, 3, 3, 3, 3, 3, 3, 3, 3, 3, 3, 3, 3, 3, 3, 3, 3, 3, 3, 3, 3, 3, 3, 3, 3, 3, 3, 3, 3, 3, 3, 3, 3, 3, 3, 3, 3, 3, 3, 3, 3, 3, 3, 3, 3, 3]
        int[] faceVertexIndices = [1, 0, 4, 1, 4, 2, 2, 4, 5, 2, 5, 3, 4, 0, 6, 4, 6, 5, 5, 6, 7, 5, 7, 3, 6, 0, 8, 6, 8, 7, 7, 8, 9, 7, 9, 3, 8, 0, 10, 8, 10, 9, 9, 10, 11, 9, 11, 3, 10, 0, 12, 10, 12, 11, 11, 12, 13, 11, 13, 3, 12, 0, 14, 12, 14, 13, 13, 14, 15, 13, 15, 3, 14, 0, 16, 14, 16, 15, 15, 16, 17, 15, 17, 3, 16, 0, 18, 16, 18, 17, 17, 18, 19, 17, 19, 3, 18, 0, 20, 18, 20, 19, 19, 20, 21, 19, 21, 3, 20, 0, 22, 20, 22, 21, 21, 22, 23, 21, 23, 3, 22, 0, 24, 22, 24, 23, 23, 24, 25, 23, 25, 3, 24, 0, 1, 24, 1, 25, 25, 1, 2, 25, 2, 3]
        point3f[] points = [(4.5, 0.7, 5.8), (4.75, 0.7, 5.8), (4.75, 0.7, 6.2), (4.5, 0.7, 6.2), (4.7165065, 0.825, 5.8), (4.7165065, 0.825, 6.2), (4.625, 0.91650635, 5.8), (4.625, 0.91650635, 6.2), (4.5, 0.95, 5.8), (4.5, 0.95, 6.2), (4.375, 0.91650635, 5.8), (4.375, 0.91650635, 6.2), (4.2834935, 0.825, 5.8), (4.2834935, 0.825, 6.2), (4.25, 0.7, 5.8), (4.25, 0.7, 6.2), (4.2834935, 0.575, 5.8), (4.2834935, 0.575, 6.2), (4.375, 0.48349366, 5.8), (4.375, 0.48349366, 6.2), (4.5, 0.45, 5.8), (4.5, 0.45, 6.2), (4.625, 0.48349366, 5.8), (4.625, 0.48349366, 6.2), (4.7165065, 0.575, 5.8), (4.7165065, 0.575, 6.2)]
    }

    def Mesh "lantern_0_roof"
    {
        int[] faceVertexCounts = [3, 3, 3, 3, 3, 3, 3, 3, 3, 3, 3, 3, 3, 3, 3, 3, 3, 3, 3, 3, 3, 3, 3, 3]
        int[] faceVertexIndices = [1, 0, 3, 1, 3, 2, 3, 0, 4, 3, 4, 2, 4, 0, 5, 4, 5, 2, 5, 0, 6, 5, 6, 2, 6, 0, 7, 6, 7, 2, 7, 0, 8, 7, 8, 2, 8, 0, 9, 8, 9, 2, 9, 0, 10, 9, 10, 2, 10, 0, 11, 10, 11, 2, 11, 0, 12, 11, 12, 2, 12, 0, 13, 12, 13, 2, 13, 0, 1, 13, 1, 2]
        point3f[] points = [(4.5, 1.1, 6), (4.9, 1.1, 6), (4.5, 1.1, 6.35), (4.8464103, 1.3, 6), (4.7, 1.4464102, 6), (4.5, 1.5, 6), (4.3, 1.4464102, 6), (4.1535897, 1.3, 6), (4.1, 1.1, 6), (4.1535897, 0.9, 6), (4.3, 0.7535898, 6), (4.5, 0.7, 6), (4.7, 0.7535898, 6), (4.8464103, 0.9, 6)]
    }

    def Mesh "lantern_1_base"
    {
        int[] faceVertexCounts = [3, 3, 3, 3, 3, 3, 3, 3, 3, 3, 3, 3]
        int[] faceVertexIndices = [1, 3, 0, 4, 1, 0, 0, 3, 2, 2, 4, 0, 1, 7, 3, 5, 1, 4, 5, 7, 1, 3, 7, 2, 6, 4, 2, 2, 7, 6, 6, 5, 4, 7, 5, 6]
        point3f[] points = [(4.25, 0, 12.75), (4.25, 0, 13.25), (4.25, 0.5, 12.75), (4.25, 0.5, 13.25), (4.75, 0, 12.75), (4.75, 0, 13.25), (4.75, 0.5, 12.75), (4.75, 0.5, 13.25)]
    }

    def Mesh "lantern_1_body"
    {
        int[] faceVertexCounts = [3, 3, 3, 3, 3, 3, 3, 3, 3, 3, 3, 3, 3, 3, 3, 3, 3, 3, 3, 3, 3, 3, 3, 3, 3, 3, 3, 3, 3, 3, 3, 3, 3, 3, 3, 3, 3, 3, 3, 3, 3, 3, 3, 3, 3, 3, 3, 3]
        int[] faceVertexIndices = [1, 0, 4, 1, 4, 2, 2, 4, 5, 2, 5, 3, 4, 0, 6, 4, 6, 5, 5, 6, 7, 5, 7, 3, 6, 0, 8, 6, 8, 7, 7, 8, 9, 7, 9, 3, 8, 0, 10, 8, 10, 9, 9, 10, 11, 9, 11, 3, 10, 0, 12, 10, 12, 11, 11, 12, 13, 11, 13, 3, 12, 0, 14, 12, 14, 13, 13, 14, 15, 13, 15, 3, 14, 0, 16, 14, 16, 15, 15, 16, 17, 15, 17, 3, 16, 0, 18, 16, 18, 17, 17, 18, 19, 17, 19, 3, 18, 0, 20, 18, 20, 19, 19, 20, 21, 19, 21, 3, 20, 0, 22, 20, 22, 21, 21, 22, 23, 21, 23, 3, 22, 0, 24, 22, 24, 23, 23, 24, 25, 23, 25, 3, 24, 0, 1, 24, 1, 25, 25, 1, 2, 25, 2, 3]
        point3f[] points = [(4.5, 0.7, 12.8), (4.75, 0.7, 12.8), (4.75, 0.7, 13.2), (4.5, 0.7, 13.2), (4.7165065, 0.825, 12.8), (4.7165065, 0.825, 13.2), (4.625, 0.91650635, 12.8), (4.625, 0.91650635, 13.2), (4.5, 0.95, 12.8), (4.5, 0.95, 13.2), (4.375, 0.91650635, 12.8), (4.375, 0.91650635, 13.2), (4.2834935, 0.825, 12.8), (4.2834935, 0.825, 13.2), (4.25, 0.7, 12.8), (4.25, 0.7, 13.2), (4.2834935, 0.575, 12.8), (4.2834935, 0.575, 13.2), (4.375, 0.48349366, 12.8), (4.375, 0.48349366, 13.2), (4.5, 0.45, 12.8), (4.5, 0.45, 13.2), (4.625, 0.48349366, 12.8), (4.625, 0.48349366, 13.2), (4.7165065, 0.575, 12.8), (4.7165065, 0.575, 13.2)]
    }

    def Mesh "lantern_1_roof"
    {
        int[] faceVertexCounts = [3, 3, 3, 3, 3, 3, 3, 3, 3, 3, 3, 3, 3, 3, 3, 3, 3, 3, 3, 3, 3, 3, 3, 3]
        int[] faceVertexIndices = [1, 0, 3, 1, 3, 2, 3, 0, 4, 3, 4, 2, 4, 0, 5, 4, 5, 2, 5, 0, 6, 5, 6, 2, 6, 0, 7, 6, 7, 2, 7, 0, 8, 7, 8, 2, 8, 0, 9, 8, 9, 2, 9, 0, 10, 9, 10, 2, 10, 0, 11, 10, 11, 2, 11, 0, 12, 11, 12, 2, 12, 0, 13, 12, 13, 2, 13, 0, 1, 13, 1, 2]
        point3f[] points = [(4.5, 1.1, 13), (4.9, 1.1, 13), (4.5, 1.1, 13.35), (4.8464103, 1.3, 13), (4.7, 1.4464102, 13), (4.5, 1.5, 13), (4.3, 1.4464102, 13), (4.1535897, 1.3, 13), (4.1, 1.1, 13), (4.1535897, 0.9, 13), (4.3, 0.7535898, 13), (4.5, 0.7, 13), (4.7, 0.7535898, 13), (4.8464103, 0.9, 13)]
    }

    def Mesh "lantern_r0_base"
    {
        int[] faceVertexCounts = [3, 3, 3, 3, 3, 3, 3, 3, 3, 3, 3, 3]
        int[] faceVertexIndices = [1, 3, 0, 4, 1, 0, 0, 3, 2, 2, 4, 0, 1, 7, 3, 5, 1, 4, 5, 7, 1, 3, 7, 2, 6, 4, 2, 2, 7, 6, 6, 5, 4, 7, 5, 6]
        point3f[] points = [(10.25, 0, 5.75), (10.25, 0, 6.25), (10.25, 0.5, 5.75), (10.25, 0.5, 6.25), (10.75, 0, 5.75), (10.75, 0, 6.25), (10.75, 0.5, 5.75), (10.75, 0.5, 6.25)]
    }

    def Mesh "lantern_r0_body"
    {
        int[] faceVertexCounts = [3, 3, 3, 3, 3, 3, 3, 3, 3, 3, 3, 3, 3, 3, 3, 3, 3, 3, 3, 3, 3, 3, 3, 3, 3, 3, 3, 3, 3, 3, 3, 3, 3, 3, 3, 3, 3, 3, 3, 3, 3, 3, 3, 3, 3, 3, 3, 3]
        int[] faceVertexIndices = [1, 0, 4, 1, 4, 2, 2, 4, 5, 2, 5, 3, 4, 0, 6, 4, 6, 5, 5, 6, 7, 5, 7, 3, 6, 0, 8, 6, 8, 7, 7, 8, 9, 7, 9, 3, 8, 0, 10, 8, 10, 9, 9, 10, 11, 9, 11, 3, 10, 0, 12, 10, 12, 11, 11, 12, 13, 11, 13, 3, 12, 0, 14, 12, 14, 13, 13, 14, 15, 13, 15, 3, 14, 0, 16, 14, 16, 15, 15, 16, 17, 15, 17, 3, 16, 0, 18, 16, 18, 17, 17, 18, 19, 17, 19, 3, 18, 0, 20, 18, 20, 19, 19, 20, 21, 19, 21, 3, 20, 0, 22, 20, 22, 21, 21, 22, 23, 21, 23, 3, 22, 0, 24, 22, 24, 23, 23, 24, 25, 23, 25, 3, 24, 0, 1, 24, 1, 25, 25, 1, 2, 25, 2, 3]
        point3f[] points = [(10.5, 0.7, 5.8), (10.75, 0.7, 5.8), (10.75, 0.7, 6.2), (10.5, 0.7, 6.2), (10.716506, 0.825, 5.8), (10.716506, 0.825, 6.2), (10.625, 0.91650635, 5.8), (10.625, 0.91650635, 6.2), (10.5, 0.95, 5.8), (10.5, 0.95, 6.2), (10.375, 0.91650635, 5.8), (10.375, 0.91650635, 6.2), (10.283494, 0.825, 5.8), (10.283494, 0.825, 6.2), (10.25, 0.7, 5.8), (10.25, 0.7, 6.2), (10.283494, 0.575, 5.8), (10.283494, 0.575, 6.2), (10.375, 0.48349366, 5.8), (10.375, 0.48349366, 6.2), (10.5, 0.45, 5.8), (10.5, 0.45, 6.2), (10.625, 0.48349366, 5.8), (10.625, 0.48349366, 6.2), (10.716506, 0.575, 5.8), (10.716506, 0.575, 6.2)]
    }

    def Mesh "lantern_r0_roof"
    {
        int[] faceVertexCounts = [3, 3, 3, 3, 3, 3, 3, 3, 3, 3, 3, 3, 3, 3, 3, 3, 3, 3, 3, 3, 3, 3, 3, 3]
        int[] faceVertexIndices = [1, 0, 3, 1, 3, 2, 3, 0, 4, 3, 4, 2, 4, 0, 5, 4, 5, 2, 5, 0, 6, 5, 6, 2, 6, 0, 7, 6, 7, 2, 7, 0, 8, 7, 8, 2, 8, 0, 9, 8, 9, 2, 9, 0, 10, 9, 10, 2, 10, 0, 11, 10, 11, 2, 11, 0, 12, 11, 12, 2, 12, 0, 13, 12, 13, 2, 13, 0, 1, 13, 1, 2]
        point3f[] points = [(10.5, 1.1, 6), (10.9, 1.1, 6), (10.5, 1.1, 6.35), (10.84641, 1.3, 6), (10.7, 1.4464102, 6), (10.5, 1.5, 6), (10.3, 1.4464102, 6), (10.15359, 1.3, 6), (10.1, 1.1, 6), (10.15359, 0.9, 6), (10.3, 0.7535898, 6), (10.5, 0.7, 6), (10.7, 0.7535898, 6), (10.84641, 0.9, 6)]
    }

    def Mesh "lantern_r1_base"
    {
        int[] faceVertexCounts = [3, 3, 3, 3, 3, 3, 3, 3, 3, 3, 3, 3]
        int[] faceVertexIndices = [1, 3, 0, 4, 1, 0, 0, 3, 2, 2, 4, 0, 1, 7, 3, 5, 1, 4, 5, 7, 1, 3, 7, 2, 6, 4, 2, 2, 7, 6, 6, 5, 4, 7, 5, 6]
        point3f[] points = [(10.25, 0, 12.75), (10.25, 0, 13.25), (10.25, 0.5, 12.75), (10.25, 0.5, 13.25), (10.75, 0, 12.75), (10.75, 0, 13.25), (10.75, 0.5, 12.75), (10.75, 0.5, 13.25)]
    }

    def Mesh "lantern_r1_body"
    {
        int[] faceVertexCounts = [3, 3, 3, 3, 3, 3, 3, 3, 3, 3, 3, 3, 3, 3, 3, 3, 3, 3, 3, 3, 3, 3, 3, 3, 3, 3, 3, 3, 3, 3, 3, 3, 3, 3, 3, 3, 3, 3, 3, 3, 3, 3, 3, 3, 3, 3, 3, 3]
        int[] faceVertexIndices = [1, 0, 4, 1, 4, 2, 2, 4, 5, 2, 5, 3, 4, 0, 6, 4, 6, 5, 5, 6, 7, 5, 7, 3, 6, 0, 8, 6, 8, 7, 7, 8, 9, 7, 9, 3, 8, 0, 10, 8, 10, 9, 9, 10, 11, 9, 11, 3, 10, 0, 12, 10, 12, 11, 11, 12, 13, 11, 13, 3, 12, 0, 14, 12, 14, 13, 13, 14, 15, 13, 15, 3, 14, 0, 16, 14, 16, 15, 15, 16, 17, 15, 17, 3, 16, 0, 18, 16, 18, 17, 17, 18, 19, 17, 19, 3, 18, 0, 20, 18, 20, 19, 19, 20, 21, 19, 21, 3, 20, 0, 22, 20, 22, 21, 21, 22, 23, 21, 23, 3, 22, 0, 24, 22, 24, 23, 23, 24, 25, 23, 25, 3, 24, 0, 1, 24, 1, 25, 25, 1, 2, 25, 2, 3]
        point3f[] points = [(10.5, 0.7, 12.8), (10.75, 0.7, 12.8), (10.75, 0.7, 13.2), (10.5, 0.7, 13.2), (10.716506, 0.825, 12.8), (10.716506, 0.825, 13.2), (10.625, 0.91650635, 12.8), (10.625, 0.91650635, 13.2), (10.5, 0.95, 12.8), (10.5, 0.95, 13.2), (10.375, 0.91650635, 12.8), (10.375, 0.91650635, 13.2), (10.283494, 0.825, 12.8), (10.283494, 0.825, 13.2), (10.25, 0.7, 12.8), (10.25, 0.7, 13.2), (10.283494, 0.575, 12.8), (10.283494, 0.575, 13.2), (10.375, 0.48349366, 12.8), (10.375, 0.48349366, 13.2), (10.5, 0.45, 12.8), (10.5, 0.45, 13.2), (10.625, 0.48349366, 12.8), (10.625, 0.48349366, 13.2), (10.716506, 0.575, 12.8), (10.716506, 0.575, 13.2)]
    }

    def Mesh "lantern_r1_roof"
    {
        int[] faceVertexCounts = [3, 3, 3, 3, 3, 3, 3, 3, 3, 3, 3, 3, 3, 3, 3, 3, 3, 3, 3, 3, 3, 3, 3, 3]
        int[] faceVertexIndices = [1, 0, 3, 1, 3, 2, 3, 0, 4, 3, 4, 2, 4, 0, 5, 4, 5, 2, 5, 0, 6, 5, 6, 2, 6, 0, 7, 6, 7, 2, 7, 0, 8, 7, 8, 2, 8, 0, 9, 8, 9, 2, 9, 0, 10, 9, 10, 2, 10, 0, 11, 10, 11, 2, 11, 0, 12, 11, 12, 2, 12, 0, 13, 12, 13, 2, 13, 0, 1, 13, 1, 2]
        point3f[] points = [(10.5, 1.1, 13), (10.9, 1.1, 13), (10.5, 1.1, 13.35), (10.84641, 1.3, 13), (10.7, 1.4464102, 13), (10.5, 1.5, 13), (10.3, 1.4464102, 13), (10.15359, 1.3, 13), (10.1, 1.1, 13), (10.15359, 0.9, 13), (10.3, 0.7535898, 13), (10.5, 0.7, 13), (10.7, 0.7535898, 13), (10.84641, 0.9, 13)]
    }

    def Mesh "shrine_body"
    {
        int[] faceVertexCounts = [3, 3, 3, 3, 3, 3, 3, 3, 3, 3, 3, 3]
        int[] faceVertexIndices = [1, 3, 0, 4, 1, 0, 0, 3, 2, 2, 4, 0, 1, 7, 3, 5, 1, 4, 5, 7, 1, 3, 7, 2, 6, 4, 2, 2, 7, 6, 6, 5, 4, 7, 5, 6]
        point3f[] points = [(5, 0, 16), (5, 0, 20), (5, 3, 16), (5, 3, 20), (10, 0, 16), (10, 0, 20), (10, 3, 16), (10, 3, 20)]
    }

    def Mesh "shrine_roof"
    {
        int[] faceVertexCounts = [3, 3, 3, 3, 3, 3, 3, 3, 3, 3, 3, 3]
        int[] faceVertexIndices = [1, 3, 0, 4, 1, 0, 0, 3, 2, 2, 4, 0, 1, 7, 3, 5, 1, 4, 5, 7, 1, 3, 7, 2, 6, 4, 2, 2, 7, 6, 6, 5, 4, 7, 5, 6]
        point3f[] points = [(4, 3, 15.5), (4, 3, 20.5), (4, 3.4, 15.5), (4, 3.4, 20.5), (11, 3, 15.5), (11, 3, 20.5), (11, 3.4, 15.5), (11, 3.4, 20.5)]
    }

    def Mesh "shrine_step_0"
    {
        int[] faceVertexCounts = [3, 3, 3, 3, 3, 3, 3, 3, 3, 3, 3, 3]
        int[] faceVertexIndices = [1, 3, 0, 4, 1, 0, 0, 3, 2, 2, 4, 0, 1, 7, 3, 5, 1, 4, 5, 7, 1, 3, 7, 2, 6, 4, 2, 2, 7, 6, 6, 5, 4, 7, 5, 6]
        point3f[] points = [(6, 0, 15.35), (6, 0, 15.65), (6, 0.15, 15.35), (6, 0.15, 15.65), (9, 0, 15.35), (9, 0, 15.65), (9, 0.15, 15.35), (9, 0.15, 15.65)]
    }

    def Mesh "shrine_step_1"
    {
        int[] faceVertexCounts = [3, 3, 3, 3, 3, 3, 3, 3, 3, 3, 3, 3]
        int[] faceVertexIndices = [1, 3, 0, 4, 1, 0, 0, 3, 2, 2, 4, 0, 1, 7, 3, 5, 1, 4, 5, 7, 1, 3, 7, 2, 6, 4, 2, 2, 7, 6, 6, 5, 4, 7, 5, 6]
        point3f[] points = [(6, 0.15, 15.65), (6, 0.15, 15.95), (6, 0.3, 15.65), (6, 0.3, 15.95), (9, 0.15, 15.65), (9, 0.15, 15.95), (9, 0.3, 15.65), (9, 0.3, 15.95)]
    }

    def Mesh "shrine_step_2"
    {
        int[] faceVertexCounts = [3, 3, 3, 3, 3, 3, 3, 3, 3, 3, 3, 3]
        int[] faceVertexIndices = [1, 3, 0, 4, 1, 0, 0, 3, 2, 2, 4, 0, 1, 7, 3, 5, 1, 4, 5, 7, 1, 3, 7, 2, 6, 4, 2, 2, 7, 6, 6, 5, 4, 7, 5, 6]
        point3f[] points = [(6, 0.3, 15.95), (6, 0.3, 16.25), (6, 0.45, 15.95), (6, 0.45, 16.25), (9, 0.3, 15.95), (9, 0.3, 16.25), (9, 0.45, 15.95), (9, 0.45, 16.25)]
    }
}

