#usda 1.0
(
    defaultPrim = "CityStreet"
    upAxis = "Y"
)

def Xform "CityStreet"
{
    def Mesh "street"
    {
        int[] faceVertexCounts = [3, 3, 3, 3, 3, 3, 3, 3, 3, 3, 3, 3]
        int[] faceVertexIndices = [1, 3, 0, 4, 1, 0, 0, 3, 2, 2, 4, 0, 1, 7, 3, 5, 1, 4, 5, 7, 1, 3, 7, 2, 6, 4, 2, 2, 7, 6, 6, 5, 4, 7, 5, 6]
        point3f[] points = [(0, -0.005, 0), (0, -0.005, 30), (0, 0.005, 0), (0, 0.005, 30), (10, -0.005, 0), (10, -0.005, 30), (10, 0.005, 0), (10, 0.005, 30)]
    }

    def Mesh "sidewalk_l"
    {
        int[] faceVertexCounts = [3, 3, 3, 3, 3, 3, 3, 3, 3, 3, 3, 3]
        int[] faceVertexIndices = [1, 3, 0, 4, 1, 0, 0, 3, 2, 2, 4, 0, 1, 7, 3, 5, 1, 4, 5, 7, 1, 3, 7, 2, 6, 4, 2, 2, 7, 6, 6, 5, 4, 7, 5, 6]
        point3f[] points = [(0, 0, 0), (0, 0, 30), (0, 0.15, 0), (0, 0.15, 30), (2, 0, 0), (2, 0, 30), (2, 0.15, 0), (2, 0.15, 30)]
    }

    def Mesh "sidewalk_r"
    {
        int[] faceVertexCounts = [3, 3, 3, 3, 3, 3, 3, 3, 3, 3, 3, 3]
        int[] faceVertexIndices = [1, 3, 0, 4, 1, 0, 0, 3, 2, 2, 4, 0, 1, 7, 3, 5, 1, 4, 5, 7, 1, 3, 7, 2, 6, 4, 2, 2, 7, 6, 6, 5, 4, 7, 5, 6]
        point3f[] points = [(8, 0, 0), (8, 0, 30), (8, 0.15, 0), (8, 0.15, 30), (10, 0, 0), (10, 0, 30), (10, 0.15, 0), (10, 0.15, 30)]
    }

    def Mesh "building_l0"
    {
        int[] faceVertexCounts = [3, 3, 3, 3, 3, 3, 3, 3, 3, 3, 3, 3]
        int[] faceVertexIndices = [1, 3, 0, 4, 1, 0, 0, 3, 2, 2, 4, 0, 1, 7, 3, 5, 1, 4, 5, 7, 1, 3, 7, 2, 6, 4, 2, 2, 7, 6, 6, 5, 4, 7, 5, 6]
        point3f[] points = [(-1.75, 0, 0), (-1.75, 0, 4), (-1.75, 8, 0), (-1.75, 8, 4), (0.75, 0, 0), (0.75, 0, 4), (0.75, 8, 0), (0.75, 8, 4)]
    }

    def Mesh "building_l1"
    {
        int[] faceVertexCounts = [3, 3, 3, 3, 3, 3, 3, 3, 3, 3, 3, 3]
        int[] faceVertexIndices = [1, 3, 0, 4, 1, 0, 0, 3, 2, 2, 4, 0, 1, 7, 3, 5, 1, 4, 5, 7, 1, 3, 7, 2, 6, 4, 2, 2, 7, 6, 6, 5, 4, 7, 5, 6]
        point3f[] points = [(-1.75, 0, 5), (-1.75, 0, 9), (-1.75, 8, 5), (-1.75, 8, 9), (0.75, 0, 5), (0.75, 0, 9), (0.75, 8, 5), (0.75, 8, 9)]
    }

    def Mesh "building_l2"
    {
        int[] faceVertexCounts = [3, 3, 3, 3, 3, 3, 3, 3, 3, 3, 3, 3]
        int[] faceVertexIndices = [1, 3, 0, 4, 1, 0, 0, 3, 2, 2, 4, 0, 1, 7, 3, 5, 1, 4, 5, 7, 1, 3, 7, 2, 6, 4, 2, 2, 7, 6, 6, 5, 4, 7, 5, 6]
        point3f[] points = [(-1.75, 0, 10), (-1.75, 0, 14), (-1.75, 8, 10), (-1.75, 8, 14), (0.75, 0, 10), (0.75, 0, 14), (0.75, 8, 10), (0.75, 8, 14)]
    }

    def Mesh "building_l3"
    {
        int[] faceVertexCounts = [3, 3, 3, 3, 3, 3, 3, 3, 3, 3, 3, 3]
        int[] faceVertexIndices = [1, 3, 0, 4, 1, 0, 0, 3, 2, 2, 4, 0, 1, 7, 3, 5, 1, 4, 5, 7, 1, 3, 7, 2, 6, 4, 2, 2, 7, 6, 6, 5, 4, 7, 5, 6]
        point3f[] points = [(-1.75, 0, 15), (-1.75, 0, 19), (-1.75, 8, 15), (-1.75, 8, 19), (0.75, 0, 15), (0.75, 0, 19), (0.75, 8, 15), (0.75, 8, 19)]
    }

    def Mesh "building_l4"
    {
        int[] faceVertexCounts = [3, 3, 3, 3, 3, 3, 3, 3, 3, 3, 3, 3]
        int[] faceVertexIndices = [1, 3, 0, 4, 1, 0, 0, 3, 2, 2, 4, 0, 1, 7, 3, 5, 1, 4, 5, 7, 1, 3, 7, 2, 6, 4, 2, 2, 7, 6, 6, 5, 4, 7, 5, 6]
        point3f[] points = [(-1.75, 0, 20), (-1.75, 0, 24), (-1.75, 8, 20), (-1.75, 8, 24), (0.75, 0, 20), (0.75, 0, 24), (0.75, 8, 20), (0.75, 8, 24)]
    }

    def Mesh "building_l5"
    {
        int[] faceVertexCounts = [3, 3, 3, 3, 3, 3, 3, 3, 3, 3, 3, 3]
        int[] faceVertexIndices = [1, 3, 0, 4, 1, 0, 0, 3, 2, 2, 4, 0, 1, 7, 3, 5, 1, 4, 5, 7, 1, 3, 7, 2, 6, 4, 2, 2, 7, 6, 6, 5, 4, 7, 5, 6]
        point3f[] points = [(-1.75, 0, 25), (-1.75, 0, 29), (-1.75, 8, 25), (-1.75, 8, 29), (0.75, 0, 25), (0.75, 0, 29), (0.75, 8, 25), (0.75, 8, 29)]
    }

    def Mesh "building_r0"
    {
        int[] faceVertexCounts = [3, 3, 3, 3, 3, 3, 3, 3, 3, 3, 3, 3]
        int[] faceVertexIndices = [1, 3, 0, 4, 1, 0, 0, 3, 2, 2, 4, 0, 1, 7, 3, 5, 1, 4, 5, 7, 1, 3, 7, 2, 6, 4, 2, 2, 7, 6, 6, 5, 4, 7, 5, 6]
        point3f[] points = [(9.25, 0, 0), (9.25, 0, 4), (9.25, 9.5, 0), (9.25, 9.5, 4), (11.75, 0, 0), (11.75, 0, 4), (11.75, 9.5, 0), (11.75, 9.5, 4)]
    }

    def Mesh "building_r1"
    {
        int[] faceVertexCounts = [3, 3, 3, 3, 3, 3, 3, 3, 3, 3, 3, 3]
        int[] faceVertexIndices = [1, 3, 0, 4, 1, 0, 0, 3, 2, 2, 4, 0, 1, 7, 3, 5, 1, 4, 5, 7, 1, 3, 7, 2, 6, 4, 2, 2, 7, 6, 6, 5, 4, 7, 5, 6]
        point3f[] points = [(9.25, 0, 5), (9.25, 0, 9), (9.25, 9.5, 5), (9.25, 9.5, 9), (11.75, 0, 5), (11.75, 0, 9), (11.75, 9.5, 5), (11.75, 9.5, 9)]
    }

    def Mesh "building_r2"
    {
        int[] faceVertexCounts = [3, 3, 3, 3, 3, 3, 3, 3, 3, 3, 3, 3]
        int[] faceVertexIndices = [1, 3, 0, 4, 1, 0, 0, 3, 2, 2, 4, 0, 1, 7, 3, 5, 1, 4, 5, 7, 1, 3, 7, 2, 6, 4, 2, 2, 7, 6, 6, 5, 4, 7, 5, 6]
        point3f[] points = [(9.25, 0, 10), (9.25, 0, 14), (9.25, 9.5, 10), (9.25, 9.5, 14), (11.75, 0, 10), (11.75, 0, 14), (11.75, 9.5, 10), (11.75, 9.5, 14)]
    }

    def Mesh "building_r3"
    {
        int[] faceVertexCounts = [3, 3, 3, 3, 3, 3, 3, 3, 3, 3, 3, 3]
        int[] faceVertexIndices = [1, 3, 0, 4, 1, 0, 0, 3, 2, 2, 4, 0, 1, 7, 3, 5, 1, 4, 5, 7, 1, 3, 7, 2, 6, 4, 2, 2, 7, 6, 6, 5, 4, 7, 5, 6]
        point3f[] points = [(9.25, 0, 15), (9.25, 0, 19), (9.25, 9.5, 15), (9.25, 9.5, 19), (11.75, 0, 15), (11.75, 0, 19), (11.75, 9.5, 15), (11.75, 9.5, 19)]
    }

    def Mesh "building_r4"
    {
        int[] faceVertexCounts = [3, 3, 3, 3, 3, 3, 3, 3, 3, 3, 3, 3]
        int[] faceVertexIndices = [1, 3, 0, 4, 1, 0, 0, 3, 2, 2, 4, 0, 1, 7, 3, 5, 1, 4, 5, 7, 1, 3, 7, 2, 6, 4, 2, 2, 7, 6, 6, 5, 4, 7, 5, 6]
        point3f[] points = [(9.25, 0, 20), (9.25, 0, 24), (9.25, 9.5, 20), (9.25, 9.5, 24), (11.75, 0, 20), (11.75, 0, 24), (11.75, 9.5, 20), (11.75, 9.5, 24)]
    }

    def Mesh "building_r5"
    {
        int[] faceVertexCounts = [3, 3, 3, 3, 3, 3, 3, 3, 3, 3, 3, 3]
        int[] faceVertexIndices = [1, 3, 0, 4, 1, 0, 0, 3, 2, 2, 4, 0, 1, 7, 3, 5, 1, 4, 5, 7, 1, 3, 7, 2, 6, 4, 2, 2, 7, 6, 6, 5, 4, 7, 5, 6]
        point3f[] points = [(9.25, 0, 25), (9.25, 0, 29), (9.25, 9.5, 25), (9.25, 9.5, 29), (11.75, 0, 25), (11.75, 0, 29), (11.75, 9.5, 25), (11.75, 9.5, 29)]
    }

    def Mesh "lamp_post_0"
    {
        int[] faceVertexCounts = [3, 3, 3, 3, 3, 3, 3, 3, 3, 3, 3, 3, 3, 3, 3, 3, 3, 3, 3, 3, 3, 3, 3, 3, 3, 3, 3, 3, 3, 3, 3, 3]
        int[] faceVertexIndices = [1, 0, 4, 1, 4, 2, 2, 4, 5, 2, 5, 3, 4, 0, 6, 4, 6, 5, 5, 6, 7, 5, 7, 3, 6, 0, 8, 6, 8, 7, 7, 8, 9, 7, 9, 3, 8, 0, 10, 8, 10, 9, 9, 10, 11, 9, 11, 3, 10, 0, 12, 10, 12, 11, 11, 12, 13, 11, 13, 3, 12, 0, 14, 12, 14, 13, 13, 14, 15, 13, 15, 3, 14, 0, 16, 14, 16, 15, 15, 16, 17, 15, 17, 3, 16, 0, 1, 16, 1, 17, 17, 1, 2, 17, 2, 3]
        point3f[] points = [(1.5, 2.25, 1.75), (1.55, 2.25, 1.75), (1.55, 2.25, 6.25), (1.5, 2.25, 6.25), (1.5353553, 2.2853553, 1.75), (1.5353553, 2.2853553, 6.25), (1.5, 2.3, 1.75), (1.5, 2.3, 6.25), (1.4646447, 2.2853553, 1.75), (1.4646447, 2.2853553, 6.25), (1.45, 2.25, 1.75), (1.45, 2.25, 6.25), (1.4646447, 2.2146447, 1.75), (1.4646447, 2.2146447, 6.25), (1.5, 2.2, 1.75), (1.5, 2.2, 6.25), (1.5353553, 2.2146447, 1.75), (1.5353553, 2.2146447, 6.25)]
    }

    def Mesh "lamp_head_0"
    {
        int[] faceVertexCounts = [3, 3, 3, 3, 3, 3, 3, 3, 3, 3, 3, 3]
        int[] faceVertexIndices = [1, 3, 0, 4, 1, 0, 0, 3, 2, 2, 4, 0, 1, 7, 3, 5, 1, 4, 5, 7, 1, 3, 7, 2, 6, 4, 2, 2, 7, 6, 6, 5, 4, 7, 5, 6]
        point3f[] points = [(1.35, 4.4, 3.9), (1.35, 4.4, 4.1), (1.35, 4.6, 3.9), (1.35, 4.6, 4.1), (1.65, 4.4, 3.9), (1.65, 4.4, 4.1), (1.65, 4.6, 3.9), (1.65, 4.6, 4.1)]
    }

    def Mesh "lamp_post_1"
    {
        int[] faceVertexCounts = [3, 3, 3, 3, 3, 3, 3, 3, 3, 3, 3, 3, 3, 3, 3, 3, 3, 3, 3, 3, 3, 3, 3, 3, 3, 3, 3, 3, 3, 3, 3, 3]
        int[] faceVertexIndices = [1, 0, 4, 1, 4, 2, 2, 4, 5, 2, 5, 3, 4, 0, 6, 4, 6, 5, 5, 6, 7, 5, 7, 3, 6, 0, 8, 6, 8, 7, 7, 8, 9, 7, 9, 3, 8, 0, 10, 8, 10, 9, 9, 10, 11, 9, 11, 3, 10, 0, 12, 10, 12, 11, 11, 12, 13, 11, 13, 3, 12, 0, 14, 12, 14, 13, 13, 14, 15, 13, 15, 3, 14, 0, 16, 14, 16, 15, 15, 16, 17, 15, 17, 3, 16, 0, 1, 16, 1, 17, 17, 1, 2, 17, 2, 3]
        point3f[] points = [(1.5, 2.25, 7.75), (1.55, 2.25, 7.75), (1.55, 2.25, 12.25), (1.5, 2.25, 12.25), (1.5353553, 2.2853553, 7.75), (1.5353553, 2.2853553, 12.25), (1.5, 2.3, 7.75), (1.5, 2.3, 12.25), (1.4646447, 2.2853553, 7.75), (1.4646447, 2.2853553, 12.25), (1.45, 2.25, 7.75), (1.45, 2.25, 12.25), (1.4646447, 2.2146447, 7.75), (1.4646447, 2.2146447, 12.25), (1.5, 2.2, 7.75), (1.5, 2.2, 12.25), (1.5353553, 2.2146447, 7.75), (1.5353553, 2.2146447, 12.25)]
    }

    def Mesh "lamp_head_1"
    {
        int[] faceVertexCounts = [3, 3, 3, 3, 3, 3, 3, 3, 3, 3, 3, 3]
        int[] faceVertexIndices = [1, 3, 0, 4, 1, 0, 0, 3, 2, 2, 4, 0, 1, 7, 3, 5, 1, 4, 5, 7, 1, 3, 7, 2, 6, 4, 2, 2, 7, 6, 6, 5, 4, 7, 5, 6]
        point3f[] points = [(1.35, 4.4, 9.9), (1.35, 4.4, 10.1), (1.35, 4.6, 9.9), (1.35, 4.6, 10.1), (1.65, 4.4, 9.9), (1.65, 4.4, 10.1), (1.65, 4.6, 9.9), (1.65, 4.6, 10.1)]
    }

    def Mesh "lamp_post_2"
    {
        int[] faceVertexCounts = [3, 3, 3, 3, 3, 3, 3, 3, 3, 3, 3, 3, 3, 3, 3, 3, 3, 3, 3, 3, 3, 3, 3, 3, 3, 3, 3, 3, 3, 3, 3, 3]
        int[] faceVertexIndices = [1, 0, 4, 1, 4, 2, 2, 4, 5, 2, 5, 3, 4, 0, 6, 4, 6, 5, 5, 6, 7, 5, 7, 3, 6, 0, 8, 6, 8, 7, 7, 8, 9, 7, 9, 3, 8, 0, 10, 8, 10, 9, 9, 10, 11, 9, 11, 3, 10, 0, 12, 10, 12, 11, 11, 12, 13, 11, 13, 3, 12, 0, 14, 12, 14, 13, 13, 14, 15, 13, 15, 3, 14, 0, 16, 14, 16, 15, 15, 16, 17, 15, 17, 3, 16, 0, 1, 16, 1, 17, 17, 1, 2, 17, 2, 3]
        point3f[] points = [(1.5, 2.25, 13.75), (1.55, 2.25, 13.75), (1.55, 2.25, 18.25), (1.5, 2.25, 18.25), (1.5353553, 2.2853553, 13.75), (1.5353553, 2.2853553, 18.25), (1.5, 2.3, 13.75), (1.5, 2.3, 18.25), (1.4646447, 2.2853553, 13.75), (1.4646447, 2.2853553, 18.25), (1.45, 2.25, 13.75), (1.45, 2.25, 18.25), (1.4646447, 2.2146447, 13.75), (1.4646447, 2.2146447, 18.25), (1.5, 2.2, 13.75), (1.5, 2.2, 18.25), (1.5353553, 2.2146447, 13.75), (1.5353553, 2.2146447, 18.25)]
    }

    def Mesh "lamp_head_2"
    {
        int[] faceVertexCounts = [3, 3, 3, 3, 3, 3, 3, 3, 3, 3, 3, 3]
        int[] faceVertexIndices = [1, 3, 0, 4, 1, 0, 0, 3, 2, 2, 4, 0, 1, 7, 3, 5, 1, 4, 5, 7, 1, 3, 7, 2, 6, 4, 2, 2, 7, 6, 6, 5, 4, 7, 5, 6]
        point3f[] points = [(1.35, 4.4, 15.9), (1.35, 4.4, 16.1), (1.35, 4.6, 15.9), (1.35, 4.6, 16.1), (1.65, 4.4, 15.9), (1.65, 4.4, 16.1), (1.65, 4.6, 15.9), (1.65, 4.6, 16.1)]
    }

    def Mesh "lamp_post_3"
    {
        int[] faceVertexCounts = [3, 3, 3, 3, 3, 3, 3, 3, 3, 3, 3, 3, 3, 3, 3, 3, 3, 3, 3, 3, 3, 3, 3, 3, 3, 3, 3, 3, 3, 3, 3, 3]
        int[] faceVertexIndices = [1, 0, 4, 1, 4, 2, 2, 4, 5, 2, 5, 3, 4, 0, 6, 4, 6, 5, 5, 6, 7, 5, 7, 3, 6, 0, 8, 6, 8, 7, 7, 8, 9, 7, 9, 3, 8, 0, 10, 8, 10, 9, 9, 10, 11, 9, 11, 3, 10, 0, 12, 10, 12, 11, 11, 12, 13, 11, 13, 3, 12, 0, 14, 12, 14, 13, 13, 14, 15, 13, 15, 3, 14, 0, 16, 14, 16, 15, 15, 16, 17, 15, 17, 3, 16, 0, 1, 16, 1, 17, 17, 1, 2, 17, 2, 3]
        point3f[] points = [(1.5, 2.25, 19.75), (1.55, 2.25, 19.75), (1.55, 2.25, 24.25), (1.5, 2.25, 24.25), (1.5353553, 2.2853553, 19.75), (1.5353553, 2.2853553, 24.25), (1.5, 2.3, 19.75), (1.5, 2.3, 24.25), (1.4646447, 2.2853553, 19.75), (1.4646447, 2.2853553, 24.25), (1.45, 2.25, 19.75), (1.45, 2.25, 24.25), (1.4646447, 2.2146447, 19.75), (1.4646447, 2.2146447, 24.25), (1.5, 2.2, 19.75), (1.5, 2.2, 24.25), (1.5353553, 2.2146447, 19.75), (1.5353553, 2.2146447, 24.25)]
    }

    def Mesh "lamp_head_3"
    {
        int[] faceVertexCounts = [3, 3, 3, 3, 3, 3, 3, 3, 3, 3, 3, 3]
        int[] faceVertexIndices = [1, 3, 0, 4, 1, 0, 0, 3, 2, 2, 4, 0, 1, 7, 3, 5, 1, 4, 5, 7, 1, 3, 7, 2, 6, 4, 2, 2, 7, 6, 6, 5, 4, 7, 5, 6]
        point3f[] points = [(1.35, 4.4, 21.9), (1.35, 4.4, 22.1), (1.35, 4.6, 21.9), (1.35, 4.6, 22.1), (1.65, 4.4, 21.9), (1.65, 4.4, 22.1), (1.65, 4.6, 21.9), (1.65, 4.6, 22.1)]
    }
}

