#usda 1.0
(
    defaultPrim = "Classroom"
    upAxis = "Y"
)

def Xform "Classroom"
{
    def Mesh "floor"
    {
        int[] faceVertexCounts = [3, 3, 3, 3, 3, 3, 3, 3, 3, 3, 3, 3]
        int[] faceVertexIndices = [1, 3, 0, 4, 1, 0, 0, 3, 2, 2, 4, 0, 1, 7, 3, 5, 1, 4, 5, 7, 1, 3, 7, 2, 6, 4, 2, 2, 7, 6, 6, 5, 4, 7, 5, 6]
        point3f[] points = [(0, -0.005, 0), (0, -0.005, 9), (0, 0.005, 0), (0, 0.005, 9), (8, -0.005, 0), (8, -0.005, 9), (8, 0.005, 0), (8, 0.005, 9)]
    }

    def Mesh "ceiling"
    {
        int[] faceVertexCounts = [3, 3, 3, 3, 3, 3, 3, 3, 3, 3, 3, 3]
        int[] faceVertexIndices = [1, 3, 0, 4, 1, 0, 0, 3, 2, 2, 4, 0, 1, 7, 3, 5, 1, 4, 5, 7, 1, 3, 7, 2, 6, 4, 2, 2, 7, 6, 6, 5, 4, 7, 5, 6]
        point3f[] points = [(0, 2.995, 0), (0, 2.995, 9), (0, 3.005, 0), (0, 3.005, 9), (8, 2.995, 0), (8, 2.995, 9), (8, 3.005, 0), (8, 3.005, 9)]
    }

    def Mesh "wall_front"
    {
        int[] faceVertexCounts = [3, 3, 3, 3, 3, 3, 3, 3, 3, 3, 3, 3]
        int[] faceVertexIndices = [1, 3, 0, 4, 1, 0, 0, 3, 2, 2, 4, 0, 1, 7, 3, 5, 1, 4, 5, 7, 1, 3, 7, 2, 6, 4, 2, 2, 7, 6, 6, 5, 4, 7, 5, 6]
        point3f[] points = [(0, 0, -0.05), (0, 0, 0.05), (0, 3, -0.05), (0, 3, 0.05), (8, 0, -0.05), (8, 0, 0.05), (8, 3, -0.05), (8, 3, 0.05)]
    }

    def Mesh "wall_back"
    {
        int[] faceVertexCounts = [3, 3, 3, 3, 3, 3, 3, 3, 3, 3, 3, 3]
        int[] faceVertexIndices = [1, 3, 0, 4, 1, 0, 0, 3, 2, 2, 4, 0, 1, 7, 3, 5, 1, 4, 5, 7, 1, 3, 7, 2, 6, 4, 2, 2, 7, 6, 6, 5, 4, 7, 5, 6]
        point3f[] points = [(0, 0, 8.95), (0, 0, 9.05), (0, 3, 8.95), (0, 3, 9.05), (8, 0, 8.95), (8, 0, 9.05), (8, 3, 8.95), (8, 3, 9.05)]
    }

    def Mesh "wall_east"
    {
        int[] faceVertexCounts = [3, 3, 3, 3, 3, 3, 3, 3, 3, 3, 3, 3]
        int[] faceVertexIndices = [1, 3, 0, 4, 1, 0, 0, 3, 2, 2, 4, 0, 1, 7, 3, 5, 1, 4, 5, 7, 1, 3, 7, 2, 6, 4, 2, 2, 7, 6, 6, 5, 4, 7, 5, 6]
        point3f[] points = [(7.95, 0, 0), (7.95, 0, 9), (7.95, 3, 0), (7.95, 3, 9), (8.05, 0, 0), (8.05, 0, 9), (8.05, 3, 0), (8.05, 3, 9)]
    }

    def Mesh "wall_west"
    {
        int[] faceVertexCounts = [3, 3, 3, 3, 3, 3, 3, 3, 3, 3, 3, 3]
        int[] faceVertexIndices = [1, 3, 0, 4, 1, 0, 0, 3, 2, 2, 4, 0, 1, 7, 3, 5, 1, 4, 5, 7, 1, 3, 7, 2, 6, 4, 2, 2, 7, 6, 6, 5, 4, 7, 5, 6]
        point3f[] points = [(-0.05, 0, 0), (-0.05, 0, 9), (-0.05, 3, 0), (-0.05, 3, 9), (0.05, 0, 0), (0.05, 0, 9), (0.05, 3, 0), (0.05, 3, 9)]
    }

    def Mesh "blackboard"
    {
        int[] faceVertexCounts = [3, 3, 3, 3, 3, 3, 3, 3, 3, 3, 3, 3]
        int[] faceVertexIndices = [1, 3, 0, 4, 1, 0, 0, 3, 2, 2, 4, 0, 1, 7, 3, 5, 1, 4, 5, 7, 1, 3, 7, 2, 6, 4, 2, 2, 7, 6, 6, 5, 4, 7, 5, 6]
        point3f[] points = [(1.5, 0.9, 0.055), (1.5, 0.9, 0.105), (1.5, 2.3, 0.055), (1.5, 2.3, 0.105), (6.5, 0.9, 0.055), (6.5, 0.9, 0.105), (6.5, 2.3, 0.055), (6.5, 2.3, 0.105)]
    }

    def Mesh "podium"
    {
        int[] faceVertexCounts = [3, 3, 3, 3, 3, 3, 3, 3, 3, 3, 3, 3]
        int[] faceVertexIndices = [1, 3, 0, 4, 1, 0, 0, 3, 2, 2, 4, 0, 1, 7, 3, 5, 1, 4, 5, 7, 1, 3, 7, 2, 6, 4, 2, 2, 7, 6, 6, 5, 4, 7, 5, 6]
        point3f[] points = [(3.5, 0, 0.75), (3.5, 0, 1.25), (3.5, 1.1, 0.75), (3.5, 1.1, 1.25), (4.5, 0, 0.75), (4.5, 0, 1.25), (4.5, 1.1, 0.75), (4.5, 1.1, 1.25)]
    }

    def Mesh "teacher_desk"
    {
        int[] faceVertexCounts = [3, 3, 3, 3, 3, 3, 3, 3, 3, 3, 3, 3]
        int[] faceVertexIndices = [1, 3, 0, 4, 1, 0, 0, 3, 2, 2, 4, 0, 1, 7, 3, 5, 1, 4, 5, 7, 1, 3, 7, 2, 6, 4, 2, 2, 7, 6, 6, 5, 4, 7, 5, 6]
        point3f[] points = [(5.8, 0.755, 0.85), (5.8, 0.755, 1.55), (5.8, 0.805, 0.85), (5.8, 0.805, 1.55), (7.4, 0.755, 0.85), (7.4, 0.755, 1.55), (7.4, 0.805, 0.85), (7.4, 0.805, 1.55)]
    }

    def Mesh "teacher_desk_leg_0"
    {
        int[] faceVertexCounts = [3, 3, 3, 3, 3, 3, 3, 3, 3, 3, 3, 3]
        int[] faceVertexIndices = [1, 3, 0, 4, 1, 0, 0, 3, 2, 2, 4, 0, 1, 7, 3, 5, 1, 4, 5, 7, 1, 3, 7, 2, 6, 4, 2, 2, 7, 6, 6, 5, 4, 7, 5, 6]
        point3f[] points = [(5.825, 0, 0.875), (5.825, 0, 0.925), (5.825, 0.78, 0.875), (5.825, 0.78, 0.925), (5.875, 0, 0.875), (5.875, 0, 0.925), (5.875, 0.78, 0.875), (5.875, 0.78, 0.925)]
    }

    def Mesh "teacher_desk_leg_1"
    {
        int[] faceVertexCounts = [3, 3, 3, 3, 3, 3, 3, 3, 3, 3, 3, 3]
        int[] faceVertexIndices = [1, 3, 0, 4, 1, 0, 0, 3, 2, 2, 4, 0, 1, 7, 3, 5, 1, 4, 5, 7, 1, 3, 7, 2, 6, 4, 2, 2, 7, 6, 6, 5, 4, 7, 5, 6]
        point3f[] points = [(5.825, 0, 1.475), (5.825, 0, 1.525), (5.825, 0.78, 1.475), (5.825, 0.78, 1.525), (5.875, 0, 1.475), (5.875, 0, 1.525), (5.875, 0.78, 1.475), (5.875, 0.78, 1.525)]
    }

    def Mesh "teacher_desk_leg_2"
    {
        int[] faceVertexCounts = [3, 3, 3, 3, 3, 3, 3, 3, 3, 3, 3, 3]
        int[] faceVertexIndices = [1, 3, 0, 4, 1, 0, 0, 3, 2, 2, 4, 0, 1, 7, 3, 5, 1, 4, 5, 7, 1, 3, 7, 2, 6, 4, 2, 2, 7, 6, 6, 5, 4, 7, 5, 6]
        point3f[] points = [(7.325, 0, 0.875), (7.325, 0, 0.925), (7.325, 0.78, 0.875), (7.325, 0.78, 0.925), (7.375, 0, 0.875), (7.375, 0, 0.925), (7.375, 0.78, 0.875), (7.375, 0.78, 0.925)]
    }

    def Mesh "teacher_desk_leg_3"
    {
        int[] faceVertexCounts = [3, 3, 3, 3, 3, 3, 3, 3, 3, 3, 3, 3]
        int[] faceVertexIndices = [1, 3, 0, 4, 1, 0, 0, 3, 2, 2, 4, 0, 1, 7, 3, 5, 1, 4, 5, 7, 1, 3, 7, 2, 6, 4, 2, 2, 7, 6, 6, 5, 4, 7, 5, 6]
        point3f[] points = [(7.325, 0, 1.475), (7.325, 0, 1.525), (7.325, 0.78, 1.475), (7.325, 0.78, 1.525), (7.375, 0, 1.475), (7.375, 0, 1.525), (7.375, 0.78, 1.475), (7.375, 0.78, 1.525)]
    }

    def Mesh "window_0"
    {
        int[] faceVertexCounts = [3, 3, 3, 3, 3, 3, 3, 3, 3, 3, 3, 3]
        int[] faceVertexIndices = [1, 3, 0, 4, 1, 0, 0, 3, 2, 2, 4, 0, 1, 7, 3, 5, 1, 4, 5, 7, 1, 3, 7, 2, 6, 4, 2, 2, 7, 6, 6, 5, 4, 7, 5, 6]
        point3f[] points = [(7.895, 0.9, 1.5), (7.895, 0.9, 2.5), (7.895, 2.3, 1.5), (7.895, 2.3, 2.5), (7.945, 0.9, 1.5), (7.945, 0.9, 2.5), (7.945, 2.3, 1.5), (7.945, 2.3, 2.5)]
    }

    def Mesh "window_sill_0"
    {
        int[] faceVertexCounts = [3, 3, 3, 3, 3, 3, 3, 3, 3, 3, 3, 3]
        int[] faceVertexIndices = [1, 3, 0, 4, 1, 0, 0, 3, 2, 2, 4, 0, 1, 7, 3, 5, 1, 4, 5, 7, 1, 3, 7, 2, 6, 4, 2, 2, 7, 6, 6, 5, 4, 7, 5, 6]
        point3f[] points = [(7.75, 0.825, 1.45), (7.75, 0.825, 2.55), (7.75, 0.875, 1.45), (7.75, 0.875, 2.55), (7.95, 0.825, 1.45), (7.95, 0.825, 2.55), (7.95, 0.875, 1.45), (7.95, 0.875, 2.55)]
    }

    def Mesh "window_1"
    {
        int[] faceVertexCounts = [3, 3, 3, 3, 3, 3, 3, 3, 3, 3, 3, 3]
        int[] faceVertexIndices = [1, 3, 0, 4, 1, 0, 0, 3, 2, 2, 4, 0, 1, 7, 3, 5, 1, 4, 5, 7, 1, 3, 7, 2, 6, 4, 2, 2, 7, 6, 6, 5, 4, 7, 5, 6]
        point3f[] points = [(7.895, 0.9, 3), (7.895, 0.9, 4), (7.895, 2.3, 3), (7.895, 2.3, 4), (7.945, 0.9, 3), (7.945, 0.9, 4), (7.945, 2.3, 3), (7.945, 2.3, 4)]
    }

    def Mesh "window_sill_1"
    {
        int[] faceVertexCounts = [3, 3, 3, 3, 3, 3, 3, 3, 3, 3, 3, 3]
        int[] faceVertexIndices = [1, 3, 0, 4, 1, 0, 0, 3, 2, 2, 4, 0, 1, 7, 3, 5, 1, 4, 5, 7, 1, 3, 7, 2, 6, 4, 2, 2, 7, 6, 6, 5, 4, 7, 5, 6]
        point3f[] points = [(7.75, 0.825, 2.95), (7.75, 0.825, 4.05), (7.75, 0.875, 2.95), (7.75, 0.875, 4.05), (7.95, 0.825, 2.95), (7.95, 0.825, 4.05), (7.95, 0.875, 2.95), (7.95, 0.875, 4.05)]
    }

    def Mesh "window_2"
    {
        int[] faceVertexCounts = [3, 3, 3, 3, 3, 3, 3, 3, 3, 3, 3, 3]
        int[] faceVertexIndices = [1, 3, 0, 4, 1, 0, 0, 3, 2, 2, 4, 0, 1, 7, 3, 5, 1, 4, 5, 7, 1, 3, 7, 2, 6, 4, 2, 2, 7, 6, 6, 5, 4, 7, 5, 6]
        point3f[] points = [(7.895, 0.9, 4.5), (7.895, 0.9, 5.5), (7.895, 2.3, 4.5), (7.895, 2.3, 5.5), (7.945, 0.9, 4.5), (7.945, 0.9, 5.5), (7.945, 2.3, 4.5), (7.945, 2.3, 5.5)]
    }

    def Mesh "window_sill_2"
    {
        int[] faceVertexCounts = [3, 3, 3, 3, 3, 3, 3, 3, 3, 3, 3, 3]
        int[] faceVertexIndices = [1, 3, 0, 4, 1, 0, 0, 3, 2, 2, 4, 0, 1, 7, 3, 5, 1, 4, 5, 7, 1, 3, 7, 2, 6, 4, 2, 2, 7, 6, 6, 5, 4, 7, 5, 6]
        point3f[] points = [(7.75, 0.825, 4.45), (7.75, 0.825, 5.55), (7.75, 0.875, 4.45), (7.75, 0.875, 5.55), (7.95, 0.825, 4.45), (7.95, 0.825, 5.55), (7.95, 0.875, 4.45), (7.95, 0.875, 5.55)]
    }

    def Mesh "window_3"
    {
        int[] faceVertexCounts = [3, 3, 3, 3, 3, 3, 3, 3, 3, 3, 3, 3]
        int[] faceVertexIndices = [1, 3, 0, 4, 1, 0, 0, 3, 2, 2, 4, 0, 1, 7, 3, 5, 1, 4, 5, 7, 1, 3, 7, 2, 6, 4, 2, 2, 7, 6, 6, 5, 4, 7, 5, 6]
        point3f[] points = [(7.895, 0.9, 6), (7.895, 0.9, 7), (7.895, 2.3, 6), (7.895, 2.3, 7), (7.945, 0.9, 6), (7.945, 0.9, 7), (7.945, 2.3, 6), (7.945, 2.3, 7)]
    }

    def Mesh "window_sill_3"
    {
        int[] faceVertexCounts = [3, 3, 3, 3, 3, 3, 3, 3, 3, 3, 3, 3]
        int[] faceVertexIndices = [1, 3, 0, 4, 1, 0, 0, 3, 2, 2, 4, 0, 1, 7, 3, 5, 1, 4, 5, 7, 1, 3, 7, 2, 6, 4, 2, 2, 7, 6, 6, 5, 4, 7, 5, 6]
        point3f[] points = [(7.75, 0.825, 5.95), (7.75, 0.825, 7.05), (7.75, 0.875, 5.95), (7.75, 0.875, 7.05), (7.95, 0.825, 5.95), (7.95, 0.825, 7.05), (7.95, 0.875, 5.95), (7.95, 0.875, 7.05)]
    }

    def Mesh "door"
    {
        int[] faceVertexCounts = [3, 3, 3, 3, 3, 3, 3, 3, 3, 3, 3, 3]
        int[] faceVertexIndices = [1, 3, 0, 4, 1, 0, 0, 3, 2, 2, 4, 0, 1, 7, 3, 5, 1, 4, 5, 7, 1, 3, 7, 2, 6, 4, 2, 2, 7, 6, 6, 5, 4, 7, 5, 6]
        point3f[] points = [(0.055, 0, 1.05), (0.055, 0, 1.95), (0.055, 2, 1.05), (0.055, 2, 1.95), (0.105, 0, 1.05), (0.105, 0, 1.95), (0.105, 2, 1.05), (0.105, 2, 1.95)]
    }

    def Mesh "desk_r0c0_top"
    {
        int[] faceVertexCounts = [3, 3, 3, 3, 3, 3, 3, 3, 3, 3, 3, 3]
        int[] faceVertexIndices = [1, 3, 0, 4, 1, 0, 0, 3, 2, 2, 4, 0, 1, 7, 3, 5, 1, 4, 5, 7, 1, 3, 7, 2, 6, 4, 2, 2, 7, 6, 6, 5, 4, 7, 5, 6]
        point3f[] points = [(1.3, 0.68, 2.775), (1.3, 0.68, 3.225), (1.3, 0.72, 2.775), (1.3, 0.72, 3.225), (1.9, 0.68, 2.775), (1.9, 0.68, 3.225), (1.9, 0.72, 2.775), (1.9, 0.72, 3.225)]
    }

    def Mesh "desk_r0c0_leg0"
    {
        int[] faceVertexCounts = [3, 3, 3, 3, 3, 3, 3, 3, 3, 3, 3, 3]
        int[] faceVertexIndices = [1, 3, 0, 4, 1, 0, 0, 3, 2, 2, 4, 0, 1, 7, 3, 5, 1, 4, 5, 7, 1, 3, 7, 2, 6, 4, 2, 2, 7, 6, 6, 5, 4, 7, 5, 6]
        point3f[] points = [(1.315, 0, 2.79), (1.315, 0, 2.82), (1.315, 0.7, 2.79), (1.315, 0.7, 2.82), (1.345, 0, 2.79), (1.345, 0, 2.82), (1.345, 0.7, 2.79), (1.345, 0.7, 2.82)]
    }

    def Mesh "desk_r0c0_leg1"
    {
        int[] faceVertexCounts = [3, 3, 3, 3, 3, 3, 3, 3, 3, 3, 3, 3]
        int[] faceVertexIndices = [1, 3, 0, 4, 1, 0, 0, 3, 2, 2, 4, 0, 1, 7, 3, 5, 1, 4, 5, 7, 1, 3, 7, 2, 6, 4, 2, 2, 7, 6, 6, 5, 4, 7, 5, 6]
        point3f[] points = [(1.855, 0, 2.79), (1.855, 0, 2.82), (1.855, 0.7, 2.79), (1.855, 0.7, 2.82), (1.885, 0, 2.79), (1.885, 0, 2.82), (1.885, 0.7, 2.79), (1.885, 0.7, 2.82)]
    }

    def Mesh "desk_r0c0_leg2"
    {
        int[] faceVertexCounts = [3, 3, 3, 3, 3, 3, 3, 3, 3, 3, 3, 3]
        int[] faceVertexIndices = [1, 3, 0, 4, 1, 0, 0, 3, 2, 2, 4, 0, 1, 7, 3, 5, 1, 4, 5, 7, 1, 3, 7, 2, 6, 4, 2, 2, 7, 6, 6, 5, 4, 7, 5, 6]
        point3f[] points = [(1.315, 0, 3.18), (1.315, 0, 3.21), (1.315, 0.7, 3.18), (1.315, 0.7, 3.21), (1.345, 0, 3.18), (1.345, 0, 3.21), (1.345, 0.7, 3.18), (1.345, 0.7, 3.21)]
    }

    def Mesh "desk_r0c0_leg3"
    {
        int[] faceVertexCounts = [3, 3, 3, 3, 3, 3, 3, 3, 3, 3, 3, 3]
        int[] faceVertexIndices = [1, 3, 0, 4, 1, 0, 0, 3, 2, 2, 4, 0, 1, 7, 3, 5, 1, 4, 5, 7, 1, 3, 7, 2, 6, 4, 2, 2, 7, 6, 6, 5, 4, 7, 5, 6]
        point3f[] points = [(1.855, 0, 3.18), (1.855, 0, 3.21), (1.855, 0.7, 3.18), (1.855, 0.7, 3.21), (1.885, 0, 3.18), (1.885, 0, 3.21), (1.885, 0.7, 3.18), (1.885, 0.7, 3.21)]
    }

    def Mesh "chair_r0c0_seat"
    {
        int[] faceVertexCounts = [3, 3, 3, 3, 3, 3, 3, 3, 3, 3, 3, 3]
        int[] faceVertexIndices = [1, 3, 0, 4, 1, 0, 0, 3, 2, 2, 4, 0, 1, 7, 3, 5, 1, 4, 5, 7, 1, 3, 7, 2, 6, 4, 2, 2, 7, 6, 6, 5, 4, 7, 5, 6]
        point3f[] points = [(1.4, 0.43, 3.2), (1.4, 0.43, 3.6), (1.4, 0.47, 3.2), (1.4, 0.47, 3.6), (1.8, 0.43, 3.2), (1.8, 0.43, 3.6), (1.8, 0.47, 3.2), (1.8, 0.47, 3.6)]
    }

    def Mesh "chair_r0c0_back"
    {
        int[] faceVertexCounts = [3, 3, 3, 3, 3, 3, 3, 3, 3, 3, 3, 3]
        int[] faceVertexIndices = [1, 3, 0, 4, 1, 0, 0, 3, 2, 2, 4, 0, 1, 7, 3, 5, 1, 4, 5, 7, 1, 3, 7, 2, 6, 4, 2, 2, 7, 6, 6, 5, 4, 7, 5, 6]
        point3f[] points = [(1.4, 0.45, 3.575), (1.4, 0.45, 3.625), (1.4, 0.85, 3.575), (1.4, 0.85, 3.625), (1.8, 0.45, 3.575), (1.8, 0.45, 3.625), (1.8, 0.85, 3.575), (1.8, 0.85, 3.625)]
    }

    def Mesh "desk_r0c1_top"
    {
        int[] faceVertexCounts = [3, 3, 3, 3, 3, 3, 3, 3, 3, 3, 3, 3]
        int[] faceVertexIndices = [1, 3, 0, 4, 1, 0, 0, 3, 2, 2, 4, 0, 1, 7, 3, 5, 1, 4, 5, 7, 1, 3, 7, 2, 6, 4, 2, 2, 7, 6, 6, 5, 4, 7, 5, 6]
        point3f[] points = [(2.9, 0.68, 2.775), (2.9, 0.68, 3.225), (2.9, 0.72, 2.775), (2.9, 0.72, 3.225), (3.5, 0.68, 2.775), (3.5, 0.68, 3.225), (3.5, 0.72, 2.775), (3.5, 0.72, 3.225)]
    }

    def Mesh "desk_r0c1_leg0"
    {
        int[] faceVertexCounts = [3, 3, 3, 3, 3, 3, 3, 3, 3, 3, 3, 3]
        int[] faceVertexIndices = [1, 3, 0, 4, 1, 0, 0, 3, 2, 2, 4, 0, 1, 7, 3, 5, 1, 4, 5, 7, 1, 3, 7, 2, 6, 4, 2, 2, 7, 6, 6, 5, 4, 7, 5, 6]
        point3f[] points = [(2.915, 0, 2.79), (2.915, 0, 2.82), (2.915, 0.7, 2.79), (2.915, 0.7, 2.82), (2.945, 0, 2.79), (2.945, 0, 2.82), (2.945, 0.7, 2.79), (2.945, 0.7, 2.82)]
    }

    def Mesh "desk_r0c1_leg1"
    {
        int[] faceVertexCounts = [3, 3, 3, 3, 3, 3, 3, 3, 3, 3, 3, 3]
        int[] faceVertexIndices = [1, 3, 0, 4, 1, 0, 0, 3, 2, 2, 4, 0, 1, 7, 3, 5, 1, 4, 5, 7, 1, 3, 7, 2, 6, 4, 2, 2, 7, 6, 6, 5, 4, 7, 5, 6]
        point3f[] points = [(3.455, 0, 2.79), (3.455, 0, 2.82), (3.455, 0.7, 2.79), (3.455, 0.7, 2.82), (3.485, 0, 2.79), (3.485, 0, 2.82), (3.485, 0.7, 2.79), (3.485, 0.7, 2.82)]
    }

    def Mesh "desk_r0c1_leg2"
    {
        int[] faceVertexCounts = [3, 3, 3, 3, 3, 3, 3, 3, 3, 3, 3, 3]
        int[] faceVertexIndices = [1, 3, 0, 4, 1, 0, 0, 3, 2, 2, 4, 0, 1, 7, 3, 5, 1, 4, 5, 7, 1, 3, 7, 2, 6, 4, 2, 2, 7, 6, 6, 5, 4, 7, 5, 6]
        point3f[] points = [(2.915, 0, 3.18), (2.915, 0, 3.21), (2.915, 0.7, 3.18), (2.915, 0.7, 3.21), (2.945, 0, 3.18), (2.945, 0, 3.21), (2.945, 0.7, 3.18), (2.945, 0.7, 3.21)]
    }

    def Mesh "desk_r0c1_leg3"
    {
        int[] faceVertexCounts = [3, 3, 3, 3, 3, 3, 3, 3, 3, 3, 3, 3]
        int[] faceVertexIndices = [1, 3, 0, 4, 1, 0, 0, 3, 2, 2, 4, 0, 1, 7, 3, 5, 1, 4, 5, 7, 1, 3, 7, 2, 6, 4, 2, 2, 7, 6, 6, 5, 4, 7, 5, 6]
        point3f[] points = [(3.455, 0, 3.18), (3.455, 0, 3.21), (3.455, 0.7, 3.18), (3.455, 0.7, 3.21), (3.485, 0, 3.18), (3.485, 0, 3.21), (3.485, 0.7, 3.18), (3.485, 0.7, 3.21)]
    }

    def Mesh "chair_r0c1_seat"
    {
        int[] faceVertexCounts = [3, 3, 3, 3, 3, 3, 3, 3, 3, 3, 3, 3]
        int[] faceVertexIndices = [1, 3, 0, 4, 1, 0, 0, 3, 2, 2, 4, 0, 1, 7, 3, 5, 1, 4, 5, 7, 1, 3, 7, 2, 6, 4, 2, 2, 7, 6, 6, 5, 4, 7, 5, 6]
        point3f[] points = [(3, 0.43, 3.2), (3, 0.43, 3.6), (3, 0.47, 3.2), (3, 0.47, 3.6), (3.4, 0.43, 3.2), (3.4, 0.43, 3.6), (3.4, 0.47, 3.2), (3.4, 0.47, 3.6)]
    }

    def Mesh "chair_r0c1_back"
    {
        int[] faceVertexCounts = [3, 3, 3, 3, 3, 3, 3, 3, 3, 3, 3, 3]
        int[] faceVertexIndices = [1, 3, 0, 4, 1, 0, 0, 3, 2, 2, 4, 0, 1, 7, 3, 5, 1, 4, 5, 7, 1, 3, 7, 2, 6, 4, 2, 2, 7, 6, 6, 5, 4, 7, 5, 6]
        point3f[] points = [(3, 0.45, 3.575), (3, 0.45, 3.625), (3, 0.85, 3.575), (3, 0.85, 3.625), (3.4, 0.45, 3.575), (3.4, 0.45, 3.625), (3.4, 0.85, 3.575), (3.4, 0.85, 3.625)]
    }

    def Mesh "desk_r0c2_top"
    {
        int[] faceVertexCounts = [3, 3, 3, 3, 3, 3, 3, 3, 3, 3, 3, 3]
        int[] faceVertexIndices = [1, 3, 0, 4, 1, 0, 0, 3, 2, 2, 4, 0, 1, 7, 3, 5, 1, 4, 5, 7, 1, 3, 7, 2, 6, 4, 2, 2, 7, 6, 6, 5, 4, 7, 5, 6]
        point3f[] points = [(4.5, 0.68, 2.775), (4.5, 0.68, 3.225), (4.5, 0.72, 2.775), (4.5, 0.72, 3.225), (5.1, 0.68, 2.775), (5.1, 0.68, 3.225), (5.1, 0.72, 2.775), (5.1, 0.72, 3.225)]
    }

    def Mesh "desk_r0c2_leg0"
    {
        int[] faceVertexCounts = [3, 3, 3, 3, 3, 3, 3, 3, 3, 3, 3, 3]
        int[] faceVertexIndices = [1, 3, 0, 4, 1, 0, 0, 3, 2, 2, 4, 0, 1, 7, 3, 5, 1, 4, 5, 7, 1, 3, 7, 2, 6, 4, 2, 2, 7, 6, 6, 5, 4, 7, 5, 6]
        point3f[] points = [(4.515, 0, 2.79), (4.515, 0, 2.82), (4.515, 0.7, 2.79), (4.515, 0.7, 2.82), (4.545, 0, 2.79), (4.545, 0, 2.82), (4.545, 0.7, 2.79), (4.545, 0.7, 2.82)]
    }

    def Mesh "desk_r0c2_leg1"
    {
        int[] faceVertexCounts = [3, 3, 3, 3, 3, 3, 3, 3, 3, 3, 3, 3]
        int[] faceVertexIndices = [1, 3, 0, 4, 1, 0, 0, 3, 2, 2, 4, 0, 1, 7, 3, 5, 1, 4, 5, 7, 1, 3, 7, 2, 6, 4, 2, 2, 7, 6, 6, 5, 4, 7, 5, 6]
        point3f[] points = [(5.055, 0, 2.79), (5.055, 0, 2.82), (5.055, 0.7, 2.79), (5.055, 0.7, 2.82), (5.085, 0, 2.79), (5.085, 0, 2.82), (5.085, 0.7, 2.79), (5.085, 0.7, 2.82)]
    }

    def Mesh "desk_r0c2_leg2"
    {
        int[] faceVertexCounts = [3, 3, 3, 3, 3, 3, 3, 3, 3, 3, 3, 3]
        int[] faceVertexIndices = [1, 3, 0, 4, 1, 0, 0, 3, 2, 2, 4, 0, 1, 7, 3, 5, 1, 4, 5, 7, 1, 3, 7, 2, 6, 4, 2, 2, 7, 6, 6, 5, 4, 7, 5, 6]
        point3f[] points = [(4.515, 0, 3.18), (4.515, 0, 3.21), (4.515, 0.7, 3.18), (4.515, 0.7, 3.21), (4.545, 0, 3.18), (4.545, 0, 3.21), (4.545, 0.7, 3.18), (4.545, 0.7, 3.21)]
    }

    def Mesh "desk_r0c2_leg3"
    {
        int[] faceVertexCounts = [3, 3, 3, 3, 3, 3, 3, 3, 3, 3, 3, 3]
        int[] faceVertexIndices = [1, 3, 0, 4, 1, 0, 0, 3, 2, 2, 4, 0, 1, 7, 3, 5, 1, 4, 5, 7, 1, 3, 7, 2, 6, 4, 2, 2, 7, 6, 6, 5, 4, 7, 5, 6]
        point3f[] points = [(5.055, 0, 3.18), (5.055, 0, 3.21), (5.055, 0.7, 3.18), (5.055, 0.7, 3.21), (5.085, 0, 3.18), (5.085, 0, 3.21), (5.085, 0.7, 3.18), (5.085, 0.7, 3.21)]
    }

    def Mesh "chair_r0c2_seat"
    {
        int[] faceVertexCounts = [3, 3, 3, 3, 3, 3, 3, 3, 3, 3, 3, 3]
        int[] faceVertexIndices = [1, 3, 0, 4, 1, 0, 0, 3, 2, 2, 4, 0, 1, 7, 3, 5, 1, 4, 5, 7, 1, 3, 7, 2, 6, 4, 2, 2, 7, 6, 6, 5, 4, 7, 5, 6]
        point3f[] points = [(4.6, 0.43, 3.2), (4.6, 0.43, 3.6), (4.6, 0.47, 3.2), (4.6, 0.47, 3.6), (5, 0.43, 3.2), (5, 0.43, 3.6), (5, 0.47, 3.2), (5, 0.47, 3.6)]
    }

    def Mesh "chair_r0c2_back"
    {
        int[] faceVertexCounts = [3, 3, 3, 3, 3, 3, 3, 3, 3, 3, 3, 3]
        int[] faceVertexIndices = [1, 3, 0, 4, 1, 0, 0, 3, 2, 2, 4, 0, 1, 7, 3, 5, 1, 4, 5, 7, 1, 3, 7, 2, 6, 4, 2, 2, 7, 6, 6, 5, 4, 7, 5, 6]
        point3f[] points = [(4.6, 0.45, 3.575), (4.6, 0.45, 3.625), (4.6, 0.85, 3.575), (4.6, 0.85, 3.625), (5, 0.45, 3.575), (5, 0.45, 3.625), (5, 0.85, 3.575), (5, 0.85, 3.625)]
    }

    def Mesh "desk_r0c3_top"
    {
        int[] faceVertexCounts = [3, 3, 3, 3, 3, 3, 3, 3, 3, 3, 3, 3]
        int[] faceVertexIndices = [1, 3, 0, 4, 1, 0, 0, 3, 2, 2, 4, 0, 1, 7, 3, 5, 1, 4, 5, 7, 1, 3, 7, 2, 6, 4, 2, 2, 7, 6, 6, 5, 4, 7, 5, 6]
        point3f[] points = [(6.1, 0.68, 2.775), (6.1, 0.68, 3.225), (6.1, 0.72, 2.775), (6.1, 0.72, 3.225), (6.7, 0.68, 2.775), (6.7, 0.68, 3.225), (6.7, 0.72, 2.775), (6.7, 0.72, 3.225)]
    }

    def Mesh "desk_r0c3_leg0"
    {
        int[] faceVertexCounts = [3, 3, 3, 3, 3, 3, 3, 3, 3, 3, 3, 3]
        int[] faceVertexIndices = [1, 3, 0, 4, 1, 0, 0, 3, 2, 2, 4, 0, 1, 7, 3, 5, 1, 4, 5, 7, 1, 3, 7, 2, 6, 4, 2, 2, 7, 6, 6, 5, 4, 7, 5, 6]
        point3f[] points = [(6.115, 0, 2.79), (6.115, 0, 2.82), (6.115, 0.7, 2.79), (6.115, 0.7, 2.82), (6.145, 0, 2.79), (6.145, 0, 2.82), (6.145, 0.7, 2.79), (6.145, 0.7, 2.82)]
    }

    def Mesh "desk_r0c3_leg1"
    {
        int[] faceVertexCounts = [3, 3, 3, 3, 3, 3, 3, 3, 3, 3, 3, 3]
        int[] faceVertexIndices = [1, 3, 0, 4, 1, 0, 0, 3, 2, 2, 4, 0, 1, 7, 3, 5, 1, 4, 5, 7, 1, 3, 7, 2, 6, 4, 2, 2, 7, 6, 6, 5, 4, 7, 5, 6]
        point3f[] points = [(6.655, 0, 2.79), (6.655, 0, 2.82), (6.655, 0.7, 2.79), (6.655, 0.7, 2.82), (6.685, 0, 2.79), (6.685, 0, 2.82), (6.685, 0.7, 2.79), (6.685, 0.7, 2.82)]
    }

    def Mesh "desk_r0c3_leg2"
    {
        int[] faceVertexCounts = [3, 3, 3, 3, 3, 3, 3, 3, 3, 3, 3, 3]
        int[] faceVertexIndices = [1, 3, 0, 4, 1, 0, 0, 3, 2, 2, 4, 0, 1, 7, 3, 5, 1, 4, 5, 7, 1, 3, 7, 2, 6, 4, 2, 2, 7, 6, 6, 5, 4, 7, 5, 6]
        point3f[] points = [(6.115, 0, 3.18), (6.115, 0, 3.21), (6.115, 0.7, 3.18), (6.115, 0.7, 3.21), (6.145, 0, 3.18), (6.145, 0, 3.21), (6.145, 0.7, 3.18), (6.145, 0.7, 3.21)]
    }

    def Mesh "desk_r0c3_leg3"
    {
        int[] faceVertexCounts = [3, 3, 3, 3, 3, 3, 3, 3, 3, 3, 3, 3]
        int[] faceVertexIndices = [1, 3, 0, 4, 1, 0, 0, 3, 2, 2, 4, 0, 1, 7, 3, 5, 1, 4, 5, 7, 1, 3, 7, 2, 6, 4, 2, 2, 7, 6, 6, 5, 4, 7, 5, 6]
        point3f[] points = [(6.655, 0, 3.18), (6.655, 0, 3.21), (6.655, 0.7, 3.18), (6.655, 0.7, 3.21), (6.685, 0, 3.18), (6.685, 0, 3.21), (6.685, 0.7, 3.18), (6.685, 0.7, 3.21)]
    }

    def Mesh "chair_r0c3_seat"
    {
        int[] faceVertexCounts = [3, 3, 3, 3, 3, 3, 3, 3, 3, 3, 3, 3]
        int[] faceVertexIndices = [1, 3, 0, 4, 1, 0, 0, 3, 2, 2, 4, 0, 1, 7, 3, 5, 1, 4, 5, 7, 1, 3, 7, 2, 6, 4, 2, 2, 7, 6, 6, 5, 4, 7, 5, 6]
        point3f[] points = [(6.2, 0.43, 3.2), (6.2, 0.43, 3.6), (6.2, 0.47, 3.2), (6.2, 0.47, 3.6), (6.6, 0.43, 3.2), (6.6, 0.43, 3.6), (6.6, 0.47, 3.2), (6.6, 0.47, 3.6)]
    }

    def Mesh "chair_r0c3_back"
    {
        int[] faceVertexCounts = [3, 3, 3, 3, 3, 3, 3, 3, 3, 3, 3, 3]
        int[] faceVertexIndices = [1, 3, 0, 4, 1, 0, 0, 3, 2, 2, 4, 0, 1, 7, 3, 5, 1, 4, 5, 7, 1, 3, 7, 2, 6, 4, 2, 2, 7, 6, 6, 5, 4, 7, 5, 6]
        point3f[] points = [(6.2, 0.45, 3.575), (6.2, 0.45, 3.625), (6.2, 0.85, 3.575), (6.2, 0.85, 3.625), (6.6, 0.45, 3.575), (6.6, 0.45, 3.625), (6.6, 0.85, 3.575), (6.6, 0.85, 3.625)]
    }

    def Mesh "desk_r1c0_top"
    {
        int[] faceVertexCounts = [3, 3, 3, 3, 3, 3, 3, 3, 3, 3, 3, 3]
        int[] faceVertexIndices = [1, 3, 0, 4, 1, 0, 0, 3, 2, 2, 4, 0, 1, 7, 3, 5, 1, 4, 5, 7, 1, 3, 7, 2, 6, 4, 2, 2, 7, 6, 6, 5, 4, 7, 5, 6]
        point3f[] points = [(1.3, 0.68, 3.875), (1.3, 0.68, 4.325), (1.3, 0.72, 3.875), (1.3, 0.72, 4.325), (1.9, 0.68, 3.875), (1.9, 0.68, 4.325), (1.9, 0.72, 3.875), (1.9, 0.72, 4.325)]
    }

    def Mesh "desk_r1c0_leg0"
    {
        int[] faceVertexCounts = [3, 3, 3, 3, 3, 3, 3, 3, 3, 3, 3, 3]
        int[] faceVertexIndices = [1, 3, 0, 4, 1, 0, 0, 3, 2, 2, 4, 0, 1, 7, 3, 5, 1, 4, 5, 7, 1, 3, 7, 2, 6, 4, 2, 2, 7, 6, 6, 5, 4, 7, 5, 6]
        point3f[] points = [(1.315, 0, 3.89), (1.315, 0, 3.92), (1.315, 0.7, 3.89), (1.315, 0.7, 3.92), (1.345, 0, 3.89), (1.345, 0, 3.92), (1.345, 0.7, 3.89), (1.345, 0.7, 3.92)]
    }

    def Mesh "desk_r1c0_leg1"
    {
        int[] faceVertexCounts = [3, 3, 3, 3, 3, 3, 3, 3, 3, 3, 3, 3]
        int[] faceVertexIndices = [1, 3, 0, 4, 1, 0, 0, 3, 2, 2, 4, 0, 1, 7, 3, 5, 1, 4, 5, 7, 1, 3, 7, 2, 6, 4, 2, 2, 7, 6, 6, 5, 4, 7, 5, 6]
        point3f[] points = [(1.855, 0, 3.89), (1.855, 0, 3.92), (1.855, 0.7, 3.89), (1.855, 0.7, 3.92), (1.885, 0, 3.89), (1.885, 0, 3.92), (1.885, 0.7, 3.89), (1.885, 0.7, 3.92)]
    }

    def Mesh "desk_r1c0_leg2"
    {
        int[] faceVertexCounts = [3, 3, 3, 3, 3, 3, 3, 3, 3, 3, 3, 3]
        int[] faceVertexIndices = [1, 3, 0, 4, 1, 0, 0, 3, 2, 2, 4, 0, 1, 7, 3, 5, 1, 4, 5, 7, 1, 3, 7, 2, 6, 4, 2, 2, 7, 6, 6, 5, 4, 7, 5, 6]
        point3f[] points = [(1.315, 0, 4.28), (1.315, 0, 4.31), (1.315, 0.7, 4.28), (1.315, 0.7, 4.31), (1.345, 0, 4.28), (1.345, 0, 4.31), (1.345, 0.7, 4.28), (1.345, 0.7, 4.31)]
    }

    def Mesh "desk_r1c0_leg3"
    {
        int[] faceVertexCounts = [3, 3, 3, 3, 3, 3, 3, 3, 3, 3, 3, 3]
        int[] faceVertexIndices = [1, 3, 0, 4, 1, 0, 0, 3, 2, 2, 4, 0, 1, 7, 3, 5, 1, 4, 5, 7, 1, 3, 7, 2, 6, 4, 2, 2, 7, 6, 6, 5, 4, 7, 5, 6]
        point3f[] points = [(1.855, 0, 4.28), (1.855, 0, 4.31), (1.855, 0.7, 4.28), (1.855, 0.7, 4.31), (1.885, 0, 4.28), (1.885, 0, 4.31), (1.885, 0.7, 4.28), (1.885, 0.7, 4.31)]
    }

    def Mesh "chair_r1c0_seat"
    {
        int[] faceVertexCounts = [3, 3, 3, 3, 3, 3, 3, 3, 3, 3, 3, 3]
        int[] faceVertexIndices = [1, 3, 0, 4, 1, 0, 0, 3, 2, 2, 4, 0, 1, 7, 3, 5, 1, 4, 5, 7, 1, 3, 7, 2, 6, 4, 2, 2, 7, 6, 6, 5, 4, 7, 5, 6]
        point3f[] points = [(1.4, 0.43, 4.3), (1.4, 0.43, 4.7), (1.4, 0.47, 4.3), (1.4, 0.47, 4.7), (1.8, 0.43, 4.3), (1.8, 0.43, 4.7), (1.8, 0.47, 4.3), (1.8, 0.47, 4.7)]
    }

    def Mesh "chair_r1c0_back"
    {
        int[] faceVertexCounts = [3, 3, 3, 3, 3, 3, 3, 3, 3, 3, 3, 3]
        int[] faceVertexIndices = [1, 3, 0, 4, 1, 0, 0, 3, 2, 2, 4, 0, 1, 7, 3, 5, 1, 4, 5, 7, 1, 3, 7, 2, 6, 4, 2, 2, 7, 6, 6, 5, 4, 7, 5, 6]
        point3f[] points = [(1.4, 0.45, 4.675), (1.4, 0.45, 4.725), (1.4, 0.85, 4.675), (1.4, 0.85, 4.725), (1.8, 0.45, 4.675), (1.8, 0.45, 4.725), (1.8, 0.85, 4.675), (1.8, 0.85, 4.725)]
    }

    def Mesh "desk_r1c1_top"
    {
        int[] faceVertexCounts = [3, 3, 3, 3, 3, 3, 3, 3, 3, 3, 3, 3]
        int[] faceVertexIndices = [1, 3, 0, 4, 1, 0, 0, 3, 2, 2, 4, 0, 1, 7, 3, 5, 1, 4, 5, 7, 1, 3, 7, 2, 6, 4, 2, 2, 7, 6, 6, 5, 4, 7, 5, 6]
        point3f[] points = [(2.9, 0.68, 3.875), (2.9, 0.68, 4.325), (2.9, 0.72, 3.875), (2.9, 0.72, 4.325), (3.5, 0.68, 3.875), (3.5, 0.68, 4.325), (3.5, 0.72, 3.875), (3.5, 0.72, 4.325)]
    }

    def Mesh "desk_r1c1_leg0"
    {
        int[] faceVertexCounts = [3, 3, 3, 3, 3, 3, 3, 3, 3, 3, 3, 3]
        int[] faceVertexIndices = [1, 3, 0, 4, 1, 0, 0, 3, 2, 2, 4, 0, 1, 7, 3, 5, 1, 4, 5, 7, 1, 3, 7, 2, 6, 4, 2, 2, 7, 6, 6, 5, 4, 7, 5, 6]
        point3f[] points = [(2.915, 0, 3.89), (2.915, 0, 3.92), (2.915, 0.7, 3.89), (2.915, 0.7, 3.92), (2.945, 0, 3.89), (2.945, 0, 3.92), (2.945, 0.7, 3.89), (2.945, 0.7, 3.92)]
    }

    def Mesh "desk_r1c1_leg1"
    {
        int[] faceVertexCounts = [3, 3, 3, 3, 3, 3, 3, 3, 3, 3, 3, 3]
        int[] faceVertexIndices = [1, 3, 0, 4, 1, 0, 0, 3, 2, 2, 4, 0, 1, 7, 3, 5, 1, 4, 5, 7, 1, 3, 7, 2, 6, 4, 2, 2, 7, 6, 6, 5, 4, 7, 5, 6]
        point3f[] points = [(3.455, 0, 3.89), (3.455, 0, 3.92), (3.455, 0.7, 3.89), (3.455, 0.7, 3.92), (3.485, 0, 3.89), (3.485, 0, 3.92), (3.485, 0.7, 3.89), (3.485, 0.7, 3.92)]
    }

    def Mesh "desk_r1c1_leg2"
    {
        int[] faceVertexCounts = [3, 3, 3, 3, 3, 3, 3, 3, 3, 3, 3, 3]
        int[] faceVertexIndices = [1, 3, 0, 4, 1, 0, 0, 3, 2, 2, 4, 0, 1, 7, 3, 5, 1, 4, 5, 7, 1, 3, 7, 2, 6, 4, 2, 2, 7, 6, 6, 5, 4, 7, 5, 6]
        point3f[] points = [(2.915, 0, 4.28), (2.915, 0, 4.31), (2.915, 0.7, 4.28), (2.915, 0.7, 4.31), (2.945, 0, 4.28), (2.945, 0, 4.31), (2.945, 0.7, 4.28), (2.945, 0.7, 4.31)]
    }

    def Mesh "desk_r1c1_leg3"
    {
        int[] faceVertexCounts = [3, 3, 3, 3, 3, 3, 3, 3, 3, 3, 3, 3]
        int[] faceVertexIndices = [1, 3, 0, 4, 1, 0, 0, 3, 2, 2, 4, 0, 1, 7, 3, 5, 1, 4, 5, 7, 1, 3, 7, 2, 6, 4, 2, 2, 7, 6, 6, 5, 4, 7, 5, 6]
        point3f[] points = [(3.455, 0, 4.28), (3.455, 0, 4.31), (3.455, 0.7, 4.28), (3.455, 0.7, 4.31), (3.485, 0, 4.28), (3.485, 0, 4.31), (3.485, 0.7, 4.28), (3.485, 0.7, 4.31)]
    }

    def Mesh "chair_r1c1_seat"
    {
        int[] faceVertexCounts = [3, 3, 3, 3, 3, 3, 3, 3, 3, 3, 3, 3]
        int[] faceVertexIndices = [1, 3, 0, 4, 1, 0, 0, 3, 2, 2, 4, 0, 1, 7, 3, 5, 1, 4, 5, 7, 1, 3, 7, 2, 6, 4, 2, 2, 7, 6, 6, 5, 4, 7, 5, 6]
        point3f[] points = [(3, 0.43, 4.3), (3, 0.43, 4.7), (3, 0.47, 4.3), (3, 0.47, 4.7), (3.4, 0.43, 4.3), (3.4, 0.43, 4.7), (3.4, 0.47, 4.3), (3.4, 0.47, 4.7)]
    }

    def Mesh "chair_r1c1_back"
    {
        int[] faceVertexCounts = [3, 3, 3, 3, 3, 3, 3, 3, 3, 3, 3, 3]
        int[] faceVertexIndices = [1, 3, 0, 4, 1, 0, 0, 3, 2, 2, 4, 0, 1, 7, 3, 5, 1, 4, 5, 7, 1, 3, 7, 2, 6, 4, 2, 2, 7, 6, 6, 5, 4, 7, 5, 6]
        point3f[] points = [(3, 0.45, 4.675), (3, 0.45, 4.725), (3, 0.85, 4.675), (3, 0.85, 4.725), (3.4, 0.45, 4.675), (3.4, 0.45, 4.725), (3.4, 0.85, 4.675), (3.4, 0.85, 4.725)]
    }

    def Mesh "desk_r1c2_top"
    {
        int[] faceVertexCounts = [3, 3, 3, 3, 3, 3, 3, 3, 3, 3, 3, 3]
        int[] faceVertexIndices = [1, 3, 0, 4, 1, 0, 0, 3, 2, 2, 4, 0, 1, 7, 3, 5, 1, 4, 5, 7, 1, 3, 7, 2, 6, 4, 2, 2, 7, 6, 6, 5, 4, 7, 5, 6]
        point3f[] points = [(4.5, 0.68, 3.875), (4.5, 0.68, 4.325), (4.5, 0.72, 3.875), (4.5, 0.72, 4.325), (5.1, 0.68, 3.875), (5.1, 0.68, 4.325), (5.1, 0.72, 3.875), (5.1, 0.72, 4.325)]
    }

    def Mesh "desk_r1c2_leg0"
    {
        int[] faceVertexCounts = [3, 3, 3, 3, 3, 3, 3, 3, 3, 3, 3, 3]
        int[] faceVertexIndices = [1, 3, 0, 4, 1, 0, 0, 3, 2, 2, 4, 0, 1, 7, 3, 5, 1, 4, 5, 7, 1, 3, 7, 2, 6, 4, 2, 2, 7, 6, 6, 5, 4, 7, 5, 6]
        point3f[] points = [(4.515, 0, 3.89), (4.515, 0, 3.92), (4.515, 0.7, 3.89), (4.515, 0.7, 3.92), (4.545, 0, 3.89), (4.545, 0, 3.92), (4.545, 0.7, 3.89), (4.545, 0.7, 3.92)]
    }

    def Mesh "desk_r1c2_leg1"
    {
        int[] faceVertexCounts = [3, 3, 3, 3, 3, 3, 3, 3, 3, 3, 3, 3]
        int[] faceVertexIndices = [1, 3, 0, 4, 1, 0, 0, 3, 2, 2, 4, 0, 1, 7, 3, 5, 1, 4, 5, 7, 1, 3, 7, 2, 6, 4, 2, 2, 7, 6, 6, 5, 4, 7, 5, 6]
        point3f[] points = [(5.055, 0, 3.89), (5.055, 0, 3.92), (5.055, 0.7, 3.89), (5.055, 0.7, 3.92), (5.085, 0, 3.89), (5.085, 0, 3.92), (5.085, 0.7, 3.89), (5.085, 0.7, 3.92)]
    }

    def Mesh "desk_r1c2_leg2"
    {
        int[] faceVertexCounts = [3, 3, 3, 3, 3, 3, 3, 3, 3, 3, 3, 3]
        int[] faceVertexIndices = [1, 3, 0, 4, 1, 0, 0, 3, 2, 2, 4, 0, 1, 7, 3, 5, 1, 4, 5, 7, 1, 3, 7, 2, 6, 4, 2, 2, 7, 6, 6, 5, 4, 7, 5, 6]
        point3f[] points = [(4.515, 0, 4.28), (4.515, 0, 4.31), (4.515, 0.7, 4.28), (4.515, 0.7, 4.31), (4.545, 0, 4.28), (4.545, 0, 4.31), (4.545, 0.7, 4.28), (4.545, 0.7, 4.31)]
    }

    def Mesh "desk_r1c2_leg3"
    {
        int[] faceVertexCounts = [3, 3, 3, 3, 3, 3, 3, 3, 3, 3, 3, 3]
        int[] faceVertexIndices = [1, 3, 0, 4, 1, 0, 0, 3, 2, 2, 4, 0, 1, 7, 3, 5, 1, 4, 5, 7, 1, 3, 7, 2, 6, 4, 2, 2, 7, 6, 6, 5, 4, 7, 5, 6]
        point3f[] points = [(5.055, 0, 4.28), (5.055, 0, 4.31), (5.055, 0.7, 4.28), (5.055, 0.7, 4.31), (5.085, 0, 4.28), (5.085, 0, 4.31), (5.085, 0.7, 4.28), (5.085, 0.7, 4.31)]
    }

    def Mesh "chair_r1c2_seat"
    {
        int[] faceVertexCounts = [3, 3, 3, 3, 3, 3, 3, 3, 3, 3, 3, 3]
        int[] faceVertexIndices = [1, 3, 0, 4, 1, 0, 0, 3, 2, 2, 4, 0, 1, 7, 3, 5, 1, 4, 5, 7, 1, 3, 7, 2, 6, 4, 2, 2, 7, 6, 6, 5, 4, 7, 5, 6]
        point3f[] points = [(4.6, 0.43, 4.3), (4.6, 0.43, 4.7), (4.6, 0.47, 4.3), (4.6, 0.47, 4.7), (5, 0.43, 4.3), (5, 0.43, 4.7), (5, 0.47, 4.3), (5, 0.47, 4.7)]
    }

    def Mesh "chair_r1c2_back"
    {
        int[] faceVertexCounts = [3, 3, 3, 3, 3, 3, 3, 3, 3, 3, 3, 3]
        int[] faceVertexIndices = [1, 3, 0, 4, 1, 0, 0, 3, 2, 2, 4, 0, 1, 7, 3, 5, 1, 4, 5, 7, 1, 3, 7, 2, 6, 4, 2, 2, 7, 6, 6, 5, 4, 7, 5, 6]
        point3f[] points = [(4.6, 0.45, 4.675), (4.6, 0.45, 4.725), (4.6, 0.85, 4.675), (4.6, 0.85, 4.725), (5, 0.45, 4.675), (5, 0.45, 4.725), (5, 0.85, 4.675), (5, 0.85, 4.725)]
    }

    def Mesh "desk_r1c3_top"
    {
        int[] faceVertexCounts = [3, 3, 3, 3, 3, 3, 3, 3, 3, 3, 3, 3]
        int[] faceVertexIndices = [1, 3, 0, 4, 1, 0, 0, 3, 2, 2, 4, 0, 1, 7, 3, 5, 1, 4, 5, 7, 1, 3, 7, 2, 6, 4, 2, 2, 7, 6, 6, 5, 4, 7, 5, 6]
        point3f[] points = [(6.1, 0.68, 3.875), (6.1, 0.68, 4.325), (6.1, 0.72, 3.875), (6.1, 0.72, 4.325), (6.7, 0.68, 3.875), (6.7, 0.68, 4.325), (6.7, 0.72, 3.875), (6.7, 0.72, 4.325)]
    }

    def Mesh "desk_r1c3_leg0"
    {
        int[] faceVertexCounts = [3, 3, 3, 3, 3, 3, 3, 3, 3, 3, 3, 3]
        int[] faceVertexIndices = [1, 3, 0, 4, 1, 0, 0, 3, 2, 2, 4, 0, 1, 7, 3, 5, 1, 4, 5, 7, 1, 3, 7, 2, 6, 4, 2, 2, 7, 6, 6, 5, 4, 7, 5, 6]
        point3f[] points = [(6.115, 0, 3.89), (6.115, 0, 3.92), (6.115, 0.7, 3.89), (6.115, 0.7, 3.92), (6.145, 0, 3.89), (6.145, 0, 3.92), (6.145, 0.7, 3.89), (6.145, 0.7, 3.92)]
    }

    def Mesh "desk_r1c3_leg1"
    {
        int[] faceVertexCounts = [3, 3, 3, 3, 3, 3, 3, 3, 3, 3, 3, 3]
        int[] faceVertexIndices = [1, 3, 0, 4, 1, 0, 0, 3, 2, 2, 4, 0, 1, 7, 3, 5, 1, 4, 5, 7, 1, 3, 7, 2, 6, 4, 2, 2, 7, 6, 6, 5, 4, 7, 5, 6]
        point3f[] points = [(6.655, 0, 3.89), (6.655, 0, 3.92), (6.655, 0.7, 3.89), (6.655, 0.7, 3.92), (6.685, 0, 3.89), (6.685, 0, 3.92), (6.685, 0.7, 3.89), (6.685, 0.7, 3.92)]
    }

    def Mesh "desk_r1c3_leg2"
    {
        int[] faceVertexCounts = [3, 3, 3, 3, 3, 3, 3, 3, 3, 3, 3, 3]
        int[] faceVertexIndices = [1, 3, 0, 4, 1, 0, 0, 3, 2, 2, 4, 0, 1, 7, 3, 5, 1, 4, 5, 7, 1, 3, 7, 2, 6, 4, 2, 2, 7, 6, 6, 5, 4, 7, 5, 6]
        point3f[] points = [(6.115, 0, 4.28), (6.115, 0, 4.31), (6.115, 0.7, 4.28), (6.115, 0.7, 4.31), (6.145, 0, 4.28), (6.145, 0, 4.31), (6.145, 0.7, 4.28), (6.145, 0.7, 4.31)]
    }

    def Mesh "desk_r1c3_leg3"
    {
        int[] faceVertexCounts = [3, 3, 3, 3, 3, 3, 3, 3, 3, 3, 3, 3]
        int[] faceVertexIndices = [1, 3, 0, 4, 1, 0, 0, 3, 2, 2, 4, 0, 1, 7, 3, 5, 1, 4, 5, 7, 1, 3, 7, 2, 6, 4, 2, 2, 7, 6, 6, 5, 4, 7, 5, 6]
        point3f[] points = [(6.655, 0, 4.28), (6.655, 0, 4.31), (6.655, 0.7, 4.28), (6.655, 0.7, 4.31), (6.685, 0, 4.28), (6.685, 0, 4.31), (6.685, 0.7, 4.28), (6.685, 0.7, 4.31)]
    }

    def Mesh "chair_r1c3_seat"
    {
        int[] faceVertexCounts = [3, 3, 3, 3, 3, 3, 3, 3, 3, 3, 3, 3]
        int[] faceVertexIndices = [1, 3, 0, 4, 1, 0, 0, 3, 2, 2, 4, 0, 1, 7, 3, 5, 1, 4, 5, 7, 1, 3, 7, 2, 6, 4, 2, 2, 7, 6, 6, 5, 4, 7, 5, 6]
        point3f[] points = [(6.2, 0.43, 4.3), (6.2, 0.43, 4.7), (6.2, 0.47, 4.3), (6.2, 0.47, 4.7), (6.6, 0.43, 4.3), (6.6, 0.43, 4.7), (6.6, 0.47, 4.3), (6.6, 0.47, 4.7)]
    }

    def Mesh "chair_r1c3_back"
    {
        int[] faceVertexCounts = [3, 3, 3, 3, 3, 3, 3, 3, 3, 3, 3, 3]
        int[] faceVertexIndices = [1, 3, 0, 4, 1, 0, 0, 3, 2, 2, 4, 0, 1, 7, 3, 5, 1, 4, 5, 7, 1, 3, 7, 2, 6, 4, 2, 2, 7, 6, 6, 5, 4, 7, 5, 6]
        point3f[] points = [(6.2, 0.45, 4.675), (6.2, 0.45, 4.725), (6.2, 0.85, 4.675), (6.2, 0.85, 4.725), (6.6, 0.45, 4.675), (6.6, 0.45, 4.725), (6.6, 0.85, 4.675), (6.6, 0.85, 4.725)]
    }

    def Mesh "desk_r2c0_top"
    {
        int[] faceVertexCounts = [3, 3, 3, 3, 3, 3, 3, 3, 3, 3, 3, 3]
        int[] faceVertexIndices = [1, 3, 0, 4, 1, 0, 0, 3, 2, 2, 4, 0, 1, 7, 3, 5, 1, 4, 5, 7, 1, 3, 7, 2, 6, 4, 2, 2, 7, 6, 6, 5, 4, 7, 5, 6]
        point3f[] points = [(1.3, 0.68, 4.975), (1.3, 0.68, 5.425), (1.3, 0.72, 4.975), (1.3, 0.72, 5.425), (1.9, 0.68, 4.975), (1.9, 0.68, 5.425), (1.9, 0.72, 4.975), (1.9, 0.72, 5.425)]
    }

    def Mesh "desk_r2c0_leg0"
    {
        int[] faceVertexCounts = [3, 3, 3, 3, 3, 3, 3, 3, 3, 3, 3, 3]
        int[] faceVertexIndices = [1, 3, 0, 4, 1, 0, 0, 3, 2, 2, 4, 0, 1, 7, 3, 5, 1, 4, 5, 7, 1, 3, 7, 2, 6, 4, 2, 2, 7, 6, 6, 5, 4, 7, 5, 6]
        point3f[] points = [(1.315, 0, 4.99), (1.315, 0, 5.02), (1.315, 0.7, 4.99), (1.315, 0.7, 5.02), (1.345, 0, 4.99), (1.345, 0, 5.02), (1.345, 0.7, 4.99), (1.345, 0.7, 5.02)]
    }

    def Mesh "desk_r2c0_leg1"
    {
        int[] faceVertexCounts = [3, 3, 3, 3, 3, 3, 3, 3, 3, 3, 3, 3]
        int[] faceVertexIndices = [1, 3, 0, 4, 1, 0, 0, 3, 2, 2, 4, 0, 1, 7, 3, 5, 1, 4, 5, 7, 1, 3, 7, 2, 6, 4, 2, 2, 7, 6, 6, 5, 4, 7, 5, 6]
        point3f[] points = [(1.855, 0, 4.99), (1.855, 0, 5.02), (1.855, 0.7, 4.99), (1.855, 0.7, 5.02), (1.885, 0, 4.99), (1.885, 0, 5.02), (1.885, 0.7, 4.99), (1.885, 0.7, 5.02)]
    }

    def Mesh "desk_r2c0_leg2"
    {
        int[] faceVertexCounts = [3, 3, 3, 3, 3, 3, 3, 3, 3, 3, 3, 3]
        int[] faceVertexIndices = [1, 3, 0, 4, 1, 0, 0, 3, 2, 2, 4, 0, 1, 7, 3, 5, 1, 4, 5, 7, 1, 3, 7, 2, 6, 4, 2, 2, 7, 6, 6, 5, 4, 7, 5, 6]
        point3f[] points = [(1.315, 0, 5.38), (1.315, 0, 5.41), (1.315, 0.7, 5.38), (1.315, 0.7, 5.41), (1.345, 0, 5.38), (1.345, 0, 5.41), (1.345, 0.7, 5.38), (1.345, 0.7, 5.41)]
    }

    def Mesh "desk_r2c0_leg3"
    {
        int[] faceVertexCounts = [3, 3, 3, 3, 3, 3, 3, 3, 3, 3, 3, 3]
        int[] faceVertexIndices = [1, 3, 0, 4, 1, 0, 0, 3, 2, 2, 4, 0, 1, 7, 3, 5, 1, 4, 5, 7, 1, 3, 7, 2, 6, 4, 2, 2, 7, 6, 6, 5, 4, 7, 5, 6]
        point3f[] points = [(1.855, 0, 5.38), (1.855, 0, 5.41), (1.855, 0.7, 5.38), (1.855, 0.7, 5.41), (1.885, 0, 5.38), (1.885, 0, 5.41), (1.885, 0.7, 5.38), (1.885, 0.7, 5.41)]
    }

    def Mesh "chair_r2c0_seat"
    {
        int[] faceVertexCounts = [3, 3, 3, 3, 3, 3, 3, 3, 3, 3, 3, 3]
        int[] faceVertexIndices = [1, 3, 0, 4, 1, 0, 0, 3, 2, 2, 4, 0, 1, 7, 3, 5, 1, 4, 5, 7, 1, 3, 7, 2, 6, 4, 2, 2, 7, 6, 6, 5, 4, 7, 5, 6]
        point3f[] points = [(1.4, 0.43, 5.4), (1.4, 0.43, 5.8), (1.4, 0.47, 5.4), (1.4, 0.47, 5.8), (1.8, 0.43, 5.4), (1.8, 0.43, 5.8), (1.8, 0.47, 5.4), (1.8, 0.47, 5.8)]
    }

    def Mesh "chair_r2c0_back"
    {
        int[] faceVertexCounts = [3, 3, 3, 3, 3, 3, 3, 3, 3, 3, 3, 3]
        int[] faceVertexIndices = [1, 3, 0, 4, 1, 0, 0, 3, 2, 2, 4, 0, 1, 7, 3, 5, 1, 4, 5, 7, 1, 3, 7, 2, 6, 4, 2, 2, 7, 6, 6, 5, 4, 7, 5, 6]
        point3f[] points = [(1.4, 0.45, 5.775), (1.4, 0.45, 5.825), (1.4, 0.85, 5.775), (1.4, 0.85, 5.825), (1.8, 0.45, 5.775), (1.8, 0.45, 5.825), (1.8, 0.85, 5.775), (1.8, 0.85, 5.825)]
    }

    def Mesh "desk_r2c1_top"
    {
        int[] faceVertexCounts = [3, 3, 3, 3, 3, 3, 3, 3, 3, 3, 3, 3]
        int[] faceVertexIndices = [1, 3, 0, 4, 1, 0, 0, 3, 2, 2, 4, 0, 1, 7, 3, 5, 1, 4, 5, 7, 1, 3, 7, 2, 6, 4, 2, 2, 7, 6, 6, 5, 4, 7, 5, 6]
        point3f[] points = [(2.9, 0.68, 4.975), (2.9, 0.68, 5.425), (2.9, 0.72, 4.975), (2.9, 0.72, 5.425), (3.5, 0.68, 4.975), (3.5, 0.68, 5.425), (3.5, 0.72, 4.975), (3.5, 0.72, 5.425)]
    }

    def Mesh "desk_r2c1_leg0"
    {
        int[] faceVertexCounts = [3, 3, 3, 3, 3, 3, 3, 3, 3, 3, 3, 3]
        int[] faceVertexIndices = [1, 3, 0, 4, 1, 0, 0, 3, 2, 2, 4, 0, 1, 7, 3, 5, 1, 4, 5, 7, 1, 3, 7, 2, 6, 4, 2, 2, 7, 6, 6, 5, 4, 7, 5, 6]
        point3f[] points = [(2.915, 0, 4.99), (2.915, 0, 5.02), (2.915, 0.7, 4.99), (2.915, 0.7, 5.02), (2.945, 0, 4.99), (2.945, 0, 5.02), (2.945, 0.7, 4.99), (2.945, 0.7, 5.02)]
    }

    def Mesh "desk_r2c1_leg1"
    {
        int[] faceVertexCounts = [3, 3, 3, 3, 3, 3, 3, 3, 3, 3, 3, 3]
        int[] faceVertexIndices = [1, 3, 0, 4, 1, 0, 0, 3, 2, 2, 4, 0, 1, 7, 3, 5, 1, 4, 5, 7, 1, 3, 7, 2, 6, 4, 2, 2, 7, 6, 6, 5, 4, 7, 5, 6]
        point3f[] points = [(3.455, 0, 4.99), (3.455, 0, 5.02), (3.455, 0.7, 4.99), (3.455, 0.7, 5.02), (3.485, 0, 4.99), (3.485, 0, 5.02), (3.485, 0.7, 4.99), (3.485, 0.7, 5.02)]
    }

    def Mesh "desk_r2c1_leg2"
    {
        int[] faceVertexCounts = [3, 3, 3, 3, 3, 3, 3, 3, 3, 3, 3, 3]
        int[] faceVertexIndices = [1, 3, 0, 4, 1, 0, 0, 3, 2, 2, 4, 0, 1, 7, 3, 5, 1, 4, 5, 7, 1, 3, 7, 2, 6, 4, 2, 2, 7, 6, 6, 5, 4, 7, 5, 6]
        point3f[] points = [(2.915, 0, 5.38), (2.915, 0, 5.41), (2.915, 0.7, 5.38), (2.915, 0.7, 5.41), (2.945, 0, 5.38), (2.945, 0, 5.41), (2.945, 0.7, 5.38), (2.945, 0.7, 5.41)]
    }

    def Mesh "desk_r2c1_leg3"
    {
        int[] faceVertexCounts = [3, 3, 3, 3, 3, 3, 3, 3, 3, 3, 3, 3]
        int[] faceVertexIndices = [1, 3, 0, 4, 1, 0, 0, 3, 2, 2, 4, 0, 1, 7, 3, 5, 1, 4, 5, 7, 1, 3, 7, 2, 6, 4, 2, 2, 7, 6, 6, 5, 4, 7, 5, 6]
        point3f[] points = [(3.455, 0, 5.38), (3.455, 0, 5.41), (3.455, 0.7, 5.38), (3.455, 0.7, 5.41), (3.485, 0, 5.38), (3.485, 0, 5.41), (3.485, 0.7, 5.38), (3.485, 0.7, 5.41)]
    }

    def Mesh "chair_r2c1_seat"
    {
        int[] faceVertexCounts = [3, 3, 3, 3, 3, 3, 3, 3, 3, 3, 3, 3]
        int[] faceVertexIndices = [1, 3, 0, 4, 1, 0, 0, 3, 2, 2, 4, 0, 1, 7, 3, 5, 1, 4, 5, 7, 1, 3, 7, 2, 6, 4, 2, 2, 7, 6, 6, 5, 4, 7, 5, 6]
        point3f[] points = [(3, 0.43, 5.4), (3, 0.43, 5.8), (3, 0.47, 5.4), (3, 0.47, 5.8), (3.4, 0.43, 5.4), (3.4, 0.43, 5.8), (3.4, 0.47, 5.4), (3.4, 0.47, 5.8)]
    }

    def Mesh "chair_r2c1_back"
    {
        int[] faceVertexCounts = [3, 3, 3, 3, 3, 3, 3, 3, 3, 3, 3, 3]
        int[] faceVertexIndices = [1, 3, 0, 4, 1, 0, 0, 3, 2, 2, 4, 0, 1, 7, 3, 5, 1, 4, 5, 7, 1, 3, 7, 2, 6, 4, 2, 2, 7, 6, 6, 5, 4, 7, 5, 6]
        point3f[] points = [(3, 0.45, 5.775), (3, 0.45, 5.825), (3, 0.85, 5.775), (3, 0.85, 5.825), (3.4, 0.45, 5.775), (3.4, 0.45, 5.825), (3.4, 0.85, 5.775), (3.4, 0.85, 5.825)]
    }

    def Mesh "desk_r2c2_top"
    {
        int[] faceVertexCounts = [3, 3, 3, 3, 3, 3, 3, 3, 3, 3, 3, 3]
        int[] faceVertexIndices = [1, 3, 0, 4, 1, 0, 0, 3, 2, 2, 4, 0, 1, 7, 3, 5, 1, 4, 5, 7, 1, 3, 7, 2, 6, 4, 2, 2, 7, 6, 6, 5, 4, 7, 5, 6]
        point3f[] points = [(4.5, 0.68, 4.975), (4.5, 0.68, 5.425), (4.5, 0.72, 4.975), (4.5, 0.72, 5.425), (5.1, 0.68, 4.975), (5.1, 0.68, 5.425), (5.1, 0.72, 4.975), (5.1, 0.72, 5.425)]
    }

    def Mesh "desk_r2c2_leg0"
    {
        int[] faceVertexCounts = [3, 3, 3, 3, 3, 3, 3, 3, 3, 3, 3, 3]
        int[] faceVertexIndices = [1, 3, 0, 4, 1, 0, 0, 3, 2, 2, 4, 0, 1, 7, 3, 5, 1, 4, 5, 7, 1, 3, 7, 2, 6, 4, 2, 2, 7, 6, 6, 5, 4, 7, 5, 6]
        point3f[] points = [(4.515, 0, 4.99), (4.515, 0, 5.02), (4.515, 0.7, 4.99), (4.515, 0.7, 5.02), (4.545, 0, 4.99), (4.545, 0, 5.02), (4.545, 0.7, 4.99), (4.545, 0.7, 5.02)]
    }

    def Mesh "desk_r2c2_leg1"
    {
        int[] faceVertexCounts = [3, 3, 3, 3, 3, 3, 3, 3, 3, 3, 3, 3]
        int[] faceVertexIndices = [1, 3, 0, 4, 1, 0, 0, 3, 2, 2, 4, 0, 1, 7, 3, 5, 1, 4, 5, 7, 1, 3, 7, 2, 6, 4, 2, 2, 7, 6, 6, 5, 4, 7, 5, 6]
        point3f[] points = [(5.055, 0, 4.99), (5.055, 0, 5.02), (5.055, 0.7, 4.99), (5.055, 0.7, 5.02), (5.085, 0, 4.99), (5.085, 0, 5.02), (5.085, 0.7, 4.99), (5.085, 0.7, 5.02)]
    }

    def Mesh "desk_r2c2_leg2"
    {
        int[] faceVertexCounts = [3, 3, 3, 3, 3, 3, 3, 3, 3, 3, 3, 3]
        int[] faceVertexIndices = [1, 3, 0, 4, 1, 0, 0, 3, 2, 2, 4, 0, 1, 7, 3, 5, 1, 4, 5, 7, 1, 3, 7, 2, 6, 4, 2, 2, 7, 6, 6, 5, 4, 7, 5, 6]
        point3f[] points = [(4.515, 0, 5.38), (4.515, 0, 5.41), (4.515, 0.7, 5.38), (4.515, 0.7, 5.41), (4.545, 0, 5.38), (4.545, 0, 5.41), (4.545, 0.7, 5.38), (4.545, 0.7, 5.41)]
    }

    def Mesh "desk_r2c2_leg3"
    {
        int[] faceVertexCounts = [3, 3, 3, 3, 3, 3, 3, 3, 3, 3, 3, 3]
        int[] faceVertexIndices = [1, 3, 0, 4, 1, 0, 0, 3, 2, 2, 4, 0, 1, 7, 3, 5, 1, 4, 5, 7, 1, 3, 7, 2, 6, 4, 2, 2, 7, 6, 6, 5, 4, 7, 5, 6]
        point3f[] points = [(5.055, 0, 5.38), (5.055, 0, 5.41), (5.055, 0.7, 5.38), (5.055, 0.7, 5.41), (5.085, 0, 5.38), (5.085, 0, 5.41), (5.085, 0.7, 5.38), (5.085, 0.7, 5.41)]
    }

    def Mesh "chair_r2c2_seat"
    {
        int[] faceVertexCounts = [3, 3, 3, 3, 3, 3, 3, 3, 3, 3, 3, 3]
        int[] faceVertexIndices = [1, 3, 0, 4, 1, 0, 0, 3, 2, 2, 4, 0, 1, 7, 3, 5, 1, 4, 5, 7, 1, 3, 7, 2, 6, 4, 2, 2, 7, 6, 6, 5, 4, 7, 5, 6]
        point3f[] points = [(4.6, 0.43, 5.4), (4.6, 0.43, 5.8), (4.6, 0.47, 5.4), (4.6, 0.47, 5.8), (5, 0.43, 5.4), (5, 0.43, 5.8), (5, 0.47, 5.4), (5, 0.47, 5.8)]
    }

    def Mesh "chair_r2c2_back"
    {
        int[] faceVertexCounts = [3, 3, 3, 3, 3, 3, 3, 3, 3, 3, 3, 3]
        int[] faceVertexIndices = [1, 3, 0, 4, 1, 0, 0, 3, 2, 2, 4, 0, 1, 7, 3, 5, 1, 4, 5, 7, 1, 3, 7, 2, 6, 4, 2, 2, 7, 6, 6, 5, 4, 7, 5, 6]
        point3f[] points = [(4.6, 0.45, 5.775), (4.6, 0.45, 5.825), (4.6, 0.85, 5.775), (4.6, 0.85, 5.825), (5, 0.45, 5.775), (5, 0.45, 5.825), (5, 0.85, 5.775), (5, 0.85, 5.825)]
    }

    def Mesh "desk_r2c3_top"
    {
        int[] faceVertexCounts = [3, 3, 3, 3, 3, 3, 3, 3, 3, 3, 3, 3]
        int[] faceVertexIndices = [1, 3, 0, 4, 1, 0, 0, 3, 2, 2, 4, 0, 1, 7, 3, 5, 1, 4, 5, 7, 1, 3, 7, 2, 6, 4, 2, 2, 7, 6, 6, 5, 4, 7, 5, 6]
        point3f[] points = [(6.1, 0.68, 4.975), (6.1, 0.68, 5.425), (6.1, 0.72, 4.975), (6.1, 0.72, 5.425), (6.7, 0.68, 4.975), (6.7, 0.68, 5.425), (6.7, 0.72, 4.975), (6.7, 0.72, 5.425)]
    }

    def Mesh "desk_r2c3_leg0"
    {
        int[] faceVertexCounts = [3, 3, 3, 3, 3, 3, 3, 3, 3, 3, 3, 3]
        int[] faceVertexIndices = [1, 3, 0, 4, 1, 0, 0, 3, 2, 2, 4, 0, 1, 7, 3, 5, 1, 4, 5, 7, 1, 3, 7, 2, 6, 4, 2, 2, 7, 6, 6, 5, 4, 7, 5, 6]
        point3f[] points = [(6.115, 0, 4.99), (6.115, 0, 5.02), (6.115, 0.7, 4.99), (6.115, 0.7, 5.02), (6.145, 0, 4.99), (6.145, 0, 5.02), (6.145, 0.7, 4.99), (6.145, 0.7, 5.02)]
    }

    def Mesh "desk_r2c3_leg1"
    {
        int[] faceVertexCounts = [3, 3, 3, 3, 3, 3, 3, 3, 3, 3, 3, 3]
        int[] faceVertexIndices = [1, 3, 0, 4, 1, 0, 0, 3, 2, 2, 4, 0, 1, 7, 3, 5, 1, 4, 5, 7, 1, 3, 7, 2, 6, 4, 2, 2, 7, 6, 6, 5, 4, 7, 5, 6]
        point3f[] points = [(6.655, 0, 4.99), (6.655, 0, 5.02), (6.655, 0.7, 4.99), (6.655, 0.7, 5.02), (6.685, 0, 4.99), (6.685, 0, 5.02), (6.685, 0.7, 4.99), (6.685, 0.7, 5.02)]
    }

    def Mesh "desk_r2c3_leg2"
    {
        int[] faceVertexCounts = [3, 3, 3, 3, 3, 3, 3, 3, 3, 3, 3, 3]
        int[] faceVertexIndices = [1, 3, 0, 4, 1, 0, 0, 3, 2, 2, 4, 0, 1, 7, 3, 5, 1, 4, 5, 7, 1, 3, 7, 2, 6, 4, 2, 2, 7, 6, 6, 5, 4, 7, 5, 6]
        point3f[] points = [(6.115, 0, 5.38), (6.115, 0, 5.41), (6.115, 0.7, 5.38), (6.115, 0.7, 5.41), (6.145, 0, 5.38), (6.145, 0, 5.41), (6.145, 0.7, 5.38), (6.145, 0.7, 5.41)]
    }

    def Mesh "desk_r2c3_leg3"
    {
        int[] faceVertexCounts = [3, 3, 3, 3, 3, 3, 3, 3, 3, 3, 3, 3]
        int[] faceVertexIndices = [1, 3, 0, 4, 1, 0, 0, 3, 2, 2, 4, 0, 1, 7, 3, 5, 1, 4, 5, 7, 1, 3, 7, 2, 6, 4, 2, 2, 7, 6, 6, 5, 4, 7, 5, 6]
        point3f[] points = [(6.655, 0, 5.38), (6.655, 0, 5.41), (6.655, 0.7, 5.38), (6.655, 0.7, 5.41), (6.685, 0, 5.38), (6.685, 0, 5.41), (6.685, 0.7, 5.38), (6.685, 0.7, 5.41)]
    }

    def Mesh "chair_r2c3_seat"
    {
        int[] faceVertexCounts = [3, 3, 3, 3, 3, 3, 3, 3, 3, 3, 3, 3]
        int[] faceVertexIndices = [1, 3, 0, 4, 1, 0, 0, 3, 2, 2, 4, 0, 1, 7, 3, 5, 1, 4, 5, 7, 1, 3, 7, 2, 6, 4, 2, 2, 7, 6, 6, 5, 4, 7, 5, 6]
        point3f[] points = [(6.2, 0.43, 5.4), (6.2, 0.43, 5.8), (6.2, 0.47, 5.4), (6.2, 0.47, 5.8), (6.6, 0.43, 5.4), (6.6, 0.43, 5.8), (6.6, 0.47, 5.4), (6.6, 0.47, 5.8)]
    }

    def Mesh "chair_r2c3_back"
    {
        int[] faceVertexCounts = [3, 3, 3, 3, 3, 3, 3, 3, 3, 3, 3, 3]
        int[] faceVertexIndices = [1, 3, 0, 4, 1, 0, 0, 3, 2, 2, 4, 0, 1, 7, 3, 5, 1, 4, 5, 7, 1, 3, 7, 2, 6, 4, 2, 2, 7, 6, 6, 5, 4, 7, 5, 6]
        point3f[] points = [(6.2, 0.45, 5.775), (6.2, 0.45, 5.825), (6.2, 0.85, 5.775), (6.2, 0.85, 5.825), (6.6, 0.45, 5.775), (6.6, 0.45, 5.825), (6.6, 0.85, 5.775), (6.6, 0.85, 5.825)]
    }

    def Mesh "desk_r3c0_top"
    {
        int[] faceVertexCounts = [3, 3, 3, 3, 3, 3, 3, 3, 3, 3, 3, 3]
        int[] faceVertexIndices = [1, 3, 0, 4, 1, 0, 0, 3, 2, 2, 4, 0, 1, 7, 3, 5, 1, 4, 5, 7, 1, 3, 7, 2, 6, 4, 2, 2, 7, 6, 6, 5, 4, 7, 5, 6]
        point3f[] points = [(1.3, 0.68, 6.075), (1.3, 0.68, 6.525), (1.3, 0.72, 6.075), (1.3, 0.72, 6.525), (1.9, 0.68, 6.075), (1.9, 0.68, 6.525), (1.9, 0.72, 6.075), (1.9, 0.72, 6.525)]
    }

    def Mesh "desk_r3c0_leg0"
    {
        int[] faceVertexCounts = [3, 3, 3, 3, 3, 3, 3, 3, 3, 3, 3, 3]
        int[] faceVertexIndices = [1, 3, 0, 4, 1, 0, 0, 3, 2, 2, 4, 0, 1, 7, 3, 5, 1, 4, 5, 7, 1, 3, 7, 2, 6, 4, 2, 2, 7, 6, 6, 5, 4, 7, 5, 6]
        point3f[] points = [(1.315, 0, 6.09), (1.315, 0, 6.12), (1.315, 0.7, 6.09), (1.315, 0.7, 6.12), (1.345, 0, 6.09), (1.345, 0, 6.12), (1.345, 0.7, 6.09), (1.345, 0.7, 6.12)]
    }

    def Mesh "desk_r3c0_leg1"
    {
        int[] faceVertexCounts = [3, 3, 3, 3, 3, 3, 3, 3, 3, 3, 3, 3]
        int[] faceVertexIndices = [1, 3, 0, 4, 1, 0, 0, 3, 2, 2, 4, 0, 1, 7, 3, 5, 1, 4, 5, 7, 1, 3, 7, 2, 6, 4, 2, 2, 7, 6, 6, 5, 4, 7, 5, 6]
        point3f[] points = [(1.855, 0, 6.09), (1.855, 0, 6.12), (1.855, 0.7, 6.09), (1.855, 0.7, 6.12), (1.885, 0, 6.09), (1.885, 0, 6.12), (1.885, 0.7, 6.09), (1.885, 0.7, 6.12)]
    }

    def Mesh "desk_r3c0_leg2"
    {
        int[] faceVertexCounts = [3, 3, 3, 3, 3, 3, 3, 3, 3, 3, 3, 3]
        int[] faceVertexIndices = [1, 3, 0, 4, 1, 0, 0, 3, 2, 2, 4, 0, 1, 7, 3, 5, 1, 4, 5, 7, 1, 3, 7, 2, 6, 4, 2, 2, 7, 6, 6, 5, 4, 7, 5, 6]
        point3f[] points = [(1.315, 0, 6.48), (1.315, 0, 6.51), (1.315, 0.7, 6.48), (1.315, 0.7, 6.51), (1.345, 0, 6.48), (1.345, 0, 6.51), (1.345, 0.7, 6.48), (1.345, 0.7, 6.51)]
    }

    def Mesh "desk_r3c0_leg3"
    {
        int[] faceVertexCounts = [3, 3, 3, 3, 3, 3, 3, 3, 3, 3, 3, 3]
        int[] faceVertexIndices = [1, 3, 0, 4, 1, 0, 0, 3, 2, 2, 4, 0, 1, 7, 3, 5, 1, 4, 5, 7, 1, 3, 7, 2, 6, 4, 2, 2, 7, 6, 6, 5, 4, 7, 5, 6]
        point3f[] points = [(1.855, 0, 6.48), (1.855, 0, 6.51), (1.855, 0.7, 6.48), (1.855, 0.7, 6.51), (1.885, 0, 6.48), (1.885, 0, 6.51), (1.885, 0.7, 6.48), (1.885, 0.7, 6.51)]
    }

    def Mesh "chair_r3c0_seat"
    {
        int[] faceVertexCounts = [3, 3, 3, 3, 3, 3, 3, 3, 3, 3, 3, 3]
        int[] faceVertexIndices = [1, 3, 0, 4, 1, 0, 0, 3, 2, 2, 4, 0, 1, 7, 3, 5, 1, 4, 5, 7, 1, 3, 7, 2, 6, 4, 2, 2, 7, 6, 6, 5, 4, 7, 5, 6]
        point3f[] points = [(1.4, 0.43, 6.5), (1.4, 0.43, 6.9), (1.4, 0.47, 6.5), (1.4, 0.47, 6.9), (1.8, 0.43, 6.5), (1.8, 0.43, 6.9), (1.8, 0.47, 6.5), (1.8, 0.47, 6.9)]
    }

    def Mesh "chair_r3c0_back"
    {
        int[] faceVertexCounts = [3, 3, 3, 3, 3, 3, 3, 3, 3, 3, 3, 3]
        int[] faceVertexIndices = [1, 3, 0, 4, 1, 0, 0, 3, 2, 2, 4, 0, 1, 7, 3, 5, 1, 4, 5, 7, 1, 3, 7, 2, 6, 4, 2, 2, 7, 6, 6, 5, 4, 7, 5, 6]
        point3f[] points = [(1.4, 0.45, 6.875), (1.4, 0.45, 6.925), (1.4, 0.85, 6.875), (1.4, 0.85, 6.925), (1.8, 0.45, 6.875), (1.8, 0.45, 6.925), (1.8, 0.85, 6.875), (1.8, 0.85, 6.925)]
    }

    def Mesh "desk_r3c1_top"
    {
        int[] faceVertexCounts = [3, 3, 3, 3, 3, 3, 3, 3, 3, 3, 3, 3]
        int[] faceVertexIndices = [1, 3, 0, 4, 1, 0, 0, 3, 2, 2, 4, 0, 1, 7, 3, 5, 1, 4, 5, 7, 1, 3, 7, 2, 6, 4, 2, 2, 7, 6, 6, 5, 4, 7, 5, 6]
        point3f[] points = [(2.9, 0.68, 6.075), (2.9, 0.68, 6.525), (2.9, 0.72, 6.075), (2.9, 0.72, 6.525), (3.5, 0.68, 6.075), (3.5, 0.68, 6.525), (3.5, 0.72, 6.075), (3.5, 0.72, 6.525)]
    }

    def Mesh "desk_r3c1_leg0"
    {
        int[] faceVertexCounts = [3, 3, 3, 3, 3, 3, 3, 3, 3, 3, 3, 3]
        int[] faceVertexIndices = [1, 3, 0, 4, 1, 0, 0, 3, 2, 2, 4, 0, 1, 7, 3, 5, 1, 4, 5, 7, 1, 3, 7, 2, 6, 4, 2, 2, 7, 6, 6, 5, 4, 7, 5, 6]
        point3f[] points = [(2.915, 0, 6.09), (2.915, 0, 6.12), (2.915, 0.7, 6.09), (2.915, 0.7, 6.12), (2.945, 0, 6.09), (2.945, 0, 6.12), (2.945, 0.7, 6.09), (2.945, 0.7, 6.12)]
    }

    def Mesh "desk_r3c1_leg1"
    {
        int[] faceVertexCounts = [3, 3, 3, 3, 3, 3, 3, 3, 3, 3, 3, 3]
        int[] faceVertexIndices = [1, 3, 0, 4, 1, 0, 0, 3, 2, 2, 4, 0, 1, 7, 3, 5, 1, 4, 5, 7, 1, 3, 7, 2, 6, 4, 2, 2, 7, 6, 6, 5, 4, 7, 5, 6]
        point3f[] points = [(3.455, 0, 6.09), (3.455, 0, 6.12), (3.455, 0.7, 6.09), (3.455, 0.7, 6.12), (3.485, 0, 6.09), (3.485, 0, 6.12), (3.485, 0.7, 6.09), (3.485, 0.7, 6.12)]
    }

    def Mesh "desk_r3c1_leg2"
    {
        int[] faceVertexCounts = [3, 3, 3, 3, 3, 3, 3, 3, 3, 3, 3, 3]
        int[] faceVertexIndices = [1, 3, 0, 4, 1, 0, 0, 3, 2, 2, 4, 0, 1, 7, 3, 5, 1, 4, 5, 7, 1, 3, 7, 2, 6, 4, 2, 2, 7, 6, 6, 5, 4, 7, 5, 6]
        point3f[] points = [(2.915, 0, 6.48), (2.915, 0, 6.51), (2.915, 0.7, 6.48), (2.915, 0.7, 6.51), (2.945, 0, 6.48), (2.945, 0, 6.51), (2.945, 0.7, 6.48), (2.945, 0.7, 6.51)]
    }

    def Mesh "desk_r3c1_leg3"
    {
        int[] faceVertexCounts = [3, 3, 3, 3, 3, 3, 3, 3, 3, 3, 3, 3]
        int[] faceVertexIndices = [1, 3, 0, 4, 1, 0, 0, 3, 2, 2, 4, 0, 1, 7, 3, 5, 1, 4, 5, 7, 1, 3, 7, 2, 6, 4, 2, 2, 7, 6, 6, 5, 4, 7, 5, 6]
        point3f[] points = [(3.455, 0, 6.48), (3.455, 0, 6.51), (3.455, 0.7, 6.48), (3.455, 0.7, 6.51), (3.485, 0, 6.48), (3.485, 0, 6.51), (3.485, 0.7, 6.48), (3.485, 0.7, 6.51)]
    }

    def Mesh "chair_r3c1_seat"
    {
        int[] faceVertexCounts = [3, 3, 3, 3, 3, 3, 3, 3, 3, 3, 3, 3]
        int[] faceVertexIndices = [1, 3, 0, 4, 1, 0, 0, 3, 2, 2, 4, 0, 1, 7, 3, 5, 1, 4, 5, 7, 1, 3, 7, 2, 6, 4, 2, 2, 7, 6, 6, 5, 4, 7, 5, 6]
        point3f[] points = [(3, 0.43, 6.5), (3, 0.43, 6.9), (3, 0.47, 6.5), (3, 0.47, 6.9), (3.4, 0.43, 6.5), (3.4, 0.43, 6.9), (3.4, 0.47, 6.5), (3.4, 0.47, 6.9)]
    }

    def Mesh "chair_r3c1_back"
    {
        int[] faceVertexCounts = [3, 3, 3, 3, 3, 3, 3, 3, 3, 3, 3, 3]
        int[] faceVertexIndices = [1, 3, 0, 4, 1, 0, 0, 3, 2, 2, 4, 0, 1, 7, 3, 5, 1, 4, 5, 7, 1, 3, 7, 2, 6, 4, 2, 2, 7, 6, 6, 5, 4, 7, 5, 6]
        point3f[] points = [(3, 0.45, 6.875), (3, 0.45, 6.925), (3, 0.85, 6.875), (3, 0.85, 6.925), (3.4, 0.45, 6.875), (3.4, 0.45, 6.925), (3.4, 0.85, 6.875), (3.4, 0.85, 6.925)]
    }

    def Mesh "desk_r3c2_top"
    {
        int[] faceVertexCounts = [3, 3, 3, 3, 3, 3, 3, 3, 3, 3, 3, 3]
        int[] faceVertexIndices = [1, 3, 0, 4, 1, 0, 0, 3, 2, 2, 4, 0, 1, 7, 3, 5, 1, 4, 5, 7, 1, 3, 7, 2, 6, 4, 2, 2, 7, 6, 6, 5, 4, 7, 5, 6]
        point3f[] points = [(4.5, 0.68, 6.075), (4.5, 0.68, 6.525), (4.5, 0.72, 6.075), (4.5, 0.72, 6.525), (5.1, 0.68, 6.075), (5.1, 0.68, 6.525), (5.1, 0.72, 6.075), (5.1, 0.72, 6.525)]
    }

    def Mesh "desk_r3c2_leg0"
    {
        int[] faceVertexCounts = [3, 3, 3, 3, 3, 3, 3, 3, 3, 3, 3, 3]
        int[] faceVertexIndices = [1, 3, 0, 4, 1, 0, 0, 3, 2, 2, 4, 0, 1, 7, 3, 5, 1, 4, 5, 7, 1, 3, 7, 2, 6, 4, 2, 2, 7, 6, 6, 5, 4, 7, 5, 6]
        point3f[] points = [(4.515, 0, 6.09), (4.515, 0, 6.12), (4.515, 0.7, 6.09), (4.515, 0.7, 6.12), (4.545, 0, 6.09), (4.545, 0, 6.12), (4.545, 0.7, 6.09), (4.545, 0.7, 6.12)]
    }

    def Mesh "desk_r3c2_leg1"
    {
        int[] faceVertexCounts = [3, 3, 3, 3, 3, 3, 3, 3, 3, 3, 3, 3]
        int[] faceVertexIndices = [1, 3, 0, 4, 1, 0, 0, 3, 2, 2, 4, 0, 1, 7, 3, 5, 1, 4, 5, 7, 1, 3, 7, 2, 6, 4, 2, 2, 7, 6, 6, 5, 4, 7, 5, 6]
        point3f[] points = [(5.055, 0, 6.09), (5.055, 0, 6.12), (5.055, 0.7, 6.09), (5.055, 0.7, 6.12), (5.085, 0, 6.09), (5.085, 0, 6.12), (5.085, 0.7, 6.09), (5.085, 0.7, 6.12)]
    }

    def Mesh "desk_r3c2_leg2"
    {
        int[] faceVertexCounts = [3, 3, 3, 3, 3, 3, 3, 3, 3, 3, 3, 3]
        int[] faceVertexIndices = [1, 3, 0, 4, 1, 0, 0, 3, 2, 2, 4, 0, 1, 7, 3, 5, 1, 4, 5, 7, 1, 3, 7, 2, 6, 4, 2, 2, 7, 6, 6, 5, 4, 7, 5, 6]
        point3f[] points = [(4.515, 0, 6.48), (4.515, 0, 6.51), (4.515, 0.7, 6.48), (4.515, 0.7, 6.51), (4.545, 0, 6.48), (4.545, 0, 6.51), (4.545, 0.7, 6.48), (4.545, 0.7, 6.51)]
    }

    def Mesh "desk_r3c2_leg3"
    {
        int[] faceVertexCounts = [3, 3, 3, 3, 3, 3, 3, 3, 3, 3, 3, 3]
        int[] faceVertexIndices = [1, 3, 0, 4, 1, 0, 0, 3, 2, 2, 4, 0, 1, 7, 3, 5, 1, 4, 5, 7, 1, 3, 7, 2, 6, 4, 2, 2, 7, 6, 6, 5, 4, 7, 5, 6]
        point3f[] points = [(5.055, 0, 6.48), (5.055, 0, 6.51), (5.055, 0.7, 6.48), (5.055, 0.7, 6.51), (5.085, 0, 6.48), (5.085, 0, 6.51), (5.085, 0.7, 6.48), (5.085, 0.7, 6.51)]
    }

    def Mesh "chair_r3c2_seat"
    {
        int[] faceVertexCounts = [3, 3, 3, 3, 3, 3, 3, 3, 3, 3, 3, 3]
        int[] faceVertexIndices = [1, 3, 0, 4, 1, 0, 0, 3, 2, 2, 4, 0, 1, 7, 3, 5, 1, 4, 5, 7, 1, 3, 7, 2, 6, 4, 2, 2, 7, 6, 6, 5, 4, 7, 5, 6]
        point3f[] points = [(4.6, 0.43, 6.5), (4.6, 0.43, 6.9), (4.6, 0.47, 6.5), (4.6, 0.47, 6.9), (5, 0.43, 6.5), (5, 0.43, 6.9), (5, 0.47, 6.5), (5, 0.47, 6.9)]
    }

    def Mesh "chair_r3c2_back"
    {
        int[] faceVertexCounts = [3, 3, 3, 3, 3, 3, 3, 3, 3, 3, 3, 3]
        int[] faceVertexIndices = [1, 3, 0, 4, 1, 0, 0, 3, 2, 2, 4, 0, 1, 7, 3, 5, 1, 4, 5, 7, 1, 3, 7, 2, 6, 4, 2, 2, 7, 6, 6, 5, 4, 7, 5, 6]
        point3f[] points = [(4.6, 0.45, 6.875), (4.6, 0.45, 6.925), (4.6, 0.85, 6.875), (4.6, 0.85, 6.925), (5, 0.45, 6.875), (5, 0.45, 6.925), (5, 0.85, 6.875), (5, 0.85, 6.925)]
    }

    def Mesh "desk_r3c3_top"
    {
        int[] faceVertexCounts = [3, 3, 3, 3, 3, 3, 3, 3, 3, 3, 3, 3]
        int[] faceVertexIndices = [1, 3, 0, 4, 1, 0, 0, 3, 2, 2, 4, 0, 1, 7, 3, 5, 1, 4, 5, 7, 1, 3, 7, 2, 6, 4, 2, 2, 7, 6, 6, 5, 4, 7, 5, 6]
        point3f[] points = [(6.1, 0.68, 6.075), (6.1, 0.68, 6.525), (6.1, 0.72, 6.075), (6.1, 0.72, 6.525), (6.7, 0.68, 6.075), (6.7, 0.68, 6.525), (6.7, 0.72, 6.075), (6.7, 0.72, 6.525)]
    }

    def Mesh "desk_r3c3_leg0"
    {
        int[] faceVertexCounts = [3, 3, 3, 3, 3, 3, 3, 3, 3, 3, 3, 3]
        int[] faceVertexIndices = [1, 3, 0, 4, 1, 0, 0, 3, 2, 2, 4, 0, 1, 7, 3, 5, 1, 4, 5, 7, 1, 3, 7, 2, 6, 4, 2, 2, 7, 6, 6, 5, 4, 7, 5, 6]
        point3f[] points = [(6.115, 0, 6.09), (6.115, 0, 6.12), (6.115, 0.7, 6.09), (6.115, 0.7, 6.12), (6.145, 0, 6.09), (6.145, 0, 6.12), (6.145, 0.7, 6.09), (6.145, 0.7, 6.12)]
    }

    def Mesh "desk_r3c3_leg1"
    {
        int[] faceVertexCounts = [3, 3, 3, 3, 3, 3, 3, 3, 3, 3, 3, 3]
        int[] faceVertexIndices = [1, 3, 0, 4, 1, 0, 0, 3, 2, 2, 4, 0, 1, 7, 3, 5, 1, 4, 5, 7, 1, 3, 7, 2, 6, 4, 2, 2, 7, 6, 6, 5, 4, 7, 5, 6]
        point3f[] points = [(6.655, 0, 6.09), (6.655, 0, 6.12), (6.655, 0.7, 6.09), (6.655, 0.7, 6.12), (6.685, 0, 6.09), (6.685, 0, 6.12), (6.685, 0.7, 6.09), (6.685, 0.7, 6.12)]
    }

    def Mesh "desk_r3c3_leg2"
    {
        int[] faceVertexCounts = [3, 3, 3, 3, 3, 3, 3, 3, 3, 3, 3, 3]
        int[] faceVertexIndices = [1, 3, 0, 4, 1, 0, 0, 3, 2, 2, 4, 0, 1, 7, 3, 5, 1, 4, 5, 7, 1, 3, 7, 2, 6, 4, 2, 2, 7, 6, 6, 5, 4, 7, 5, 6]
        point3f[] points = [(6.115, 0, 6.48), (6.115, 0, 6.51), (6.115, 0.7, 6.48), (6.115, 0.7, 6.51), (6.145, 0, 6.48), (6.145, 0, 6.51), (6.145, 0.7, 6.48), (6.145, 0.7, 6.51)]
    }

    def Mesh "desk_r3c3_leg3"
    {
        int[] faceVertexCounts = [3, 3, 3, 3, 3, 3, 3, 3, 3, 3, 3, 3]
        int[] faceVertexIndices = [1, 3, 0, 4, 1, 0, 0, 3, 2, 2, 4, 0, 1, 7, 3, 5, 1, 4, 5, 7, 1, 3, 7, 2, 6, 4, 2, 2, 7, 6, 6, 5, 4, 7, 5, 6]
        point3f[] points = [(6.655, 0, 6.48), (6.655, 0, 6.51), (6.655, 0.7, 6.48), (6.655, 0.7, 6.51), (6.685, 0, 6.48), (6.685, 0, 6.51), (6.685, 0.7, 6.48), (6.685, 0.7, 6.51)]
    }

    def Mesh "chair_r3c3_seat"
    {
        int[] faceVertexCounts = [3, 3, 3, 3, 3, 3, 3, 3, 3, 3, 3, 3]
        int[] faceVertexIndices = [1, 3, 0, 4, 1, 0, 0, 3, 2, 2, 4, 0, 1, 7, 3, 5, 1, 4, 5, 7, 1, 3, 7, 2, 6, 4, 2, 2, 7, 6, 6, 5, 4, 7, 5, 6]
        point3f[] points = [(6.2, 0.43, 6.5), (6.2, 0.43, 6.9), (6.2, 0.47, 6.5), (6.2, 0.47, 6.9), (6.6, 0.43, 6.5), (6.6, 0.43, 6.9), (6.6, 0.47, 6.5), (6.6, 0.47, 6.9)]
    }

    def Mesh "chair_r3c3_back"
    {
        int[] faceVertexCounts = [3, 3, 3, 3, 3, 3, 3, 3, 3, 3, 3, 3]
        int[] faceVertexIndices = [1, 3, 0, 4, 1, 0, 0, 3, 2, 2, 4, 0, 1, 7, 3, 5, 1, 4, 5, 7, 1, 3, 7, 2, 6, 4, 2, 2, 7, 6, 6, 5, 4, 7, 5, 6]
        point3f[] points = [(6.2, 0.45, 6.875), (6.2, 0.45, 6.925), (6.2, 0.85, 6.875), (6.2, 0.85, 6.925), (6.6, 0.45, 6.875), (6.6, 0.45, 6.925), (6.6, 0.85, 6.875), (6.6, 0.85, 6.925)]
    }

    def Mesh "bookshelf"
    {
        int[] faceVertexCounts = [3, 3, 3, 3, 3, 3, 3, 3, 3, 3, 3, 3]
        int[] faceVertexIndices = [1, 3, 0, 4, 1, 0, 0, 3, 2, 2, 4, 0, 1, 7, 3, 5, 1, 4, 5, 7, 1, 3, 7, 2, 6, 4, 2, 2, 7, 6, 6, 5, 4, 7, 5, 6]
        point3f[] points = [(2.5, 0, 8.55), (2.5, 0, 8.95), (2.5, 2, 8.55), (2.5, 2, 8.95), (5.5, 0, 8.55), (5.5, 0, 8.95), (5.5, 2, 8.55), (5.5, 2, 8.95)]
    }
}

