#usda 1.0
(
    defaultPrim = "Cyberspace"
    upAxis = "Y"
)

def Xform "Cyberspace"
{
    def Mesh "data_stream_0"
    {
        int[] faceVertexCounts = [3, 3, 3, 3, 3, 3, 3, 3, 3, 3, 3, 3, 3, 3, 3, 3, 3, 3, 3, 3, 3, 3, 3, 3, 3, 3, 3, 3, 3, 3, 3, 3]
        int[] faceVertexIndices = [1, 0, 4, 1, 4, 2, 2, 4, 5, 2, 5, 3, 4, 0, 6, 4, 6, 5, 5, 6, 7, 5, 7, 3, 6, 0, 8, 6, 8, 7, 7, 8, 9, 7, 9, 3, 8, 0, 10, 8, 10, 9, 9, 10, 11, 9, 11, 3, 10, 0, 12, 10, 12, 11, 11, 12, 13, 11, 13, 3, 12, 0, 14, 12, 14, 13, 13, 14, 15, 13, 15, 3, 14, 0, 16, 14, 16, 15, 15, 16, 17, 15, 17, 3, 16, 0, 1, 16, 1, 17, 17, 1, 2, 17, 2, 3]
        point3f[] points = [(5, 2, 0), (5.06, 2, 0), (5.06, 2, 10), (5, 2, 10), (5.0424266, 2.0424263, 0), (5.0424266, 2.0424263, 10), (5, 2.06, 0), (5, 2.06, 10), (4.9575734, 2.0424263, 0), (4.9575734, 2.0424263, 10), (4.94, 2, 0), (4.94, 2, 10), (4.9575734, 1.9575737, 0), (4.9575734, 1.9575737, 10), (5, 1.94, 0), (5, 1.94, 10), (5.0424266, 1.9575737, 0), (5.0424266, 1.9575737, 10)]
    }

    def Mesh "data_stream_1"
    {
        int[] faceVertexCounts = [3, 3, 3, 3, 3, 3, 3, 3, 3, 3, 3, 3, 3, 3, 3, 3, 3, 3, 3, 3, 3, 3, 3, 3, 3, 3, 3, 3, 3, 3, 3, 3]
        int[] faceVertexIndices = [1, 0, 4, 1, 4, 2, 2, 4, 5, 2, 5, 3, 4, 0, 6, 4, 6, 5, 5, 6, 7, 5, 7, 3, 6, 0, 8, 6, 8, 7, 7, 8, 9, 7, 9, 3, 8, 0, 10, 8, 10, 9, 9, 10, 11, 9, 11, 3, 10, 0, 12, 10, 12, 11, 11, 12, 13, 11, 13, 3, 12, 0, 14, 12, 14, 13, 13, 14, 15, 13, 15, 3, 14, 0, 16, 14, 16, 15, 15, 16, 17, 15, 17, 3, 16, 0, 1, 16, 1, 17, 17, 1, 2, 17, 2, 3]
        point3f[] points = [(5, 2, 0), (5.06, 2, 0), (5.06, 2, 10), (5, 2, 10), (5.0424266, 2.0424263, 0), (5.0424266, 2.0424263, 10), (5, 2.06, 0), (5, 2.06, 10), (4.9575734, 2.0424263, 0), (4.9575734, 2.0424263, 10), (4.94, 2, 0), (4.94, 2, 10), (4.9575734, 1.9575737, 0), (4.9575734, 1.9575737, 10), (5, 1.94, 0), (5, 1.94, 10), (5.0424266, 1.9575737, 0), (5.0424266, 1.9575737, 10)]
    }

    def Mesh "data_stream_2"
    {
        int[] faceVertexCounts = [3, 3, 3, 3, 3, 3, 3, 3, 3, 3, 3, 3, 3, 3, 3, 3, 3, 3, 3, 3, 3, 3, 3, 3, 3, 3, 3, 3, 3, 3, 3, 3]
        int[] faceVertexIndices = [1, 0, 4, 1, 4, 2, 2, 4, 5, 2, 5, 3, 4, 0, 6, 4, 6, 5, 5, 6, 7, 5, 7, 3, 6, 0, 8, 6, 8, 7, 7, 8, 9, 7, 9, 3, 8, 0, 10, 8, 10, 9, 9, 10, 11, 9, 11, 3, 10, 0, 12, 10, 12, 11, 11, 12, 13, 11, 13, 3, 12, 0, 14, 12, 14, 13, 13, 14, 15, 13, 15, 3, 14, 0, 16, 14, 16, 15, 15, 16, 17, 15, 17, 3, 16, 0, 1, 16, 1, 17, 17, 1, 2, 17, 2, 3]
        point3f[] points = [(5.5, 4.5, 1.9292858), (5.56, 4.5, 1.9292858), (5.56, 4.5, 9.070714), (5.5, 4.5, 9.070714), (5.5424266, 4.5424266, 1.9292858), (5.5424266, 4.5424266, 9.070714), (5.5, 4.56, 1.9292858), (5.5, 4.56, 9.070714), (5.4575734, 4.5424266, 1.9292858), (5.4575734, 4.5424266, 9.070714), (5.44, 4.5, 1.9292858), (5.44, 4.5, 9.070714), (5.4575734, 4.4575734, 1.9292858), (5.4575734, 4.4575734, 9.070714), (5.5, 4.44, 1.9292858), (5.5, 4.44, 9.070714), (5.5424266, 4.4575734, 1.9292858), (5.5424266, 4.4575734, 9.070714)]
    }

    def Mesh "data_stream_3"
    {
        int[] faceVertexCounts = [3, 3, 3, 3, 3, 3, 3, 3, 3, 3, 3, 3, 3, 3, 3, 3, 3, 3, 3, 3, 3, 3, 3, 3, 3, 3, 3, 3, 3, 3, 3, 3]
        int[] faceVertexIndices = [1, 0, 4, 1, 4, 2, 2, 4, 5, 2, 5, 3, 4, 0, 6, 4, 6, 5, 5, 6, 7, 5, 7, 3, 6, 0, 8, 6, 8, 7, 7, 8, 9, 7, 9, 3, 8, 0, 10, 8, 10, 9, 9, 10, 11, 9, 11, 3, 10, 0, 12, 10, 12, 11, 11, 12, 13, 11, 13, 3, 12, 0, 14, 12, 14, 13, 13, 14, 15, 13, 15, 3, 14, 0, 16, 14, 16, 15, 15, 16, 17, 15, 17, 3, 16, 0, 1, 16, 1, 17, 17, 1, 2, 17, 2, 3]
        point3f[] points = [(5.5, 2, 1.5), (5.56, 2, 1.5), (5.56, 2, 8.5), (5.5, 2, 8.5), (5.5424266, 2.0424263, 1.5), (5.5424266, 2.0424263, 8.5), (5.5, 2.06, 1.5), (5.5, 2.06, 8.5), (5.4575734, 2.0424263, 1.5), (5.4575734, 2.0424263, 8.5), (5.44, 2, 1.5), (5.44, 2, 8.5), (5.4575734, 1.9575737, 1.5), (5.4575734, 1.9575737, 8.5), (5.5, 1.94, 1.5), (5.5, 1.94, 8.5), (5.5424266, 1.9575737, 1.5), (5.5424266, 1.9575737, 8.5)]
    }

    def Mesh "data_stream_4"
    {
        int[] faceVertexCounts = [3, 3, 3, 3, 3, 3, 3, 3, 3, 3, 3, 3, 3, 3, 3, 3, 3, 3, 3, 3, 3, 3, 3, 3, 3, 3, 3, 3, 3, 3, 3, 3]
        int[] faceVertexIndices = [1, 0, 4, 1, 4, 2, 2, 4, 5, 2, 5, 3, 4, 0, 6, 4, 6, 5, 5, 6, 7, 5, 7, 3, 6, 0, 8, 6, 8, 7, 7, 8, 9, 7, 9, 3, 8, 0, 10, 8, 10, 9, 9, 10, 11, 9, 11, 3, 10, 0, 12, 10, 12, 11, 11, 12, 13, 11, 13, 3, 12, 0, 14, 12, 14, 13, 13, 14, 15, 13, 15, 3, 14, 0, 16, 14, 16, 15, 15, 16, 17, 15, 17, 3, 16, 0, 1, 16, 1, 17, 17, 1, 2, 17, 2, 3]
        point3f[] points = [(4, 4, 3.8074176), (4.06, 4, 3.8074176), (4.06, 4, 9.192582), (4, 4, 9.192582), (4.0424266, 4.0424266, 3.8074176), (4.0424266, 4.0424266, 9.192582), (4, 4.06, 3.8074176), (4, 4.06, 9.192582), (3.9575737, 4.0424266, 3.8074176), (3.9575737, 4.0424266, 9.192582), (3.94, 4, 3.8074176), (3.94, 4, 9.192582), (3.9575737, 3.9575737, 3.8074176), (3.9575737, 3.9575737, 9.192582), (4, 3.94, 3.8074176), (4, 3.94, 9.192582), (4.0424266, 3.9575737, 3.8074176), (4.0424266, 3.9575737, 9.192582)]
    }

    def Mesh "node_0"
    {
        int[] faceVertexCounts = [3, 3, 3, 3, 3, 3, 3, 3, 3, 3, 3, 3]
        int[] faceVertexIndices = [1, 3, 0, 4, 1, 0, 0, 3, 2, 2, 4, 0, 1, 7, 3, 5, 1, 4, 5, 7, 1, 3, 7, 2, 6, 4, 2, 2, 7, 6, 6, 5, 4, 7, 5, 6]
        point3f[] points = [(1.8, 2.8, 3.8), (1.8, 2.8, 4.2), (1.8, 3.2, 3.8), (1.8, 3.2, 4.2), (2.2, 2.8, 3.8), (2.2, 2.8, 4.2), (2.2, 3.2, 3.8), (2.2, 3.2, 4.2)]
    }

    def Mesh "node_1"
    {
        int[] faceVertexCounts = [3, 3, 3, 3, 3, 3, 3, 3, 3, 3, 3, 3]
        int[] faceVertexIndices = [1, 3, 0, 4, 1, 0, 0, 3, 2, 2, 4, 0, 1, 7, 3, 5, 1, 4, 5, 7, 1, 3, 7, 2, 6, 4, 2, 2, 7, 6, 6, 5, 4, 7, 5, 6]
        point3f[] points = [(6.75, 3.75, 5.75), (6.75, 3.75, 6.25), (6.75, 4.25, 5.75), (6.75, 4.25, 6.25), (7.25, 3.75, 5.75), (7.25, 3.75, 6.25), (7.25, 4.25, 5.75), (7.25, 4.25, 6.25)]
    }

    def Mesh "node_2"
    {
        int[] faceVertexCounts = [3, 3, 3, 3, 3, 3, 3, 3, 3, 3, 3, 3]
        int[] faceVertexIndices = [1, 3, 0, 4, 1, 0, 0, 3, 2, 2, 4, 0, 1, 7, 3, 5, 1, 4, 5, 7, 1, 3, 7, 2, 6, 4, 2, 2, 7, 6, 6, 5, 4, 7, 5, 6]
        point3f[] points = [(4.85, 0.85, 1.85), (4.85, 0.85, 2.15), (4.85, 1.15, 1.85), (4.85, 1.15, 2.15), (5.15, 0.85, 1.85), (5.15, 0.85, 2.15), (5.15, 1.15, 1.85), (5.15, 1.15, 2.15)]
    }

    def Mesh "node_3"
    {
        int[] faceVertexCounts = [3, 3, 3, 3, 3, 3, 3, 3, 3, 3, 3, 3]
        int[] faceVertexIndices = [1, 3, 0, 4, 1, 0, 0, 3, 2, 2, 4, 0, 1, 7, 3, 5, 1, 4, 5, 7, 1, 3, 7, 2, 6, 4, 2, 2, 7, 6, 6, 5, 4, 7, 5, 6]
        point3f[] points = [(2.7, 4.7, 7.7), (2.7, 4.7, 8.3), (2.7, 5.3, 7.7), (2.7, 5.3, 8.3), (3.3, 4.7, 7.7), (3.3, 4.7, 8.3), (3.3, 5.3, 7.7), (3.3, 5.3, 8.3)]
    }

    def Mesh "node_4"
    {
        int[] faceVertexCounts = [3, 3, 3, 3, 3, 3, 3, 3, 3, 3, 3, 3]
        int[] faceVertexIndices = [1, 3, 0, 4, 1, 0, 0, 3, 2, 2, 4, 0, 1, 7, 3, 5, 1, 4, 5, 7, 1, 3, 7, 2, 6, 4, 2, 2, 7, 6, 6, 5, 4, 7, 5, 6]
        point3f[] points = [(7.8, 1.8, 2.8), (7.8, 1.8, 3.2), (7.8, 2.2, 2.8), (7.8, 2.2, 3.2), (8.2, 1.8, 2.8), (8.2, 1.8, 3.2), (8.2, 2.2, 2.8), (8.2, 2.2, 3.2)]
    }

    def Mesh "far_wall"
    {
        int[] faceVertexCounts = [3, 3, 3, 3, 3, 3, 3, 3, 3, 3, 3, 3]
        int[] faceVertexIndices = [1, 3, 0, 4, 1, 0, 0, 3, 2, 2, 4, 0, 1, 7, 3, 5, 1, 4, 5, 7, 1, 3, 7, 2, 6, 4, 2, 2, 7, 6, 6, 5, 4, 7, 5, 6]
        point3f[] points = [(-5, -2.5, 14.75), (-5, -2.5, 15.25), (-5, 12.5, 14.75), (-5, 12.5, 15.25), (15, -2.5, 14.75), (15, -2.5, 15.25), (15, 12.5, 14.75), (15, 12.5, 15.25)]
    }

    def Mesh "ceiling_grid"
    {
        int[] faceVertexCounts = [3, 3, 3, 3, 3, 3, 3, 3, 3, 3, 3, 3]
        int[] faceVertexIndices = [1, 3, 0, 4, 1, 0, 0, 3, 2, 2, 4, 0, 1, 7, 3, 5, 1, 4, 5, 7, 1, 3, 7, 2, 6, 4, 2, 2, 7, 6, 6, 5, 4, 7, 5, 6]
        point3f[] points = [(-5, 9.75, -10), (-5, 9.75, 20), (-5, 10.25, -10), (-5, 10.25, 20), (15, 9.75, -10), (15, 9.75, 20), (15, 10.25, -10), (15, 10.25, 20)]
    }
}

