#usda 1.0
(
    defaultPrim = "Daemon"
    upAxis = "Y"
)

def Xform "Daemon"
{
    def Mesh "head"
    {
        int[] faceVertexCounts = [3, 3, 3, 3, 3, 3, 3, 3, 3, 3, 3, 3, 3, 3, 3, 3, 3, 3, 3, 3, 3, 3, 3, 3, 3, 3, 3, 3, 3, 3, 3, 3, 3, 3, 3, 3, 3, 3, 3, 3, 3, 3, 3, 3, 3, 3, 3, 3, 3, 3, 3, 3, 3, 3, 3, 3, 3, 3, 3, 3, 3, 3, 3, 3, 3, 3, 3, 3, 3, 3, 3, 3, 3, 3, 3, 3, 3, 3, 3, 3, 3, 3, 3, 3, 3, 3, 3, 3, 3, 3, 3, 3, 3, 3, 3, 3, 3, 3, 3, 3, 3, 3, 3, 3, 3, 3, 3, 3, 3, 3, 3, 3, 3, 3, 3, 3, 3, 3, 3, 3, 3, 3, 3, 3, 3, 3, 3, 3, 3, 3, 3, 3, 3, 3, 3, 3, 3, 3, 3, 3, 3, 3, 3, 3, 3, 3, 3, 3, 3, 3, 3, 3, 3, 3, 3, 3, 3, 3, 3, 3, 3, 3, 3, 3, 3, 3, 3, 3, 3, 3, 3, 3, 3, 3, 3, 3, 3, 3, 3, 3, 3, 3, 3, 3, 3, 3, 3, 3, 3, 3, 3, 3, 3, 3, 3, 3, 3, 3, 3, 3, 3, 3, 3, 3, 3, 3, 3, 3, 3, 3, 3, 3, 3, 3, 3, 3, 3, 3, 3, 3, 3, 3, 3, 3, 3, 3, 3, 3, 3, 3, 3, 3, 3, 3, 3, 3, 3, 3, 3, 3, 3, 3, 3, 3, 3, 3, 3, 3, 3, 3, 3, 3, 3, 3, 3, 3, 3, 3, 3, 3, 3, 3, 3, 3, 3, 3, 3, 3, 3, 3, 3, 3, 3, 3, 3, 3, 3, 3, 3, 3, 3, 3, 3, 3, 3, 3, 3, 3, 3, 3, 3, 3, 3, 3, 3, 3, 3, 3, 3, 3, 3, 3, 3, 3, 3, 3, 3, 3, 3, 3, 3, 3, 3, 3, 3, 3, 3, 3, 3, 3]
        int[] faceVertexIndices = [0, 137, 53, 137, 37, 139, 53, 139, 16, 137, 139, 53, 37, 138, 154, 138, 11, 151, 154, 151, 40, 138, 151, 154, 16, 152, 54, 152, 40, 150, 54, 150, 5, 152, 150, 54, 37, 154, 139, 154, 40, 152, 139, 152, 16, 154, 152, 139, 0, 53, 42, 53, 16, 55, 42, 55, 12, 53, 55, 42, 16, 54, 59, 54, 5, 57, 59, 57, 17, 54, 57, 59, 12, 58, 43, 58, 17, 56, 43, 56, 1, 58, 56, 43, 16, 59, 55, 59, 17, 58, 55, 58, 12, 59, 58, 55, 0, 42, 69, 42, 12, 71, 69, 71, 21, 42, 71, 69, 12, 43, 74, 43, 1, 72, 74, 72, 22, 43, 72, 74, 21, 75, 70, 75, 22, 73, 70, 73, 7, 75, 73, 70, 12, 74, 71, 74, 22, 75, 71, 75, 21, 74, 75, 71, 0, 69, 120, 69, 21, 122, 120, 122, 33, 69, 122, 120, 21, 70, 133, 70, 7, 131, 133, 131, 36, 70, 131, 133, 33, 135, 121, 135, 36, 132, 121, 132, 10, 135, 132, 121, 21, 133, 122, 133, 36, 135, 122, 135, 33, 133, 135, 122, 0, 120, 137, 120, 33, 140, 137, 140, 37, 120, 140, 137, 33, 121, 158, 121, 10, 156, 158, 156, 41, 121, 156, 158, 37, 160, 138, 160, 41, 157, 138, 157, 11, 160, 157, 138, 33, 158, 140, 158, 41, 160, 140, 160, 37, 158, 160, 140, 1, 56, 95, 56, 17, 97, 95, 97, 28, 56, 97, 95, 17, 57, 110, 57, 5, 108, 110, 108, 31, 57, 108, 110, 28, 112, 96, 112, 31, 109, 96, 109, 9, 112, 109, 96, 17, 110, 97, 110, 31, 112, 97, 112, 28, 110, 112, 97, 5, 150, 61, 150, 40, 153, 61, 153, 18, 150, 153, 61, 40, 151, 155, 151, 11, 146, 155, 146, 39, 151, 146, 155, 18, 148, 60, 148, 39, 145, 60, 145, 4, 148, 145, 60, 40, 155, 153, 155, 39, 148, 153, 148, 18, 155, 148, 153, 11, 157, 142, 157, 41, 161, 142, 161, 38, 157, 161, 142, 41, 156, 159, 156, 10, 124, 159, 124, 34, 156, 124, 159, 38, 144, 141, 144, 34, 123, 141, 123, 2, 144, 123, 141, 41, 159, 161, 159, 34, 144, 161, 144, 38, 159, 144, 161, 10, 132, 127, 132, 36, 136, 127, 136, 35, 132, 136, 127, 36, 131, 134, 131, 7, 77, 134, 77, 23, 131, 77, 134, 35, 129, 126, 129, 23, 76, 126, 76, 6, 129, 76, 126, 36, 134, 136, 134, 23, 129, 136, 129, 35, 134, 129, 136, 7, 73, 89, 73, 22, 91, 89, 91, 27, 73, 91, 89, 22, 72, 80, 72, 1, 78, 80, 78, 24, 72, 78, 80, 27, 93, 90, 93, 24, 79, 90, 79, 8, 93, 79, 90, 22, 80, 91, 80, 24, 93, 91, 93, 27, 80, 93, 91, 3, 99, 49, 99, 29, 101, 49, 101, 15, 99, 101, 49, 29, 100, 107, 100, 9, 104, 107, 104, 30, 100, 104, 107, 15, 105, 50, 105, 30, 103, 50, 103, 4, 105, 103, 50, 29, 107, 101, 107, 30, 105, 101, 105, 15, 107, 105, 101, 3, 49, 45, 49, 15, 51, 45, 51, 13, 49, 51, 45, 15, 50, 52, 50, 4, 47, 52, 47, 14, 50, 47, 52, 13, 48, 44, 48, 14, 46, 44, 46, 2, 48, 46, 44, 15, 52, 51, 52, 14, 48, 51, 48, 13, 52, 48, 51, 3, 45, 65, 45, 13, 67, 65, 67, 20, 45, 67, 65, 13, 44, 64, 44, 2, 62, 64, 62, 19, 44, 62, 64, 20, 68, 66, 68, 19, 63, 66, 63, 6, 68, 63, 66, 13, 64, 67, 64, 19, 68, 67, 68, 20, 64, 68, 67, 3, 65, 81, 65, 20, 83, 81, 83, 25, 65, 83, 81, 20, 66, 86, 66, 6, 84, 86, 84, 26, 66, 84, 86, 25, 88, 82, 88, 26, 85, 82, 85, 8, 88, 85, 82, 20, 86, 83, 86, 26, 88, 83, 88, 25, 86, 88, 83, 3, 81, 99, 81, 25, 102, 99, 102, 29, 81, 102, 99, 25, 82, 117, 82, 8, 114, 117, 114, 32, 82, 114, 117, 29, 119, 100, 119, 32, 115, 100, 115, 9, 119, 115, 100, 25, 117, 102, 117, 32, 119, 102, 119, 29, 117, 119, 102, 4, 103, 60, 103, 30, 106, 60, 106, 18, 103, 106, 60, 30, 104, 113, 104, 9, 109, 113, 109, 31, 104, 109, 113, 18, 111, 61, 111, 31, 108, 61, 108, 5, 111, 108, 61, 30, 113, 106, 113, 31, 111, 106, 111, 18, 113, 111, 106, 2, 46, 141, 46, 14, 143, 141, 143, 38, 46, 143, 141, 14, 47, 147, 47, 4, 145, 147, 145, 39, 47, 145, 147, 38, 149, 142, 149, 39, 146, 142, 146, 11, 149, 146, 142, 14, 147, 143, 147, 39, 149, 143, 149, 38, 147, 149, 143, 6, 63, 126, 63, 19, 128, 126, 128, 35, 63, 128, 126, 19, 62, 125, 62, 2, 123, 125, 123, 34, 62, 123, 125, 35, 130, 127, 130, 34, 124, 127, 124, 10, 130, 124, 127, 19, 125, 128, 125, 34, 130, 128, 130, 35, 125, 130, 128, 8, 85, 90, 85, 26, 94, 90, 94, 27, 85, 94, 90, 26, 84, 87, 84, 6, 76, 87, 76, 23, 84, 76, 87, 27, 92, 89, 92, 23, 77, 89, 77, 7, 92, 77, 89, 26, 87, 94, 87, 23, 92, 94, 92, 27, 87, 92, 94, 9, 115, 96, 115, 32, 118, 96, 118, 28, 115, 118, 96, 32, 114, 116, 114, 8, 79, 116, 79, 24, 114, 79, 116, 28, 98, 95, 98, 24, 78, 95, 78, 1, 98, 78, 95, 32, 116, 118, 116, 24, 98, 118, 98, 28, 116, 98, 118]
        point3f[] points = [(-0.10514622, 0.82013017, 0), (0.10514622, 0.82013017, 0), (-0.10514622, 0.47986984, 0), (0.10514622, 0.47986984, 0), (0, 0.5448538, 0.17013016), (0, 0.7551462, 0.17013016), (0, 0.5448538, -0.17013016), (0, 0.7551462, -0.17013016), (0.17013016, 0.65, -0.10514622), (0.17013016, 0.65, 0.10514622), (-0.17013016, 0.65, -0.10514622), (-0.17013016, 0.65, 0.10514622), (0, 0.85, 0), (0, 0.45, 0), (-0.0618034, 0.4881966, 0.1), (0.0618034, 0.4881966, 0.1), (-0.0618034, 0.8118034, 0.1), (0.0618034, 0.8118034, 0.1), (0, 0.65, 0.2), (-0.0618034, 0.4881966, -0.1), (0.0618034, 0.4881966, -0.1), (-0.0618034, 0.8118034, -0.1), (0.0618034, 0.8118034, -0.1), (0, 0.65, -0.2), (0.1618034, 0.75, -0.0618034), (0.1618034, 0.55, -0.0618034), (0.1, 0.5881966, -0.1618034), (0.1, 0.7118034, -0.1618034), (0.1618034, 0.75, 0.0618034), (0.1618034, 0.55, 0.0618034), (0.1, 0.5881966, 0.1618034), (0.1, 0.7118034, 0.1618034), (0.2, 0.65, 0), (-0.1618034, 0.75, -0.0618034), (-0.1618034, 0.55, -0.0618034), (-0.1, 0.5881966, -0.1618034), (-0.1, 0.7118034, -0.1618034), (-0.1618034, 0.75, 0.0618034), (-0.1618034, 0.55, 0.0618034), (-0.1, 0.5881966, 0.1618034), (-0.1, 0.7118034, 0.1618034), (-0.2, 0.65, 0), (-0.054653306, 0.8423877, 0), (0.054653306, 0.8423877, 0), (-0.054653306, 0.45761234, 0), (0.054653306, 0.45761234, 0), (-0.08677771, 0.47746632, 0.051978383), (-0.032124408, 0.5112439, 0.14040929), (-0.03249197, 0.4597887, 0.05257311), (0.08677771, 0.47746632, 0.051978383), (0.032124408, 0.5112439, 0.14040929), (0.03249197, 0.4597887, 0.05257311), (0, 0.47986984, 0.10514622), (-0.08677771, 0.82253367, 0.051978383), (-0.032124408, 0.7887561, 0.14040929), (-0.03249197, 0.84021133, 0.05257311), (0.08677771, 0.82253367, 0.051978383), (0.032124408, 0.7887561, 0.14040929), (0.03249197, 0.84021133, 0.05257311), (0, 0.82013017, 0.10514622), (0, 0.5953467, 0.19238767), (0, 0.7046533, 0.19238767), (-0.08677771, 0.47746632, -0.051978383), (-0.032124408, 0.5112439, -0.14040929), (-0.03249197, 0.4597887, -0.05257311), (0.08677771, 0.47746632, -0.051978383), (0.032124408, 0.5112439, -0.14040929), (0.03249197, 0.4597887, -0.05257311), (0, 0.47986984, -0.10514622), (-0.08677771, 0.82253367, -0.051978383), (-0.032124408, 0.7887561, -0.14040929), (-0.03249197, 0.84021133, -0.05257311), (0.08677771, 0.82253367, -0.051978383), (0.032124408, 0.7887561, -0.14040929), (0.03249197, 0.84021133, -0.05257311), (0, 0.82013017, -0.10514622), (0, 0.5953467, -0.19238767), (0, 0.7046533, -0.19238767), (0.1387561, 0.79040927, -0.032124408), (0.17253369, 0.7019784, -0.08677771), (0.11755705, 0.7876382, -0.08506508), (0.1387561, 0.5095907, -0.032124408), (0.17253369, 0.5980216, -0.08677771), (0.11755705, 0.5123618, -0.08506508), (0.051978383, 0.5632223, -0.17253369), (0.14040929, 0.6178756, -0.1387561), (0.08506508, 0.5324429, -0.1376382), (0.05257311, 0.61750805, -0.1902113), (0.1376382, 0.5649349, -0.11755705), (0.051978383, 0.7367777, -0.17253369), (0.14040929, 0.68212444, -0.1387561), (0.08506508, 0.767557, -0.1376382), (0.05257311, 0.68249196, -0.1902113), (0.1376382, 0.7350651, -0.11755705), (0.10514622, 0.65, -0.17013016), (0.1387561, 0.79040927, 0.032124408), (0.17253369, 0.7019784, 0.08677771), (0.11755705, 0.7876382, 0.08506508), (0.17013016, 0.7551462, 0), (0.1387561, 0.5095907, 0.032124408), (0.17253369, 0.5980216, 0.08677771), (0.11755705, 0.5123618, 0.08506508), (0.17013016, 0.5448538, 0), (0.051978383, 0.5632223, 0.17253369), (0.14040929, 0.6178756, 0.1387561), (0.08506508, 0.5324429, 0.1376382), (0.05257311, 0.61750805, 0.1902113), (0.1376382, 0.5649349, 0.11755705), (0.051978383, 0.7367777, 0.17253369), (0.14040929, 0.68212444, 0.1387561), (0.08506508, 0.767557, 0.1376382), (0.05257311, 0.68249196, 0.1902113), (0.1376382, 0.7350651, 0.11755705), (0.10514622, 0.65, 0.17013016), (0.19238767, 0.65, -0.054653306), (0.19238767, 0.65, 0.054653306), (0.1902113, 0.7025731, -0.03249197), (0.1902113, 0.5974269, -0.03249197), (0.1902113, 0.7025731, 0.03249197), (0.1902113, 0.5974269, 0.03249197), (-0.1387561, 0.79040927, -0.032124408), (-0.17253369, 0.7019784, -0.08677771), (-0.11755705, 0.7876382, -0.08506508), (-0.1387561, 0.5095907, -0.032124408), (-0.17253369, 0.5980216, -0.08677771), (-0.11755705, 0.5123618, -0.08506508), (-0.051978383, 0.5632223, -0.17253369), (-0.14040929, 0.6178756, -0.1387561), (-0.08506508, 0.5324429, -0.1376382), (-0.05257311, 0.61750805, -0.1902113), (-0.1376382, 0.5649349, -0.11755705), (-0.051978383, 0.7367777, -0.17253369), (-0.14040929, 0.68212444, -0.1387561), (-0.08506508, 0.767557, -0.1376382), (-0.05257311, 0.68249196, -0.1902113), (-0.1376382, 0.7350651, -0.11755705), (-0.10514622, 0.65, -0.17013016), (-0.1387561, 0.79040927, 0.032124408), (-0.17253369, 0.7019784, 0.08677771), (-0.11755705, 0.7876382, 0.08506508), (-0.17013016, 0.7551462, 0), (-0.1387561, 0.5095907, 0.032124408), (-0.17253369, 0.5980216, 0.08677771), (-0.11755705, 0.5123618, 0.08506508), (-0.17013016, 0.5448538, 0), (-0.051978383, 0.5632223, 0.17253369), (-0.14040929, 0.6178756, 0.1387561), (-0.08506508, 0.5324429, 0.1376382), (-0.05257311, 0.61750805, 0.1902113), (-0.1376382, 0.5649349, 0.11755705), (-0.051978383, 0.7367777, 0.17253369), (-0.14040929, 0.68212444, 0.1387561), (-0.08506508, 0.767557, 0.1376382), (-0.05257311, 0.68249196, 0.1902113), (-0.1376382, 0.7350651, 0.11755705), (-0.10514622, 0.65, 0.17013016), (-0.19238767, 0.65, -0.054653306), (-0.19238767, 0.65, 0.054653306), (-0.1902113, 0.7025731, -0.03249197), (-0.1902113, 0.5974269, -0.03249197), (-0.1902113, 0.7025731, 0.03249197), (-0.1902113, 0.5974269, 0.03249197)]
    }

    def Mesh "torso"
    {
        int[] faceVertexCounts = [3, 3, 3, 3, 3, 3, 3, 3, 3, 3, 3, 3]
        int[] faceVertexIndices = [1, 3, 0, 4, 1, 0, 0, 3, 2, 2, 4, 0, 1, 7, 3, 5, 1, 4, 5, 7, 1, 3, 7, 2, 6, 4, 2, 2, 7, 6, 6, 5, 4, 7, 5, 6]
        point3f[] points = [(-0.175, 0.1, -0.125), (-0.175, 0.1, 0.125), (-0.175, 0.5, -0.125), (-0.175, 0.5, 0.125), (0.175, 0.1, -0.125), (0.175, 0.1, 0.125), (0.175, 0.5, -0.125), (0.175, 0.5, 0.125)]
    }

    def Mesh "horn_l"
    {
        int[] faceVertexCounts = [3, 3, 3, 3, 3, 3, 3, 3, 3, 3, 3, 3, 3, 3, 3, 3, 3, 3, 3, 3, 3, 3, 3, 3, 3, 3, 3, 3, 3, 3, 3, 3, 3, 3, 3, 3, 3, 3, 3, 3, 3, 3, 3, 3, 3, 3, 3, 3]
        int[] faceVertexIndices = [1, 0, 4, 1, 4, 2, 2, 4, 5, 2, 5, 3, 4, 0, 6, 4, 6, 5, 5, 6, 7, 5, 7, 3, 6, 0, 8, 6, 8, 7, 7, 8, 9, 7, 9, 3, 8, 0, 10, 8, 10, 9, 9, 10, 11, 9, 11, 3, 10, 0, 12, 10, 12, 11, 11, 12, 13, 11, 13, 3, 12, 0, 14, 12, 14, 13, 13, 14, 15, 13, 15, 3, 14, 0, 16, 14, 16, 15, 15, 16, 17, 15, 17, 3, 16, 0, 18, 16, 18, 17, 17, 18, 19, 17, 19, 3, 18, 0, 20, 18, 20, 19, 19, 20, 21, 19, 21, 3, 20, 0, 22, 20, 22, 21, 21, 22, 23, 21, 23, 3, 22, 0, 24, 22, 24, 23, 23, 24, 25, 23, 25, 3, 24, 0, 1, 24, 1, 25, 25, 1, 2, 25, 2, 3]
        point3f[] points = [(-0.1, 0.85, -0.09), (-0.06, 0.85, -0.09), (-0.06, 0.85, 0.09), (-0.1, 0.85, 0.09), (-0.06535898, 0.87, -0.09), (-0.06535898, 0.87, 0.09), (-0.08, 0.884641, -0.09), (-0.08, 0.884641, 0.09), (-0.1, 0.89, -0.09), (-0.1, 0.89, 0.09), (-0.12, 0.884641, -0.09), (-0.12, 0.884641, 0.09), (-0.13464102, 0.87, -0.09), (-0.13464102, 0.87, 0.09), (-0.14, 0.85, -0.09), (-0.14, 0.85, 0.09), (-0.13464102, 0.83, -0.09), (-0.13464102, 0.83, 0.09), (-0.12, 0.815359, -0.09), (-0.12, 0.815359, 0.09), (-0.1, 0.81, -0.09), (-0.1, 0.81, 0.09), (-0.08, 0.815359, -0.09), (-0.08, 0.815359, 0.09), (-0.06535898, 0.83, -0.09), (-0.06535898, 0.83, 0.09)]
    }

    def Mesh "horn_r"
    {
        int[] faceVertexCounts = [3, 3, 3, 3, 3, 3, 3, 3, 3, 3, 3, 3, 3, 3, 3, 3, 3, 3, 3, 3, 3, 3, 3, 3, 3, 3, 3, 3, 3, 3, 3, 3, 3, 3, 3, 3, 3, 3, 3, 3, 3, 3, 3, 3, 3, 3, 3, 3]
        int[] faceVertexIndices = [1, 0, 4, 1, 4, 2, 2, 4, 5, 2, 5, 3, 4, 0, 6, 4, 6, 5, 5, 6, 7, 5, 7, 3, 6, 0, 8, 6, 8, 7, 7, 8, 9, 7, 9, 3, 8, 0, 10, 8, 10, 9, 9, 10, 11, 9, 11, 3, 10, 0, 12, 10, 12, 11, 11, 12, 13, 11, 13, 3, 12, 0, 14, 12, 14, 13, 13, 14, 15, 13, 15, 3, 14, 0, 16, 14, 16, 15, 15, 16, 17, 15, 17, 3, 16, 0, 18, 16, 18, 17, 17, 18, 19, 17, 19, 3, 18, 0, 20, 18, 20, 19, 19, 20, 21, 19, 21, 3, 20, 0, 22, 20, 22, 21, 21, 22, 23, 21, 23, 3, 22, 0, 24, 22, 24, 23, 23, 24, 25, 23, 25, 3, 24, 0, 1, 24, 1, 25, 25, 1, 2, 25, 2, 3]
        point3f[] points = [(0.1, 0.85, -0.09), (0.14, 0.85, -0.09), (0.14, 0.85, 0.09), (0.1, 0.85, 0.09), (0.13464102, 0.87, -0.09), (0.13464102, 0.87, 0.09), (0.12, 0.884641, -0.09), (0.12, 0.884641, 0.09), (0.1, 0.89, -0.09), (0.1, 0.89, 0.09), (0.08, 0.884641, -0.09), (0.08, 0.884641, 0.09), (0.06535898, 0.87, -0.09), (0.06535898, 0.87, 0.09), (0.06, 0.85, -0.09), (0.06, 0.85, 0.09), (0.06535898, 0.83, -0.09), (0.06535898, 0.83, 0.09), (0.08, 0.815359, -0.09), (0.08, 0.815359, 0.09), (0.1, 0.81, -0.09), (0.1, 0.81, 0.09), (0.12, 0.815359, -0.09), (0.12, 0.815359, 0.09), (0.13464102, 0.83, -0.09), (0.13464102, 0.83, 0.09)]
    }

    def Mesh "wing_l"
    {
        int[] faceVertexCounts = [3, 3, 3, 3, 3, 3, 3, 3, 3, 3, 3, 3]
        int[] faceVertexIndices = [1, 3, 0, 4, 1, 0, 0, 3, 2, 2, 4, 0, 1, 7, 3, 5, 1, 4, 5, 7, 1, 3, 7, 2, 6, 4, 2, 2, 7, 6, 6, 5, 4, 7, 5, 6]
        point3f[] points = [(-0.65, 0.25, -0.01), (-0.65, 0.25, 0.01), (-0.65, 0.55, -0.01), (-0.65, 0.55, 0.01), (-0.15, 0.25, -0.01), (-0.15, 0.25, 0.01), (-0.15, 0.55, -0.01), (-0.15, 0.55, 0.01)]
    }

    def Mesh "wing_r"
    {
        int[] faceVertexCounts = [3, 3, 3, 3, 3, 3, 3, 3, 3, 3, 3, 3]
        int[] faceVertexIndices = [1, 3, 0, 4, 1, 0, 0, 3, 2, 2, 4, 0, 1, 7, 3, 5, 1, 4, 5, 7, 1, 3, 7, 2, 6, 4, 2, 2, 7, 6, 6, 5, 4, 7, 5, 6]
        point3f[] points = [(0.15, 0.25, -0.01), (0.15, 0.25, 0.01), (0.15, 0.55, -0.01), (0.15, 0.55, 0.01), (0.65, 0.25, -0.01), (0.65, 0.25, 0.01), (0.65, 0.55, -0.01), (0.65, 0.55, 0.01)]
    }

    def Mesh "tail"
    {
        int[] faceVertexCounts = [3, 3, 3, 3, 3, 3, 3, 3, 3, 3, 3, 3, 3, 3, 3, 3, 3, 3, 3, 3, 3, 3, 3, 3, 3, 3, 3, 3, 3, 3, 3, 3, 3, 3, 3, 3, 3, 3, 3, 3, 3, 3, 3, 3, 3, 3, 3, 3]
        int[] faceVertexIndices = [1, 0, 4, 1, 4, 2, 2, 4, 5, 2, 5, 3, 4, 0, 6, 4, 6, 5, 5, 6, 7, 5, 7, 3, 6, 0, 8, 6, 8, 7, 7, 8, 9, 7, 9, 3, 8, 0, 10, 8, 10, 9, 9, 10, 11, 9, 11, 3, 10, 0, 12, 10, 12, 11, 11, 12, 13, 11, 13, 3, 12, 0, 14, 12, 14, 13, 13, 14, 15, 13, 15, 3, 14, 0, 16, 14, 16, 15, 15, 16, 17, 15, 17, 3, 16, 0, 18, 16, 18, 17, 17, 18, 19, 17, 19, 3, 18, 0, 20, 18, 20, 19, 19, 20, 21, 19, 21, 3, 20, 0, 22, 20, 22, 21, 21, 22, 23, 21, 23, 3, 22, 0, 24, 22, 24, 23, 23, 24, 25, 23, 25, 3, 24, 0, 1, 24, 1, 25, 25, 1, 2, 25, 2, 3]
        point3f[] points = [(0, 0.15, -0.405), (0.04, 0.15, -0.405), (0.04, 0.15, 0.045), (0, 0.15, 0.045), (0.034641016, 0.17, -0.405), (0.034641016, 0.17, 0.045), (0.02, 0.18464102, -0.405), (0.02, 0.18464102, 0.045), (2.4492936e-18, 0.19, -0.405), (2.4492936e-18, 0.19, 0.045), (-0.02, 0.18464102, -0.405), (-0.02, 0.18464102, 0.045), (-0.034641016, 0.17, -0.405), (-0.034641016, 0.17, 0.045), (-0.04, 0.15, -0.405), (-0.04, 0.15, 0.045), (-0.034641016, 0.13, -0.405), (-0.034641016, 0.13, 0.045), (-0.02, 0.115358986, -0.405), (-0.02, 0.115358986, 0.045), (-7.347881e-18, 0.11, -0.405), (-7.347881e-18, 0.11, 0.045), (0.02, 0.115358986, -0.405), (0.02, 0.115358986, 0.045), (0.034641016, 0.13, -0.405), (0.034641016, 0.13, 0.045)]
    }

    def Mesh "arm_l"
    {
        int[] faceVertexCounts = [3, 3, 3, 3, 3, 3, 3, 3, 3, 3, 3, 3, 3, 3, 3, 3, 3, 3, 3, 3, 3, 3, 3, 3, 3, 3, 3, 3, 3, 3, 3, 3, 3, 3, 3, 3, 3, 3, 3, 3, 3, 3, 3, 3, 3, 3, 3, 3]
        int[] faceVertexIndices = [1, 0, 4, 1, 4, 2, 2, 4, 5, 2, 5, 3, 4, 0, 6, 4, 6, 5, 5, 6, 7, 5, 7, 3, 6, 0, 8, 6, 8, 7, 7, 8, 9, 7, 9, 3, 8, 0, 10, 8, 10, 9, 9, 10, 11, 9, 11, 3, 10, 0, 12, 10, 12, 11, 11, 12, 13, 11, 13, 3, 12, 0, 14, 12, 14, 13, 13, 14, 15, 13, 15, 3, 14, 0, 16, 14, 16, 15, 15, 16, 17, 15, 17, 3, 16, 0, 18, 16, 18, 17, 17, 18, 19, 17, 19, 3, 18, 0, 20, 18, 20, 19, 19, 20, 21, 19, 21, 3, 20, 0, 22, 20, 22, 21, 21, 22, 23, 21, 23, 3, 22, 0, 24, 22, 24, 23, 23, 24, 25, 23, 25, 3, 24, 0, 1, 24, 1, 25, 25, 1, 2, 25, 2, 3]
        point3f[] points = [(-0.22, 0.35, -0.15), (-0.17, 0.35, -0.15), (-0.17, 0.35, 0.15), (-0.22, 0.35, 0.15), (-0.17669873, 0.375, -0.15), (-0.17669873, 0.375, 0.15), (-0.195, 0.39330128, -0.15), (-0.195, 0.39330128, 0.15), (-0.22, 0.4, -0.15), (-0.22, 0.4, 0.15), (-0.245, 0.39330128, -0.15), (-0.245, 0.39330128, 0.15), (-0.26330128, 0.375, -0.15), (-0.26330128, 0.375, 0.15), (-0.27, 0.35, -0.15), (-0.27, 0.35, 0.15), (-0.26330128, 0.325, -0.15), (-0.26330128, 0.325, 0.15), (-0.245, 0.30669874, -0.15), (-0.245, 0.30669874, 0.15), (-0.22, 0.3, -0.15), (-0.22, 0.3, 0.15), (-0.195, 0.30669874, -0.15), (-0.195, 0.30669874, 0.15), (-0.17669873, 0.325, -0.15), (-0.17669873, 0.325, 0.15)]
    }

    def Mesh "arm_r"
    {
        int[] faceVertexCounts = [3, 3, 3, 3, 3, 3, 3, 3, 3, 3, 3, 3, 3, 3, 3, 3, 3, 3, 3, 3, 3, 3, 3, 3, 3, 3, 3, 3, 3, 3, 3, 3, 3, 3, 3, 3, 3, 3, 3, 3, 3, 3, 3, 3, 3, 3, 3, 3]
        int[] faceVertexIndices = [1, 0, 4, 1, 4, 2, 2, 4, 5, 2, 5, 3, 4, 0, 6, 4, 6, 5, 5, 6, 7, 5, 7, 3, 6, 0, 8, 6, 8, 7, 7, 8, 9, 7, 9, 3, 8, 0, 10, 8, 10, 9, 9, 10, 11, 9, 11, 3, 10, 0, 12, 10, 12, 11, 11, 12, 13, 11, 13, 3, 12, 0, 14, 12, 14, 13, 13, 14, 15, 13, 15, 3, 14, 0, 16, 14, 16, 15, 15, 16, 17, 15, 17, 3, 16, 0, 18, 16, 18, 17, 17, 18, 19, 17, 19, 3, 18, 0, 20, 18, 20, 19, 19, 20, 21, 19, 21, 3, 20, 0, 22, 20, 22, 21, 21, 22, 23, 21, 23, 3, 22, 0, 24, 22, 24, 23, 23, 24, 25, 23, 25, 3, 24, 0, 1, 24, 1, 25, 25, 1, 2, 25, 2, 3]
        point3f[] points = [(0.22, 0.35, -0.15), (0.27, 0.35, -0.15), (0.27, 0.35, 0.15), (0.22, 0.35, 0.15), (0.26330128, 0.375, -0.15), (0.26330128, 0.375, 0.15), (0.245, 0.39330128, -0.15), (0.245, 0.39330128, 0.15), (0.22, 0.4, -0.15), (0.22, 0.4, 0.15), (0.195, 0.39330128, -0.15), (0.195, 0.39330128, 0.15), (0.17669873, 0.375, -0.15), (0.17669873, 0.375, 0.15), (0.17, 0.35, -0.15), (0.17, 0.35, 0.15), (0.17669873, 0.325, -0.15), (0.17669873, 0.325, 0.15), (0.195, 0.30669874, -0.15), (0.195, 0.30669874, 0.15), (0.22, 0.3, -0.15), (0.22, 0.3, 0.15), (0.245, 0.30669874, -0.15), (0.245, 0.30669874, 0.15), (0.26330128, 0.325, -0.15), (0.26330128, 0.325, 0.15)]
    }

    def Mesh "claw_l"
    {
        int[] faceVertexCounts = [3, 3, 3, 3, 3, 3, 3, 3, 3, 3, 3, 3, 3, 3, 3, 3, 3, 3, 3, 3, 3, 3, 3, 3, 3, 3, 3, 3, 3, 3, 3, 3, 3, 3, 3, 3, 3, 3, 3, 3, 3, 3, 3, 3, 3, 3, 3, 3, 3, 3, 3, 3, 3, 3, 3, 3, 3, 3, 3, 3, 3, 3, 3, 3, 3, 3, 3, 3, 3, 3, 3, 3, 3, 3, 3, 3, 3, 3, 3, 3, 3, 3, 3, 3, 3, 3, 3, 3, 3, 3, 3, 3, 3, 3, 3, 3, 3, 3, 3, 3, 3, 3, 3, 3, 3, 3, 3, 3, 3, 3, 3, 3, 3, 3, 3, 3, 3, 3, 3, 3, 3, 3, 3, 3, 3, 3, 3, 3, 3, 3, 3, 3, 3, 3, 3, 3, 3, 3, 3, 3, 3, 3, 3, 3, 3, 3, 3, 3, 3, 3, 3, 3, 3, 3, 3, 3, 3, 3, 3, 3, 3, 3, 3, 3, 3, 3, 3, 3, 3, 3, 3, 3, 3, 3, 3, 3, 3, 3, 3, 3, 3, 3, 3, 3, 3, 3, 3, 3, 3, 3, 3, 3, 3, 3, 3, 3, 3, 3, 3, 3, 3, 3, 3, 3, 3, 3, 3, 3, 3, 3, 3, 3, 3, 3, 3, 3, 3, 3, 3, 3, 3, 3, 3, 3, 3, 3, 3, 3, 3, 3, 3, 3, 3, 3, 3, 3, 3, 3, 3, 3, 3, 3, 3, 3, 3, 3, 3, 3, 3, 3, 3, 3, 3, 3, 3, 3, 3, 3, 3, 3, 3, 3, 3, 3, 3, 3, 3, 3, 3, 3, 3, 3, 3, 3, 3, 3, 3, 3, 3, 3, 3, 3, 3, 3, 3, 3, 3, 3, 3, 3, 3, 3, 3, 3, 3, 3, 3, 3, 3, 3, 3, 3, 3, 3, 3, 3, 3, 3, 3, 3, 3, 3, 3, 3, 3, 3, 3, 3, 3, 3]
        int[] faceVertexIndices = [0, 137, 53, 137, 37, 139, 53, 139, 16, 137, 139, 53, 37, 138, 154, 138, 11, 151, 154, 151, 40, 138, 151, 154, 16, 152, 54, 152, 40, 150, 54, 150, 5, 152, 150, 54, 37, 154, 139, 154, 40, 152, 139, 152, 16, 154, 152, 139, 0, 53, 42, 53, 16, 55, 42, 55, 12, 53, 55, 42, 16, 54, 59, 54, 5, 57, 59, 57, 17, 54, 57, 59, 12, 58, 43, 58, 17, 56, 43, 56, 1, 58, 56, 43, 16, 59, 55, 59, 17, 58, 55, 58, 12, 59, 58, 55, 0, 42, 69, 42, 12, 71, 69, 71, 21, 42, 71, 69, 12, 43, 74, 43, 1, 72, 74, 72, 22, 43, 72, 74, 21, 75, 70, 75, 22, 73, 70, 73, 7, 75, 73, 70, 12, 74, 71, 74, 22, 75, 71, 75, 21, 74, 75, 71, 0, 69, 120, 69, 21, 122, 120, 122, 33, 69, 122, 120, 21, 70, 133, 70, 7, 131, 133, 131, 36, 70, 131, 133, 33, 135, 121, 135, 36, 132, 121, 132, 10, 135, 132, 121, 21, 133, 122, 133, 36, 135, 122, 135, 33, 133, 135, 122, 0, 120, 137, 120, 33, 140, 137, 140, 37, 120, 140, 137, 33, 121, 158, 121, 10, 156, 158, 156, 41, 121, 156, 158, 37, 160, 138, 160, 41, 157, 138, 157, 11, 160, 157, 138, 33, 158, 140, 158, 41, 160, 140, 160, 37, 158, 160, 140, 1, 56, 95, 56, 17, 97, 95, 97, 28, 56, 97, 95, 17, 57, 110, 57, 5, 108, 110, 108, 31, 57, 108, 110, 28, 112, 96, 112, 31, 109, 96, 109, 9, 112, 109, 96, 17, 110, 97, 110, 31, 112, 97, 112, 28, 110, 112, 97, 5, 150, 61, 150, 40, 153, 61, 153, 18, 150, 153, 61, 40, 151, 155, 151, 11, 146, 155, 146, 39, 151, 146, 155, 18, 148, 60, 148, 39, 145, 60, 145, 4, 148, 145, 60, 40, 155, 153, 155, 39, 148, 153, 148, 18, 155, 148, 153, 11, 157, 142, 157, 41, 161, 142, 161, 38, 157, 161, 142, 41, 156, 159, 156, 10, 124, 159, 124, 34, 156, 124, 159, 38, 144, 141, 144, 34, 123, 141, 123, 2, 144, 123, 141, 41, 159, 161, 159, 34, 144, 161, 144, 38, 159, 144, 161, 10, 132, 127, 132, 36, 136, 127, 136, 35, 132, 136, 127, 36, 131, 134, 131, 7, 77, 134, 77, 23, 131, 77, 134, 35, 129, 126, 129, 23, 76, 126, 76, 6, 129, 76, 126, 36, 134, 136, 134, 23, 129, 136, 129, 35, 134, 129, 136, 7, 73, 89, 73, 22, 91, 89, 91, 27, 73, 91, 89, 22, 72, 80, 72, 1, 78, 80, 78, 24, 72, 78, 80, 27, 93, 90, 93, 24, 79, 90, 79, 8, 93, 79, 90, 22, 80, 91, 80, 24, 93, 91, 93, 27, 80, 93, 91, 3, 99, 49, 99, 29, 101, 49, 101, 15, 99, 101, 49, 29, 100, 107, 100, 9, 104, 107, 104, 30, 100, 104, 107, 15, 105, 50, 105, 30, 103, 50, 103, 4, 105, 103, 50, 29, 107, 101, 107, 30, 105, 101, 105, 15, 107, 105, 101, 3, 49, 45, 49, 15, 51, 45, 51, 13, 49, 51, 45, 15, 50, 52, 50, 4, 47, 52, 47, 14, 50, 47, 52, 13, 48, 44, 48, 14, 46, 44, 46, 2, 48, 46, 44, 15, 52, 51, 52, 14, 48, 51, 48, 13, 52, 48, 51, 3, 45, 65, 45, 13, 67, 65, 67, 20, 45, 67, 65, 13, 44, 64, 44, 2, 62, 64, 62, 19, 44, 62, 64, 20, 68, 66, 68, 19, 63, 66, 63, 6, 68, 63, 66, 13, 64, 67, 64, 19, 68, 67, 68, 20, 64, 68, 67, 3, 65, 81, 65, 20, 83, 81, 83, 25, 65, 83, 81, 20, 66, 86, 66, 6, 84, 86, 84, 26, 66, 84, 86, 25, 88, 82, 88, 26, 85, 82, 85, 8, 88, 85, 82, 20, 86, 83, 86, 26, 88, 83, 88, 25, 86, 88, 83, 3, 81, 99, 81, 25, 102, 99, 102, 29, 81, 102, 99, 25, 82, 117, 82, 8, 114, 117, 114, 32, 82, 114, 117, 29, 119, 100, 119, 32, 115, 100, 115, 9, 119, 115, 100, 25, 117, 102, 117, 32, 119, 102, 119, 29, 117, 119, 102, 4, 103, 60, 103, 30, 106, 60, 106, 18, 103, 106, 60, 30, 104, 113, 104, 9, 109, 113, 109, 31, 104, 109, 113, 18, 111, 61, 111, 31, 108, 61, 108, 5, 111, 108, 61, 30, 113, 106, 113, 31, 111, 106, 111, 18, 113, 111, 106, 2, 46, 141, 46, 14, 143, 141, 143, 38, 46, 143, 141, 14, 47, 147, 47, 4, 145, 147, 145, 39, 47, 145, 147, 38, 149, 142, 149, 39, 146, 142, 146, 11, 149, 146, 142, 14, 147, 143, 147, 39, 149, 143, 149, 38, 147, 149, 143, 6, 63, 126, 63, 19, 128, 126, 128, 35, 63, 128, 126, 19, 62, 125, 62, 2, 123, 125, 123, 34, 62, 123, 125, 35, 130, 127, 130, 34, 124, 127, 124, 10, 130, 124, 127, 19, 125, 128, 125, 34, 130, 128, 130, 35, 125, 130, 128, 8, 85, 90, 85, 26, 94, 90, 94, 27, 85, 94, 90, 26, 84, 87, 84, 6, 76, 87, 76, 23, 84, 76, 87, 27, 92, 89, 92, 23, 77, 89, 77, 7, 92, 77, 89, 26, 87, 94, 87, 23, 92, 94, 92, 27, 87, 92, 94, 9, 115, 96, 115, 32, 118, 96, 118, 28, 115, 118, 96, 32, 114, 116, 114, 8, 79, 116, 79, 24, 114, 79, 116, 28, 98, 95, 98, 24, 78, 95, 78, 1, 98, 78, 95, 32, 116, 118, 116, 24, 98, 118, 98, 28, 116, 98, 118]
        point3f[] points = [(-0.32628655, 0.19253254, 0), (-0.27371344, 0.19253254, 0), (-0.32628655, 0.10746746, 0), (-0.27371344, 0.10746746, 0), (-0.3, 0.12371344, 0.04253254), (-0.3, 0.17628655, 0.04253254), (-0.3, 0.12371344, -0.04253254), (-0.3, 0.17628655, -0.04253254), (-0.25746745, 0.15, -0.026286555), (-0.25746745, 0.15, 0.026286555), (-0.34253255, 0.15, -0.026286555), (-0.34253255, 0.15, 0.026286555), (-0.3, 0.2, 0), (-0.3, 0.1, 0), (-0.31545085, 0.10954915, 0.025), (-0.28454915, 0.10954915, 0.025), (-0.31545085, 0.19045085, 0.025), (-0.28454915, 0.19045085, 0.025), (-0.3, 0.15, 0.05), (-0.31545085, 0.10954915, -0.025), (-0.28454915, 0.10954915, -0.025), (-0.31545085, 0.19045085, -0.025), (-0.28454915, 0.19045085, -0.025), (-0.3, 0.15, -0.05), (-0.25954914, 0.175, -0.01545085), (-0.25954914, 0.125, -0.01545085), (-0.275, 0.13454916, -0.04045085), (-0.275, 0.16545086, -0.04045085), (-0.25954914, 0.175, 0.01545085), (-0.25954914, 0.125, 0.01545085), (-0.275, 0.13454916, 0.04045085), (-0.275, 0.16545086, 0.04045085), (-0.25, 0.15, 0), (-0.34045085, 0.175, -0.01545085), (-0.34045085, 0.125, -0.01545085), (-0.325, 0.13454916, -0.04045085), (-0.325, 0.16545086, -0.04045085), (-0.34045085, 0.175, 0.01545085), (-0.34045085, 0.125, 0.01545085), (-0.325, 0.13454916, 0.04045085), (-0.325, 0.16545086, 0.04045085), (-0.35, 0.15, 0), (-0.31366333, 0.19809692, 0), (-0.28633666, 0.19809692, 0), (-0.31366333, 0.10190308, 0), (-0.28633666, 0.10190308, 0), (-0.32169443, 0.106866576, 0.012994596), (-0.3080311, 0.115310974, 0.035102323), (-0.308123, 0.102447174, 0.013143278), (-0.27830556, 0.106866576, 0.012994596), (-0.2919689, 0.115310974, 0.035102323), (-0.291877, 0.102447174, 0.013143278), (-0.3, 0.10746746, 0.026286555), (-0.32169443, 0.19313343, 0.012994596), (-0.3080311, 0.18468903, 0.035102323), (-0.308123, 0.19755283, 0.013143278), (-0.27830556, 0.19313343, 0.012994596), (-0.2919689, 0.18468903, 0.035102323), (-0.291877, 0.19755283, 0.013143278), (-0.3, 0.19253254, 0.026286555), (-0.3, 0.13633667, 0.048096918), (-0.3, 0.16366333, 0.048096918), (-0.32169443, 0.106866576, -0.012994596), (-0.3080311, 0.115310974, -0.035102323), (-0.308123, 0.102447174, -0.013143278), (-0.27830556, 0.106866576, -0.012994596), (-0.2919689, 0.115310974, -0.035102323), (-0.291877, 0.102447174, -0.013143278), (-0.3, 0.10746746, -0.026286555), (-0.32169443, 0.19313343, -0.012994596), (-0.3080311, 0.18468903, -0.035102323), (-0.308123, 0.19755283, -0.013143278), (-0.27830556, 0.19313343, -0.012994596), (-0.2919689, 0.18468903, -0.035102323), (-0.291877, 0.19755283, -0.013143278), (-0.3, 0.19253254, -0.026286555), (-0.3, 0.13633667, -0.048096918), (-0.3, 0.16366333, -0.048096918), (-0.26531097, 0.18510233, -0.008031102), (-0.25686657, 0.1629946, -0.021694427), (-0.27061075, 0.18440954, -0.02126627), (-0.26531097, 0.114897676, -0.008031102), (-0.25686657, 0.1370054, -0.021694427), (-0.27061075, 0.11559045, -0.02126627), (-0.2870054, 0.12830557, -0.043133423), (-0.26489767, 0.14196889, -0.034689024), (-0.27873373, 0.12061074, -0.03440955), (-0.2868567, 0.14187701, -0.047552824), (-0.26559046, 0.12873372, -0.029389262), (-0.2870054, 0.17169443, -0.043133423), (-0.26489767, 0.1580311, -0.034689024), (-0.27873373, 0.17938927, -0.03440955), (-0.2868567, 0.15812299, -0.047552824), (-0.26559046, 0.17126627, -0.029389262), (-0.27371344, 0.15, -0.04253254), (-0.26531097, 0.18510233, 0.008031102), (-0.25686657, 0.1629946, 0.021694427), (-0.27061075, 0.18440954, 0.02126627), (-0.25746745, 0.17628655, 0), (-0.26531097, 0.114897676, 0.008031102), (-0.25686657, 0.1370054, 0.021694427), (-0.27061075, 0.11559045, 0.02126627), (-0.25746745, 0.12371344, 0), (-0.2870054, 0.12830557, 0.043133423), (-0.26489767, 0.14196889, 0.034689024), (-0.27873373, 0.12061074, 0.03440955), (-0.2868567, 0.14187701, 0.047552824), (-0.26559046, 0.12873372, 0.029389262), (-0.2870054, 0.17169443, 0.043133423), (-0.26489767, 0.1580311, 0.034689024), (-0.27873373, 0.17938927, 0.03440955), (-0.2868567, 0.15812299, 0.047552824), (-0.26559046, 0.17126627, 0.029389262), (-0.27371344, 0.15, 0.04253254), (-0.2519031, 0.15, -0.013663326), (-0.2519031, 0.15, 0.013663326), (-0.2524472, 0.16314328, -0.008122993), (-0.2524472, 0.13685672, -0.008122993), (-0.2524472, 0.16314328, 0.008122993), (-0.2524472, 0.13685672, 0.008122993), (-0.33468902, 0.18510233, -0.008031102), (-0.34313342, 0.1629946, -0.021694427), (-0.32938927, 0.18440954, -0.02126627), (-0.33468902, 0.114897676, -0.008031102), (-0.34313342, 0.1370054, -0.021694427), (-0.32938927, 0.11559045, -0.02126627), (-0.3129946, 0.12830557, -0.043133423), (-0.33510232, 0.14196889, -0.034689024), (-0.32126626, 0.12061074, -0.03440955), (-0.31314328, 0.14187701, -0.047552824), (-0.33440953, 0.12873372, -0.029389262), (-0.3129946, 0.17169443, -0.043133423), (-0.33510232, 0.1580311, -0.034689024), (-0.32126626, 0.17938927, -0.03440955), (-0.31314328, 0.15812299, -0.047552824), (-0.33440953, 0.17126627, -0.029389262), (-0.32628655, 0.15, -0.04253254), (-0.33468902, 0.18510233, 0.008031102), (-0.34313342, 0.1629946, 0.021694427), (-0.32938927, 0.18440954, 0.02126627), (-0.34253255, 0.17628655, 0), (-0.33468902, 0.114897676, 0.008031102), (-0.34313342, 0.1370054, 0.021694427), (-0.32938927, 0.11559045, 0.02126627), (-0.34253255, 0.12371344, 0), (-0.3129946, 0.12830557, 0.043133423), (-0.33510232, 0.14196889, 0.034689024), (-0.32126626, 0.12061074, 0.03440955), (-0.31314328, 0.14187701, 0.047552824), (-0.33440953, 0.12873372, 0.029389262), (-0.3129946, 0.17169443, 0.043133423), (-0.33510232, 0.1580311, 0.034689024), (-0.32126626, 0.17938927, 0.03440955), (-0.31314328, 0.15812299, 0.047552824), (-0.33440953, 0.17126627, 0.029389262), (-0.32628655, 0.15, 0.04253254), (-0.3480969, 0.15, -0.013663326), (-0.3480969, 0.15, 0.013663326), (-0.34755284, 0.16314328, -0.008122993), (-0.34755284, 0.13685672, -0.008122993), (-0.34755284, 0.16314328, 0.008122993), (-0.34755284, 0.13685672, 0.008122993)]
    }

    def Mesh "claw_r"
    {
        int[] faceVertexCounts = [3, 3, 3, 3, 3, 3, 3, 3, 3, 3, 3, 3, 3, 3, 3, 3, 3, 3, 3, 3, 3, 3, 3, 3, 3, 3, 3, 3, 3, 3, 3, 3, 3, 3, 3, 3, 3, 3, 3, 3, 3, 3, 3, 3, 3, 3, 3, 3, 3, 3, 3, 3, 3, 3, 3, 3, 3, 3, 3, 3, 3, 3, 3, 3, 3, 3, 3, 3, 3, 3, 3, 3, 3, 3, 3, 3, 3, 3, 3, 3, 3, 3, 3, 3, 3, 3, 3, 3, 3, 3, 3, 3, 3, 3, 3, 3, 3, 3, 3, 3, 3, 3, 3, 3, 3, 3, 3, 3, 3, 3, 3, 3, 3, 3, 3, 3, 3, 3, 3, 3, 3, 3, 3, 3, 3, 3, 3, 3, 3, 3, 3, 3, 3, 3, 3, 3, 3, 3, 3, 3, 3, 3, 3, 3, 3, 3, 3, 3, 3, 3, 3, 3, 3, 3, 3, 3, 3, 3, 3, 3, 3, 3, 3, 3, 3, 3, 3, 3, 3, 3, 3, 3, 3, 3, 3, 3, 3, 3, 3, 3, 3, 3, 3, 3, 3, 3, 3, 3, 3, 3, 3, 3, 3, 3, 3, 3, 3, 3, 3, 3, 3, 3, 3, 3, 3, 3, 3, 3, 3, 3, 3, 3, 3, 3, 3, 3, 3, 3, 3, 3, 3, 3, 3, 3, 3, 3, 3, 3, 3, 3, 3, 3, 3, 3, 3, 3, 3, 3, 3, 3, 3, 3, 3, 3, 3, 3, 3, 3, 3, 3, 3, 3, 3, 3, 3, 3, 3, 3, 3, 3, 3, 3, 3, 3, 3, 3, 3, 3, 3, 3, 3, 3, 3, 3, 3, 3, 3, 3, 3, 3, 3, 3, 3, 3, 3, 3, 3, 3, 3, 3, 3, 3, 3, 3, 3, 3, 3, 3, 3, 3, 3, 3, 3, 3, 3, 3, 3, 3, 3, 3, 3, 3, 3, 3, 3, 3, 3, 3, 3, 3]
        int[] faceVertexIndices = [0, 137, 53, 137, 37, 139, 53, 139, 16, 137, 139, 53, 37, 138, 154, 138, 11, 151, 154, 151, 40, 138, 151, 154, 16, 152, 54, 152, 40, 150, 54, 150, 5, 152, 150, 54, 37, 154, 139, 154, 40, 152, 139, 152, 16, 154, 152, 139, 0, 53, 42, 53, 16, 55, 42, 55, 12, 53, 55, 42, 16, 54, 59, 54, 5, 57, 59, 57, 17, 54, 57, 59, 12, 58, 43, 58, 17, 56, 43, 56, 1, 58, 56, 43, 16, 59, 55, 59, 17, 58, 55, 58, 12, 59, 58, 55, 0, 42, 69, 42, 12, 71, 69, 71, 21, 42, 71, 69, 12, 43, 74, 43, 1, 72, 74, 72, 22, 43, 72, 74, 21, 75, 70, 75, 22, 73, 70, 73, 7, 75, 73, 70, 12, 74, 71, 74, 22, 75, 71, 75, 21, 74, 75, 71, 0, 69, 120, 69, 21, 122, 120, 122, 33, 69, 122, 120, 21, 70, 133, 70, 7, 131, 133, 131, 36, 70, 131, 133, 33, 135, 121, 135, 36, 132, 121, 132, 10, 135, 132, 121, 21, 133, 122, 133, 36, 135, 122, 135, 33, 133, 135, 122, 0, 120, 137, 120, 33, 140, 137, 140, 37, 120, 140, 137, 33, 121, 158, 121, 10, 156, 158, 156, 41, 121, 156, 158, 37, 160, 138, 160, 41, 157, 138, 157, 11, 160, 157, 138, 33, 158, 140, 158, 41, 160, 140, 160, 37, 158, 160, 140, 1, 56, 95, 56, 17, 97, 95, 97, 28, 56, 97, 95, 17, 57, 110, 57, 5, 108, 110, 108, 31, 57, 108, 110, 28, 112, 96, 112, 31, 109, 96, 109, 9, 112, 109, 96, 17, 110, 97, 110, 31, 112, 97, 112, 28, 110, 112, 97, 5, 150, 61, 150, 40, 153, 61, 153, 18, 150, 153, 61, 40, 151, 155, 151, 11, 146, 155, 146, 39, 151, 146, 155, 18, 148, 60, 148, 39, 145, 60, 145, 4, 148, 145, 60, 40, 155, 153, 155, 39, 148, 153, 148, 18, 155, 148, 153, 11, 157, 142, 157, 41, 161, 142, 161, 38, 157, 161, 142, 41, 156, 159, 156, 10, 124, 159, 124, 34, 156, 124, 159, 38, 144, 141, 144, 34, 123, 141, 123, 2, 144, 123, 141, 41, 159, 161, 159, 34, 144, 161, 144, 38, 159, 144, 161, 10, 132, 127, 132, 36, 136, 127, 136, 35, 132, 136, 127, 36, 131, 134, 131, 7, 77, 134, 77, 23, 131, 77, 134, 35, 129, 126, 129, 23, 76, 126, 76, 6, 129, 76, 126, 36, 134, 136, 134, 23, 129, 136, 129, 35, 134, 129, 136, 7, 73, 89, 73, 22, 91, 89, 91, 27, 73, 91, 89, 22, 72, 80, 72, 1, 78, 80, 78, 24, 72, 78, 80, 27, 93, 90, 93, 24, 79, 90, 79, 8, 93, 79, 90, 22, 80, 91, 80, 24, 93, 91, 93, 27, 80, 93, 91, 3, 99, 49, 99, 29, 101, 49, 101, 15, 99, 101, 49, 29, 100, 107, 100, 9, 104, 107, 104, 30, 100, 104, 107, 15, 105, 50, 105, 30, 103, 50, 103, 4, 105, 103, 50, 29, 107, 101, 107, 30, 105, 101, 105, 15, 107, 105, 101, 3, 49, 45, 49, 15, 51, 45, 51, 13, 49, 51, 45, 15, 50, 52, 50, 4, 47, 52, 47, 14, 50, 47, 52, 13, 48, 44, 48, 14, 46, 44, 46, 2, 48, 46, 44, 15, 52, 51, 52, 14, 48, 51, 48, 13, 52, 48, 51, 3, 45, 65, 45, 13, 67, 65, 67, 20, 45, 67, 65, 13, 44, 64, 44, 2, 62, 64, 62, 19, 44, 62, 64, 20, 68, 66, 68, 19, 63, 66, 63, 6, 68, 63, 66, 13, 64, 67, 64, 19, 68, 67, 68, 20, 64, 68, 67, 3, 65, 81, 65, 20, 83, 81, 83, 25, 65, 83, 81, 20, 66, 86, 66, 6, 84, 86, 84, 26, 66, 84, 86, 25, 88, 82, 88, 26, 85, 82, 85, 8, 88, 85, 82, 20, 86, 83, 86, 26, 88, 83, 88, 25, 86, 88, 83, 3, 81, 99, 81, 25, 102, 99, 102, 29, 81, 102, 99, 25, 82, 117, 82, 8, 114, 117, 114, 32, 82, 114, 117, 29, 119, 100, 119, 32, 115, 100, 115, 9, 119, 115, 100, 25, 117, 102, 117, 32, 119, 102, 119, 29, 117, 119, 102, 4, 103, 60, 103, 30, 106, 60, 106, 18, 103, 106, 60, 30, 104, 113, 104, 9, 109, 113, 109, 31, 104, 109, 113, 18, 111, 61, 111, 31, 108, 61, 108, 5, 111, 108, 61, 30, 113, 106, 113, 31, 111, 106, 111, 18, 113, 111, 106, 2, 46, 141, 46, 14, 143, 141, 143, 38, 46, 143, 141, 14, 47, 147, 47, 4, 145, 147, 145, 39, 47, 145, 147, 38, 149, 142, 149, 39, 146, 142, 146, 11, 149, 146, 142, 14, 147, 143, 147, 39, 149, 143, 149, 38, 147, 149, 143, 6, 63, 126, 63, 19, 128, 126, 128, 35, 63, 128, 126, 19, 62, 125, 62, 2, 123, 125, 123, 34, 62, 123, 125, 35, 130, 127, 130, 34, 124, 127, 124, 10, 130, 124, 127, 19, 125, 128, 125, 34, 130, 128, 130, 35, 125, 130, 128, 8, 85, 90, 85, 26, 94, 90, 94, 27, 85, 94, 90, 26, 84, 87, 84, 6, 76, 87, 76, 23, 84, 76, 87, 27, 92, 89, 92, 23, 77, 89, 77, 7, 92, 77, 89, 26, 87, 94, 87, 23, 92, 94, 92, 27, 87, 92, 94, 9, 115, 96, 115, 32, 118, 96, 118, 28, 115, 118, 96, 32, 114, 116, 114, 8, 79, 116, 79, 24, 114, 79, 116, 28, 98, 95, 98, 24, 78, 95, 78, 1, 98, 78, 95, 32, 116, 118, 116, 24, 98, 118, 98, 28, 116, 98, 118]
        point3f[] points = [(0.27371344, 0.19253254, 0), (0.32628655, 0.19253254, 0), (0.27371344, 0.10746746, 0), (0.32628655, 0.10746746, 0), (0.3, 0.12371344, 0.04253254), (0.3, 0.17628655, 0.04253254), (0.3, 0.12371344, -0.04253254), (0.3, 0.17628655, -0.04253254), (0.34253255, 0.15, -0.026286555), (0.34253255, 0.15, 0.026286555), (0.25746745, 0.15, -0.026286555), (0.25746745, 0.15, 0.026286555), (0.3, 0.2, 0), (0.3, 0.1, 0), (0.28454915, 0.10954915, 0.025), (0.31545085, 0.10954915, 0.025), (0.28454915, 0.19045085, 0.025), (0.31545085, 0.19045085, 0.025), (0.3, 0.15, 0.05), (0.28454915, 0.10954915, -0.025), (0.31545085, 0.10954915, -0.025), (0.28454915, 0.19045085, -0.025), (0.31545085, 0.19045085, -0.025), (0.3, 0.15, -0.05), (0.34045085, 0.175, -0.01545085), (0.34045085, 0.125, -0.01545085), (0.325, 0.13454916, -0.04045085), (0.325, 0.16545086, -0.04045085), (0.34045085, 0.175, 0.01545085), (0.34045085, 0.125, 0.01545085), (0.325, 0.13454916, 0.04045085), (0.325, 0.16545086, 0.04045085), (0.35, 0.15, 0), (0.25954914, 0.175, -0.01545085), (0.25954914, 0.125, -0.01545085), (0.275, 0.13454916, -0.04045085), (0.275, 0.16545086, -0.04045085), (0.25954914, 0.175, 0.01545085), (0.25954914, 0.125, 0.01545085), (0.275, 0.13454916, 0.04045085), (0.275, 0.16545086, 0.04045085), (0.25, 0.15, 0), (0.28633666, 0.19809692, 0), (0.31366333, 0.19809692, 0), (0.28633666, 0.10190308, 0), (0.31366333, 0.10190308, 0), (0.27830556, 0.106866576, 0.012994596), (0.2919689, 0.115310974, 0.035102323), (0.291877, 0.102447174, 0.013143278), (0.32169443, 0.106866576, 0.012994596), (0.3080311, 0.115310974, 0.035102323), (0.308123, 0.102447174, 0.013143278), (0.3, 0.10746746, 0.026286555), (0.27830556, 0.19313343, 0.012994596), (0.2919689, 0.18468903, 0.035102323), (0.291877, 0.19755283, 0.013143278), (0.32169443, 0.19313343, 0.012994596), (0.3080311, 0.18468903, 0.035102323), (0.308123, 0.19755283, 0.013143278), (0.3, 0.19253254, 0.026286555), (0.3, 0.13633667, 0.048096918), (0.3, 0.16366333, 0.048096918), (0.27830556, 0.106866576, -0.012994596), (0.2919689, 0.115310974, -0.035102323), (0.291877, 0.102447174, -0.013143278), (0.32169443, 0.106866576, -0.012994596), (0.3080311, 0.115310974, -0.035102323), (0.308123, 0.102447174, -0.013143278), (0.3, 0.10746746, -0.026286555), (0.27830556, 0.19313343, -0.012994596), (0.2919689, 0.18468903, -0.035102323), (0.291877, 0.19755283, -0.013143278), (0.32169443, 0.19313343, -0.012994596), (0.3080311, 0.18468903, -0.035102323), (0.308123, 0.19755283, -0.013143278), (0.3, 0.19253254, -0.026286555), (0.3, 0.13633667, -0.048096918), (0.3, 0.16366333, -0.048096918), (0.33468902, 0.18510233, -0.008031102), (0.34313342, 0.1629946, -0.021694427), (0.32938927, 0.18440954, -0.02126627), (0.33468902, 0.114897676, -0.008031102), (0.34313342, 0.1370054, -0.021694427), (0.32938927, 0.11559045, -0.02126627), (0.3129946, 0.12830557, -0.043133423), (0.33510232, 0.14196889, -0.034689024), (0.32126626, 0.12061074, -0.03440955), (0.31314328, 0.14187701, -0.047552824), (0.33440953, 0.12873372, -0.029389262), (0.3129946, 0.17169443, -0.043133423), (0.33510232, 0.1580311, -0.034689024), (0.32126626, 0.17938927, -0.03440955), (0.31314328, 0.15812299, -0.047552824), (0.33440953, 0.17126627, -0.029389262), (0.32628655, 0.15, -0.04253254), (0.33468902, 0.18510233, 0.008031102), (0.34313342, 0.1629946, 0.021694427), (0.32938927, 0.18440954, 0.02126627), (0.34253255, 0.17628655, 0), (0.33468902, 0.114897676, 0.008031102), (0.34313342, 0.1370054, 0.021694427), (0.32938927, 0.11559045, 0.02126627), (0.34253255, 0.12371344, 0), (0.3129946, 0.12830557, 0.043133423), (0.33510232, 0.14196889, 0.034689024), (0.32126626, 0.12061074, 0.03440955), (0.31314328, 0.14187701, 0.047552824), (0.33440953, 0.12873372, 0.029389262), (0.3129946, 0.17169443, 0.043133423), (0.33510232, 0.1580311, 0.034689024), (0.32126626, 0.17938927, 0.03440955), (0.31314328, 0.15812299, 0.047552824), (0.33440953, 0.17126627, 0.029389262), (0.32628655, 0.15, 0.04253254), (0.3480969, 0.15, -0.013663326), (0.3480969, 0.15, 0.013663326), (0.34755284, 0.16314328, -0.008122993), (0.34755284, 0.13685672, -0.008122993), (0.34755284, 0.16314328, 0.008122993), (0.34755284, 0.13685672, 0.008122993), (0.26531097, 0.18510233, -0.008031102), (0.25686657, 0.1629946, -0.021694427), (0.27061075, 0.18440954, -0.02126627), (0.26531097, 0.114897676, -0.008031102), (0.25686657, 0.1370054, -0.021694427), (0.27061075, 0.11559045, -0.02126627), (0.2870054, 0.12830557, -0.043133423), (0.26489767, 0.14196889, -0.034689024), (0.27873373, 0.12061074, -0.03440955), (0.2868567, 0.14187701, -0.047552824), (0.26559046, 0.12873372, -0.029389262), (0.2870054, 0.17169443, -0.043133423), (0.26489767, 0.1580311, -0.034689024), (0.27873373, 0.17938927, -0.03440955), (0.2868567, 0.15812299, -0.047552824), (0.26559046, 0.17126627, -0.029389262), (0.27371344, 0.15, -0.04253254), (0.26531097, 0.18510233, 0.008031102), (0.25686657, 0.1629946, 0.021694427), (0.27061075, 0.18440954, 0.02126627), (0.25746745, 0.17628655, 0), (0.26531097, 0.114897676, 0.008031102), (0.25686657, 0.1370054, 0.021694427), (0.27061075, 0.11559045, 0.02126627), (0.25746745, 0.12371344, 0), (0.2870054, 0.12830557, 0.043133423), (0.26489767, 0.14196889, 0.034689024), (0.27873373, 0.12061074, 0.03440955), (0.2868567, 0.14187701, 0.047552824), (0.26559046, 0.12873372, 0.029389262), (0.2870054, 0.17169443, 0.043133423), (0.26489767, 0.1580311, 0.034689024), (0.27873373, 0.17938927, 0.03440955), (0.2868567, 0.15812299, 0.047552824), (0.26559046, 0.17126627, 0.029389262), (0.27371344, 0.15, 0.04253254), (0.2519031, 0.15, -0.013663326), (0.2519031, 0.15, 0.013663326), (0.2524472, 0.16314328, -0.008122993), (0.2524472, 0.13685672, -0.008122993), (0.2524472, 0.16314328, 0.008122993), (0.2524472, 0.13685672, 0.008122993)]
    }

    def Mesh "eye_l"
    {
        int[] faceVertexCounts = [3, 3, 3, 3, 3, 3, 3, 3, 3, 3, 3, 3, 3, 3, 3, 3, 3, 3, 3, 3, 3, 3, 3, 3, 3, 3, 3, 3, 3, 3, 3, 3, 3, 3, 3, 3, 3, 3, 3, 3, 3, 3, 3, 3, 3, 3, 3, 3, 3, 3, 3, 3, 3, 3, 3, 3, 3, 3, 3, 3, 3, 3, 3, 3, 3, 3, 3, 3, 3, 3, 3, 3, 3, 3, 3, 3, 3, 3, 3, 3, 3, 3, 3, 3, 3, 3, 3, 3, 3, 3, 3, 3, 3, 3, 3, 3, 3, 3, 3, 3, 3, 3, 3, 3, 3, 3, 3, 3, 3, 3, 3, 3, 3, 3, 3, 3, 3, 3, 3, 3, 3, 3, 3, 3, 3, 3, 3, 3, 3, 3, 3, 3, 3, 3, 3, 3, 3, 3, 3, 3, 3, 3, 3, 3, 3, 3, 3, 3, 3, 3, 3, 3, 3, 3, 3, 3, 3, 3, 3, 3, 3, 3, 3, 3, 3, 3, 3, 3, 3, 3, 3, 3, 3, 3, 3, 3, 3, 3, 3, 3, 3, 3, 3, 3, 3, 3, 3, 3, 3, 3, 3, 3, 3, 3, 3, 3, 3, 3, 3, 3, 3, 3, 3, 3, 3, 3, 3, 3, 3, 3, 3, 3, 3, 3, 3, 3, 3, 3, 3, 3, 3, 3, 3, 3, 3, 3, 3, 3, 3, 3, 3, 3, 3, 3, 3, 3, 3, 3, 3, 3, 3, 3, 3, 3, 3, 3, 3, 3, 3, 3, 3, 3, 3, 3, 3, 3, 3, 3, 3, 3, 3, 3, 3, 3, 3, 3, 3, 3, 3, 3, 3, 3, 3, 3, 3, 3, 3, 3, 3, 3, 3, 3, 3, 3, 3, 3, 3, 3, 3, 3, 3, 3, 3, 3, 3, 3, 3, 3, 3, 3, 3, 3, 3, 3, 3, 3, 3, 3, 3, 3, 3, 3, 3, 3, 3, 3, 3, 3, 3, 3]
        int[] faceVertexIndices = [0, 137, 53, 137, 37, 139, 53, 139, 16, 137, 139, 53, 37, 138, 154, 138, 11, 151, 154, 151, 40, 138, 151, 154, 16, 152, 54, 152, 40, 150, 54, 150, 5, 152, 150, 54, 37, 154, 139, 154, 40, 152, 139, 152, 16, 154, 152, 139, 0, 53, 42, 53, 16, 55, 42, 55, 12, 53, 55, 42, 16, 54, 59, 54, 5, 57, 59, 57, 17, 54, 57, 59, 12, 58, 43, 58, 17, 56, 43, 56, 1, 58, 56, 43, 16, 59, 55, 59, 17, 58, 55, 58, 12, 59, 58, 55, 0, 42, 69, 42, 12, 71, 69, 71, 21, 42, 71, 69, 12, 43, 74, 43, 1, 72, 74, 72, 22, 43, 72, 74, 21, 75, 70, 75, 22, 73, 70, 73, 7, 75, 73, 70, 12, 74, 71, 74, 22, 75, 71, 75, 21, 74, 75, 71, 0, 69, 120, 69, 21, 122, 120, 122, 33, 69, 122, 120, 21, 70, 133, 70, 7, 131, 133, 131, 36, 70, 131, 133, 33, 135, 121, 135, 36, 132, 121, 132, 10, 135, 132, 121, 21, 133, 122, 133, 36, 135, 122, 135, 33, 133, 135, 122, 0, 120, 137, 120, 33, 140, 137, 140, 37, 120, 140, 137, 33, 121, 158, 121, 10, 156, 158, 156, 41, 121, 156, 158, 37, 160, 138, 160, 41, 157, 138, 157, 11, 160, 157, 138, 33, 158, 140, 158, 41, 160, 140, 160, 37, 158, 160, 140, 1, 56, 95, 56, 17, 97, 95, 97, 28, 56, 97, 95, 17, 57, 110, 57, 5, 108, 110, 108, 31, 57, 108, 110, 28, 112, 96, 112, 31, 109, 96, 109, 9, 112, 109, 96, 17, 110, 97, 110, 31, 112, 97, 112, 28, 110, 112, 97, 5, 150, 61, 150, 40, 153, 61, 153, 18, 150, 153, 61, 40, 151, 155, 151, 11, 146, 155, 146, 39, 151, 146, 155, 18, 148, 60, 148, 39, 145, 60, 145, 4, 148, 145, 60, 40, 155, 153, 155, 39, 148, 153, 148, 18, 155, 148, 153, 11, 157, 142, 157, 41, 161, 142, 161, 38, 157, 161, 142, 41, 156, 159, 156, 10, 124, 159, 124, 34, 156, 124, 159, 38, 144, 141, 144, 34, 123, 141, 123, 2, 144, 123, 141, 41, 159, 161, 159, 34, 144, 161, 144, 38, 159, 144, 161, 10, 132, 127, 132, 36, 136, 127, 136, 35, 132, 136, 127, 36, 131, 134, 131, 7, 77, 134, 77, 23, 131, 77, 134, 35, 129, 126, 129, 23, 76, 126, 76, 6, 129, 76, 126, 36, 134, 136, 134, 23, 129, 136, 129, 35, 134, 129, 136, 7, 73, 89, 73, 22, 91, 89, 91, 27, 73, 91, 89, 22, 72, 80, 72, 1, 78, 80, 78, 24, 72, 78, 80, 27, 93, 90, 93, 24, 79, 90, 79, 8, 93, 79, 90, 22, 80, 91, 80, 24, 93, 91, 93, 27, 80, 93, 91, 3, 99, 49, 99, 29, 101, 49, 101, 15, 99, 101, 49, 29, 100, 107, 100, 9, 104, 107, 104, 30, 100, 104, 107, 15, 105, 50, 105, 30, 103, 50, 103, 4, 105, 103, 50, 29, 107, 101, 107, 30, 105, 101, 105, 15, 107, 105, 101, 3, 49, 45, 49, 15, 51, 45, 51, 13, 49, 51, 45, 15, 50, 52, 50, 4, 47, 52, 47, 14, 50, 47, 52, 13, 48, 44, 48, 14, 46, 44, 46, 2, 48, 46, 44, 15, 52, 51, 52, 14, 48, 51, 48, 13, 52, 48, 51, 3, 45, 65, 45, 13, 67, 65, 67, 20, 45, 67, 65, 13, 44, 64, 44, 2, 62, 64, 62, 19, 44, 62, 64, 20, 68, 66, 68, 19, 63, 66, 63, 6, 68, 63, 66, 13, 64, 67, 64, 19, 68, 67, 68, 20, 64, 68, 67, 3, 65, 81, 65, 20, 83, 81, 83, 25, 65, 83, 81, 20, 66, 86, 66, 6, 84, 86, 84, 26, 66, 84, 86, 25, 88, 82, 88, 26, 85, 82, 85, 8, 88, 85, 82, 20, 86, 83, 86, 26, 88, 83, 88, 25, 86, 88, 83, 3, 81, 99, 81, 25, 102, 99, 102, 29, 81, 102, 99, 25, 82, 117, 82, 8, 114, 117, 114, 32, 82, 114, 117, 29, 119, 100, 119, 32, 115, 100, 115, 9, 119, 115, 100, 25, 117, 102, 117, 32, 119, 102, 119, 29, 117, 119, 102, 4, 103, 60, 103, 30, 106, 60, 106, 18, 103, 106, 60, 30, 104, 113, 104, 9, 109, 113, 109, 31, 104, 109, 113, 18, 111, 61, 111, 31, 108, 61, 108, 5, 111, 108, 61, 30, 113, 106, 113, 31, 111, 106, 111, 18, 113, 111, 106, 2, 46, 141, 46, 14, 143, 141, 143, 38, 46, 143, 141, 14, 47, 147, 47, 4, 145, 147, 145, 39, 47, 145, 147, 38, 149, 142, 149, 39, 146, 142, 146, 11, 149, 146, 142, 14, 147, 143, 147, 39, 149, 143, 149, 38, 147, 149, 143, 6, 63, 126, 63, 19, 128, 126, 128, 35, 63, 128, 126, 19, 62, 125, 62, 2, 123, 125, 123, 34, 62, 123, 125, 35, 130, 127, 130, 34, 124, 127, 124, 10, 130, 124, 127, 19, 125, 128, 125, 34, 130, 128, 130, 35, 125, 130, 128, 8, 85, 90, 85, 26, 94, 90, 94, 27, 85, 94, 90, 26, 84, 87, 84, 6, 76, 87, 76, 23, 84, 76, 87, 27, 92, 89, 92, 23, 77, 89, 77, 7, 92, 77, 89, 26, 87, 94, 87, 23, 92, 94, 92, 27, 87, 92, 94, 9, 115, 96, 115, 32, 118, 96, 118, 28, 115, 118, 96, 32, 114, 116, 114, 8, 79, 116, 79, 24, 114, 79, 116, 28, 98, 95, 98, 24, 78, 95, 78, 1, 98, 78, 95, 32, 116, 118, 116, 24, 98, 118, 98, 28, 116, 98, 118]
        point3f[] points = [(-0.08840059, 0.70977277, 0.16), (-0.05159941, 0.70977277, 0.16), (-0.08840059, 0.65022725, 0.16), (-0.05159941, 0.65022725, 0.16), (-0.07, 0.6615994, 0.18977278), (-0.07, 0.6984006, 0.18977278), (-0.07, 0.6615994, 0.13022722), (-0.07, 0.6984006, 0.13022722), (-0.040227223, 0.68, 0.14159942), (-0.040227223, 0.68, 0.17840059), (-0.09977278, 0.68, 0.14159942), (-0.09977278, 0.68, 0.17840059), (-0.07, 0.715, 0.16), (-0.07, 0.645, 0.16), (-0.0808156, 0.6516844, 0.1775), (-0.059184406, 0.6516844, 0.1775), (-0.0808156, 0.7083156, 0.1775), (-0.059184406, 0.7083156, 0.1775), (-0.07, 0.68, 0.195), (-0.0808156, 0.6516844, 0.1425), (-0.059184406, 0.6516844, 0.1425), (-0.0808156, 0.7083156, 0.1425), (-0.059184406, 0.7083156, 0.1425), (-0.07, 0.68, 0.125), (-0.041684404, 0.6975, 0.1491844), (-0.041684404, 0.6625, 0.1491844), (-0.0525, 0.6691844, 0.13168441), (-0.0525, 0.69081557, 0.13168441), (-0.041684404, 0.6975, 0.1708156), (-0.041684404, 0.6625, 0.1708156), (-0.0525, 0.6691844, 0.1883156), (-0.0525, 0.69081557, 0.1883156), (-0.035, 0.68, 0.16), (-0.0983156, 0.6975, 0.1491844), (-0.0983156, 0.6625, 0.1491844), (-0.0875, 0.6691844, 0.13168441), (-0.0875, 0.69081557, 0.13168441), (-0.0983156, 0.6975, 0.1708156), (-0.0983156, 0.6625, 0.1708156), (-0.0875, 0.6691844, 0.1883156), (-0.0875, 0.69081557, 0.1883156), (-0.105, 0.68, 0.16), (-0.079564326, 0.71366787, 0.16), (-0.06043567, 0.71366787, 0.16), (-0.079564326, 0.64633214, 0.16), (-0.06043567, 0.64633214, 0.16), (-0.0851861, 0.6498066, 0.16909622), (-0.07562177, 0.6557177, 0.18457162), (-0.0756861, 0.646713, 0.1692003), (-0.0548139, 0.6498066, 0.16909622), (-0.06437823, 0.6557177, 0.18457162), (-0.0643139, 0.646713, 0.1692003), (-0.07, 0.65022725, 0.17840059), (-0.0851861, 0.7101934, 0.16909622), (-0.07562177, 0.70428234, 0.18457162), (-0.0756861, 0.713287, 0.1692003), (-0.0548139, 0.7101934, 0.16909622), (-0.06437823, 0.70428234, 0.18457162), (-0.0643139, 0.713287, 0.1692003), (-0.07, 0.70977277, 0.17840059), (-0.07, 0.67043567, 0.19366784), (-0.07, 0.68956435, 0.19366784), (-0.0851861, 0.6498066, 0.15090378), (-0.07562177, 0.6557177, 0.13542837), (-0.0756861, 0.646713, 0.1507997), (-0.0548139, 0.6498066, 0.15090378), (-0.06437823, 0.6557177, 0.13542837), (-0.0643139, 0.646713, 0.1507997), (-0.07, 0.65022725, 0.14159942), (-0.0851861, 0.7101934, 0.15090378), (-0.07562177, 0.70428234, 0.13542837), (-0.0756861, 0.713287, 0.1507997), (-0.0548139, 0.7101934, 0.15090378), (-0.06437823, 0.70428234, 0.13542837), (-0.0643139, 0.713287, 0.1507997), (-0.07, 0.70977277, 0.14159942), (-0.07, 0.67043567, 0.12633216), (-0.07, 0.68956435, 0.12633216), (-0.045717683, 0.7045716, 0.15437824), (-0.039806604, 0.6890962, 0.1448139), (-0.049427517, 0.70408666, 0.14511362), (-0.045717683, 0.65542835, 0.15437824), (-0.039806604, 0.6709038, 0.1448139), (-0.049427517, 0.6559133, 0.14511362), (-0.060903784, 0.6648139, 0.12980661), (-0.045428373, 0.6743782, 0.13571769), (-0.05511361, 0.6594275, 0.13591331), (-0.060799707, 0.6743139, 0.12671302), (-0.045913316, 0.6651136, 0.13942751), (-0.060903784, 0.6951861, 0.12980661), (-0.045428373, 0.6856218, 0.13571769), (-0.05511361, 0.7005725, 0.13591331), (-0.060799707, 0.6856861, 0.12671302), (-0.045913316, 0.6948864, 0.13942751), (-0.05159941, 0.68, 0.13022722), (-0.045717683, 0.7045716, 0.16562177), (-0.039806604, 0.6890962, 0.1751861), (-0.049427517, 0.70408666, 0.17488639), (-0.040227223, 0.6984006, 0.16), (-0.045717683, 0.65542835, 0.16562177), (-0.039806604, 0.6709038, 0.1751861), (-0.049427517, 0.6559133, 0.17488639), (-0.040227223, 0.6615994, 0.16), (-0.060903784, 0.6648139, 0.1901934), (-0.045428373, 0.6743782, 0.18428232), (-0.05511361, 0.6594275, 0.18408668), (-0.060799707, 0.6743139, 0.19328699), (-0.045913316, 0.6651136, 0.18057248), (-0.060903784, 0.6951861, 0.1901934), (-0.045428373, 0.6856218, 0.18428232), (-0.05511361, 0.7005725, 0.18408668), (-0.060799707, 0.6856861, 0.19328699), (-0.045913316, 0.6948864, 0.18057248), (-0.05159941, 0.68, 0.18977278), (-0.036332157, 0.68, 0.15043567), (-0.036332157, 0.68, 0.16956432), (-0.036713023, 0.6892003, 0.1543139), (-0.036713023, 0.67079973, 0.1543139), (-0.036713023, 0.6892003, 0.1656861), (-0.036713023, 0.67079973, 0.1656861), (-0.094282314, 0.7045716, 0.15437824), (-0.100193396, 0.6890962, 0.1448139), (-0.090572484, 0.70408666, 0.14511362), (-0.094282314, 0.65542835, 0.15437824), (-0.100193396, 0.6709038, 0.1448139), (-0.090572484, 0.6559133, 0.14511362), (-0.07909622, 0.6648139, 0.12980661), (-0.09457163, 0.6743782, 0.13571769), (-0.08488639, 0.6594275, 0.13591331), (-0.0792003, 0.6743139, 0.12671302), (-0.094086684, 0.6651136, 0.13942751), (-0.07909622, 0.6951861, 0.12980661), (-0.09457163, 0.6856218, 0.13571769), (-0.08488639, 0.7005725, 0.13591331), (-0.0792003, 0.6856861, 0.12671302), (-0.094086684, 0.6948864, 0.13942751), (-0.08840059, 0.68, 0.13022722), (-0.094282314, 0.7045716, 0.16562177), (-0.100193396, 0.6890962, 0.1751861), (-0.090572484, 0.70408666, 0.17488639), (-0.09977278, 0.6984006, 0.16), (-0.094282314, 0.65542835, 0.16562177), (-0.100193396, 0.6709038, 0.1751861), (-0.090572484, 0.6559133, 0.17488639), (-0.09977278, 0.6615994, 0.16), (-0.07909622, 0.6648139, 0.1901934), (-0.09457163, 0.6743782, 0.18428232), (-0.08488639, 0.6594275, 0.18408668), (-0.0792003, 0.6743139, 0.19328699), (-0.094086684, 0.6651136, 0.18057248), (-0.07909622, 0.6951861, 0.1901934), (-0.09457163, 0.6856218, 0.18428232), (-0.08488639, 0.7005725, 0.18408668), (-0.0792003, 0.6856861, 0.19328699), (-0.094086684, 0.6948864, 0.18057248), (-0.08840059, 0.68, 0.18977278), (-0.10366784, 0.68, 0.15043567), (-0.10366784, 0.68, 0.16956432), (-0.10328698, 0.6892003, 0.1543139), (-0.10328698, 0.67079973, 0.1543139), (-0.10328698, 0.6892003, 0.1656861), (-0.10328698, 0.67079973, 0.1656861)]
    }

    def Mesh "eye_r"
    {
        int[] faceVertexCounts = [3, 3, 3, 3, 3, 3, 3, 3, 3, 3, 3, 3, 3, 3, 3, 3, 3, 3, 3, 3, 3, 3, 3, 3, 3, 3, 3, 3, 3, 3, 3, 3, 3, 3, 3, 3, 3, 3, 3, 3, 3, 3, 3, 3, 3, 3, 3, 3, 3, 3, 3, 3, 3, 3, 3, 3, 3, 3, 3, 3, 3, 3, 3, 3, 3, 3, 3, 3, 3, 3, 3, 3, 3, 3, 3, 3, 3, 3, 3, 3, 3, 3, 3, 3, 3, 3, 3, 3, 3, 3, 3, 3, 3, 3, 3, 3, 3, 3, 3, 3, 3, 3, 3, 3, 3, 3, 3, 3, 3, 3, 3, 3, 3, 3, 3, 3, 3, 3, 3, 3, 3, 3, 3, 3, 3, 3, 3, 3, 3, 3, 3, 3, 3, 3, 3, 3, 3, 3, 3, 3, 3, 3, 3, 3, 3, 3, 3, 3, 3, 3, 3, 3, 3, 3, 3, 3, 3, 3, 3, 3, 3, 3, 3, 3, 3, 3, 3, 3, 3, 3, 3, 3, 3, 3, 3, 3, 3, 3, 3, 3, 3, 3, 3, 3, 3, 3, 3, 3, 3, 3, 3, 3, 3, 3, 3, 3, 3, 3, 3, 3, 3, 3, 3, 3, 3, 3, 3, 3, 3, 3, 3, 3, 3, 3, 3, 3, 3, 3, 3, 3, 3, 3, 3, 3, 3, 3, 3, 3, 3, 3, 3, 3, 3, 3, 3, 3, 3, 3, 3, 3, 3, 3, 3, 3, 3, 3, 3, 3, 3, 3, 3, 3, 3, 3, 3, 3, 3, 3, 3, 3, 3, 3, 3, 3, 3, 3, 3, 3, 3, 3, 3, 3, 3, 3, 3, 3, 3, 3, 3, 3, 3, 3, 3, 3, 3, 3, 3, 3, 3, 3, 3, 3, 3, 3, 3, 3, 3, 3, 3, 3, 3, 3, 3, 3, 3, 3, 3, 3, 3, 3, 3, 3, 3, 3, 3, 3, 3, 3, 3, 3]
        int[] faceVertexIndices = [0, 137, 53, 137, 37, 139, 53, 139, 16, 137, 139, 53, 37, 138, 154, 138, 11, 151, 154, 151, 40, 138, 151, 154, 16, 152, 54, 152, 40, 150, 54, 150, 5, 152, 150, 54, 37, 154, 139, 154, 40, 152, 139, 152, 16, 154, 152, 139, 0, 53, 42, 53, 16, 55, 42, 55, 12, 53, 55, 42, 16, 54, 59, 54, 5, 57, 59, 57, 17, 54, 57, 59, 12, 58, 43, 58, 17, 56, 43, 56, 1, 58, 56, 43, 16, 59, 55, 59, 17, 58, 55, 58, 12, 59, 58, 55, 0, 42, 69, 42, 12, 71, 69, 71, 21, 42, 71, 69, 12, 43, 74, 43, 1, 72, 74, 72, 22, 43, 72, 74, 21, 75, 70, 75, 22, 73, 70, 73, 7, 75, 73, 70, 12, 74, 71, 74, 22, 75, 71, 75, 21, 74, 75, 71, 0, 69, 120, 69, 21, 122, 120, 122, 33, 69, 122, 120, 21, 70, 133, 70, 7, 131, 133, 131, 36, 70, 131, 133, 33, 135, 121, 135, 36, 132, 121, 132, 10, 135, 132, 121, 21, 133, 122, 133, 36, 135, 122, 135, 33, 133, 135, 122, 0, 120, 137, 120, 33, 140, 137, 140, 37, 120, 140, 137, 33, 121, 158, 121, 10, 156, 158, 156, 41, 121, 156, 158, 37, 160, 138, 160, 41, 157, 138, 157, 11, 160, 157, 138, 33, 158, 140, 158, 41, 160, 140, 160, 37, 158, 160, 140, 1, 56, 95, 56, 17, 97, 95, 97, 28, 56, 97, 95, 17, 57, 110, 57, 5, 108, 110, 108, 31, 57, 108, 110, 28, 112, 96, 112, 31, 109, 96, 109, 9, 112, 109, 96, 17, 110, 97, 110, 31, 112, 97, 112, 28, 110, 112, 97, 5, 150, 61, 150, 40, 153, 61, 153, 18, 150, 153, 61, 40, 151, 155, 151, 11, 146, 155, 146, 39, 151, 146, 155, 18, 148, 60, 148, 39, 145, 60, 145, 4, 148, 145, 60, 40, 155, 153, 155, 39, 148, 153, 148, 18, 155, 148, 153, 11, 157, 142, 157, 41, 161, 142, 161, 38, 157, 161, 142, 41, 156, 159, 156, 10, 124, 159, 124, 34, 156, 124, 159, 38, 144, 141, 144, 34, 123, 141, 123, 2, 144, 123, 141, 41, 159, 161, 159, 34, 144, 161, 144, 38, 159, 144, 161, 10, 132, 127, 132, 36, 136, 127, 136, 35, 132, 136, 127, 36, 131, 134, 131, 7, 77, 134, 77, 23, 131, 77, 134, 35, 129, 126, 129, 23, 76, 126, 76, 6, 129, 76, 126, 36, 134, 136, 134, 23, 129, 136, 129, 35, 134, 129, 136, 7, 73, 89, 73, 22, 91, 89, 91, 27, 73, 91, 89, 22, 72, 80, 72, 1, 78, 80, 78, 24, 72, 78, 80, 27, 93, 90, 93, 24, 79, 90, 79, 8, 93, 79, 90, 22, 80, 91, 80, 24, 93, 91, 93, 27, 80, 93, 91, 3, 99, 49, 99, 29, 101, 49, 101, 15, 99, 101, 49, 29, 100, 107, 100, 9, 104, 107, 104, 30, 100, 104, 107, 15, 105, 50, 105, 30, 103, 50, 103, 4, 105, 103, 50, 29, 107, 101, 107, 30, 105, 101, 105, 15, 107, 105, 101, 3, 49, 45, 49, 15, 51, 45, 51, 13, 49, 51, 45, 15, 50, 52, 50, 4, 47, 52, 47, 14, 50, 47, 52, 13, 48, 44, 48, 14, 46, 44, 46, 2, 48, 46, 44, 15, 52, 51, 52, 14, 48, 51, 48, 13, 52, 48, 51, 3, 45, 65, 45, 13, 67, 65, 67, 20, 45, 67, 65, 13, 44, 64, 44, 2, 62, 64, 62, 19, 44, 62, 64, 20, 68, 66, 68, 19, 63, 66, 63, 6, 68, 63, 66, 13, 64, 67, 64, 19, 68, 67, 68, 20, 64, 68, 67, 3, 65, 81, 65, 20, 83, 81, 83, 25, 65, 83, 81, 20, 66, 86, 66, 6, 84, 86, 84, 26, 66, 84, 86, 25, 88, 82, 88, 26, 85, 82, 85, 8, 88, 85, 82, 20, 86, 83, 86, 26, 88, 83, 88, 25, 86, 88, 83, 3, 81, 99, 81, 25, 102, 99, 102, 29, 81, 102, 99, 25, 82, 117, 82, 8, 114, 117, 114, 32, 82, 114, 117, 29, 119, 100, 119, 32, 115, 100, 115, 9, 119, 115, 100, 25, 117, 102, 117, 32, 119, 102, 119, 29, 117, 119, 102, 4, 103, 60, 103, 30, 106, 60, 106, 18, 103, 106, 60, 30, 104, 113, 104, 9, 109, 113, 109, 31, 104, 109, 113, 18, 111, 61, 111, 31, 108, 61, 108, 5, 111, 108, 61, 30, 113, 106, 113, 31, 111, 106, 111, 18, 113, 111, 106, 2, 46, 141, 46, 14, 143, 141, 143, 38, 46, 143, 141, 14, 47, 147, 47, 4, 145, 147, 145, 39, 47, 145, 147, 38, 149, 142, 149, 39, 146, 142, 146, 11, 149, 146, 142, 14, 147, 143, 147, 39, 149, 143, 149, 38, 147, 149, 143, 6, 63, 126, 63, 19, 128, 126, 128, 35, 63, 128, 126, 19, 62, 125, 62, 2, 123, 125, 123, 34, 62, 123, 125, 35, 130, 127, 130, 34, 124, 127, 124, 10, 130, 124, 127, 19, 125, 128, 125, 34, 130, 128, 130, 35, 125, 130, 128, 8, 85, 90, 85, 26, 94, 90, 94, 27, 85, 94, 90, 26, 84, 87, 84, 6, 76, 87, 76, 23, 84, 76, 87, 27, 92, 89, 92, 23, 77, 89, 77, 7, 92, 77, 89, 26, 87, 94, 87, 23, 92, 94, 92, 27, 87, 92, 94, 9, 115, 96, 115, 32, 118, 96, 118, 28, 115, 118, 96, 32, 114, 116, 114, 8, 79, 116, 79, 24, 114, 79, 116, 28, 98, 95, 98, 24, 78, 95, 78, 1, 98, 78, 95, 32, 116, 118, 116, 24, 98, 118, 98, 28, 116, 98, 118]
        point3f[] points = [(0.05159941, 0.70977277, 0.16), (0.08840059, 0.70977277, 0.16), (0.05159941, 0.65022725, 0.16), (0.08840059, 0.65022725, 0.16), (0.07, 0.6615994, 0.18977278), (0.07, 0.6984006, 0.18977278), (0.07, 0.6615994, 0.13022722), (0.07, 0.6984006, 0.13022722), (0.09977278, 0.68, 0.14159942), (0.09977278, 0.68, 0.17840059), (0.040227223, 0.68, 0.14159942), (0.040227223, 0.68, 0.17840059), (0.07, 0.715, 0.16), (0.07, 0.645, 0.16), (0.059184406, 0.6516844, 0.1775), (0.0808156, 0.6516844, 0.1775), (0.059184406, 0.7083156, 0.1775), (0.0808156, 0.7083156, 0.1775), (0.07, 0.68, 0.195), (0.059184406, 0.6516844, 0.1425), (0.0808156, 0.6516844, 0.1425), (0.059184406, 0.7083156, 0.1425), (0.0808156, 0.7083156, 0.1425), (0.07, 0.68, 0.125), (0.0983156, 0.6975, 0.1491844), (0.0983156, 0.6625, 0.1491844), (0.0875, 0.6691844, 0.13168441), (0.0875, 0.69081557, 0.13168441), (0.0983156, 0.6975, 0.1708156), (0.0983156, 0.6625, 0.1708156), (0.0875, 0.6691844, 0.1883156), (0.0875, 0.69081557, 0.1883156), (0.105, 0.68, 0.16), (0.041684404, 0.6975, 0.1491844), (0.041684404, 0.6625, 0.1491844), (0.0525, 0.6691844, 0.13168441), (0.0525, 0.69081557, 0.13168441), (0.041684404, 0.6975, 0.1708156), (0.041684404, 0.6625, 0.1708156), (0.0525, 0.6691844, 0.1883156), (0.0525, 0.69081557, 0.1883156), (0.035, 0.68, 0.16), (0.06043567, 0.71366787, 0.16), (0.079564326, 0.71366787, 0.16), (0.06043567, 0.64633214, 0.16), (0.079564326, 0.64633214, 0.16), (0.0548139, 0.6498066, 0.16909622), (0.06437823, 0.6557177, 0.18457162), (0.0643139, 0.646713, 0.1692003), (0.0851861, 0.6498066, 0.16909622), (0.07562177, 0.6557177, 0.18457162), (0.0756861, 0.646713, 0.1692003), (0.07, 0.65022725, 0.17840059), (0.0548139, 0.7101934, 0.16909622), (0.06437823, 0.70428234, 0.18457162), (0.0643139, 0.713287, 0.1692003), (0.0851861, 0.7101934, 0.16909622), (0.07562177, 0.70428234, 0.18457162), (0.0756861, 0.713287, 0.1692003), (0.07, 0.70977277, 0.17840059), (0.07, 0.67043567, 0.19366784), (0.07, 0.68956435, 0.19366784), (0.0548139, 0.6498066, 0.15090378), (0.06437823, 0.6557177, 0.13542837), (0.0643139, 0.646713, 0.1507997), (0.0851861, 0.6498066, 0.15090378), (0.07562177, 0.6557177, 0.13542837), (0.0756861, 0.646713, 0.1507997), (0.07, 0.65022725, 0.14159942), (0.0548139, 0.7101934, 0.15090378), (0.06437823, 0.70428234, 0.13542837), (0.0643139, 0.713287, 0.1507997), (0.0851861, 0.7101934, 0.15090378), (0.07562177, 0.70428234, 0.13542837), (0.0756861, 0.713287, 0.1507997), (0.07, 0.70977277, 0.14159942), (0.07, 0.67043567, 0.12633216), (0.07, 0.68956435, 0.12633216), (0.094282314, 0.7045716, 0.15437824), (0.100193396, 0.6890962, 0.1448139), (0.090572484, 0.70408666, 0.14511362), (0.094282314, 0.65542835, 0.15437824), (0.100193396, 0.6709038, 0.1448139), (0.090572484, 0.6559133, 0.14511362), (0.07909622, 0.6648139, 0.12980661), (0.09457163, 0.6743782, 0.13571769), (0.08488639, 0.6594275, 0.13591331), (0.0792003, 0.6743139, 0.12671302), (0.094086684, 0.6651136, 0.13942751), (0.07909622, 0.6951861, 0.12980661), (0.09457163, 0.6856218, 0.13571769), (0.08488639, 0.7005725, 0.13591331), (0.0792003, 0.6856861, 0.12671302), (0.094086684, 0.6948864, 0.13942751), (0.08840059, 0.68, 0.13022722), (0.094282314, 0.7045716, 0.16562177), (0.100193396, 0.6890962, 0.1751861), (0.090572484, 0.70408666, 0.17488639), (0.09977278, 0.6984006, 0.16), (0.094282314, 0.65542835, 0.16562177), (0.100193396, 0.6709038, 0.1751861), (0.090572484, 0.6559133, 0.17488639), (0.09977278, 0.6615994, 0.16), (0.07909622, 0.6648139, 0.1901934), (0.09457163, 0.6743782, 0.18428232), (0.08488639, 0.6594275, 0.18408668), (0.0792003, 0.6743139, 0.19328699), (0.094086684, 0.6651136, 0.18057248), (0.07909622, 0.6951861, 0.1901934), (0.09457163, 0.6856218, 0.18428232), (0.08488639, 0.7005725, 0.18408668), (0.0792003, 0.6856861, 0.19328699), (0.094086684, 0.6948864, 0.18057248), (0.08840059, 0.68, 0.18977278), (0.10366784, 0.68, 0.15043567), (0.10366784, 0.68, 0.16956432), (0.10328698, 0.6892003, 0.1543139), (0.10328698, 0.67079973, 0.1543139), (0.10328698, 0.6892003, 0.1656861), (0.10328698, 0.67079973, 0.1656861), (0.045717683, 0.7045716, 0.15437824), (0.039806604, 0.6890962, 0.1448139), (0.049427517, 0.70408666, 0.14511362), (0.045717683, 0.65542835, 0.15437824), (0.039806604, 0.6709038, 0.1448139), (0.049427517, 0.6559133, 0.14511362), (0.060903784, 0.6648139, 0.12980661), (0.045428373, 0.6743782, 0.13571769), (0.05511361, 0.6594275, 0.13591331), (0.060799707, 0.6743139, 0.12671302), (0.045913316, 0.6651136, 0.13942751), (0.060903784, 0.6951861, 0.12980661), (0.045428373, 0.6856218, 0.13571769), (0.05511361, 0.7005725, 0.13591331), (0.060799707, 0.6856861, 0.12671302), (0.045913316, 0.6948864, 0.13942751), (0.05159941, 0.68, 0.13022722), (0.045717683, 0.7045716, 0.16562177), (0.039806604, 0.6890962, 0.1751861), (0.049427517, 0.70408666, 0.17488639), (0.040227223, 0.6984006, 0.16), (0.045717683, 0.65542835, 0.16562177), (0.039806604, 0.6709038, 0.1751861), (0.049427517, 0.6559133, 0.17488639), (0.040227223, 0.6615994, 0.16), (0.060903784, 0.6648139, 0.1901934), (0.045428373, 0.6743782, 0.18428232), (0.05511361, 0.6594275, 0.18408668), (0.060799707, 0.6743139, 0.19328699), (0.045913316, 0.6651136, 0.18057248), (0.060903784, 0.6951861, 0.1901934), (0.045428373, 0.6856218, 0.18428232), (0.05511361, 0.7005725, 0.18408668), (0.060799707, 0.6856861, 0.19328699), (0.045913316, 0.6948864, 0.18057248), (0.05159941, 0.68, 0.18977278), (0.036332157, 0.68, 0.15043567), (0.036332157, 0.68, 0.16956432), (0.036713023, 0.6892003, 0.1543139), (0.036713023, 0.67079973, 0.1543139), (0.036713023, 0.6892003, 0.1656861), (0.036713023, 0.67079973, 0.1656861)]
    }

    def Mesh "mouth"
    {
        int[] faceVertexCounts = [3, 3, 3, 3, 3, 3, 3, 3, 3, 3, 3, 3]
        int[] faceVertexIndices = [1, 3, 0, 4, 1, 0, 0, 3, 2, 2, 4, 0, 1, 7, 3, 5, 1, 4, 5, 7, 1, 3, 7, 2, 6, 4, 2, 2, 7, 6, 6, 5, 4, 7, 5, 6]
        point3f[] points = [(-0.05, 0.56, 0.17), (-0.05, 0.56, 0.19), (-0.05, 0.6, 0.17), (-0.05, 0.6, 0.19), (0.05, 0.56, 0.17), (0.05, 0.56, 0.19), (0.05, 0.6, 0.17), (0.05, 0.6, 0.19)]
    }
}

