#usda 1.0
(
    defaultPrim = "Ghost"
    upAxis = "Y"
)

def Xform "Ghost"
{
    def Mesh "head"
    {
        int[] faceVertexCounts = [3, 3, 3, 3, 3, 3, 3, 3, 3, 3, 3, 3, 3, 3, 3, 3, 3, 3, 3, 3, 3, 3, 3, 3, 3, 3, 3, 3, 3, 3, 3, 3, 3, 3, 3, 3, 3, 3, 3, 3, 3, 3, 3, 3, 3, 3, 3, 3, 3, 3, 3, 3, 3, 3, 3, 3, 3, 3, 3, 3, 3, 3, 3, 3, 3, 3, 3, 3, 3, 3, 3, 3, 3, 3, 3, 3, 3, 3, 3, 3, 3, 3, 3, 3, 3, 3, 3, 3, 3, 3, 3, 3, 3, 3, 3, 3, 3, 3, 3, 3, 3, 3, 3, 3, 3, 3, 3, 3, 3, 3, 3, 3, 3, 3, 3, 3, 3, 3, 3, 3, 3, 3, 3, 3, 3, 3, 3, 3, 3, 3, 3, 3, 3, 3, 3, 3, 3, 3, 3, 3, 3, 3, 3, 3, 3, 3, 3, 3, 3, 3, 3, 3, 3, 3, 3, 3, 3, 3, 3, 3, 3, 3, 3, 3, 3, 3, 3, 3, 3, 3, 3, 3, 3, 3, 3, 3, 3, 3, 3, 3, 3, 3, 3, 3, 3, 3, 3, 3, 3, 3, 3, 3, 3, 3, 3, 3, 3, 3, 3, 3, 3, 3, 3, 3, 3, 3, 3, 3, 3, 3, 3, 3, 3, 3, 3, 3, 3, 3, 3, 3, 3, 3, 3, 3, 3, 3, 3, 3, 3, 3, 3, 3, 3, 3, 3, 3, 3, 3, 3, 3, 3, 3, 3, 3, 3, 3, 3, 3, 3, 3, 3, 3, 3, 3, 3, 3, 3, 3, 3, 3, 3, 3, 3, 3, 3, 3, 3, 3, 3, 3, 3, 3, 3, 3, 3, 3, 3, 3, 3, 3, 3, 3, 3, 3, 3, 3, 3, 3, 3, 3, 3, 3, 3, 3, 3, 3, 3, 3, 3, 3, 3, 3, 3, 3, 3, 3, 3, 3, 3, 3, 3, 3, 3, 3, 3, 3, 3, 3, 3, 3]
        int[] faceVertexIndices = [0, 137, 53, 137, 37, 139, 53, 139, 16, 137, 139, 53, 37, 138, 154, 138, 11, 151, 154, 151, 40, 138, 151, 154, 16, 152, 54, 152, 40, 150, 54, 150, 5, 152, 150, 54, 37, 154, 139, 154, 40, 152, 139, 152, 16, 154, 152, 139, 0, 53, 42, 53, 16, 55, 42, 55, 12, 53, 55, 42, 16, 54, 59, 54, 5, 57, 59, 57, 17, 54, 57, 59, 12, 58, 43, 58, 17, 56, 43, 56, 1, 58, 56, 43, 16, 59, 55, 59, 17, 58, 55, 58, 12, 59, 58, 55, 0, 42, 69, 42, 12, 71, 69, 71, 21, 42, 71, 69, 12, 43, 74, 43, 1, 72, 74, 72, 22, 43, 72, 74, 21, 75, 70, 75, 22, 73, 70, 73, 7, 75, 73, 70, 12, 74, 71, 74, 22, 75, 71, 75, 21, 74, 75, 71, 0, 69, 120, 69, 21, 122, 120, 122, 33, 69, 122, 120, 21, 70, 133, 70, 7, 131, 133, 131, 36, 70, 131, 133, 33, 135, 121, 135, 36, 132, 121, 132, 10, 135, 132, 121, 21, 133, 122, 133, 36, 135, 122, 135, 33, 133, 135, 122, 0, 120, 137, 120, 33, 140, 137, 140, 37, 120, 140, 137, 33, 121, 158, 121, 10, 156, 158, 156, 41, 121, 156, 158, 37, 160, 138, 160, 41, 157, 138, 157, 11, 160, 157, 138, 33, 158, 140, 158, 41, 160, 140, 160, 37, 158, 160, 140, 1, 56, 95, 56, 17, 97, 95, 97, 28, 56, 97, 95, 17, 57, 110, 57, 5, 108, 110, 108, 31, 57, 108, 110, 28, 112, 96, 112, 31, 109, 96, 109, 9, 112, 109, 96, 17, 110, 97, 110, 31, 112, 97, 112, 28, 110, 112, 97, 5, 150, 61, 150, 40, 153, 61, 153, 18, 150, 153, 61, 40, 151, 155, 151, 11, 146, 155, 146, 39, 151, 146, 155, 18, 148, 60, 148, 39, 145, 60, 145, 4, 148, 145, 60, 40, 155, 153, 155, 39, 148, 153, 148, 18, 155, 148, 153, 11, 157, 142, 157, 41, 161, 142, 161, 38, 157, 161, 142, 41, 156, 159, 156, 10, 124, 159, 124, 34, 156, 124, 159, 38, 144, 141, 144, 34, 123, 141, 123, 2, 144, 123, 141, 41, 159, 161, 159, 34, 144, 161, 144, 38, 159, 144, 161, 10, 132, 127, 132, 36, 136, 127, 136, 35, 132, 136, 127, 36, 131, 134, 131, 7, 77, 134, 77, 23, 131, 77, 134, 35, 129, 126, 129, 23, 76, 126, 76, 6, 129, 76, 126, 36, 134, 136, 134, 23, 129, 136, 129, 35, 134, 129, 136, 7, 73, 89, 73, 22, 91, 89, 91, 27, 73, 91, 89, 22, 72, 80, 72, 1, 78, 80, 78, 24, 72, 78, 80, 27, 93, 90, 93, 24, 79, 90, 79, 8, 93, 79, 90, 22, 80, 91, 80, 24, 93, 91, 93, 27, 80, 93, 91, 3, 99, 49, 99, 29, 101, 49, 101, 15, 99, 101, 49, 29, 100, 107, 100, 9, 104, 107, 104, 30, 100, 104, 107, 15, 105, 50, 105, 30, 103, 50, 103, 4, 105, 103, 50, 29, 107, 101, 107, 30, 105, 101, 105, 15, 107, 105, 101, 3, 49, 45, 49, 15, 51, 45, 51, 13, 49, 51, 45, 15, 50, 52, 50, 4, 47, 52, 47, 14, 50, 47, 52, 13, 48, 44, 48, 14, 46, 44, 46, 2, 48, 46, 44, 15, 52, 51, 52, 14, 48, 51, 48, 13, 52, 48, 51, 3, 45, 65, 45, 13, 67, 65, 67, 20, 45, 67, 65, 13, 44, 64, 44, 2, 62, 64, 62, 19, 44, 62, 64, 20, 68, 66, 68, 19, 63, 66, 63, 6, 68, 63, 66, 13, 64, 67, 64, 19, 68, 67, 68, 20, 64, 68, 67, 3, 65, 81, 65, 20, 83, 81, 83, 25, 65, 83, 81, 20, 66, 86, 66, 6, 84, 86, 84, 26, 66, 84, 86, 25, 88, 82, 88, 26, 85, 82, 85, 8, 88, 85, 82, 20, 86, 83, 86, 26, 88, 83, 88, 25, 86, 88, 83, 3, 81, 99, 81, 25, 102, 99, 102, 29, 81, 102, 99, 25, 82, 117, 82, 8, 114, 117, 114, 32, 82, 114, 117, 29, 119, 100, 119, 32, 115, 100, 115, 9, 119, 115, 100, 25, 117, 102, 117, 32, 119, 102, 119, 29, 117, 119, 102, 4, 103, 60, 103, 30, 106, 60, 106, 18, 103, 106, 60, 30, 104, 113, 104, 9, 109, 113, 109, 31, 104, 109, 113, 18, 111, 61, 111, 31, 108, 61, 108, 5, 111, 108, 61, 30, 113, 106, 113, 31, 111, 106, 111, 18, 113, 111, 106, 2, 46, 141, 46, 14, 143, 141, 143, 38, 46, 143, 141, 14, 47, 147, 47, 4, 145, 147, 145, 39, 47, 145, 147, 38, 149, 142, 149, 39, 146, 142, 146, 11, 149, 146, 142, 14, 147, 143, 147, 39, 149, 143, 149, 38, 147, 149, 143, 6, 63, 126, 63, 19, 128, 126, 128, 35, 63, 128, 126, 19, 62, 125, 62, 2, 123, 125, 123, 34, 62, 123, 125, 35, 130, 127, 130, 34, 124, 127, 124, 10, 130, 124, 127, 19, 125, 128, 125, 34, 130, 128, 130, 35, 125, 130, 128, 8, 85, 90, 85, 26, 94, 90, 94, 27, 85, 94, 90, 26, 84, 87, 84, 6, 76, 87, 76, 23, 84, 76, 87, 27, 92, 89, 92, 23, 77, 89, 77, 7, 92, 77, 89, 26, 87, 94, 87, 23, 92, 94, 92, 27, 87, 92, 94, 9, 115, 96, 115, 32, 118, 96, 118, 28, 115, 118, 96, 32, 114, 116, 114, 8, 79, 116, 79, 24, 114, 79, 116, 28, 98, 95, 98, 24, 78, 95, 78, 1, 98, 78, 95, 32, 116, 118, 116, 24, 98, 118, 98, 28, 116, 98, 118]
        point3f[] points = [(-0.0946316, 1.7031171, 0), (0.0946316, 1.7031171, 0), (-0.0946316, 1.3968829, 0), (0.0946316, 1.3968829, 0), (0, 1.4553684, 0.15311715), (0, 1.6446316, 0.15311715), (0, 1.4553684, -0.15311715), (0, 1.6446316, -0.15311715), (0.15311715, 1.55, -0.0946316), (0.15311715, 1.55, 0.0946316), (-0.15311715, 1.55, -0.0946316), (-0.15311715, 1.55, 0.0946316), (0, 1.73, 0), (0, 1.37, 0), (-0.05562306, 1.404377, 0.09), (0.05562306, 1.404377, 0.09), (-0.05562306, 1.695623, 0.09), (0.05562306, 1.695623, 0.09), (0, 1.55, 0.18), (-0.05562306, 1.404377, -0.09), (0.05562306, 1.404377, -0.09), (-0.05562306, 1.695623, -0.09), (0.05562306, 1.695623, -0.09), (0, 1.55, -0.18), (0.14562306, 1.64, -0.05562306), (0.14562306, 1.46, -0.05562306), (0.09, 1.4943769, -0.14562306), (0.09, 1.605623, -0.14562306), (0.14562306, 1.64, 0.05562306), (0.14562306, 1.46, 0.05562306), (0.09, 1.4943769, 0.14562306), (0.09, 1.605623, 0.14562306), (0.18, 1.55, 0), (-0.14562306, 1.64, -0.05562306), (-0.14562306, 1.46, -0.05562306), (-0.09, 1.4943769, -0.14562306), (-0.09, 1.605623, -0.14562306), (-0.14562306, 1.64, 0.05562306), (-0.14562306, 1.46, 0.05562306), (-0.09, 1.4943769, 0.14562306), (-0.09, 1.605623, 0.14562306), (-0.18, 1.55, 0), (-0.049187977, 1.723149, 0), (0.049187977, 1.723149, 0), (-0.049187977, 1.3768511, 0), (0.049187977, 1.3768511, 0), (-0.07809994, 1.3947197, 0.046780545), (-0.028911967, 1.4251195, 0.12636836), (-0.029242773, 1.3788098, 0.0473158), (0.07809994, 1.3947197, 0.046780545), (0.028911967, 1.4251195, 0.12636836), (0.029242773, 1.3788098, 0.0473158), (0, 1.3968829, 0.0946316), (-0.07809994, 1.7052803, 0.046780545), (-0.028911967, 1.6748805, 0.12636836), (-0.029242773, 1.7211902, 0.0473158), (0.07809994, 1.7052803, 0.046780545), (0.028911967, 1.6748805, 0.12636836), (0.029242773, 1.7211902, 0.0473158), (0, 1.7031171, 0.0946316), (0, 1.500812, 0.1731489), (0, 1.599188, 0.1731489), (-0.07809994, 1.3947197, -0.046780545), (-0.028911967, 1.4251195, -0.12636836), (-0.029242773, 1.3788098, -0.0473158), (0.07809994, 1.3947197, -0.046780545), (0.028911967, 1.4251195, -0.12636836), (0.029242773, 1.3788098, -0.0473158), (0, 1.3968829, -0.0946316), (-0.07809994, 1.7052803, -0.046780545), (-0.028911967, 1.6748805, -0.12636836), (-0.029242773, 1.7211902, -0.0473158), (0.07809994, 1.7052803, -0.046780545), (0.028911967, 1.6748805, -0.12636836), (0.029242773, 1.7211902, -0.0473158), (0, 1.7031171, -0.0946316), (0, 1.500812, -0.1731489), (0, 1.599188, -0.1731489), (0.124880485, 1.6763684, -0.028911967), (0.15528032, 1.5967805, -0.07809994), (0.105801344, 1.6738744, -0.076558575), (0.124880485, 1.4236317, -0.028911967), (0.15528032, 1.5032195, -0.07809994), (0.105801344, 1.4261256, -0.076558575), (0.046780545, 1.4719001, -0.15528032), (0.12636836, 1.521088, -0.124880485), (0.076558575, 1.4441986, -0.123874374), (0.0473158, 1.5207572, -0.17119017), (0.123874374, 1.4734415, -0.105801344), (0.046780545, 1.6280999, -0.15528032), (0.12636836, 1.578912, -0.124880485), (0.076558575, 1.6558013, -0.123874374), (0.0473158, 1.5792428, -0.17119017), (0.123874374, 1.6265585, -0.105801344), (0.0946316, 1.55, -0.15311715), (0.124880485, 1.6763684, 0.028911967), (0.15528032, 1.5967805, 0.07809994), (0.105801344, 1.6738744, 0.076558575), (0.15311715, 1.6446316, 0), (0.124880485, 1.4236317, 0.028911967), (0.15528032, 1.5032195, 0.07809994), (0.105801344, 1.4261256, 0.076558575), (0.15311715, 1.4553684, 0), (0.046780545, 1.4719001, 0.15528032), (0.12636836, 1.521088, 0.124880485), (0.076558575, 1.4441986, 0.123874374), (0.0473158, 1.5207572, 0.17119017), (0.123874374, 1.4734415, 0.105801344), (0.046780545, 1.6280999, 0.15528032), (0.12636836, 1.578912, 0.124880485), (0.076558575, 1.6558013, 0.123874374), (0.0473158, 1.5792428, 0.17119017), (0.123874374, 1.6265585, 0.105801344), (0.0946316, 1.55, 0.15311715), (0.1731489, 1.55, -0.049187977), (0.1731489, 1.55, 0.049187977), (0.17119017, 1.5973158, -0.029242773), (0.17119017, 1.5026842, -0.029242773), (0.17119017, 1.5973158, 0.029242773), (0.17119017, 1.5026842, 0.029242773), (-0.124880485, 1.6763684, -0.028911967), (-0.15528032, 1.5967805, -0.07809994), (-0.105801344, 1.6738744, -0.076558575), (-0.124880485, 1.4236317, -0.028911967), (-0.15528032, 1.5032195, -0.07809994), (-0.105801344, 1.4261256, -0.076558575), (-0.046780545, 1.4719001, -0.15528032), (-0.12636836, 1.521088, -0.124880485), (-0.076558575, 1.4441986, -0.123874374), (-0.0473158, 1.5207572, -0.17119017), (-0.123874374, 1.4734415, -0.105801344), (-0.046780545, 1.6280999, -0.15528032), (-0.12636836, 1.578912, -0.124880485), (-0.076558575, 1.6558013, -0.123874374), (-0.0473158, 1.5792428, -0.17119017), (-0.123874374, 1.6265585, -0.105801344), (-0.0946316, 1.55, -0.15311715), (-0.124880485, 1.6763684, 0.028911967), (-0.15528032, 1.5967805, 0.07809994), (-0.105801344, 1.6738744, 0.076558575), (-0.15311715, 1.6446316, 0), (-0.124880485, 1.4236317, 0.028911967), (-0.15528032, 1.5032195, 0.07809994), (-0.105801344, 1.4261256, 0.076558575), (-0.15311715, 1.4553684, 0), (-0.046780545, 1.4719001, 0.15528032), (-0.12636836, 1.521088, 0.124880485), (-0.076558575, 1.4441986, 0.123874374), (-0.0473158, 1.5207572, 0.17119017), (-0.123874374, 1.4734415, 0.105801344), (-0.046780545, 1.6280999, 0.15528032), (-0.12636836, 1.578912, 0.124880485), (-0.076558575, 1.6558013, 0.123874374), (-0.0473158, 1.5792428, 0.17119017), (-0.123874374, 1.6265585, 0.105801344), (-0.0946316, 1.55, 0.15311715), (-0.1731489, 1.55, -0.049187977), (-0.1731489, 1.55, 0.049187977), (-0.17119017, 1.5973158, -0.029242773), (-0.17119017, 1.5026842, -0.029242773), (-0.17119017, 1.5973158, 0.029242773), (-0.17119017, 1.5026842, 0.029242773)]
    }

    def Mesh "torso"
    {
        int[] faceVertexCounts = [3, 3, 3, 3, 3, 3, 3, 3, 3, 3, 3, 3]
        int[] faceVertexIndices = [1, 3, 0, 4, 1, 0, 0, 3, 2, 2, 4, 0, 1, 7, 3, 5, 1, 4, 5, 7, 1, 3, 7, 2, 6, 4, 2, 2, 7, 6, 6, 5, 4, 7, 5, 6]
        point3f[] points = [(-0.2, 0.825, -0.1), (-0.2, 0.825, 0.1), (-0.2, 1.375, -0.1), (-0.2, 1.375, 0.1), (0.2, 0.825, -0.1), (0.2, 0.825, 0.1), (0.2, 1.375, -0.1), (0.2, 1.375, 0.1)]
    }

    def Mesh "wisp_l"
    {
        int[] faceVertexCounts = [3, 3, 3, 3, 3, 3, 3, 3, 3, 3, 3, 3, 3, 3, 3, 3, 3, 3, 3, 3, 3, 3, 3, 3, 3, 3, 3, 3, 3, 3, 3, 3, 3, 3, 3, 3, 3, 3, 3, 3, 3, 3, 3, 3, 3, 3, 3, 3]
        int[] faceVertexIndices = [1, 0, 4, 1, 4, 2, 2, 4, 5, 2, 5, 3, 4, 0, 6, 4, 6, 5, 5, 6, 7, 5, 7, 3, 6, 0, 8, 6, 8, 7, 7, 8, 9, 7, 9, 3, 8, 0, 10, 8, 10, 9, 9, 10, 11, 9, 11, 3, 10, 0, 12, 10, 12, 11, 11, 12, 13, 11, 13, 3, 12, 0, 14, 12, 14, 13, 13, 14, 15, 13, 15, 3, 14, 0, 16, 14, 16, 15, 15, 16, 17, 15, 17, 3, 16, 0, 18, 16, 18, 17, 17, 18, 19, 17, 19, 3, 18, 0, 20, 18, 20, 19, 19, 20, 21, 19, 21, 3, 20, 0, 22, 20, 22, 21, 21, 22, 23, 21, 23, 3, 22, 0, 24, 22, 24, 23, 23, 24, 25, 23, 25, 3, 24, 0, 1, 24, 1, 25, 25, 1, 2, 25, 2, 3]
        point3f[] points = [(-0.15, 0.55, -0.3), (0.03, 0.55, -0.3), (0.03, 0.55, 0.3), (-0.15, 0.55, 0.3), (0.005884573, 0.64, -0.3), (0.005884573, 0.64, 0.3), (-0.06, 0.7058846, -0.3), (-0.06, 0.7058846, 0.3), (-0.15, 0.73, -0.3), (-0.15, 0.73, 0.3), (-0.24, 0.7058846, -0.3), (-0.24, 0.7058846, 0.3), (-0.30588457, 0.64, -0.3), (-0.30588457, 0.64, 0.3), (-0.33, 0.55, -0.3), (-0.33, 0.55, 0.3), (-0.30588457, 0.46, -0.3), (-0.30588457, 0.46, 0.3), (-0.24, 0.39411542, -0.3), (-0.24, 0.39411542, 0.3), (-0.15, 0.37, -0.3), (-0.15, 0.37, 0.3), (-0.06, 0.39411542, -0.3), (-0.06, 0.39411542, 0.3), (0.005884573, 0.46, -0.3), (0.005884573, 0.46, 0.3)]
    }

    def Mesh "wisp_r"
    {
        int[] faceVertexCounts = [3, 3, 3, 3, 3, 3, 3, 3, 3, 3, 3, 3, 3, 3, 3, 3, 3, 3, 3, 3, 3, 3, 3, 3, 3, 3, 3, 3, 3, 3, 3, 3, 3, 3, 3, 3, 3, 3, 3, 3, 3, 3, 3, 3, 3, 3, 3, 3]
        int[] faceVertexIndices = [1, 0, 4, 1, 4, 2, 2, 4, 5, 2, 5, 3, 4, 0, 6, 4, 6, 5, 5, 6, 7, 5, 7, 3, 6, 0, 8, 6, 8, 7, 7, 8, 9, 7, 9, 3, 8, 0, 10, 8, 10, 9, 9, 10, 11, 9, 11, 3, 10, 0, 12, 10, 12, 11, 11, 12, 13, 11, 13, 3, 12, 0, 14, 12, 14, 13, 13, 14, 15, 13, 15, 3, 14, 0, 16, 14, 16, 15, 15, 16, 17, 15, 17, 3, 16, 0, 18, 16, 18, 17, 17, 18, 19, 17, 19, 3, 18, 0, 20, 18, 20, 19, 19, 20, 21, 19, 21, 3, 20, 0, 22, 20, 22, 21, 21, 22, 23, 21, 23, 3, 22, 0, 24, 22, 24, 23, 23, 24, 25, 23, 25, 3, 24, 0, 1, 24, 1, 25, 25, 1, 2, 25, 2, 3]
        point3f[] points = [(0.15, 0.55, -0.3), (0.33, 0.55, -0.3), (0.33, 0.55, 0.3), (0.15, 0.55, 0.3), (0.30588457, 0.64, -0.3), (0.30588457, 0.64, 0.3), (0.24, 0.7058846, -0.3), (0.24, 0.7058846, 0.3), (0.15, 0.73, -0.3), (0.15, 0.73, 0.3), (0.06, 0.7058846, -0.3), (0.06, 0.7058846, 0.3), (-0.005884573, 0.64, -0.3), (-0.005884573, 0.64, 0.3), (-0.03, 0.55, -0.3), (-0.03, 0.55, 0.3), (-0.005884573, 0.46, -0.3), (-0.005884573, 0.46, 0.3), (0.06, 0.39411542, -0.3), (0.06, 0.39411542, 0.3), (0.15, 0.37, -0.3), (0.15, 0.37, 0.3), (0.24, 0.39411542, -0.3), (0.24, 0.39411542, 0.3), (0.30588457, 0.46, -0.3), (0.30588457, 0.46, 0.3)]
    }

    def Mesh "wisp_c"
    {
        int[] faceVertexCounts = [3, 3, 3, 3, 3, 3, 3, 3, 3, 3, 3, 3, 3, 3, 3, 3, 3, 3, 3, 3, 3, 3, 3, 3, 3, 3, 3, 3, 3, 3, 3, 3, 3, 3, 3, 3, 3, 3, 3, 3, 3, 3, 3, 3, 3, 3, 3, 3]
        int[] faceVertexIndices = [1, 0, 4, 1, 4, 2, 2, 4, 5, 2, 5, 3, 4, 0, 6, 4, 6, 5, 5, 6, 7, 5, 7, 3, 6, 0, 8, 6, 8, 7, 7, 8, 9, 7, 9, 3, 8, 0, 10, 8, 10, 9, 9, 10, 11, 9, 11, 3, 10, 0, 12, 10, 12, 11, 11, 12, 13, 11, 13, 3, 12, 0, 14, 12, 14, 13, 13, 14, 15, 13, 15, 3, 14, 0, 16, 14, 16, 15, 15, 16, 17, 15, 17, 3, 16, 0, 18, 16, 18, 17, 17, 18, 19, 17, 19, 3, 18, 0, 20, 18, 20, 19, 19, 20, 21, 19, 21, 3, 20, 0, 22, 20, 22, 21, 21, 22, 23, 21, 23, 3, 22, 0, 24, 22, 24, 23, 23, 24, 25, 23, 25, 3, 24, 0, 1, 24, 1, 25, 25, 1, 2, 25, 2, 3]
        point3f[] points = [(0, 0.2, -0.2), (0.2, 0.2, -0.2), (0.2, 0.2, 0.2), (0, 0.2, 0.2), (0.17320508, 0.3, -0.2), (0.17320508, 0.3, 0.2), (0.1, 0.3732051, -0.2), (0.1, 0.3732051, 0.2), (1.2246468e-17, 0.4, -0.2), (1.2246468e-17, 0.4, 0.2), (-0.1, 0.3732051, -0.2), (-0.1, 0.3732051, 0.2), (-0.17320508, 0.3, -0.2), (-0.17320508, 0.3, 0.2), (-0.2, 0.2, -0.2), (-0.2, 0.2, 0.2), (-0.17320508, 0.1, -0.2), (-0.17320508, 0.1, 0.2), (-0.1, 0.02679492, -0.2), (-0.1, 0.02679492, 0.2), (-3.6739406e-17, 0, -0.2), (-3.6739406e-17, 0, 0.2), (0.1, 0.02679492, -0.2), (0.1, 0.02679492, 0.2), (0.17320508, 0.1, -0.2), (0.17320508, 0.1, 0.2)]
    }

    def Mesh "arm_l"
    {
        int[] faceVertexCounts = [3, 3, 3, 3, 3, 3, 3, 3, 3, 3, 3, 3, 3, 3, 3, 3, 3, 3, 3, 3, 3, 3, 3, 3, 3, 3, 3, 3, 3, 3, 3, 3, 3, 3, 3, 3, 3, 3, 3, 3, 3, 3, 3, 3, 3, 3, 3, 3]
        int[] faceVertexIndices = [1, 0, 4, 1, 4, 2, 2, 4, 5, 2, 5, 3, 4, 0, 6, 4, 6, 5, 5, 6, 7, 5, 7, 3, 6, 0, 8, 6, 8, 7, 7, 8, 9, 7, 9, 3, 8, 0, 10, 8, 10, 9, 9, 10, 11, 9, 11, 3, 10, 0, 12, 10, 12, 11, 11, 12, 13, 11, 13, 3, 12, 0, 14, 12, 14, 13, 13, 14, 15, 13, 15, 3, 14, 0, 16, 14, 16, 15, 15, 16, 17, 15, 17, 3, 16, 0, 18, 16, 18, 17, 17, 18, 19, 17, 19, 3, 18, 0, 20, 18, 20, 19, 19, 20, 21, 19, 21, 3, 20, 0, 22, 20, 22, 21, 21, 22, 23, 21, 23, 3, 22, 0, 24, 22, 24, 23, 23, 24, 25, 23, 25, 3, 24, 0, 1, 24, 1, 25, 25, 1, 2, 25, 2, 3]
        point3f[] points = [(-0.3, 1.1, -0.25), (-0.25, 1.1, -0.25), (-0.25, 1.1, 0.25), (-0.3, 1.1, 0.25), (-0.25669873, 1.125, -0.25), (-0.25669873, 1.125, 0.25), (-0.275, 1.1433012, -0.25), (-0.275, 1.1433012, 0.25), (-0.3, 1.15, -0.25), (-0.3, 1.15, 0.25), (-0.325, 1.1433012, -0.25), (-0.325, 1.1433012, 0.25), (-0.34330127, 1.125, -0.25), (-0.34330127, 1.125, 0.25), (-0.35, 1.1, -0.25), (-0.35, 1.1, 0.25), (-0.34330127, 1.075, -0.25), (-0.34330127, 1.075, 0.25), (-0.325, 1.0566987, -0.25), (-0.325, 1.0566987, 0.25), (-0.3, 1.05, -0.25), (-0.3, 1.05, 0.25), (-0.275, 1.0566987, -0.25), (-0.275, 1.0566987, 0.25), (-0.25669873, 1.075, -0.25), (-0.25669873, 1.075, 0.25)]
    }

    def Mesh "arm_r"
    {
        int[] faceVertexCounts = [3, 3, 3, 3, 3, 3, 3, 3, 3, 3, 3, 3, 3, 3, 3, 3, 3, 3, 3, 3, 3, 3, 3, 3, 3, 3, 3, 3, 3, 3, 3, 3, 3, 3, 3, 3, 3, 3, 3, 3, 3, 3, 3, 3, 3, 3, 3, 3]
        int[] faceVertexIndices = [1, 0, 4, 1, 4, 2, 2, 4, 5, 2, 5, 3, 4, 0, 6, 4, 6, 5, 5, 6, 7, 5, 7, 3, 6, 0, 8, 6, 8, 7, 7, 8, 9, 7, 9, 3, 8, 0, 10, 8, 10, 9, 9, 10, 11, 9, 11, 3, 10, 0, 12, 10, 12, 11, 11, 12, 13, 11, 13, 3, 12, 0, 14, 12, 14, 13, 13, 14, 15, 13, 15, 3, 14, 0, 16, 14, 16, 15, 15, 16, 17, 15, 17, 3, 16, 0, 18, 16, 18, 17, 17, 18, 19, 17, 19, 3, 18, 0, 20, 18, 20, 19, 19, 20, 21, 19, 21, 3, 20, 0, 22, 20, 22, 21, 21, 22, 23, 21, 23, 3, 22, 0, 24, 22, 24, 23, 23, 24, 25, 23, 25, 3, 24, 0, 1, 24, 1, 25, 25, 1, 2, 25, 2, 3]
        point3f[] points = [(0.3, 1.1, -0.25), (0.35, 1.1, -0.25), (0.35, 1.1, 0.25), (0.3, 1.1, 0.25), (0.34330127, 1.125, -0.25), (0.34330127, 1.125, 0.25), (0.325, 1.1433012, -0.25), (0.325, 1.1433012, 0.25), (0.3, 1.15, -0.25), (0.3, 1.15, 0.25), (0.275, 1.1433012, -0.25), (0.275, 1.1433012, 0.25), (0.25669873, 1.125, -0.25), (0.25669873, 1.125, 0.25), (0.25, 1.1, -0.25), (0.25, 1.1, 0.25), (0.25669873, 1.075, -0.25), (0.25669873, 1.075, 0.25), (0.275, 1.0566987, -0.25), (0.275, 1.0566987, 0.25), (0.3, 1.05, -0.25), (0.3, 1.05, 0.25), (0.325, 1.0566987, -0.25), (0.325, 1.0566987, 0.25), (0.34330127, 1.075, -0.25), (0.34330127, 1.075, 0.25)]
    }

    def Mesh "eye_l"
    {
        int[] faceVertexCounts = [3, 3, 3, 3, 3, 3, 3, 3, 3, 3, 3, 3, 3, 3, 3, 3, 3, 3, 3, 3, 3, 3, 3, 3, 3, 3, 3, 3, 3, 3, 3, 3, 3, 3, 3, 3, 3, 3, 3, 3, 3, 3, 3, 3, 3, 3, 3, 3, 3, 3, 3, 3, 3, 3, 3, 3, 3, 3, 3, 3, 3, 3, 3, 3, 3, 3, 3, 3, 3, 3, 3, 3, 3, 3, 3, 3, 3, 3, 3, 3, 3, 3, 3, 3, 3, 3, 3, 3, 3, 3, 3, 3, 3, 3, 3, 3, 3, 3, 3, 3, 3, 3, 3, 3, 3, 3, 3, 3, 3, 3, 3, 3, 3, 3, 3, 3, 3, 3, 3, 3, 3, 3, 3, 3, 3, 3, 3, 3, 3, 3, 3, 3, 3, 3, 3, 3, 3, 3, 3, 3, 3, 3, 3, 3, 3, 3, 3, 3, 3, 3, 3, 3, 3, 3, 3, 3, 3, 3, 3, 3, 3, 3, 3, 3, 3, 3, 3, 3, 3, 3, 3, 3, 3, 3, 3, 3, 3, 3, 3, 3, 3, 3, 3, 3, 3, 3, 3, 3, 3, 3, 3, 3, 3, 3, 3, 3, 3, 3, 3, 3, 3, 3, 3, 3, 3, 3, 3, 3, 3, 3, 3, 3, 3, 3, 3, 3, 3, 3, 3, 3, 3, 3, 3, 3, 3, 3, 3, 3, 3, 3, 3, 3, 3, 3, 3, 3, 3, 3, 3, 3, 3, 3, 3, 3, 3, 3, 3, 3, 3, 3, 3, 3, 3, 3, 3, 3, 3, 3, 3, 3, 3, 3, 3, 3, 3, 3, 3, 3, 3, 3, 3, 3, 3, 3, 3, 3, 3, 3, 3, 3, 3, 3, 3, 3, 3, 3, 3, 3, 3, 3, 3, 3, 3, 3, 3, 3, 3, 3, 3, 3, 3, 3, 3, 3, 3, 3, 3, 3, 3, 3, 3, 3, 3, 3, 3, 3, 3, 3, 3, 3]
        int[] faceVertexIndices = [0, 137, 53, 137, 37, 139, 53, 139, 16, 137, 139, 53, 37, 138, 154, 138, 11, 151, 154, 151, 40, 138, 151, 154, 16, 152, 54, 152, 40, 150, 54, 150, 5, 152, 150, 54, 37, 154, 139, 154, 40, 152, 139, 152, 16, 154, 152, 139, 0, 53, 42, 53, 16, 55, 42, 55, 12, 53, 55, 42, 16, 54, 59, 54, 5, 57, 59, 57, 17, 54, 57, 59, 12, 58, 43, 58, 17, 56, 43, 56, 1, 58, 56, 43, 16, 59, 55, 59, 17, 58, 55, 58, 12, 59, 58, 55, 0, 42, 69, 42, 12, 71, 69, 71, 21, 42, 71, 69, 12, 43, 74, 43, 1, 72, 74, 72, 22, 43, 72, 74, 21, 75, 70, 75, 22, 73, 70, 73, 7, 75, 73, 70, 12, 74, 71, 74, 22, 75, 71, 75, 21, 74, 75, 71, 0, 69, 120, 69, 21, 122, 120, 122, 33, 69, 122, 120, 21, 70, 133, 70, 7, 131, 133, 131, 36, 70, 131, 133, 33, 135, 121, 135, 36, 132, 121, 132, 10, 135, 132, 121, 21, 133, 122, 133, 36, 135, 122, 135, 33, 133, 135, 122, 0, 120, 137, 120, 33, 140, 137, 140, 37, 120, 140, 137, 33, 121, 158, 121, 10, 156, 158, 156, 41, 121, 156, 158, 37, 160, 138, 160, 41, 157, 138, 157, 11, 160, 157, 138, 33, 158, 140, 158, 41, 160, 140, 160, 37, 158, 160, 140, 1, 56, 95, 56, 17, 97, 95, 97, 28, 56, 97, 95, 17, 57, 110, 57, 5, 108, 110, 108, 31, 57, 108, 110, 28, 112, 96, 112, 31, 109, 96, 109, 9, 112, 109, 96, 17, 110, 97, 110, 31, 112, 97, 112, 28, 110, 112, 97, 5, 150, 61, 150, 40, 153, 61, 153, 18, 150, 153, 61, 40, 151, 155, 151, 11, 146, 155, 146, 39, 151, 146, 155, 18, 148, 60, 148, 39, 145, 60, 145, 4, 148, 145, 60, 40, 155, 153, 155, 39, 148, 153, 148, 18, 155, 148, 153, 11, 157, 142, 157, 41, 161, 142, 161, 38, 157, 161, 142, 41, 156, 159, 156, 10, 124, 159, 124, 34, 156, 124, 159, 38, 144, 141, 144, 34, 123, 141, 123, 2, 144, 123, 141, 41, 159, 161, 159, 34, 144, 161, 144, 38, 159, 144, 161, 10, 132, 127, 132, 36, 136, 127, 136, 35, 132, 136, 127, 36, 131, 134, 131, 7, 77, 134, 77, 23, 131, 77, 134, 35, 129, 126, 129, 23, 76, 126, 76, 6, 129, 76, 126, 36, 134, 136, 134, 23, 129, 136, 129, 35, 134, 129, 136, 7, 73, 89, 73, 22, 91, 89, 91, 27, 73, 91, 89, 22, 72, 80, 72, 1, 78, 80, 78, 24, 72, 78, 80, 27, 93, 90, 93, 24, 79, 90, 79, 8, 93, 79, 90, 22, 80, 91, 80, 24, 93, 91, 93, 27, 80, 93, 91, 3, 99, 49, 99, 29, 101, 49, 101, 15, 99, 101, 49, 29, 100, 107, 100, 9, 104, 107, 104, 30, 100, 104, 107, 15, 105, 50, 105, 30, 103, 50, 103, 4, 105, 103, 50, 29, 107, 101, 107, 30, 105, 101, 105, 15, 107, 105, 101, 3, 49, 45, 49, 15, 51, 45, 51, 13, 49, 51, 45, 15, 50, 52, 50, 4, 47, 52, 47, 14, 50, 47, 52, 13, 48, 44, 48, 14, 46, 44, 46, 2, 48, 46, 44, 15, 52, 51, 52, 14, 48, 51, 48, 13, 52, 48, 51, 3, 45, 65, 45, 13, 67, 65, 67, 20, 45, 67, 65, 13, 44, 64, 44, 2, 62, 64, 62, 19, 44, 62, 64, 20, 68, 66, 68, 19, 63, 66, 63, 6, 68, 63, 66, 13, 64, 67, 64, 19, 68, 67, 68, 20, 64, 68, 67, 3, 65, 81, 65, 20, 83, 81, 83, 25, 65, 83, 81, 20, 66, 86, 66, 6, 84, 86, 84, 26, 66, 84, 86, 25, 88, 82, 88, 26, 85, 82, 85, 8, 88, 85, 82, 20, 86, 83, 86, 26, 88, 83, 88, 25, 86, 88, 83, 3, 81, 99, 81, 25, 102, 99, 102, 29, 81, 102, 99, 25, 82, 117, 82, 8, 114, 117, 114, 32, 82, 114, 117, 29, 119, 100, 119, 32, 115, 100, 115, 9, 119, 115, 100, 25, 117, 102, 117, 32, 119, 102, 119, 29, 117, 119, 102, 4, 103, 60, 103, 30, 106, 60, 106, 18, 103, 106, 60, 30, 104, 113, 104, 9, 109, 113, 109, 31, 104, 109, 113, 18, 111, 61, 111, 31, 108, 61, 108, 5, 111, 108, 61, 30, 113, 106, 113, 31, 111, 106, 111, 18, 113, 111, 106, 2, 46, 141, 46, 14, 143, 141, 143, 38, 46, 143, 141, 14, 47, 147, 47, 4, 145, 147, 145, 39, 47, 145, 147, 38, 149, 142, 149, 39, 146, 142, 146, 11, 149, 146, 142, 14, 147, 143, 147, 39, 149, 143, 149, 38, 147, 149, 143, 6, 63, 126, 63, 19, 128, 126, 128, 35, 63, 128, 126, 19, 62, 125, 62, 2, 123, 125, 123, 34, 62, 123, 125, 35, 130, 127, 130, 34, 124, 127, 124, 10, 130, 124, 127, 19, 125, 128, 125, 34, 130, 128, 130, 35, 125, 130, 128, 8, 85, 90, 85, 26, 94, 90, 94, 27, 85, 94, 90, 26, 84, 87, 84, 6, 76, 87, 76, 23, 84, 76, 87, 27, 92, 89, 92, 23, 77, 89, 77, 7, 92, 77, 89, 26, 87, 94, 87, 23, 92, 94, 92, 27, 87, 92, 94, 9, 115, 96, 115, 32, 118, 96, 118, 28, 115, 118, 96, 32, 114, 116, 114, 8, 79, 116, 79, 24, 114, 79, 116, 28, 98, 95, 98, 24, 78, 95, 78, 1, 98, 78, 95, 32, 116, 118, 116, 24, 98, 118, 98, 28, 116, 98, 118]
        point3f[] points = [(-0.081029244, 1.6140261, 0.16), (-0.038970757, 1.6140261, 0.16), (-0.081029244, 1.545974, 0.16), (-0.038970757, 1.545974, 0.16), (-0.06, 1.5589708, 0.19402604), (-0.06, 1.6010293, 0.19402604), (-0.06, 1.5589708, 0.12597397), (-0.06, 1.6010293, 0.12597397), (-0.025973968, 1.58, 0.13897076), (-0.025973968, 1.58, 0.18102925), (-0.09402603, 1.58, 0.13897076), (-0.09402603, 1.58, 0.18102925), (-0.06, 1.62, 0.16), (-0.06, 1.54, 0.16), (-0.07236068, 1.5476394, 0.18), (-0.04763932, 1.5476394, 0.18), (-0.07236068, 1.6123607, 0.18), (-0.04763932, 1.6123607, 0.18), (-0.06, 1.58, 0.2), (-0.07236068, 1.5476394, 0.14), (-0.04763932, 1.5476394, 0.14), (-0.07236068, 1.6123607, 0.14), (-0.04763932, 1.6123607, 0.14), (-0.06, 1.58, 0.12), (-0.02763932, 1.6, 0.14763932), (-0.02763932, 1.56, 0.14763932), (-0.04, 1.5676394, 0.12763932), (-0.04, 1.5923607, 0.12763932), (-0.02763932, 1.6, 0.17236067), (-0.02763932, 1.56, 0.17236067), (-0.04, 1.5676394, 0.19236068), (-0.04, 1.5923607, 0.19236068), (-0.02, 1.58, 0.16), (-0.09236068, 1.6, 0.14763932), (-0.09236068, 1.56, 0.14763932), (-0.08, 1.5676394, 0.12763932), (-0.08, 1.5923607, 0.12763932), (-0.09236068, 1.6, 0.17236067), (-0.09236068, 1.56, 0.17236067), (-0.08, 1.5676394, 0.19236068), (-0.08, 1.5923607, 0.19236068), (-0.1, 1.58, 0.16), (-0.07093066, 1.6184776, 0.16), (-0.049069338, 1.6184776, 0.16), (-0.07093066, 1.5415225, 0.16), (-0.049069338, 1.5415225, 0.16), (-0.07735554, 1.5454932, 0.17039567), (-0.066424884, 1.5522488, 0.18808186), (-0.06649839, 1.5419577, 0.17051463), (-0.042644456, 1.5454932, 0.17039567), (-0.053575117, 1.5522488, 0.18808186), (-0.053501606, 1.5419577, 0.17051463), (-0.06, 1.545974, 0.18102925), (-0.07735554, 1.6145067, 0.17039567), (-0.066424884, 1.6077513, 0.18808186), (-0.06649839, 1.6180422, 0.17051463), (-0.042644456, 1.6145067, 0.17039567), (-0.053575117, 1.6077513, 0.18808186), (-0.053501606, 1.6180422, 0.17051463), (-0.06, 1.6140261, 0.18102925), (-0.06, 1.5690694, 0.19847754), (-0.06, 1.5909307, 0.19847754), (-0.07735554, 1.5454932, 0.14960432), (-0.066424884, 1.5522488, 0.13191815), (-0.06649839, 1.5419577, 0.14948538), (-0.042644456, 1.5454932, 0.14960432), (-0.053575117, 1.5522488, 0.13191815), (-0.053501606, 1.5419577, 0.14948538), (-0.06, 1.545974, 0.13897076), (-0.07735554, 1.6145067, 0.14960432), (-0.066424884, 1.6077513, 0.13191815), (-0.06649839, 1.6180422, 0.14948538), (-0.042644456, 1.6145067, 0.14960432), (-0.053575117, 1.6077513, 0.13191815), (-0.053501606, 1.6180422, 0.14948538), (-0.06, 1.6140261, 0.13897076), (-0.06, 1.5690694, 0.121522464), (-0.06, 1.5909307, 0.121522464), (-0.03224878, 1.6080818, 0.15357512), (-0.02549326, 1.5903957, 0.14264445), (-0.03648859, 1.6075276, 0.14298698), (-0.03224878, 1.5519181, 0.15357512), (-0.02549326, 1.5696043, 0.14264445), (-0.03648859, 1.5524724, 0.14298698), (-0.049604323, 1.5626445, 0.12549326), (-0.031918142, 1.5735751, 0.13224877), (-0.042986985, 1.5564886, 0.13247237), (-0.049485378, 1.5735016, 0.12195774), (-0.03247236, 1.562987, 0.13648859), (-0.049604323, 1.5973555, 0.12549326), (-0.031918142, 1.5864248, 0.13224877), (-0.042986985, 1.6035115, 0.13247237), (-0.049485378, 1.5864984, 0.12195774), (-0.03247236, 1.597013, 0.13648859), (-0.038970757, 1.58, 0.12597397), (-0.03224878, 1.6080818, 0.16642489), (-0.02549326, 1.5903957, 0.17735554), (-0.03648859, 1.6075276, 0.17701301), (-0.025973968, 1.6010293, 0.16), (-0.03224878, 1.5519181, 0.16642489), (-0.02549326, 1.5696043, 0.17735554), (-0.03648859, 1.5524724, 0.17701301), (-0.025973968, 1.5589708, 0.16), (-0.049604323, 1.5626445, 0.19450673), (-0.031918142, 1.5735751, 0.18775122), (-0.042986985, 1.5564886, 0.18752764), (-0.049485378, 1.5735016, 0.19804226), (-0.03247236, 1.562987, 0.1835114), (-0.049604323, 1.5973555, 0.19450673), (-0.031918142, 1.5864248, 0.18775122), (-0.042986985, 1.6035115, 0.18752764), (-0.049485378, 1.5864984, 0.19804226), (-0.03247236, 1.597013, 0.1835114), (-0.038970757, 1.58, 0.19402604), (-0.021522466, 1.58, 0.14906934), (-0.021522466, 1.58, 0.17093065), (-0.02195774, 1.5905147, 0.1535016), (-0.02195774, 1.5694854, 0.1535016), (-0.02195774, 1.5905147, 0.1664984), (-0.02195774, 1.5694854, 0.1664984), (-0.08775122, 1.6080818, 0.15357512), (-0.09450674, 1.5903957, 0.14264445), (-0.08351141, 1.6075276, 0.14298698), (-0.08775122, 1.5519181, 0.15357512), (-0.09450674, 1.5696043, 0.14264445), (-0.08351141, 1.5524724, 0.14298698), (-0.07039568, 1.5626445, 0.12549326), (-0.08808186, 1.5735751, 0.13224877), (-0.077013016, 1.5564886, 0.13247237), (-0.07051462, 1.5735016, 0.12195774), (-0.08752764, 1.562987, 0.13648859), (-0.07039568, 1.5973555, 0.12549326), (-0.08808186, 1.5864248, 0.13224877), (-0.077013016, 1.6035115, 0.13247237), (-0.07051462, 1.5864984, 0.12195774), (-0.08752764, 1.597013, 0.13648859), (-0.081029244, 1.58, 0.12597397), (-0.08775122, 1.6080818, 0.16642489), (-0.09450674, 1.5903957, 0.17735554), (-0.08351141, 1.6075276, 0.17701301), (-0.09402603, 1.6010293, 0.16), (-0.08775122, 1.5519181, 0.16642489), (-0.09450674, 1.5696043, 0.17735554), (-0.08351141, 1.5524724, 0.17701301), (-0.09402603, 1.5589708, 0.16), (-0.07039568, 1.5626445, 0.19450673), (-0.08808186, 1.5735751, 0.18775122), (-0.077013016, 1.5564886, 0.18752764), (-0.07051462, 1.5735016, 0.19804226), (-0.08752764, 1.562987, 0.1835114), (-0.07039568, 1.5973555, 0.19450673), (-0.08808186, 1.5864248, 0.18775122), (-0.077013016, 1.6035115, 0.18752764), (-0.07051462, 1.5864984, 0.19804226), (-0.08752764, 1.597013, 0.1835114), (-0.081029244, 1.58, 0.19402604), (-0.098477535, 1.58, 0.14906934), (-0.098477535, 1.58, 0.17093065), (-0.09804226, 1.5905147, 0.1535016), (-0.09804226, 1.5694854, 0.1535016), (-0.09804226, 1.5905147, 0.1664984), (-0.09804226, 1.5694854, 0.1664984)]
    }

    def Mesh "eye_r"
    {
        int[] faceVertexCounts = [3, 3, 3, 3, 3, 3, 3, 3, 3, 3, 3, 3, 3, 3, 3, 3, 3, 3, 3, 3, 3, 3, 3, 3, 3, 3, 3, 3, 3, 3, 3, 3, 3, 3, 3, 3, 3, 3, 3, 3, 3, 3, 3, 3, 3, 3, 3, 3, 3, 3, 3, 3, 3, 3, 3, 3, 3, 3, 3, 3, 3, 3, 3, 3, 3, 3, 3, 3, 3, 3, 3, 3, 3, 3, 3, 3, 3, 3, 3, 3, 3, 3, 3, 3, 3, 3, 3, 3, 3, 3, 3, 3, 3, 3, 3, 3, 3, 3, 3, 3, 3, 3, 3, 3, 3, 3, 3, 3, 3, 3, 3, 3, 3, 3, 3, 3, 3, 3, 3, 3, 3, 3, 3, 3, 3, 3, 3, 3, 3, 3, 3, 3, 3, 3, 3, 3, 3, 3, 3, 3, 3, 3, 3, 3, 3, 3, 3, 3, 3, 3, 3, 3, 3, 3, 3, 3, 3, 3, 3, 3, 3, 3, 3, 3, 3, 3, 3, 3, 3, 3, 3, 3, 3, 3, 3, 3, 3, 3, 3, 3, 3, 3, 3, 3, 3, 3, 3, 3, 3, 3, 3, 3, 3, 3, 3, 3, 3, 3, 3, 3, 3, 3, 3, 3, 3, 3, 3, 3, 3, 3, 3, 3, 3, 3, 3, 3, 3, 3, 3, 3, 3, 3, 3, 3, 3, 3, 3, 3, 3, 3, 3, 3, 3, 3, 3, 3, 3, 3, 3, 3, 3, 3, 3, 3, 3, 3, 3, 3, 3, 3, 3, 3, 3, 3, 3, 3, 3, 3, 3, 3, 3, 3, 3, 3, 3, 3, 3, 3, 3, 3, 3, 3, 3, 3, 3, 3, 3, 3, 3, 3, 3, 3, 3, 3, 3, 3, 3, 3, 3, 3, 3, 3, 3, 3, 3, 3, 3, 3, 3, 3, 3, 3, 3, 3, 3, 3, 3, 3, 3, 3, 3, 3, 3, 3, 3, 3, 3, 3, 3, 3]
        int[] faceVertexIndices = [0, 137, 53, 137, 37, 139, 53, 139, 16, 137, 139, 53, 37, 138, 154, 138, 11, 151, 154, 151, 40, 138, 151, 154, 16, 152, 54, 152, 40, 150, 54, 150, 5, 152, 150, 54, 37, 154, 139, 154, 40, 152, 139, 152, 16, 154, 152, 139, 0, 53, 42, 53, 16, 55, 42, 55, 12, 53, 55, 42, 16, 54, 59, 54, 5, 57, 59, 57, 17, 54, 57, 59, 12, 58, 43, 58, 17, 56, 43, 56, 1, 58, 56, 43, 16, 59, 55, 59, 17, 58, 55, 58, 12, 59, 58, 55, 0, 42, 69, 42, 12, 71, 69, 71, 21, 42, 71, 69, 12, 43, 74, 43, 1, 72, 74, 72, 22, 43, 72, 74, 21, 75, 70, 75, 22, 73, 70, 73, 7, 75, 73, 70, 12, 74, 71, 74, 22, 75, 71, 75, 21, 74, 75, 71, 0, 69, 120, 69, 21, 122, 120, 122, 33, 69, 122, 120, 21, 70, 133, 70, 7, 131, 133, 131, 36, 70, 131, 133, 33, 135, 121, 135, 36, 132, 121, 132, 10, 135, 132, 121, 21, 133, 122, 133, 36, 135, 122, 135, 33, 133, 135, 122, 0, 120, 137, 120, 33, 140, 137, 140, 37, 120, 140, 137, 33, 121, 158, 121, 10, 156, 158, 156, 41, 121, 156, 158, 37, 160, 138, 160, 41, 157, 138, 157, 11, 160, 157, 138, 33, 158, 140, 158, 41, 160, 140, 160, 37, 158, 160, 140, 1, 56, 95, 56, 17, 97, 95, 97, 28, 56, 97, 95, 17, 57, 110, 57, 5, 108, 110, 108, 31, 57, 108, 110, 28, 112, 96, 112, 31, 109, 96, 109, 9, 112, 109, 96, 17, 110, 97, 110, 31, 112, 97, 112, 28, 110, 112, 97, 5, 150, 61, 150, 40, 153, 61, 153, 18, 150, 153, 61, 40, 151, 155, 151, 11, 146, 155, 146, 39, 151, 146, 155, 18, 148, 60, 148, 39, 145, 60, 145, 4, 148, 145, 60, 40, 155, 153, 155, 39, 148, 153, 148, 18, 155, 148, 153, 11, 157, 142, 157, 41, 161, 142, 161, 38, 157, 161, 142, 41, 156, 159, 156, 10, 124, 159, 124, 34, 156, 124, 159, 38, 144, 141, 144, 34, 123, 141, 123, 2, 144, 123, 141, 41, 159, 161, 159, 34, 144, 161, 144, 38, 159, 144, 161, 10, 132, 127, 132, 36, 136, 127, 136, 35, 132, 136, 127, 36, 131, 134, 131, 7, 77, 134, 77, 23, 131, 77, 134, 35, 129, 126, 129, 23, 76, 126, 76, 6, 129, 76, 126, 36, 134, 136, 134, 23, 129, 136, 129, 35, 134, 129, 136, 7, 73, 89, 73, 22, 91, 89, 91, 27, 73, 91, 89, 22, 72, 80, 72, 1, 78, 80, 78, 24, 72, 78, 80, 27, 93, 90, 93, 24, 79, 90, 79, 8, 93, 79, 90, 22, 80, 91, 80, 24, 93, 91, 93, 27, 80, 93, 91, 3, 99, 49, 99, 29, 101, 49, 101, 15, 99, 101, 49, 29, 100, 107, 100, 9, 104, 107, 104, 30, 100, 104, 107, 15, 105, 50, 105, 30, 103, 50, 103, 4, 105, 103, 50, 29, 107, 101, 107, 30, 105, 101, 105, 15, 107, 105, 101, 3, 49, 45, 49, 15, 51, 45, 51, 13, 49, 51, 45, 15, 50, 52, 50, 4, 47, 52, 47, 14, 50, 47, 52, 13, 48, 44, 48, 14, 46, 44, 46, 2, 48, 46, 44, 15, 52, 51, 52, 14, 48, 51, 48, 13, 52, 48, 51, 3, 45, 65, 45, 13, 67, 65, 67, 20, 45, 67, 65, 13, 44, 64, 44, 2, 62, 64, 62, 19, 44, 62, 64, 20, 68, 66, 68, 19, 63, 66, 63, 6, 68, 63, 66, 13, 64, 67, 64, 19, 68, 67, 68, 20, 64, 68, 67, 3, 65, 81, 65, 20, 83, 81, 83, 25, 65, 83, 81, 20, 66, 86, 66, 6, 84, 86, 84, 26, 66, 84, 86, 25, 88, 82, 88, 26, 85, 82, 85, 8, 88, 85, 82, 20, 86, 83, 86, 26, 88, 83, 88, 25, 86, 88, 83, 3, 81, 99, 81, 25, 102, 99, 102, 29, 81, 102, 99, 25, 82, 117, 82, 8, 114, 117, 114, 32, 82, 114, 117, 29, 119, 100, 119, 32, 115, 100, 115, 9, 119, 115, 100, 25, 117, 102, 117, 32, 119, 102, 119, 29, 117, 119, 102, 4, 103, 60, 103, 30, 106, 60, 106, 18, 103, 106, 60, 30, 104, 113, 104, 9, 109, 113, 109, 31, 104, 109, 113, 18, 111, 61, 111, 31, 108, 61, 108, 5, 111, 108, 61, 30, 113, 106, 113, 31, 111, 106, 111, 18, 113, 111, 106, 2, 46, 141, 46, 14, 143, 141, 143, 38, 46, 143, 141, 14, 47, 147, 47, 4, 145, 147, 145, 39, 47, 145, 147, 38, 149, 142, 149, 39, 146, 142, 146, 11, 149, 146, 142, 14, 147, 143, 147, 39, 149, 143, 149, 38, 147, 149, 143, 6, 63, 126, 63, 19, 128, 126, 128, 35, 63, 128, 126, 19, 62, 125, 62, 2, 123, 125, 123, 34, 62, 123, 125, 35, 130, 127, 130, 34, 124, 127, 124, 10, 130, 124, 127, 19, 125, 128, 125, 34, 130, 128, 130, 35, 125, 130, 128, 8, 85, 90, 85, 26, 94, 90, 94, 27, 85, 94, 90, 26, 84, 87, 84, 6, 76, 87, 76, 23, 84, 76, 87, 27, 92, 89, 92, 23, 77, 89, 77, 7, 92, 77, 89, 26, 87, 94, 87, 23, 92, 94, 92, 27, 87, 92, 94, 9, 115, 96, 115, 32, 118, 96, 118, 28, 115, 118, 96, 32, 114, 116, 114, 8, 79, 116, 79, 24, 114, 79, 116, 28, 98, 95, 98, 24, 78, 95, 78, 1, 98, 78, 95, 32, 116, 118, 116, 24, 98, 118, 98, 28, 116, 98, 118]
        point3f[] points = [(0.038970757, 1.6140261, 0.16), (0.081029244, 1.6140261, 0.16), (0.038970757, 1.545974, 0.16), (0.081029244, 1.545974, 0.16), (0.06, 1.5589708, 0.19402604), (0.06, 1.6010293, 0.19402604), (0.06, 1.5589708, 0.12597397), (0.06, 1.6010293, 0.12597397), (0.09402603, 1.58, 0.13897076), (0.09402603, 1.58, 0.18102925), (0.025973968, 1.58, 0.13897076), (0.025973968, 1.58, 0.18102925), (0.06, 1.62, 0.16), (0.06, 1.54, 0.16), (0.04763932, 1.5476394, 0.18), (0.07236068, 1.5476394, 0.18), (0.04763932, 1.6123607, 0.18), (0.07236068, 1.6123607, 0.18), (0.06, 1.58, 0.2), (0.04763932, 1.5476394, 0.14), (0.07236068, 1.5476394, 0.14), (0.04763932, 1.6123607, 0.14), (0.07236068, 1.6123607, 0.14), (0.06, 1.58, 0.12), (0.09236068, 1.6, 0.14763932), (0.09236068, 1.56, 0.14763932), (0.08, 1.5676394, 0.12763932), (0.08, 1.5923607, 0.12763932), (0.09236068, 1.6, 0.17236067), (0.09236068, 1.56, 0.17236067), (0.08, 1.5676394, 0.19236068), (0.08, 1.5923607, 0.19236068), (0.1, 1.58, 0.16), (0.02763932, 1.6, 0.14763932), (0.02763932, 1.56, 0.14763932), (0.04, 1.5676394, 0.12763932), (0.04, 1.5923607, 0.12763932), (0.02763932, 1.6, 0.17236067), (0.02763932, 1.56, 0.17236067), (0.04, 1.5676394, 0.19236068), (0.04, 1.5923607, 0.19236068), (0.02, 1.58, 0.16), (0.049069338, 1.6184776, 0.16), (0.07093066, 1.6184776, 0.16), (0.049069338, 1.5415225, 0.16), (0.07093066, 1.5415225, 0.16), (0.042644456, 1.5454932, 0.17039567), (0.053575117, 1.5522488, 0.18808186), (0.053501606, 1.5419577, 0.17051463), (0.07735554, 1.5454932, 0.17039567), (0.066424884, 1.5522488, 0.18808186), (0.06649839, 1.5419577, 0.17051463), (0.06, 1.545974, 0.18102925), (0.042644456, 1.6145067, 0.17039567), (0.053575117, 1.6077513, 0.18808186), (0.053501606, 1.6180422, 0.17051463), (0.07735554, 1.6145067, 0.17039567), (0.066424884, 1.6077513, 0.18808186), (0.06649839, 1.6180422, 0.17051463), (0.06, 1.6140261, 0.18102925), (0.06, 1.5690694, 0.19847754), (0.06, 1.5909307, 0.19847754), (0.042644456, 1.5454932, 0.14960432), (0.053575117, 1.5522488, 0.13191815), (0.053501606, 1.5419577, 0.14948538), (0.07735554, 1.5454932, 0.14960432), (0.066424884, 1.5522488, 0.13191815), (0.06649839, 1.5419577, 0.14948538), (0.06, 1.545974, 0.13897076), (0.042644456, 1.6145067, 0.14960432), (0.053575117, 1.6077513, 0.13191815), (0.053501606, 1.6180422, 0.14948538), (0.07735554, 1.6145067, 0.14960432), (0.066424884, 1.6077513, 0.13191815), (0.06649839, 1.6180422, 0.14948538), (0.06, 1.6140261, 0.13897076), (0.06, 1.5690694, 0.121522464), (0.06, 1.5909307, 0.121522464), (0.08775122, 1.6080818, 0.15357512), (0.09450674, 1.5903957, 0.14264445), (0.08351141, 1.6075276, 0.14298698), (0.08775122, 1.5519181, 0.15357512), (0.09450674, 1.5696043, 0.14264445), (0.08351141, 1.5524724, 0.14298698), (0.07039568, 1.5626445, 0.12549326), (0.08808186, 1.5735751, 0.13224877), (0.077013016, 1.5564886, 0.13247237), (0.07051462, 1.5735016, 0.12195774), (0.08752764, 1.562987, 0.13648859), (0.07039568, 1.5973555, 0.12549326), (0.08808186, 1.5864248, 0.13224877), (0.077013016, 1.6035115, 0.13247237), (0.07051462, 1.5864984, 0.12195774), (0.08752764, 1.597013, 0.13648859), (0.081029244, 1.58, 0.12597397), (0.08775122, 1.6080818, 0.16642489), (0.09450674, 1.5903957, 0.17735554), (0.08351141, 1.6075276, 0.17701301), (0.09402603, 1.6010293, 0.16), (0.08775122, 1.5519181, 0.16642489), (0.09450674, 1.5696043, 0.17735554), (0.08351141, 1.5524724, 0.17701301), (0.09402603, 1.5589708, 0.16), (0.07039568, 1.5626445, 0.19450673), (0.08808186, 1.5735751, 0.18775122), (0.077013016, 1.5564886, 0.18752764), (0.07051462, 1.5735016, 0.19804226), (0.08752764, 1.562987, 0.1835114), (0.07039568, 1.5973555, 0.19450673), (0.08808186, 1.5864248, 0.18775122), (0.077013016, 1.6035115, 0.18752764), (0.07051462, 1.5864984, 0.19804226), (0.08752764, 1.597013, 0.1835114), (0.081029244, 1.58, 0.19402604), (0.098477535, 1.58, 0.14906934), (0.098477535, 1.58, 0.17093065), (0.09804226, 1.5905147, 0.1535016), (0.09804226, 1.5694854, 0.1535016), (0.09804226, 1.5905147, 0.1664984), (0.09804226, 1.5694854, 0.1664984), (0.03224878, 1.6080818, 0.15357512), (0.02549326, 1.5903957, 0.14264445), (0.03648859, 1.6075276, 0.14298698), (0.03224878, 1.5519181, 0.15357512), (0.02549326, 1.5696043, 0.14264445), (0.03648859, 1.5524724, 0.14298698), (0.049604323, 1.5626445, 0.12549326), (0.031918142, 1.5735751, 0.13224877), (0.042986985, 1.5564886, 0.13247237), (0.049485378, 1.5735016, 0.12195774), (0.03247236, 1.562987, 0.13648859), (0.049604323, 1.5973555, 0.12549326), (0.031918142, 1.5864248, 0.13224877), (0.042986985, 1.6035115, 0.13247237), (0.049485378, 1.5864984, 0.12195774), (0.03247236, 1.597013, 0.13648859), (0.038970757, 1.58, 0.12597397), (0.03224878, 1.6080818, 0.16642489), (0.02549326, 1.5903957, 0.17735554), (0.03648859, 1.6075276, 0.17701301), (0.025973968, 1.6010293, 0.16), (0.03224878, 1.5519181, 0.16642489), (0.02549326, 1.5696043, 0.17735554), (0.03648859, 1.5524724, 0.17701301), (0.025973968, 1.5589708, 0.16), (0.049604323, 1.5626445, 0.19450673), (0.031918142, 1.5735751, 0.18775122), (0.042986985, 1.5564886, 0.18752764), (0.049485378, 1.5735016, 0.19804226), (0.03247236, 1.562987, 0.1835114), (0.049604323, 1.5973555, 0.19450673), (0.031918142, 1.5864248, 0.18775122), (0.042986985, 1.6035115, 0.18752764), (0.049485378, 1.5864984, 0.19804226), (0.03247236, 1.597013, 0.1835114), (0.038970757, 1.58, 0.19402604), (0.021522466, 1.58, 0.14906934), (0.021522466, 1.58, 0.17093065), (0.02195774, 1.5905147, 0.1535016), (0.02195774, 1.5694854, 0.1535016), (0.02195774, 1.5905147, 0.1664984), (0.02195774, 1.5694854, 0.1664984)]
    }
}

