#usda 1.0
(
    defaultPrim = "Holodevice"
    upAxis = "Y"
)

def Xform "Holodevice"
{
    def Mesh "base"
    {
        int[] faceVertexCounts = [3, 3, 3, 3, 3, 3, 3, 3, 3, 3, 3, 3, 3, 3, 3, 3, 3, 3, 3, 3, 3, 3, 3, 3, 3, 3, 3, 3, 3, 3, 3, 3, 3, 3, 3, 3, 3, 3, 3, 3, 3, 3, 3, 3, 3, 3, 3, 3]
        int[] faceVertexIndices = [1, 0, 4, 1, 4, 2, 2, 4, 5, 2, 5, 3, 4, 0, 6, 4, 6, 5, 5, 6, 7, 5, 7, 3, 6, 0, 8, 6, 8, 7, 7, 8, 9, 7, 9, 3, 8, 0, 10, 8, 10, 9, 9, 10, 11, 9, 11, 3, 10, 0, 12, 10, 12, 11, 11, 12, 13, 11, 13, 3, 12, 0, 14, 12, 14, 13, 13, 14, 15, 13, 15, 3, 14, 0, 16, 14, 16, 15, 15, 16, 17, 15, 17, 3, 16, 0, 18, 16, 18, 17, 17, 18, 19, 17, 19, 3, 18, 0, 20, 18, 20, 19, 19, 20, 21, 19, 21, 3, 20, 0, 22, 20, 22, 21, 21, 22, 23, 21, 23, 3, 22, 0, 24, 22, 24, 23, 23, 24, 25, 23, 25, 3, 24, 0, 1, 24, 1, 25, 25, 1, 2, 25, 2, 3]
        point3f[] points = [(0, 0.02, -0.02), (0.1, 0.02, -0.02), (0.1, 0.02, 0.02), (0, 0.02, 0.02), (0.08660254, 0.07, -0.02), (0.08660254, 0.07, 0.02), (0.05, 0.10660254, -0.02), (0.05, 0.10660254, 0.02), (6.123234e-18, 0.12, -0.02), (6.123234e-18, 0.12, 0.02), (-0.05, 0.10660254, -0.02), (-0.05, 0.10660254, 0.02), (-0.08660254, 0.07, -0.02), (-0.08660254, 0.07, 0.02), (-0.1, 0.02, -0.02), (-0.1, 0.02, 0.02), (-0.08660254, -0.03, -0.02), (-0.08660254, -0.03, 0.02), (-0.05, -0.06660254, -0.02), (-0.05, -0.06660254, 0.02), (-1.8369703e-17, -0.08, -0.02), (-1.8369703e-17, -0.08, 0.02), (0.05, -0.06660254, -0.02), (0.05, -0.06660254, 0.02), (0.08660254, -0.03, -0.02), (0.08660254, -0.03, 0.02)]
    }

    def Mesh "base_rim"
    {
        int[] faceVertexCounts = [3, 3, 3, 3, 3, 3, 3, 3, 3, 3, 3, 3, 3, 3, 3, 3, 3, 3, 3, 3, 3, 3, 3, 3, 3, 3, 3, 3, 3, 3, 3, 3, 3, 3, 3, 3, 3, 3, 3, 3, 3, 3, 3, 3, 3, 3, 3, 3]
        int[] faceVertexIndices = [1, 0, 4, 1, 4, 2, 2, 4, 5, 2, 5, 3, 4, 0, 6, 4, 6, 5, 5, 6, 7, 5, 7, 3, 6, 0, 8, 6, 8, 7, 7, 8, 9, 7, 9, 3, 8, 0, 10, 8, 10, 9, 9, 10, 11, 9, 11, 3, 10, 0, 12, 10, 12, 11, 11, 12, 13, 11, 13, 3, 12, 0, 14, 12, 14, 13, 13, 14, 15, 13, 15, 3, 14, 0, 16, 14, 16, 15, 15, 16, 17, 15, 17, 3, 16, 0, 18, 16, 18, 17, 17, 18, 19, 17, 19, 3, 18, 0, 20, 18, 20, 19, 19, 20, 21, 19, 21, 3, 20, 0, 22, 20, 22, 21, 21, 22, 23, 21, 23, 3, 22, 0, 24, 22, 24, 23, 23, 24, 25, 23, 25, 3, 24, 0, 1, 24, 1, 25, 25, 1, 2, 25, 2, 3]
        point3f[] points = [(0, 0.045, -0.005), (0.115, 0.045, -0.005), (0.115, 0.045, 0.005), (0, 0.045, 0.005), (0.099592924, 0.1025, -0.005), (0.099592924, 0.1025, 0.005), (0.0575, 0.14459293, -0.005), (0.0575, 0.14459293, 0.005), (7.041719e-18, 0.16, -0.005), (7.041719e-18, 0.16, 0.005), (-0.0575, 0.14459293, -0.005), (-0.0575, 0.14459293, 0.005), (-0.099592924, 0.1025, -0.005), (-0.099592924, 0.1025, 0.005), (-0.115, 0.045, -0.005), (-0.115, 0.045, 0.005), (-0.099592924, -0.0125, -0.005), (-0.099592924, -0.0125, 0.005), (-0.0575, -0.054592922, -0.005), (-0.0575, -0.054592922, 0.005), (-2.1125157e-17, -0.07, -0.005), (-2.1125157e-17, -0.07, 0.005), (0.0575, -0.054592922, -0.005), (0.0575, -0.054592922, 0.005), (0.099592924, -0.0125, -0.005), (0.099592924, -0.0125, 0.005)]
    }

    def Mesh "button"
    {
        int[] faceVertexCounts = [3, 3, 3, 3, 3, 3, 3, 3, 3, 3, 3, 3, 3, 3, 3, 3, 3, 3, 3, 3, 3, 3, 3, 3, 3, 3, 3, 3, 3, 3, 3, 3, 3, 3, 3, 3, 3, 3, 3, 3, 3, 3, 3, 3, 3, 3, 3, 3, 3, 3, 3, 3, 3, 3, 3, 3, 3, 3, 3, 3, 3, 3, 3, 3, 3, 3, 3, 3, 3, 3, 3, 3, 3, 3, 3, 3, 3, 3, 3, 3, 3, 3, 3, 3, 3, 3, 3, 3, 3, 3, 3, 3, 3, 3, 3, 3, 3, 3, 3, 3, 3, 3, 3, 3, 3, 3, 3, 3, 3, 3, 3, 3, 3, 3, 3, 3, 3, 3, 3, 3, 3, 3, 3, 3, 3, 3, 3, 3, 3, 3, 3, 3, 3, 3, 3, 3, 3, 3, 3, 3, 3, 3, 3, 3, 3, 3, 3, 3, 3, 3, 3, 3, 3, 3, 3, 3, 3, 3, 3, 3, 3, 3, 3, 3, 3, 3, 3, 3, 3, 3, 3, 3, 3, 3, 3, 3, 3, 3, 3, 3, 3, 3, 3, 3, 3, 3, 3, 3, 3, 3, 3, 3, 3, 3, 3, 3, 3, 3, 3, 3, 3, 3, 3, 3, 3, 3, 3, 3, 3, 3, 3, 3, 3, 3, 3, 3, 3, 3, 3, 3, 3, 3, 3, 3, 3, 3, 3, 3, 3, 3, 3, 3, 3, 3, 3, 3, 3, 3, 3, 3, 3, 3, 3, 3, 3, 3, 3, 3, 3, 3, 3, 3, 3, 3, 3, 3, 3, 3, 3, 3, 3, 3, 3, 3, 3, 3, 3, 3, 3, 3, 3, 3, 3, 3, 3, 3, 3, 3, 3, 3, 3, 3, 3, 3, 3, 3, 3, 3, 3, 3, 3, 3, 3, 3, 3, 3, 3, 3, 3, 3, 3, 3, 3, 3, 3, 3, 3, 3, 3, 3, 3, 3, 3, 3, 3, 3, 3, 3, 3, 3]
        int[] faceVertexIndices = [0, 137, 53, 137, 37, 139, 53, 139, 16, 137, 139, 53, 37, 138, 154, 138, 11, 151, 154, 151, 40, 138, 151, 154, 16, 152, 54, 152, 40, 150, 54, 150, 5, 152, 150, 54, 37, 154, 139, 154, 40, 152, 139, 152, 16, 154, 152, 139, 0, 53, 42, 53, 16, 55, 42, 55, 12, 53, 55, 42, 16, 54, 59, 54, 5, 57, 59, 57, 17, 54, 57, 59, 12, 58, 43, 58, 17, 56, 43, 56, 1, 58, 56, 43, 16, 59, 55, 59, 17, 58, 55, 58, 12, 59, 58, 55, 0, 42, 69, 42, 12, 71, 69, 71, 21, 42, 71, 69, 12, 43, 74, 43, 1, 72, 74, 72, 22, 43, 72, 74, 21, 75, 70, 75, 22, 73, 70, 73, 7, 75, 73, 70, 12, 74, 71, 74, 22, 75, 71, 75, 21, 74, 75, 71, 0, 69, 120, 69, 21, 122, 120, 122, 33, 69, 122, 120, 21, 70, 133, 70, 7, 131, 133, 131, 36, 70, 131, 133, 33, 135, 121, 135, 36, 132, 121, 132, 10, 135, 132, 121, 21, 133, 122, 133, 36, 135, 122, 135, 33, 133, 135, 122, 0, 120, 137, 120, 33, 140, 137, 140, 37, 120, 140, 137, 33, 121, 158, 121, 10, 156, 158, 156, 41, 121, 156, 158, 37, 160, 138, 160, 41, 157, 138, 157, 11, 160, 157, 138, 33, 158, 140, 158, 41, 160, 140, 160, 37, 158, 160, 140, 1, 56, 95, 56, 17, 97, 95, 97, 28, 56, 97, 95, 17, 57, 110, 57, 5, 108, 110, 108, 31, 57, 108, 110, 28, 112, 96, 112, 31, 109, 96, 109, 9, 112, 109, 96, 17, 110, 97, 110, 31, 112, 97, 112, 28, 110, 112, 97, 5, 150, 61, 150, 40, 153, 61, 153, 18, 150, 153, 61, 40, 151, 155, 151, 11, 146, 155, 146, 39, 151, 146, 155, 18, 148, 60, 148, 39, 145, 60, 145, 4, 148, 145, 60, 40, 155, 153, 155, 39, 148, 153, 148, 18, 155, 148, 153, 11, 157, 142, 157, 41, 161, 142, 161, 38, 157, 161, 142, 41, 156, 159, 156, 10, 124, 159, 124, 34, 156, 124, 159, 38, 144, 141, 144, 34, 123, 141, 123, 2, 144, 123, 141, 41, 159, 161, 159, 34, 144, 161, 144, 38, 159, 144, 161, 10, 132, 127, 132, 36, 136, 127, 136, 35, 132, 136, 127, 36, 131, 134, 131, 7, 77, 134, 77, 23, 131, 77, 134, 35, 129, 126, 129, 23, 76, 126, 76, 6, 129, 76, 126, 36, 134, 136, 134, 23, 129, 136, 129, 35, 134, 129, 136, 7, 73, 89, 73, 22, 91, 89, 91, 27, 73, 91, 89, 22, 72, 80, 72, 1, 78, 80, 78, 24, 72, 78, 80, 27, 93, 90, 93, 24, 79, 90, 79, 8, 93, 79, 90, 22, 80, 91, 80, 24, 93, 91, 93, 27, 80, 93, 91, 3, 99, 49, 99, 29, 101, 49, 101, 15, 99, 101, 49, 29, 100, 107, 100, 9, 104, 107, 104, 30, 100, 104, 107, 15, 105, 50, 105, 30, 103, 50, 103, 4, 105, 103, 50, 29, 107, 101, 107, 30, 105, 101, 105, 15, 107, 105, 101, 3, 49, 45, 49, 15, 51, 45, 51, 13, 49, 51, 45, 15, 50, 52, 50, 4, 47, 52, 47, 14, 50, 47, 52, 13, 48, 44, 48, 14, 46, 44, 46, 2, 48, 46, 44, 15, 52, 51, 52, 14, 48, 51, 48, 13, 52, 48, 51, 3, 45, 65, 45, 13, 67, 65, 67, 20, 45, 67, 65, 13, 44, 64, 44, 2, 62, 64, 62, 19, 44, 62, 64, 20, 68, 66, 68, 19, 63, 66, 63, 6, 68, 63, 66, 13, 64, 67, 64, 19, 68, 67, 68, 20, 64, 68, 67, 3, 65, 81, 65, 20, 83, 81, 83, 25, 65, 83, 81, 20, 66, 86, 66, 6, 84, 86, 84, 26, 66, 84, 86, 25, 88, 82, 88, 26, 85, 82, 85, 8, 88, 85, 82, 20, 86, 83, 86, 26, 88, 83, 88, 25, 86, 88, 83, 3, 81, 99, 81, 25, 102, 99, 102, 29, 81, 102, 99, 25, 82, 117, 82, 8, 114, 117, 114, 32, 82, 114, 117, 29, 119, 100, 119, 32, 115, 100, 115, 9, 119, 115, 100, 25, 117, 102, 117, 32, 119, 102, 119, 29, 117, 119, 102, 4, 103, 60, 103, 30, 106, 60, 106, 18, 103, 106, 60, 30, 104, 113, 104, 9, 109, 113, 109, 31, 104, 109, 113, 18, 111, 61, 111, 31, 108, 61, 108, 5, 111, 108, 61, 30, 113, 106, 113, 31, 111, 106, 111, 18, 113, 111, 106, 2, 46, 141, 46, 14, 143, 141, 143, 38, 46, 143, 141, 14, 47, 147, 47, 4, 145, 147, 145, 39, 47, 145, 147, 38, 149, 142, 149, 39, 146, 142, 146, 11, 149, 146, 142, 14, 147, 143, 147, 39, 149, 143, 149, 38, 147, 149, 143, 6, 63, 126, 63, 19, 128, 126, 128, 35, 63, 128, 126, 19, 62, 125, 62, 2, 123, 125, 123, 34, 62, 123, 125, 35, 130, 127, 130, 34, 124, 127, 124, 10, 130, 124, 127, 19, 125, 128, 125, 34, 130, 128, 130, 35, 125, 130, 128, 8, 85, 90, 85, 26, 94, 90, 94, 27, 85, 94, 90, 26, 84, 87, 84, 6, 76, 87, 76, 23, 84, 76, 87, 27, 92, 89, 92, 23, 77, 89, 77, 7, 92, 77, 89, 26, 87, 94, 87, 23, 92, 94, 92, 27, 87, 92, 94, 9, 115, 96, 115, 32, 118, 96, 118, 28, 115, 118, 96, 32, 114, 116, 114, 8, 79, 116, 79, 24, 114, 79, 116, 28, 98, 95, 98, 24, 78, 95, 78, 1, 98, 78, 95, 32, 116, 118, 116, 24, 98, 118, 98, 28, 116, 98, 118]
        point3f[] points = [(-0.007885966, 0.07275976, 0), (0.007885966, 0.07275976, 0), (-0.007885966, 0.04724024, 0), (0.007885966, 0.04724024, 0), (0, 0.052114032, 0.012759762), (0, 0.067885965, 0.012759762), (0, 0.052114032, -0.012759762), (0, 0.067885965, -0.012759762), (0.012759762, 0.06, -0.007885966), (0.012759762, 0.06, 0.007885966), (-0.012759762, 0.06, -0.007885966), (-0.012759762, 0.06, 0.007885966), (0, 0.075, 0), (0, 0.045, 0), (-0.004635255, 0.047864746, 0.0075), (0.004635255, 0.047864746, 0.0075), (-0.004635255, 0.072135255, 0.0075), (0.004635255, 0.072135255, 0.0075), (0, 0.06, 0.015), (-0.004635255, 0.047864746, -0.0075), (0.004635255, 0.047864746, -0.0075), (-0.004635255, 0.072135255, -0.0075), (0.004635255, 0.072135255, -0.0075), (0, 0.06, -0.015), (0.012135255, 0.0675, -0.004635255), (0.012135255, 0.0525, -0.004635255), (0.0075, 0.055364747, -0.012135255), (0.0075, 0.064635254, -0.012135255), (0.012135255, 0.0675, 0.004635255), (0.012135255, 0.0525, 0.004635255), (0.0075, 0.055364747, 0.012135255), (0.0075, 0.064635254, 0.012135255), (0.015, 0.06, 0), (-0.012135255, 0.0675, -0.004635255), (-0.012135255, 0.0525, -0.004635255), (-0.0075, 0.055364747, -0.012135255), (-0.0075, 0.064635254, -0.012135255), (-0.012135255, 0.0675, 0.004635255), (-0.012135255, 0.0525, 0.004635255), (-0.0075, 0.055364747, 0.012135255), (-0.0075, 0.064635254, 0.012135255), (-0.015, 0.06, 0), (-0.004098998, 0.07442907, 0), (0.004098998, 0.07442907, 0), (-0.004098998, 0.045570925, 0), (0.004098998, 0.045570925, 0), (-0.0065083285, 0.04705997, 0.0038983787), (-0.0024093306, 0.049593292, 0.010530696), (-0.0024368977, 0.045734152, 0.003942983), (0.0065083285, 0.04705997, 0.0038983787), (0.0024093306, 0.049593292, 0.010530696), (0.0024368977, 0.045734152, 0.003942983), (0, 0.04724024, 0.007885966), (-0.0065083285, 0.07294003, 0.0038983787), (-0.0024093306, 0.070406705, 0.010530696), (-0.0024368977, 0.074265845, 0.003942983), (0.0065083285, 0.07294003, 0.0038983787), (0.0024093306, 0.070406705, 0.010530696), (0.0024368977, 0.074265845, 0.003942983), (0, 0.07275976, 0.007885966), (0, 0.055901002, 0.014429076), (0, 0.064099, 0.014429076), (-0.0065083285, 0.04705997, -0.0038983787), (-0.0024093306, 0.049593292, -0.010530696), (-0.0024368977, 0.045734152, -0.003942983), (0.0065083285, 0.04705997, -0.0038983787), (0.0024093306, 0.049593292, -0.010530696), (0.0024368977, 0.045734152, -0.003942983), (0, 0.04724024, -0.007885966), (-0.0065083285, 0.07294003, -0.0038983787), (-0.0024093306, 0.070406705, -0.010530696), (-0.0024368977, 0.074265845, -0.003942983), (0.0065083285, 0.07294003, -0.0038983787), (0.0024093306, 0.070406705, -0.010530696), (0.0024368977, 0.074265845, -0.003942983), (0, 0.07275976, -0.007885966), (0, 0.055901002, -0.014429076), (0, 0.064099, -0.014429076), (0.010406707, 0.0705307, -0.0024093306), (0.012940027, 0.06389838, -0.0065083285), (0.008816779, 0.070322864, -0.006379881), (0.010406707, 0.049469303, -0.0024093306), (0.012940027, 0.05610162, -0.0065083285), (0.008816779, 0.049677137, -0.006379881), (0.0038983787, 0.05349167, -0.012940027), (0.010530696, 0.05759067, -0.010406707), (0.006379881, 0.05118322, -0.010322864), (0.003942983, 0.057563104, -0.014265847), (0.010322864, 0.05362012, -0.008816779), (0.0038983787, 0.06650833, -0.012940027), (0.010530696, 0.06240933, -0.010406707), (0.006379881, 0.06881678, -0.010322864), (0.003942983, 0.062436897, -0.014265847), (0.010322864, 0.06637988, -0.008816779), (0.007885966, 0.06, -0.012759762), (0.010406707, 0.0705307, 0.0024093306), (0.012940027, 0.06389838, 0.0065083285), (0.008816779, 0.070322864, 0.006379881), (0.012759762, 0.067885965, 0), (0.010406707, 0.049469303, 0.0024093306), (0.012940027, 0.05610162, 0.0065083285), (0.008816779, 0.049677137, 0.006379881), (0.012759762, 0.052114032, 0), (0.0038983787, 0.05349167, 0.012940027), (0.010530696, 0.05759067, 0.010406707), (0.006379881, 0.05118322, 0.010322864), (0.003942983, 0.057563104, 0.014265847), (0.010322864, 0.05362012, 0.008816779), (0.0038983787, 0.06650833, 0.012940027), (0.010530696, 0.06240933, 0.010406707), (0.006379881, 0.06881678, 0.010322864), (0.003942983, 0.062436897, 0.014265847), (0.010322864, 0.06637988, 0.008816779), (0.007885966, 0.06, 0.012759762), (0.014429076, 0.06, -0.004098998), (0.014429076, 0.06, 0.004098998), (0.014265847, 0.063942984, -0.0024368977), (0.014265847, 0.056057017, -0.0024368977), (0.014265847, 0.063942984, 0.0024368977), (0.014265847, 0.056057017, 0.0024368977), (-0.010406707, 0.0705307, -0.0024093306), (-0.012940027, 0.06389838, -0.0065083285), (-0.008816779, 0.070322864, -0.006379881), (-0.010406707, 0.049469303, -0.0024093306), (-0.012940027, 0.05610162, -0.0065083285), (-0.008816779, 0.049677137, -0.006379881), (-0.0038983787, 0.05349167, -0.012940027), (-0.010530696, 0.05759067, -0.010406707), (-0.006379881, 0.05118322, -0.010322864), (-0.003942983, 0.057563104, -0.014265847), (-0.010322864, 0.05362012, -0.008816779), (-0.0038983787, 0.06650833, -0.012940027), (-0.010530696, 0.06240933, -0.010406707), (-0.006379881, 0.06881678, -0.010322864), (-0.003942983, 0.062436897, -0.014265847), (-0.010322864, 0.06637988, -0.008816779), (-0.007885966, 0.06, -0.012759762), (-0.010406707, 0.0705307, 0.0024093306), (-0.012940027, 0.06389838, 0.0065083285), (-0.008816779, 0.070322864, 0.006379881), (-0.012759762, 0.067885965, 0), (-0.010406707, 0.049469303, 0.0024093306), (-0.012940027, 0.05610162, 0.0065083285), (-0.008816779, 0.049677137, 0.006379881), (-0.012759762, 0.052114032, 0), (-0.0038983787, 0.05349167, 0.012940027), (-0.010530696, 0.05759067, 0.010406707), (-0.006379881, 0.05118322, 0.010322864), (-0.003942983, 0.057563104, 0.014265847), (-0.010322864, 0.05362012, 0.008816779), (-0.0038983787, 0.06650833, 0.012940027), (-0.010530696, 0.06240933, 0.010406707), (-0.006379881, 0.06881678, 0.010322864), (-0.003942983, 0.062436897, 0.014265847), (-0.010322864, 0.06637988, 0.008816779), (-0.007885966, 0.06, 0.012759762), (-0.014429076, 0.06, -0.004098998), (-0.014429076, 0.06, 0.004098998), (-0.014265847, 0.063942984, -0.0024368977), (-0.014265847, 0.056057017, -0.0024368977), (-0.014265847, 0.063942984, 0.0024368977), (-0.014265847, 0.056057017, 0.0024368977)]
    }

    def Mesh "holo_ring_0"
    {
        int[] faceVertexCounts = [3, 3, 3, 3, 3, 3, 3, 3, 3, 3, 3, 3, 3, 3, 3, 3, 3, 3, 3, 3, 3, 3, 3, 3, 3, 3, 3, 3, 3, 3, 3, 3, 3, 3, 3, 3, 3, 3, 3, 3, 3, 3, 3, 3, 3, 3, 3, 3]
        int[] faceVertexIndices = [1, 0, 4, 1, 4, 2, 2, 4, 5, 2, 5, 3, 4, 0, 6, 4, 6, 5, 5, 6, 7, 5, 7, 3, 6, 0, 8, 6, 8, 7, 7, 8, 9, 7, 9, 3, 8, 0, 10, 8, 10, 9, 9, 10, 11, 9, 11, 3, 10, 0, 12, 10, 12, 11, 11, 12, 13, 11, 13, 3, 12, 0, 14, 12, 14, 13, 13, 14, 15, 13, 15, 3, 14, 0, 16, 14, 16, 15, 15, 16, 17, 15, 17, 3, 16, 0, 18, 16, 18, 17, 17, 18, 19, 17, 19, 3, 18, 0, 20, 18, 20, 19, 19, 20, 21, 19, 21, 3, 20, 0, 22, 20, 22, 21, 21, 22, 23, 21, 23, 3, 22, 0, 24, 22, 24, 23, 23, 24, 25, 23, 25, 3, 24, 0, 1, 24, 1, 25, 25, 1, 2, 25, 2, 3]
        point3f[] points = [(0, 0.12, -0.0025), (0.04, 0.12, -0.0025), (0.04, 0.12, 0.0025), (0, 0.12, 0.0025), (0.034641016, 0.14, -0.0025), (0.034641016, 0.14, 0.0025), (0.02, 0.15464102, -0.0025), (0.02, 0.15464102, 0.0025), (2.4492936e-18, 0.16, -0.0025), (2.4492936e-18, 0.16, 0.0025), (-0.02, 0.15464102, -0.0025), (-0.02, 0.15464102, 0.0025), (-0.034641016, 0.14, -0.0025), (-0.034641016, 0.14, 0.0025), (-0.04, 0.12, -0.0025), (-0.04, 0.12, 0.0025), (-0.034641016, 0.1, -0.0025), (-0.034641016, 0.1, 0.0025), (-0.02, 0.085358985, -0.0025), (-0.02, 0.085358985, 0.0025), (-7.347881e-18, 0.08, -0.0025), (-7.347881e-18, 0.08, 0.0025), (0.02, 0.085358985, -0.0025), (0.02, 0.085358985, 0.0025), (0.034641016, 0.1, -0.0025), (0.034641016, 0.1, 0.0025)]
    }

    def Mesh "holo_ring_1"
    {
        int[] faceVertexCounts = [3, 3, 3, 3, 3, 3, 3, 3, 3, 3, 3, 3, 3, 3, 3, 3, 3, 3, 3, 3, 3, 3, 3, 3, 3, 3, 3, 3, 3, 3, 3, 3, 3, 3, 3, 3, 3, 3, 3, 3, 3, 3, 3, 3, 3, 3, 3, 3]
        int[] faceVertexIndices = [1, 0, 4, 1, 4, 2, 2, 4, 5, 2, 5, 3, 4, 0, 6, 4, 6, 5, 5, 6, 7, 5, 7, 3, 6, 0, 8, 6, 8, 7, 7, 8, 9, 7, 9, 3, 8, 0, 10, 8, 10, 9, 9, 10, 11, 9, 11, 3, 10, 0, 12, 10, 12, 11, 11, 12, 13, 11, 13, 3, 12, 0, 14, 12, 14, 13, 13, 14, 15, 13, 15, 3, 14, 0, 16, 14, 16, 15, 15, 16, 17, 15, 17, 3, 16, 0, 18, 16, 18, 17, 17, 18, 19, 17, 19, 3, 18, 0, 20, 18, 20, 19, 19, 20, 21, 19, 21, 3, 20, 0, 22, 20, 22, 21, 21, 22, 23, 21, 23, 3, 22, 0, 24, 22, 24, 23, 23, 24, 25, 23, 25, 3, 24, 0, 1, 24, 1, 25, 25, 1, 2, 25, 2, 3]
        point3f[] points = [(0, 0.25, -0.0025), (0.07, 0.25, -0.0025), (0.07, 0.25, 0.0025), (0, 0.25, 0.0025), (0.06062178, 0.285, -0.0025), (0.06062178, 0.285, 0.0025), (0.035, 0.31062177, -0.0025), (0.035, 0.31062177, 0.0025), (4.286264e-18, 0.32, -0.0025), (4.286264e-18, 0.32, 0.0025), (-0.035, 0.31062177, -0.0025), (-0.035, 0.31062177, 0.0025), (-0.06062178, 0.285, -0.0025), (-0.06062178, 0.285, 0.0025), (-0.07, 0.25, -0.0025), (-0.07, 0.25, 0.0025), (-0.06062178, 0.215, -0.0025), (-0.06062178, 0.215, 0.0025), (-0.035, 0.18937822, -0.0025), (-0.035, 0.18937822, 0.0025), (-1.28587915e-17, 0.18, -0.0025), (-1.28587915e-17, 0.18, 0.0025), (0.035, 0.18937822, -0.0025), (0.035, 0.18937822, 0.0025), (0.06062178, 0.215, -0.0025), (0.06062178, 0.215, 0.0025)]
    }

    def Mesh "holo_ring_2"
    {
        int[] faceVertexCounts = [3, 3, 3, 3, 3, 3, 3, 3, 3, 3, 3, 3, 3, 3, 3, 3, 3, 3, 3, 3, 3, 3, 3, 3, 3, 3, 3, 3, 3, 3, 3, 3, 3, 3, 3, 3, 3, 3, 3, 3, 3, 3, 3, 3, 3, 3, 3, 3]
        int[] faceVertexIndices = [1, 0, 4, 1, 4, 2, 2, 4, 5, 2, 5, 3, 4, 0, 6, 4, 6, 5, 5, 6, 7, 5, 7, 3, 6, 0, 8, 6, 8, 7, 7, 8, 9, 7, 9, 3, 8, 0, 10, 8, 10, 9, 9, 10, 11, 9, 11, 3, 10, 0, 12, 10, 12, 11, 11, 12, 13, 11, 13, 3, 12, 0, 14, 12, 14, 13, 13, 14, 15, 13, 15, 3, 14, 0, 16, 14, 16, 15, 15, 16, 17, 15, 17, 3, 16, 0, 18, 16, 18, 17, 17, 18, 19, 17, 19, 3, 18, 0, 20, 18, 20, 19, 19, 20, 21, 19, 21, 3, 20, 0, 22, 20, 22, 21, 21, 22, 23, 21, 23, 3, 22, 0, 24, 22, 24, 23, 23, 24, 25, 23, 25, 3, 24, 0, 1, 24, 1, 25, 25, 1, 2, 25, 2, 3]
        point3f[] points = [(0, 0.4, -0.0025), (0.1, 0.4, -0.0025), (0.1, 0.4, 0.0025), (0, 0.4, 0.0025), (0.08660254, 0.45, -0.0025), (0.08660254, 0.45, 0.0025), (0.05, 0.48660254, -0.0025), (0.05, 0.48660254, 0.0025), (6.123234e-18, 0.5, -0.0025), (6.123234e-18, 0.5, 0.0025), (-0.05, 0.48660254, -0.0025), (-0.05, 0.48660254, 0.0025), (-0.08660254, 0.45, -0.0025), (-0.08660254, 0.45, 0.0025), (-0.1, 0.4, -0.0025), (-0.1, 0.4, 0.0025), (-0.08660254, 0.35, -0.0025), (-0.08660254, 0.35, 0.0025), (-0.05, 0.31339747, -0.0025), (-0.05, 0.31339747, 0.0025), (-1.8369703e-17, 0.3, -0.0025), (-1.8369703e-17, 0.3, 0.0025), (0.05, 0.31339747, -0.0025), (0.05, 0.31339747, 0.0025), (0.08660254, 0.35, -0.0025), (0.08660254, 0.35, 0.0025)]
    }

    def Mesh "holo_cube"
    {
        int[] faceVertexCounts = [3, 3, 3, 3, 3, 3, 3, 3, 3, 3, 3, 3]
        int[] faceVertexIndices = [1, 3, 0, 4, 1, 0, 0, 3, 2, 2, 4, 0, 1, 7, 3, 5, 1, 4, 5, 7, 1, 3, 7, 2, 6, 4, 2, 2, 7, 6, 6, 5, 4, 7, 5, 6]
        point3f[] points = [(-0.03, 0.29, -0.03), (-0.03, 0.29, 0.03), (-0.03, 0.35, -0.03), (-0.03, 0.35, 0.03), (0.03, 0.29, -0.03), (0.03, 0.29, 0.03), (0.03, 0.35, -0.03), (0.03, 0.35, 0.03)]
    }

    def Mesh "led_0"
    {
        int[] faceVertexCounts = [3, 3, 3, 3, 3, 3, 3, 3, 3, 3, 3, 3, 3, 3, 3, 3, 3, 3, 3, 3, 3, 3, 3, 3, 3, 3, 3, 3, 3, 3, 3, 3, 3, 3, 3, 3, 3, 3, 3, 3, 3, 3, 3, 3, 3, 3, 3, 3, 3, 3, 3, 3, 3, 3, 3, 3, 3, 3, 3, 3, 3, 3, 3, 3, 3, 3, 3, 3, 3, 3, 3, 3, 3, 3, 3, 3, 3, 3, 3, 3, 3, 3, 3, 3, 3, 3, 3, 3, 3, 3, 3, 3, 3, 3, 3, 3, 3, 3, 3, 3, 3, 3, 3, 3, 3, 3, 3, 3, 3, 3, 3, 3, 3, 3, 3, 3, 3, 3, 3, 3, 3, 3, 3, 3, 3, 3, 3, 3, 3, 3, 3, 3, 3, 3, 3, 3, 3, 3, 3, 3, 3, 3, 3, 3, 3, 3, 3, 3, 3, 3, 3, 3, 3, 3, 3, 3, 3, 3, 3, 3, 3, 3, 3, 3, 3, 3, 3, 3, 3, 3, 3, 3, 3, 3, 3, 3, 3, 3, 3, 3, 3, 3, 3, 3, 3, 3, 3, 3, 3, 3, 3, 3, 3, 3, 3, 3, 3, 3, 3, 3, 3, 3, 3, 3, 3, 3, 3, 3, 3, 3, 3, 3, 3, 3, 3, 3, 3, 3, 3, 3, 3, 3, 3, 3, 3, 3, 3, 3, 3, 3, 3, 3, 3, 3, 3, 3, 3, 3, 3, 3, 3, 3, 3, 3, 3, 3, 3, 3, 3, 3, 3, 3, 3, 3, 3, 3, 3, 3, 3, 3, 3, 3, 3, 3, 3, 3, 3, 3, 3, 3, 3, 3, 3, 3, 3, 3, 3, 3, 3, 3, 3, 3, 3, 3, 3, 3, 3, 3, 3, 3, 3, 3, 3, 3, 3, 3, 3, 3, 3, 3, 3, 3, 3, 3, 3, 3, 3, 3, 3, 3, 3, 3, 3, 3, 3, 3, 3, 3, 3, 3]
        int[] faceVertexIndices = [0, 137, 53, 137, 37, 139, 53, 139, 16, 137, 139, 53, 37, 138, 154, 138, 11, 151, 154, 151, 40, 138, 151, 154, 16, 152, 54, 152, 40, 150, 54, 150, 5, 152, 150, 54, 37, 154, 139, 154, 40, 152, 139, 152, 16, 154, 152, 139, 0, 53, 42, 53, 16, 55, 42, 55, 12, 53, 55, 42, 16, 54, 59, 54, 5, 57, 59, 57, 17, 54, 57, 59, 12, 58, 43, 58, 17, 56, 43, 56, 1, 58, 56, 43, 16, 59, 55, 59, 17, 58, 55, 58, 12, 59, 58, 55, 0, 42, 69, 42, 12, 71, 69, 71, 21, 42, 71, 69, 12, 43, 74, 43, 1, 72, 74, 72, 22, 43, 72, 74, 21, 75, 70, 75, 22, 73, 70, 73, 7, 75, 73, 70, 12, 74, 71, 74, 22, 75, 71, 75, 21, 74, 75, 71, 0, 69, 120, 69, 21, 122, 120, 122, 33, 69, 122, 120, 21, 70, 133, 70, 7, 131, 133, 131, 36, 70, 131, 133, 33, 135, 121, 135, 36, 132, 121, 132, 10, 135, 132, 121, 21, 133, 122, 133, 36, 135, 122, 135, 33, 133, 135, 122, 0, 120, 137, 120, 33, 140, 137, 140, 37, 120, 140, 137, 33, 121, 158, 121, 10, 156, 158, 156, 41, 121, 156, 158, 37, 160, 138, 160, 41, 157, 138, 157, 11, 160, 157, 138, 33, 158, 140, 158, 41, 160, 140, 160, 37, 158, 160, 140, 1, 56, 95, 56, 17, 97, 95, 97, 28, 56, 97, 95, 17, 57, 110, 57, 5, 108, 110, 108, 31, 57, 108, 110, 28, 112, 96, 112, 31, 109, 96, 109, 9, 112, 109, 96, 17, 110, 97, 110, 31, 112, 97, 112, 28, 110, 112, 97, 5, 150, 61, 150, 40, 153, 61, 153, 18, 150, 153, 61, 40, 151, 155, 151, 11, 146, 155, 146, 39, 151, 146, 155, 18, 148, 60, 148, 39, 145, 60, 145, 4, 148, 145, 60, 40, 155, 153, 155, 39, 148, 153, 148, 18, 155, 148, 153, 11, 157, 142, 157, 41, 161, 142, 161, 38, 157, 161, 142, 41, 156, 159, 156, 10, 124, 159, 124, 34, 156, 124, 159, 38, 144, 141, 144, 34, 123, 141, 123, 2, 144, 123, 141, 41, 159, 161, 159, 34, 144, 161, 144, 38, 159, 144, 161, 10, 132, 127, 132, 36, 136, 127, 136, 35, 132, 136, 127, 36, 131, 134, 131, 7, 77, 134, 77, 23, 131, 77, 134, 35, 129, 126, 129, 23, 76, 126, 76, 6, 129, 76, 126, 36, 134, 136, 134, 23, 129, 136, 129, 35, 134, 129, 136, 7, 73, 89, 73, 22, 91, 89, 91, 27, 73, 91, 89, 22, 72, 80, 72, 1, 78, 80, 78, 24, 72, 78, 80, 27, 93, 90, 93, 24, 79, 90, 79, 8, 93, 79, 90, 22, 80, 91, 80, 24, 93, 91, 93, 27, 80, 93, 91, 3, 99, 49, 99, 29, 101, 49, 101, 15, 99, 101, 49, 29, 100, 107, 100, 9, 104, 107, 104, 30, 100, 104, 107, 15, 105, 50, 105, 30, 103, 50, 103, 4, 105, 103, 50, 29, 107, 101, 107, 30, 105, 101, 105, 15, 107, 105, 101, 3, 49, 45, 49, 15, 51, 45, 51, 13, 49, 51, 45, 15, 50, 52, 50, 4, 47, 52, 47, 14, 50, 47, 52, 13, 48, 44, 48, 14, 46, 44, 46, 2, 48, 46, 44, 15, 52, 51, 52, 14, 48, 51, 48, 13, 52, 48, 51, 3, 45, 65, 45, 13, 67, 65, 67, 20, 45, 67, 65, 13, 44, 64, 44, 2, 62, 64, 62, 19, 44, 62, 64, 20, 68, 66, 68, 19, 63, 66, 63, 6, 68, 63, 66, 13, 64, 67, 64, 19, 68, 67, 68, 20, 64, 68, 67, 3, 65, 81, 65, 20, 83, 81, 83, 25, 65, 83, 81, 20, 66, 86, 66, 6, 84, 86, 84, 26, 66, 84, 86, 25, 88, 82, 88, 26, 85, 82, 85, 8, 88, 85, 82, 20, 86, 83, 86, 26, 88, 83, 88, 25, 86, 88, 83, 3, 81, 99, 81, 25, 102, 99, 102, 29, 81, 102, 99, 25, 82, 117, 82, 8, 114, 117, 114, 32, 82, 114, 117, 29, 119, 100, 119, 32, 115, 100, 115, 9, 119, 115, 100, 25, 117, 102, 117, 32, 119, 102, 119, 29, 117, 119, 102, 4, 103, 60, 103, 30, 106, 60, 106, 18, 103, 106, 60, 30, 104, 113, 104, 9, 109, 113, 109, 31, 104, 109, 113, 18, 111, 61, 111, 31, 108, 61, 108, 5, 111, 108, 61, 30, 113, 106, 113, 31, 111, 106, 111, 18, 113, 111, 106, 2, 46, 141, 46, 14, 143, 141, 143, 38, 46, 143, 141, 14, 47, 147, 47, 4, 145, 147, 145, 39, 47, 145, 147, 38, 149, 142, 149, 39, 146, 142, 146, 11, 149, 146, 142, 14, 147, 143, 147, 39, 149, 143, 149, 38, 147, 149, 143, 6, 63, 126, 63, 19, 128, 126, 128, 35, 63, 128, 126, 19, 62, 125, 62, 2, 123, 125, 123, 34, 62, 123, 125, 35, 130, 127, 130, 34, 124, 127, 124, 10, 130, 124, 127, 19, 125, 128, 125, 34, 130, 128, 130, 35, 125, 130, 128, 8, 85, 90, 85, 26, 94, 90, 94, 27, 85, 94, 90, 26, 84, 87, 84, 6, 76, 87, 76, 23, 84, 76, 87, 27, 92, 89, 92, 23, 77, 89, 77, 7, 92, 77, 89, 26, 87, 94, 87, 23, 92, 94, 92, 27, 87, 92, 94, 9, 115, 96, 115, 32, 118, 96, 118, 28, 115, 118, 96, 32, 114, 116, 114, 8, 79, 116, 79, 24, 114, 79, 116, 28, 98, 95, 98, 24, 78, 95, 78, 1, 98, 78, 95, 32, 116, 118, 116, 24, 98, 118, 98, 28, 116, 98, 118]
        point3f[] points = [(0.10079415, 0.036805205, 0), (0.10920585, 0.036805205, 0), (0.10079415, 0.023194794, 0), (0.10920585, 0.023194794, 0), (0.105, 0.02579415, 0.0068052066), (0.105, 0.03420585, 0.0068052066), (0.105, 0.02579415, -0.0068052066), (0.105, 0.03420585, -0.0068052066), (0.11180521, 0.03, -0.004205849), (0.11180521, 0.03, 0.004205849), (0.09819479, 0.03, -0.004205849), (0.09819479, 0.03, 0.004205849), (0.105, 0.038, 0), (0.105, 0.022, 0), (0.102527864, 0.023527864, 0.004), (0.10747214, 0.023527864, 0.004), (0.102527864, 0.036472134, 0.004), (0.10747214, 0.036472134, 0.004), (0.105, 0.03, 0.008), (0.102527864, 0.023527864, -0.004), (0.10747214, 0.023527864, -0.004), (0.102527864, 0.036472134, -0.004), (0.10747214, 0.036472134, -0.004), (0.105, 0.03, -0.008), (0.11147214, 0.034, -0.002472136), (0.11147214, 0.026, -0.002472136), (0.109, 0.027527863, -0.006472136), (0.109, 0.032472137, -0.006472136), (0.11147214, 0.034, 0.002472136), (0.11147214, 0.026, 0.002472136), (0.109, 0.027527863, 0.006472136), (0.109, 0.032472137, 0.006472136), (0.113, 0.03, 0), (0.09852786, 0.034, -0.002472136), (0.09852786, 0.026, -0.002472136), (0.101, 0.027527863, -0.006472136), (0.101, 0.032472137, -0.006472136), (0.09852786, 0.034, 0.002472136), (0.09852786, 0.026, 0.002472136), (0.101, 0.027527863, 0.006472136), (0.101, 0.032472137, 0.006472136), (0.097, 0.03, 0), (0.10281387, 0.03769551, 0), (0.10718613, 0.03769551, 0), (0.10281387, 0.022304494, 0), (0.10718613, 0.022304494, 0), (0.10152889, 0.023098651, 0.0020791353), (0.103715025, 0.024449756, 0.0056163715), (0.103700325, 0.022391548, 0.0021029245), (0.10847111, 0.023098651, 0.0020791353), (0.106284976, 0.024449756, 0.0056163715), (0.106299676, 0.022391548, 0.0021029245), (0.105, 0.023194794, 0.004205849), (0.10152889, 0.036901347, 0.0020791353), (0.103715025, 0.035550244, 0.0056163715), (0.103700325, 0.037608452, 0.0021029245), (0.10847111, 0.036901347, 0.0020791353), (0.106284976, 0.035550244, 0.0056163715), (0.106299676, 0.037608452, 0.0021029245), (0.105, 0.036805205, 0.004205849), (0.105, 0.027813869, 0.007695507), (0.105, 0.032186132, 0.007695507), (0.10152889, 0.023098651, -0.0020791353), (0.103715025, 0.024449756, -0.0056163715), (0.103700325, 0.022391548, -0.0021029245), (0.10847111, 0.023098651, -0.0020791353), (0.106284976, 0.024449756, -0.0056163715), (0.106299676, 0.022391548, -0.0021029245), (0.105, 0.023194794, -0.004205849), (0.10152889, 0.036901347, -0.0020791353), (0.103715025, 0.035550244, -0.0056163715), (0.103700325, 0.037608452, -0.0021029245), (0.10847111, 0.036901347, -0.0020791353), (0.106284976, 0.035550244, -0.0056163715), (0.106299676, 0.037608452, -0.0021029245), (0.105, 0.036805205, -0.004205849), (0.105, 0.027813869, -0.007695507), (0.105, 0.032186132, -0.007695507), (0.11055025, 0.03561637, -0.0012849763), (0.11190135, 0.032079134, -0.0034711086), (0.10970228, 0.03550553, -0.0034026033), (0.11055025, 0.024383629, -0.0012849763), (0.11190135, 0.027920865, -0.0034711086), (0.10970228, 0.024494473, -0.0034026033), (0.10707913, 0.026528891, -0.006901348), (0.11061637, 0.028715024, -0.005550244), (0.1084026, 0.025297718, -0.005505528), (0.10710292, 0.028700322, -0.0076084523), (0.11050553, 0.026597397, -0.004702282), (0.10707913, 0.033471107, -0.006901348), (0.11061637, 0.031284977, -0.005550244), (0.1084026, 0.034702282, -0.005505528), (0.10710292, 0.03129968, -0.0076084523), (0.11050553, 0.033402603, -0.004702282), (0.10920585, 0.03, -0.0068052066), (0.11055025, 0.03561637, 0.0012849763), (0.11190135, 0.032079134, 0.0034711086), (0.10970228, 0.03550553, 0.0034026033), (0.11180521, 0.03420585, 0), (0.11055025, 0.024383629, 0.0012849763), (0.11190135, 0.027920865, 0.0034711086), (0.10970228, 0.024494473, 0.0034026033), (0.11180521, 0.02579415, 0), (0.10707913, 0.026528891, 0.006901348), (0.11061637, 0.028715024, 0.005550244), (0.1084026, 0.025297718, 0.005505528), (0.10710292, 0.028700322, 0.0076084523), (0.11050553, 0.026597397, 0.004702282), (0.10707913, 0.033471107, 0.006901348), (0.11061637, 0.031284977, 0.005550244), (0.1084026, 0.034702282, 0.005505528), (0.10710292, 0.03129968, 0.0076084523), (0.11050553, 0.033402603, 0.004702282), (0.10920585, 0.03, 0.0068052066), (0.11269551, 0.03, -0.0021861321), (0.11269551, 0.03, 0.0021861321), (0.112608455, 0.032102924, -0.0012996788), (0.112608455, 0.027897075, -0.0012996788), (0.112608455, 0.032102924, 0.0012996788), (0.112608455, 0.027897075, 0.0012996788), (0.099449754, 0.03561637, -0.0012849763), (0.09809865, 0.032079134, -0.0034711086), (0.10029772, 0.03550553, -0.0034026033), (0.099449754, 0.024383629, -0.0012849763), (0.09809865, 0.027920865, -0.0034711086), (0.10029772, 0.024494473, -0.0034026033), (0.10292087, 0.026528891, -0.006901348), (0.09938363, 0.028715024, -0.005550244), (0.1015974, 0.025297718, -0.005505528), (0.10289708, 0.028700322, -0.0076084523), (0.09949447, 0.026597397, -0.004702282), (0.10292087, 0.033471107, -0.006901348), (0.09938363, 0.031284977, -0.005550244), (0.1015974, 0.034702282, -0.005505528), (0.10289708, 0.03129968, -0.0076084523), (0.09949447, 0.033402603, -0.004702282), (0.10079415, 0.03, -0.0068052066), (0.099449754, 0.03561637, 0.0012849763), (0.09809865, 0.032079134, 0.0034711086), (0.10029772, 0.03550553, 0.0034026033), (0.09819479, 0.03420585, 0), (0.099449754, 0.024383629, 0.0012849763), (0.09809865, 0.027920865, 0.0034711086), (0.10029772, 0.024494473, 0.0034026033), (0.09819479, 0.02579415, 0), (0.10292087, 0.026528891, 0.006901348), (0.09938363, 0.028715024, 0.005550244), (0.1015974, 0.025297718, 0.005505528), (0.10289708, 0.028700322, 0.0076084523), (0.09949447, 0.026597397, 0.004702282), (0.10292087, 0.033471107, 0.006901348), (0.09938363, 0.031284977, 0.005550244), (0.1015974, 0.034702282, 0.005505528), (0.10289708, 0.03129968, 0.0076084523), (0.09949447, 0.033402603, 0.004702282), (0.10079415, 0.03, 0.0068052066), (0.09730449, 0.03, -0.0021861321), (0.09730449, 0.03, 0.0021861321), (0.097391546, 0.032102924, -0.0012996788), (0.097391546, 0.027897075, -0.0012996788), (0.097391546, 0.032102924, 0.0012996788), (0.097391546, 0.027897075, 0.0012996788)]
    }

    def Mesh "led_1"
    {
        int[] faceVertexCounts = [3, 3, 3, 3, 3, 3, 3, 3, 3, 3, 3, 3, 3, 3, 3, 3, 3, 3, 3, 3, 3, 3, 3, 3, 3, 3, 3, 3, 3, 3, 3, 3, 3, 3, 3, 3, 3, 3, 3, 3, 3, 3, 3, 3, 3, 3, 3, 3, 3, 3, 3, 3, 3, 3, 3, 3, 3, 3, 3, 3, 3, 3, 3, 3, 3, 3, 3, 3, 3, 3, 3, 3, 3, 3, 3, 3, 3, 3, 3, 3, 3, 3, 3, 3, 3, 3, 3, 3, 3, 3, 3, 3, 3, 3, 3, 3, 3, 3, 3, 3, 3, 3, 3, 3, 3, 3, 3, 3, 3, 3, 3, 3, 3, 3, 3, 3, 3, 3, 3, 3, 3, 3, 3, 3, 3, 3, 3, 3, 3, 3, 3, 3, 3, 3, 3, 3, 3, 3, 3, 3, 3, 3, 3, 3, 3, 3, 3, 3, 3, 3, 3, 3, 3, 3, 3, 3, 3, 3, 3, 3, 3, 3, 3, 3, 3, 3, 3, 3, 3, 3, 3, 3, 3, 3, 3, 3, 3, 3, 3, 3, 3, 3, 3, 3, 3, 3, 3, 3, 3, 3, 3, 3, 3, 3, 3, 3, 3, 3, 3, 3, 3, 3, 3, 3, 3, 3, 3, 3, 3, 3, 3, 3, 3, 3, 3, 3, 3, 3, 3, 3, 3, 3, 3, 3, 3, 3, 3, 3, 3, 3, 3, 3, 3, 3, 3, 3, 3, 3, 3, 3, 3, 3, 3, 3, 3, 3, 3, 3, 3, 3, 3, 3, 3, 3, 3, 3, 3, 3, 3, 3, 3, 3, 3, 3, 3, 3, 3, 3, 3, 3, 3, 3, 3, 3, 3, 3, 3, 3, 3, 3, 3, 3, 3, 3, 3, 3, 3, 3, 3, 3, 3, 3, 3, 3, 3, 3, 3, 3, 3, 3, 3, 3, 3, 3, 3, 3, 3, 3, 3, 3, 3, 3, 3, 3, 3, 3, 3, 3, 3, 3]
        int[] faceVertexIndices = [0, 137, 53, 137, 37, 139, 53, 139, 16, 137, 139, 53, 37, 138, 154, 138, 11, 151, 154, 151, 40, 138, 151, 154, 16, 152, 54, 152, 40, 150, 54, 150, 5, 152, 150, 54, 37, 154, 139, 154, 40, 152, 139, 152, 16, 154, 152, 139, 0, 53, 42, 53, 16, 55, 42, 55, 12, 53, 55, 42, 16, 54, 59, 54, 5, 57, 59, 57, 17, 54, 57, 59, 12, 58, 43, 58, 17, 56, 43, 56, 1, 58, 56, 43, 16, 59, 55, 59, 17, 58, 55, 58, 12, 59, 58, 55, 0, 42, 69, 42, 12, 71, 69, 71, 21, 42, 71, 69, 12, 43, 74, 43, 1, 72, 74, 72, 22, 43, 72, 74, 21, 75, 70, 75, 22, 73, 70, 73, 7, 75, 73, 70, 12, 74, 71, 74, 22, 75, 71, 75, 21, 74, 75, 71, 0, 69, 120, 69, 21, 122, 120, 122, 33, 69, 122, 120, 21, 70, 133, 70, 7, 131, 133, 131, 36, 70, 131, 133, 33, 135, 121, 135, 36, 132, 121, 132, 10, 135, 132, 121, 21, 133, 122, 133, 36, 135, 122, 135, 33, 133, 135, 122, 0, 120, 137, 120, 33, 140, 137, 140, 37, 120, 140, 137, 33, 121, 158, 121, 10, 156, 158, 156, 41, 121, 156, 158, 37, 160, 138, 160, 41, 157, 138, 157, 11, 160, 157, 138, 33, 158, 140, 158, 41, 160, 140, 160, 37, 158, 160, 140, 1, 56, 95, 56, 17, 97, 95, 97, 28, 56, 97, 95, 17, 57, 110, 57, 5, 108, 110, 108, 31, 57, 108, 110, 28, 112, 96, 112, 31, 109, 96, 109, 9, 112, 109, 96, 17, 110, 97, 110, 31, 112, 97, 112, 28, 110, 112, 97, 5, 150, 61, 150, 40, 153, 61, 153, 18, 150, 153, 61, 40, 151, 155, 151, 11, 146, 155, 146, 39, 151, 146, 155, 18, 148, 60, 148, 39, 145, 60, 145, 4, 148, 145, 60, 40, 155, 153, 155, 39, 148, 153, 148, 18, 155, 148, 153, 11, 157, 142, 157, 41, 161, 142, 161, 38, 157, 161, 142, 41, 156, 159, 156, 10, 124, 159, 124, 34, 156, 124, 159, 38, 144, 141, 144, 34, 123, 141, 123, 2, 144, 123, 141, 41, 159, 161, 159, 34, 144, 161, 144, 38, 159, 144, 161, 10, 132, 127, 132, 36, 136, 127, 136, 35, 132, 136, 127, 36, 131, 134, 131, 7, 77, 134, 77, 23, 131, 77, 134, 35, 129, 126, 129, 23, 76, 126, 76, 6, 129, 76, 126, 36, 134, 136, 134, 23, 129, 136, 129, 35, 134, 129, 136, 7, 73, 89, 73, 22, 91, 89, 91, 27, 73, 91, 89, 22, 72, 80, 72, 1, 78, 80, 78, 24, 72, 78, 80, 27, 93, 90, 93, 24, 79, 90, 79, 8, 93, 79, 90, 22, 80, 91, 80, 24, 93, 91, 93, 27, 80, 93, 91, 3, 99, 49, 99, 29, 101, 49, 101, 15, 99, 101, 49, 29, 100, 107, 100, 9, 104, 107, 104, 30, 100, 104, 107, 15, 105, 50, 105, 30, 103, 50, 103, 4, 105, 103, 50, 29, 107, 101, 107, 30, 105, 101, 105, 15, 107, 105, 101, 3, 49, 45, 49, 15, 51, 45, 51, 13, 49, 51, 45, 15, 50, 52, 50, 4, 47, 52, 47, 14, 50, 47, 52, 13, 48, 44, 48, 14, 46, 44, 46, 2, 48, 46, 44, 15, 52, 51, 52, 14, 48, 51, 48, 13, 52, 48, 51, 3, 45, 65, 45, 13, 67, 65, 67, 20, 45, 67, 65, 13, 44, 64, 44, 2, 62, 64, 62, 19, 44, 62, 64, 20, 68, 66, 68, 19, 63, 66, 63, 6, 68, 63, 66, 13, 64, 67, 64, 19, 68, 67, 68, 20, 64, 68, 67, 3, 65, 81, 65, 20, 83, 81, 83, 25, 65, 83, 81, 20, 66, 86, 66, 6, 84, 86, 84, 26, 66, 84, 86, 25, 88, 82, 88, 26, 85, 82, 85, 8, 88, 85, 82, 20, 86, 83, 86, 26, 88, 83, 88, 25, 86, 88, 83, 3, 81, 99, 81, 25, 102, 99, 102, 29, 81, 102, 99, 25, 82, 117, 82, 8, 114, 117, 114, 32, 82, 114, 117, 29, 119, 100, 119, 32, 115, 100, 115, 9, 119, 115, 100, 25, 117, 102, 117, 32, 119, 102, 119, 29, 117, 119, 102, 4, 103, 60, 103, 30, 106, 60, 106, 18, 103, 106, 60, 30, 104, 113, 104, 9, 109, 113, 109, 31, 104, 109, 113, 18, 111, 61, 111, 31, 108, 61, 108, 5, 111, 108, 61, 30, 113, 106, 113, 31, 111, 106, 111, 18, 113, 111, 106, 2, 46, 141, 46, 14, 143, 141, 143, 38, 46, 143, 141, 14, 47, 147, 47, 4, 145, 147, 145, 39, 47, 145, 147, 38, 149, 142, 149, 39, 146, 142, 146, 11, 149, 146, 142, 14, 147, 143, 147, 39, 149, 143, 149, 38, 147, 149, 143, 6, 63, 126, 63, 19, 128, 126, 128, 35, 63, 128, 126, 19, 62, 125, 62, 2, 123, 125, 123, 34, 62, 123, 125, 35, 130, 127, 130, 34, 124, 127, 124, 10, 130, 124, 127, 19, 125, 128, 125, 34, 130, 128, 130, 35, 125, 130, 128, 8, 85, 90, 85, 26, 94, 90, 94, 27, 85, 94, 90, 26, 84, 87, 84, 6, 76, 87, 76, 23, 84, 76, 87, 27, 92, 89, 92, 23, 77, 89, 77, 7, 92, 77, 89, 26, 87, 94, 87, 23, 92, 94, 92, 27, 87, 92, 94, 9, 115, 96, 115, 32, 118, 96, 118, 28, 115, 118, 96, 32, 114, 116, 114, 8, 79, 116, 79, 24, 114, 79, 116, 28, 98, 95, 98, 24, 78, 95, 78, 1, 98, 78, 95, 32, 116, 118, 116, 24, 98, 118, 98, 28, 116, 98, 118]
        point3f[] points = [(-0.004205849, 0.036805205, 0.105), (0.004205849, 0.036805205, 0.105), (-0.004205849, 0.023194794, 0.105), (0.004205849, 0.023194794, 0.105), (6.4293957e-18, 0.02579415, 0.11180521), (6.4293957e-18, 0.03420585, 0.11180521), (6.4293957e-18, 0.02579415, 0.09819479), (6.4293957e-18, 0.03420585, 0.09819479), (0.0068052066, 0.03, 0.10079415), (0.0068052066, 0.03, 0.10920585), (-0.0068052066, 0.03, 0.10079415), (-0.0068052066, 0.03, 0.10920585), (6.4293957e-18, 0.038, 0.105), (6.4293957e-18, 0.022, 0.105), (-0.002472136, 0.023527864, 0.109), (0.002472136, 0.023527864, 0.109), (-0.002472136, 0.036472134, 0.109), (0.002472136, 0.036472134, 0.109), (6.4293957e-18, 0.03, 0.113), (-0.002472136, 0.023527864, 0.101), (0.002472136, 0.023527864, 0.101), (-0.002472136, 0.036472134, 0.101), (0.002472136, 0.036472134, 0.101), (6.4293957e-18, 0.03, 0.097), (0.006472136, 0.034, 0.102527864), (0.006472136, 0.026, 0.102527864), (0.004, 0.027527863, 0.09852786), (0.004, 0.032472137, 0.09852786), (0.006472136, 0.034, 0.10747214), (0.006472136, 0.026, 0.10747214), (0.004, 0.027527863, 0.11147214), (0.004, 0.032472137, 0.11147214), (0.008, 0.03, 0.105), (-0.006472136, 0.034, 0.102527864), (-0.006472136, 0.026, 0.102527864), (-0.004, 0.027527863, 0.09852786), (-0.004, 0.032472137, 0.09852786), (-0.006472136, 0.034, 0.10747214), (-0.006472136, 0.026, 0.10747214), (-0.004, 0.027527863, 0.11147214), (-0.004, 0.032472137, 0.11147214), (-0.008, 0.03, 0.105), (-0.0021861321, 0.03769551, 0.105), (0.0021861321, 0.03769551, 0.105), (-0.0021861321, 0.022304494, 0.105), (0.0021861321, 0.022304494, 0.105), (-0.0034711086, 0.023098651, 0.10707913), (-0.0012849763, 0.024449756, 0.11061637), (-0.0012996788, 0.022391548, 0.10710292), (0.0034711086, 0.023098651, 0.10707913), (0.0012849763, 0.024449756, 0.11061637), (0.0012996788, 0.022391548, 0.10710292), (6.4293957e-18, 0.023194794, 0.10920585), (-0.0034711086, 0.036901347, 0.10707913), (-0.0012849763, 0.035550244, 0.11061637), (-0.0012996788, 0.037608452, 0.10710292), (0.0034711086, 0.036901347, 0.10707913), (0.0012849763, 0.035550244, 0.11061637), (0.0012996788, 0.037608452, 0.10710292), (6.4293957e-18, 0.036805205, 0.10920585), (6.4293957e-18, 0.027813869, 0.11269551), (6.4293957e-18, 0.032186132, 0.11269551), (-0.0034711086, 0.023098651, 0.10292087), (-0.0012849763, 0.024449756, 0.09938363), (-0.0012996788, 0.022391548, 0.10289708), (0.0034711086, 0.023098651, 0.10292087), (0.0012849763, 0.024449756, 0.09938363), (0.0012996788, 0.022391548, 0.10289708), (6.4293957e-18, 0.023194794, 0.10079415), (-0.0034711086, 0.036901347, 0.10292087), (-0.0012849763, 0.035550244, 0.09938363), (-0.0012996788, 0.037608452, 0.10289708), (0.0034711086, 0.036901347, 0.10292087), (0.0012849763, 0.035550244, 0.09938363), (0.0012996788, 0.037608452, 0.10289708), (6.4293957e-18, 0.036805205, 0.10079415), (6.4293957e-18, 0.027813869, 0.09730449), (6.4293957e-18, 0.032186132, 0.09730449), (0.005550244, 0.03561637, 0.103715025), (0.006901348, 0.032079134, 0.10152889), (0.004702282, 0.03550553, 0.1015974), (0.005550244, 0.024383629, 0.103715025), (0.006901348, 0.027920865, 0.10152889), (0.004702282, 0.024494473, 0.1015974), (0.0020791353, 0.026528891, 0.09809865), (0.0056163715, 0.028715024, 0.099449754), (0.0034026033, 0.025297718, 0.09949447), (0.0021029245, 0.028700322, 0.097391546), (0.005505528, 0.026597397, 0.10029772), (0.0020791353, 0.033471107, 0.09809865), (0.0056163715, 0.031284977, 0.099449754), (0.0034026033, 0.034702282, 0.09949447), (0.0021029245, 0.03129968, 0.097391546), (0.005505528, 0.033402603, 0.10029772), (0.004205849, 0.03, 0.09819479), (0.005550244, 0.03561637, 0.106284976), (0.006901348, 0.032079134, 0.10847111), (0.004702282, 0.03550553, 0.1084026), (0.0068052066, 0.03420585, 0.105), (0.005550244, 0.024383629, 0.106284976), (0.006901348, 0.027920865, 0.10847111), (0.004702282, 0.024494473, 0.1084026), (0.0068052066, 0.02579415, 0.105), (0.0020791353, 0.026528891, 0.11190135), (0.0056163715, 0.028715024, 0.11055025), (0.0034026033, 0.025297718, 0.11050553), (0.0021029245, 0.028700322, 0.112608455), (0.005505528, 0.026597397, 0.10970228), (0.0020791353, 0.033471107, 0.11190135), (0.0056163715, 0.031284977, 0.11055025), (0.0034026033, 0.034702282, 0.11050553), (0.0021029245, 0.03129968, 0.112608455), (0.005505528, 0.033402603, 0.10970228), (0.004205849, 0.03, 0.11180521), (0.007695507, 0.03, 0.10281387), (0.007695507, 0.03, 0.10718613), (0.0076084523, 0.032102924, 0.103700325), (0.0076084523, 0.027897075, 0.103700325), (0.0076084523, 0.032102924, 0.106299676), (0.0076084523, 0.027897075, 0.106299676), (-0.005550244, 0.03561637, 0.103715025), (-0.006901348, 0.032079134, 0.10152889), (-0.004702282, 0.03550553, 0.1015974), (-0.005550244, 0.024383629, 0.103715025), (-0.006901348, 0.027920865, 0.10152889), (-0.004702282, 0.024494473, 0.1015974), (-0.0020791353, 0.026528891, 0.09809865), (-0.0056163715, 0.028715024, 0.099449754), (-0.0034026033, 0.025297718, 0.09949447), (-0.0021029245, 0.028700322, 0.097391546), (-0.005505528, 0.026597397, 0.10029772), (-0.0020791353, 0.033471107, 0.09809865), (-0.0056163715, 0.031284977, 0.099449754), (-0.0034026033, 0.034702282, 0.09949447), (-0.0021029245, 0.03129968, 0.097391546), (-0.005505528, 0.033402603, 0.10029772), (-0.004205849, 0.03, 0.09819479), (-0.005550244, 0.03561637, 0.106284976), (-0.006901348, 0.032079134, 0.10847111), (-0.004702282, 0.03550553, 0.1084026), (-0.0068052066, 0.03420585, 0.105), (-0.005550244, 0.024383629, 0.106284976), (-0.006901348, 0.027920865, 0.10847111), (-0.004702282, 0.024494473, 0.1084026), (-0.0068052066, 0.02579415, 0.105), (-0.0020791353, 0.026528891, 0.11190135), (-0.0056163715, 0.028715024, 0.11055025), (-0.0034026033, 0.025297718, 0.11050553), (-0.0021029245, 0.028700322, 0.112608455), (-0.005505528, 0.026597397, 0.10970228), (-0.0020791353, 0.033471107, 0.11190135), (-0.0056163715, 0.031284977, 0.11055025), (-0.0034026033, 0.034702282, 0.11050553), (-0.0021029245, 0.03129968, 0.112608455), (-0.005505528, 0.033402603, 0.10970228), (-0.004205849, 0.03, 0.11180521), (-0.007695507, 0.03, 0.10281387), (-0.007695507, 0.03, 0.10718613), (-0.0076084523, 0.032102924, 0.103700325), (-0.0076084523, 0.027897075, 0.103700325), (-0.0076084523, 0.032102924, 0.106299676), (-0.0076084523, 0.027897075, 0.106299676)]
    }

    def Mesh "led_2"
    {
        int[] faceVertexCounts = [3, 3, 3, 3, 3, 3, 3, 3, 3, 3, 3, 3, 3, 3, 3, 3, 3, 3, 3, 3, 3, 3, 3, 3, 3, 3, 3, 3, 3, 3, 3, 3, 3, 3, 3, 3, 3, 3, 3, 3, 3, 3, 3, 3, 3, 3, 3, 3, 3, 3, 3, 3, 3, 3, 3, 3, 3, 3, 3, 3, 3, 3, 3, 3, 3, 3, 3, 3, 3, 3, 3, 3, 3, 3, 3, 3, 3, 3, 3, 3, 3, 3, 3, 3, 3, 3, 3, 3, 3, 3, 3, 3, 3, 3, 3, 3, 3, 3, 3, 3, 3, 3, 3, 3, 3, 3, 3, 3, 3, 3, 3, 3, 3, 3, 3, 3, 3, 3, 3, 3, 3, 3, 3, 3, 3, 3, 3, 3, 3, 3, 3, 3, 3, 3, 3, 3, 3, 3, 3, 3, 3, 3, 3, 3, 3, 3, 3, 3, 3, 3, 3, 3, 3, 3, 3, 3, 3, 3, 3, 3, 3, 3, 3, 3, 3, 3, 3, 3, 3, 3, 3, 3, 3, 3, 3, 3, 3, 3, 3, 3, 3, 3, 3, 3, 3, 3, 3, 3, 3, 3, 3, 3, 3, 3, 3, 3, 3, 3, 3, 3, 3, 3, 3, 3, 3, 3, 3, 3, 3, 3, 3, 3, 3, 3, 3, 3, 3, 3, 3, 3, 3, 3, 3, 3, 3, 3, 3, 3, 3, 3, 3, 3, 3, 3, 3, 3, 3, 3, 3, 3, 3, 3, 3, 3, 3, 3, 3, 3, 3, 3, 3, 3, 3, 3, 3, 3, 3, 3, 3, 3, 3, 3, 3, 3, 3, 3, 3, 3, 3, 3, 3, 3, 3, 3, 3, 3, 3, 3, 3, 3, 3, 3, 3, 3, 3, 3, 3, 3, 3, 3, 3, 3, 3, 3, 3, 3, 3, 3, 3, 3, 3, 3, 3, 3, 3, 3, 3, 3, 3, 3, 3, 3, 3, 3, 3, 3, 3, 3, 3, 3]
        int[] faceVertexIndices = [0, 137, 53, 137, 37, 139, 53, 139, 16, 137, 139, 53, 37, 138, 154, 138, 11, 151, 154, 151, 40, 138, 151, 154, 16, 152, 54, 152, 40, 150, 54, 150, 5, 152, 150, 54, 37, 154, 139, 154, 40, 152, 139, 152, 16, 154, 152, 139, 0, 53, 42, 53, 16, 55, 42, 55, 12, 53, 55, 42, 16, 54, 59, 54, 5, 57, 59, 57, 17, 54, 57, 59, 12, 58, 43, 58, 17, 56, 43, 56, 1, 58, 56, 43, 16, 59, 55, 59, 17, 58, 55, 58, 12, 59, 58, 55, 0, 42, 69, 42, 12, 71, 69, 71, 21, 42, 71, 69, 12, 43, 74, 43, 1, 72, 74, 72, 22, 43, 72, 74, 21, 75, 70, 75, 22, 73, 70, 73, 7, 75, 73, 70, 12, 74, 71, 74, 22, 75, 71, 75, 21, 74, 75, 71, 0, 69, 120, 69, 21, 122, 120, 122, 33, 69, 122, 120, 21, 70, 133, 70, 7, 131, 133, 131, 36, 70, 131, 133, 33, 135, 121, 135, 36, 132, 121, 132, 10, 135, 132, 121, 21, 133, 122, 133, 36, 135, 122, 135, 33, 133, 135, 122, 0, 120, 137, 120, 33, 140, 137, 140, 37, 120, 140, 137, 33, 121, 158, 121, 10, 156, 158, 156, 41, 121, 156, 158, 37, 160, 138, 160, 41, 157, 138, 157, 11, 160, 157, 138, 33, 158, 140, 158, 41, 160, 140, 160, 37, 158, 160, 140, 1, 56, 95, 56, 17, 97, 95, 97, 28, 56, 97, 95, 17, 57, 110, 57, 5, 108, 110, 108, 31, 57, 108, 110, 28, 112, 96, 112, 31, 109, 96, 109, 9, 112, 109, 96, 17, 110, 97, 110, 31, 112, 97, 112, 28, 110, 112, 97, 5, 150, 61, 150, 40, 153, 61, 153, 18, 150, 153, 61, 40, 151, 155, 151, 11, 146, 155, 146, 39, 151, 146, 155, 18, 148, 60, 148, 39, 145, 60, 145, 4, 148, 145, 60, 40, 155, 153, 155, 39, 148, 153, 148, 18, 155, 148, 153, 11, 157, 142, 157, 41, 161, 142, 161, 38, 157, 161, 142, 41, 156, 159, 156, 10, 124, 159, 124, 34, 156, 124, 159, 38, 144, 141, 144, 34, 123, 141, 123, 2, 144, 123, 141, 41, 159, 161, 159, 34, 144, 161, 144, 38, 159, 144, 161, 10, 132, 127, 132, 36, 136, 127, 136, 35, 132, 136, 127, 36, 131, 134, 131, 7, 77, 134, 77, 23, 131, 77, 134, 35, 129, 126, 129, 23, 76, 126, 76, 6, 129, 76, 126, 36, 134, 136, 134, 23, 129, 136, 129, 35, 134, 129, 136, 7, 73, 89, 73, 22, 91, 89, 91, 27, 73, 91, 89, 22, 72, 80, 72, 1, 78, 80, 78, 24, 72, 78, 80, 27, 93, 90, 93, 24, 79, 90, 79, 8, 93, 79, 90, 22, 80, 91, 80, 24, 93, 91, 93, 27, 80, 93, 91, 3, 99, 49, 99, 29, 101, 49, 101, 15, 99, 101, 49, 29, 100, 107, 100, 9, 104, 107, 104, 30, 100, 104, 107, 15, 105, 50, 105, 30, 103, 50, 103, 4, 105, 103, 50, 29, 107, 101, 107, 30, 105, 101, 105, 15, 107, 105, 101, 3, 49, 45, 49, 15, 51, 45, 51, 13, 49, 51, 45, 15, 50, 52, 50, 4, 47, 52, 47, 14, 50, 47, 52, 13, 48, 44, 48, 14, 46, 44, 46, 2, 48, 46, 44, 15, 52, 51, 52, 14, 48, 51, 48, 13, 52, 48, 51, 3, 45, 65, 45, 13, 67, 65, 67, 20, 45, 67, 65, 13, 44, 64, 44, 2, 62, 64, 62, 19, 44, 62, 64, 20, 68, 66, 68, 19, 63, 66, 63, 6, 68, 63, 66, 13, 64, 67, 64, 19, 68, 67, 68, 20, 64, 68, 67, 3, 65, 81, 65, 20, 83, 81, 83, 25, 65, 83, 81, 20, 66, 86, 66, 6, 84, 86, 84, 26, 66, 84, 86, 25, 88, 82, 88, 26, 85, 82, 85, 8, 88, 85, 82, 20, 86, 83, 86, 26, 88, 83, 88, 25, 86, 88, 83, 3, 81, 99, 81, 25, 102, 99, 102, 29, 81, 102, 99, 25, 82, 117, 82, 8, 114, 117, 114, 32, 82, 114, 117, 29, 119, 100, 119, 32, 115, 100, 115, 9, 119, 115, 100, 25, 117, 102, 117, 32, 119, 102, 119, 29, 117, 119, 102, 4, 103, 60, 103, 30, 106, 60, 106, 18, 103, 106, 60, 30, 104, 113, 104, 9, 109, 113, 109, 31, 104, 109, 113, 18, 111, 61, 111, 31, 108, 61, 108, 5, 111, 108, 61, 30, 113, 106, 113, 31, 111, 106, 111, 18, 113, 111, 106, 2, 46, 141, 46, 14, 143, 141, 143, 38, 46, 143, 141, 14, 47, 147, 47, 4, 145, 147, 145, 39, 47, 145, 147, 38, 149, 142, 149, 39, 146, 142, 146, 11, 149, 146, 142, 14, 147, 143, 147, 39, 149, 143, 149, 38, 147, 149, 143, 6, 63, 126, 63, 19, 128, 126, 128, 35, 63, 128, 126, 19, 62, 125, 62, 2, 123, 125, 123, 34, 62, 123, 125, 35, 130, 127, 130, 34, 124, 127, 124, 10, 130, 124, 127, 19, 125, 128, 125, 34, 130, 128, 130, 35, 125, 130, 128, 8, 85, 90, 85, 26, 94, 90, 94, 27, 85, 94, 90, 26, 84, 87, 84, 6, 76, 87, 76, 23, 84, 76, 87, 27, 92, 89, 92, 23, 77, 89, 77, 7, 92, 77, 89, 26, 87, 94, 87, 23, 92, 94, 92, 27, 87, 92, 94, 9, 115, 96, 115, 32, 118, 96, 118, 28, 115, 118, 96, 32, 114, 116, 114, 8, 79, 116, 79, 24, 114, 79, 116, 28, 98, 95, 98, 24, 78, 95, 78, 1, 98, 78, 95, 32, 116, 118, 116, 24, 98, 118, 98, 28, 116, 98, 118]
        point3f[] points = [(-0.10920585, 0.036805205, 1.28587915e-17), (-0.10079415, 0.036805205, 1.28587915e-17), (-0.10920585, 0.023194794, 1.28587915e-17), (-0.10079415, 0.023194794, 1.28587915e-17), (-0.105, 0.02579415, 0.0068052066), (-0.105, 0.03420585, 0.0068052066), (-0.105, 0.02579415, -0.0068052066), (-0.105, 0.03420585, -0.0068052066), (-0.09819479, 0.03, -0.004205849), (-0.09819479, 0.03, 0.004205849), (-0.11180521, 0.03, -0.004205849), (-0.11180521, 0.03, 0.004205849), (-0.105, 0.038, 1.28587915e-17), (-0.105, 0.022, 1.28587915e-17), (-0.10747214, 0.023527864, 0.004), (-0.102527864, 0.023527864, 0.004), (-0.10747214, 0.036472134, 0.004), (-0.102527864, 0.036472134, 0.004), (-0.105, 0.03, 0.008), (-0.10747214, 0.023527864, -0.004), (-0.102527864, 0.023527864, -0.004), (-0.10747214, 0.036472134, -0.004), (-0.102527864, 0.036472134, -0.004), (-0.105, 0.03, -0.008), (-0.09852786, 0.034, -0.002472136), (-0.09852786, 0.026, -0.002472136), (-0.101, 0.027527863, -0.006472136), (-0.101, 0.032472137, -0.006472136), (-0.09852786, 0.034, 0.002472136), (-0.09852786, 0.026, 0.002472136), (-0.101, 0.027527863, 0.006472136), (-0.101, 0.032472137, 0.006472136), (-0.097, 0.03, 1.28587915e-17), (-0.11147214, 0.034, -0.002472136), (-0.11147214, 0.026, -0.002472136), (-0.109, 0.027527863, -0.006472136), (-0.109, 0.032472137, -0.006472136), (-0.11147214, 0.034, 0.002472136), (-0.11147214, 0.026, 0.002472136), (-0.109, 0.027527863, 0.006472136), (-0.109, 0.032472137, 0.006472136), (-0.113, 0.03, 1.28587915e-17), (-0.10718613, 0.03769551, 1.28587915e-17), (-0.10281387, 0.03769551, 1.28587915e-17), (-0.10718613, 0.022304494, 1.28587915e-17), (-0.10281387, 0.022304494, 1.28587915e-17), (-0.10847111, 0.023098651, 0.0020791353), (-0.106284976, 0.024449756, 0.0056163715), (-0.106299676, 0.022391548, 0.0021029245), (-0.10152889, 0.023098651, 0.0020791353), (-0.103715025, 0.024449756, 0.0056163715), (-0.103700325, 0.022391548, 0.0021029245), (-0.105, 0.023194794, 0.004205849), (-0.10847111, 0.036901347, 0.0020791353), (-0.106284976, 0.035550244, 0.0056163715), (-0.106299676, 0.037608452, 0.0021029245), (-0.10152889, 0.036901347, 0.0020791353), (-0.103715025, 0.035550244, 0.0056163715), (-0.103700325, 0.037608452, 0.0021029245), (-0.105, 0.036805205, 0.004205849), (-0.105, 0.027813869, 0.007695507), (-0.105, 0.032186132, 0.007695507), (-0.10847111, 0.023098651, -0.0020791353), (-0.106284976, 0.024449756, -0.0056163715), (-0.106299676, 0.022391548, -0.0021029245), (-0.10152889, 0.023098651, -0.0020791353), (-0.103715025, 0.024449756, -0.0056163715), (-0.103700325, 0.022391548, -0.0021029245), (-0.105, 0.023194794, -0.004205849), (-0.10847111, 0.036901347, -0.0020791353), (-0.106284976, 0.035550244, -0.0056163715), (-0.106299676, 0.037608452, -0.0021029245), (-0.10152889, 0.036901347, -0.0020791353), (-0.103715025, 0.035550244, -0.0056163715), (-0.103700325, 0.037608452, -0.0021029245), (-0.105, 0.036805205, -0.004205849), (-0.105, 0.027813869, -0.007695507), (-0.105, 0.032186132, -0.007695507), (-0.099449754, 0.03561637, -0.0012849763), (-0.09809865, 0.032079134, -0.0034711086), (-0.10029772, 0.03550553, -0.0034026033), (-0.099449754, 0.024383629, -0.0012849763), (-0.09809865, 0.027920865, -0.0034711086), (-0.10029772, 0.024494473, -0.0034026033), (-0.10292087, 0.026528891, -0.006901348), (-0.09938363, 0.028715024, -0.005550244), (-0.1015974, 0.025297718, -0.005505528), (-0.10289708, 0.028700322, -0.0076084523), (-0.09949447, 0.026597397, -0.004702282), (-0.10292087, 0.033471107, -0.006901348), (-0.09938363, 0.031284977, -0.005550244), (-0.1015974, 0.034702282, -0.005505528), (-0.10289708, 0.03129968, -0.0076084523), (-0.09949447, 0.033402603, -0.004702282), (-0.10079415, 0.03, -0.0068052066), (-0.099449754, 0.03561637, 0.0012849763), (-0.09809865, 0.032079134, 0.0034711086), (-0.10029772, 0.03550553, 0.0034026033), (-0.09819479, 0.03420585, 1.28587915e-17), (-0.099449754, 0.024383629, 0.0012849763), (-0.09809865, 0.027920865, 0.0034711086), (-0.10029772, 0.024494473, 0.0034026033), (-0.09819479, 0.02579415, 1.28587915e-17), (-0.10292087, 0.026528891, 0.006901348), (-0.09938363, 0.028715024, 0.005550244), (-0.1015974, 0.025297718, 0.005505528), (-0.10289708, 0.028700322, 0.0076084523), (-0.09949447, 0.026597397, 0.004702282), (-0.10292087, 0.033471107, 0.006901348), (-0.09938363, 0.031284977, 0.005550244), (-0.1015974, 0.034702282, 0.005505528), (-0.10289708, 0.03129968, 0.0076084523), (-0.09949447, 0.033402603, 0.004702282), (-0.10079415, 0.03, 0.0068052066), (-0.09730449, 0.03, -0.0021861321), (-0.09730449, 0.03, 0.0021861321), (-0.097391546, 0.032102924, -0.0012996788), (-0.097391546, 0.027897075, -0.0012996788), (-0.097391546, 0.032102924, 0.0012996788), (-0.097391546, 0.027897075, 0.0012996788), (-0.11055025, 0.03561637, -0.0012849763), (-0.11190135, 0.032079134, -0.0034711086), (-0.10970228, 0.03550553, -0.0034026033), (-0.11055025, 0.024383629, -0.0012849763), (-0.11190135, 0.027920865, -0.0034711086), (-0.10970228, 0.024494473, -0.0034026033), (-0.10707913, 0.026528891, -0.006901348), (-0.11061637, 0.028715024, -0.005550244), (-0.1084026, 0.025297718, -0.005505528), (-0.10710292, 0.028700322, -0.0076084523), (-0.11050553, 0.026597397, -0.004702282), (-0.10707913, 0.033471107, -0.006901348), (-0.11061637, 0.031284977, -0.005550244), (-0.1084026, 0.034702282, -0.005505528), (-0.10710292, 0.03129968, -0.0076084523), (-0.11050553, 0.033402603, -0.004702282), (-0.10920585, 0.03, -0.0068052066), (-0.11055025, 0.03561637, 0.0012849763), (-0.11190135, 0.032079134, 0.0034711086), (-0.10970228, 0.03550553, 0.0034026033), (-0.11180521, 0.03420585, 1.28587915e-17), (-0.11055025, 0.024383629, 0.0012849763), (-0.11190135, 0.027920865, 0.0034711086), (-0.10970228, 0.024494473, 0.0034026033), (-0.11180521, 0.02579415, 1.28587915e-17), (-0.10707913, 0.026528891, 0.006901348), (-0.11061637, 0.028715024, 0.005550244), (-0.1084026, 0.025297718, 0.005505528), (-0.10710292, 0.028700322, 0.0076084523), (-0.11050553, 0.026597397, 0.004702282), (-0.10707913, 0.033471107, 0.006901348), (-0.11061637, 0.031284977, 0.005550244), (-0.1084026, 0.034702282, 0.005505528), (-0.10710292, 0.03129968, 0.0076084523), (-0.11050553, 0.033402603, 0.004702282), (-0.10920585, 0.03, 0.0068052066), (-0.11269551, 0.03, -0.0021861321), (-0.11269551, 0.03, 0.0021861321), (-0.112608455, 0.032102924, -0.0012996788), (-0.112608455, 0.027897075, -0.0012996788), (-0.112608455, 0.032102924, 0.0012996788), (-0.112608455, 0.027897075, 0.0012996788)]
    }

    def Mesh "led_3"
    {
        int[] faceVertexCounts = [3, 3, 3, 3, 3, 3, 3, 3, 3, 3, 3, 3, 3, 3, 3, 3, 3, 3, 3, 3, 3, 3, 3, 3, 3, 3, 3, 3, 3, 3, 3, 3, 3, 3, 3, 3, 3, 3, 3, 3, 3, 3, 3, 3, 3, 3, 3, 3, 3, 3, 3, 3, 3, 3, 3, 3, 3, 3, 3, 3, 3, 3, 3, 3, 3, 3, 3, 3, 3, 3, 3, 3, 3, 3, 3, 3, 3, 3, 3, 3, 3, 3, 3, 3, 3, 3, 3, 3, 3, 3, 3, 3, 3, 3, 3, 3, 3, 3, 3, 3, 3, 3, 3, 3, 3, 3, 3, 3, 3, 3, 3, 3, 3, 3, 3, 3, 3, 3, 3, 3, 3, 3, 3, 3, 3, 3, 3, 3, 3, 3, 3, 3, 3, 3, 3, 3, 3, 3, 3, 3, 3, 3, 3, 3, 3, 3, 3, 3, 3, 3, 3, 3, 3, 3, 3, 3, 3, 3, 3, 3, 3, 3, 3, 3, 3, 3, 3, 3, 3, 3, 3, 3, 3, 3, 3, 3, 3, 3, 3, 3, 3, 3, 3, 3, 3, 3, 3, 3, 3, 3, 3, 3, 3, 3, 3, 3, 3, 3, 3, 3, 3, 3, 3, 3, 3, 3, 3, 3, 3, 3, 3, 3, 3, 3, 3, 3, 3, 3, 3, 3, 3, 3, 3, 3, 3, 3, 3, 3, 3, 3, 3, 3, 3, 3, 3, 3, 3, 3, 3, 3, 3, 3, 3, 3, 3, 3, 3, 3, 3, 3, 3, 3, 3, 3, 3, 3, 3, 3, 3, 3, 3, 3, 3, 3, 3, 3, 3, 3, 3, 3, 3, 3, 3, 3, 3, 3, 3, 3, 3, 3, 3, 3, 3, 3, 3, 3, 3, 3, 3, 3, 3, 3, 3, 3, 3, 3, 3, 3, 3, 3, 3, 3, 3, 3, 3, 3, 3, 3, 3, 3, 3, 3, 3, 3, 3, 3, 3, 3, 3, 3]
        int[] faceVertexIndices = [0, 137, 53, 137, 37, 139, 53, 139, 16, 137, 139, 53, 37, 138, 154, 138, 11, 151, 154, 151, 40, 138, 151, 154, 16, 152, 54, 152, 40, 150, 54, 150, 5, 152, 150, 54, 37, 154, 139, 154, 40, 152, 139, 152, 16, 154, 152, 139, 0, 53, 42, 53, 16, 55, 42, 55, 12, 53, 55, 42, 16, 54, 59, 54, 5, 57, 59, 57, 17, 54, 57, 59, 12, 58, 43, 58, 17, 56, 43, 56, 1, 58, 56, 43, 16, 59, 55, 59, 17, 58, 55, 58, 12, 59, 58, 55, 0, 42, 69, 42, 12, 71, 69, 71, 21, 42, 71, 69, 12, 43, 74, 43, 1, 72, 74, 72, 22, 43, 72, 74, 21, 75, 70, 75, 22, 73, 70, 73, 7, 75, 73, 70, 12, 74, 71, 74, 22, 75, 71, 75, 21, 74, 75, 71, 0, 69, 120, 69, 21, 122, 120, 122, 33, 69, 122, 120, 21, 70, 133, 70, 7, 131, 133, 131, 36, 70, 131, 133, 33, 135, 121, 135, 36, 132, 121, 132, 10, 135, 132, 121, 21, 133, 122, 133, 36, 135, 122, 135, 33, 133, 135, 122, 0, 120, 137, 120, 33, 140, 137, 140, 37, 120, 140, 137, 33, 121, 158, 121, 10, 156, 158, 156, 41, 121, 156, 158, 37, 160, 138, 160, 41, 157, 138, 157, 11, 160, 157, 138, 33, 158, 140, 158, 41, 160, 140, 160, 37, 158, 160, 140, 1, 56, 95, 56, 17, 97, 95, 97, 28, 56, 97, 95, 17, 57, 110, 57, 5, 108, 110, 108, 31, 57, 108, 110, 28, 112, 96, 112, 31, 109, 96, 109, 9, 112, 109, 96, 17, 110, 97, 110, 31, 112, 97, 112, 28, 110, 112, 97, 5, 150, 61, 150, 40, 153, 61, 153, 18, 150, 153, 61, 40, 151, 155, 151, 11, 146, 155, 146, 39, 151, 146, 155, 18, 148, 60, 148, 39, 145, 60, 145, 4, 148, 145, 60, 40, 155, 153, 155, 39, 148, 153, 148, 18, 155, 148, 153, 11, 157, 142, 157, 41, 161, 142, 161, 38, 157, 161, 142, 41, 156, 159, 156, 10, 124, 159, 124, 34, 156, 124, 159, 38, 144, 141, 144, 34, 123, 141, 123, 2, 144, 123, 141, 41, 159, 161, 159, 34, 144, 161, 144, 38, 159, 144, 161, 10, 132, 127, 132, 36, 136, 127, 136, 35, 132, 136, 127, 36, 131, 134, 131, 7, 77, 134, 77, 23, 131, 77, 134, 35, 129, 126, 129, 23, 76, 126, 76, 6, 129, 76, 126, 36, 134, 136, 134, 23, 129, 136, 129, 35, 134, 129, 136, 7, 73, 89, 73, 22, 91, 89, 91, 27, 73, 91, 89, 22, 72, 80, 72, 1, 78, 80, 78, 24, 72, 78, 80, 27, 93, 90, 93, 24, 79, 90, 79, 8, 93, 79, 90, 22, 80, 91, 80, 24, 93, 91, 93, 27, 80, 93, 91, 3, 99, 49, 99, 29, 101, 49, 101, 15, 99, 101, 49, 29, 100, 107, 100, 9, 104, 107, 104, 30, 100, 104, 107, 15, 105, 50, 105, 30, 103, 50, 103, 4, 105, 103, 50, 29, 107, 101, 107, 30, 105, 101, 105, 15, 107, 105, 101, 3, 49, 45, 49, 15, 51, 45, 51, 13, 49, 51, 45, 15, 50, 52, 50, 4, 47, 52, 47, 14, 50, 47, 52, 13, 48, 44, 48, 14, 46, 44, 46, 2, 48, 46, 44, 15, 52, 51, 52, 14, 48, 51, 48, 13, 52, 48, 51, 3, 45, 65, 45, 13, 67, 65, 67, 20, 45, 67, 65, 13, 44, 64, 44, 2, 62, 64, 62, 19, 44, 62, 64, 20, 68, 66, 68, 19, 63, 66, 63, 6, 68, 63, 66, 13, 64, 67, 64, 19, 68, 67, 68, 20, 64, 68, 67, 3, 65, 81, 65, 20, 83, 81, 83, 25, 65, 83, 81, 20, 66, 86, 66, 6, 84, 86, 84, 26, 66, 84, 86, 25, 88, 82, 88, 26, 85, 82, 85, 8, 88, 85, 82, 20, 86, 83, 86, 26, 88, 83, 88, 25, 86, 88, 83, 3, 81, 99, 81, 25, 102, 99, 102, 29, 81, 102, 99, 25, 82, 117, 82, 8, 114, 117, 114, 32, 82, 114, 117, 29, 119, 100, 119, 32, 115, 100, 115, 9, 119, 115, 100, 25, 117, 102, 117, 32, 119, 102, 119, 29, 117, 119, 102, 4, 103, 60, 103, 30, 106, 60, 106, 18, 103, 106, 60, 30, 104, 113, 104, 9, 109, 113, 109, 31, 104, 109, 113, 18, 111, 61, 111, 31, 108, 61, 108, 5, 111, 108, 61, 30, 113, 106, 113, 31, 111, 106, 111, 18, 113, 111, 106, 2, 46, 141, 46, 14, 143, 141, 143, 38, 46, 143, 141, 14, 47, 147, 47, 4, 145, 147, 145, 39, 47, 145, 147, 38, 149, 142, 149, 39, 146, 142, 146, 11, 149, 146, 142, 14, 147, 143, 147, 39, 149, 143, 149, 38, 147, 149, 143, 6, 63, 126, 63, 19, 128, 126, 128, 35, 63, 128, 126, 19, 62, 125, 62, 2, 123, 125, 123, 34, 62, 123, 125, 35, 130, 127, 130, 34, 124, 127, 124, 10, 130, 124, 127, 19, 125, 128, 125, 34, 130, 128, 130, 35, 125, 130, 128, 8, 85, 90, 85, 26, 94, 90, 94, 27, 85, 94, 90, 26, 84, 87, 84, 6, 76, 87, 76, 23, 84, 76, 87, 27, 92, 89, 92, 23, 77, 89, 77, 7, 92, 77, 89, 26, 87, 94, 87, 23, 92, 94, 92, 27, 87, 92, 94, 9, 115, 96, 115, 32, 118, 96, 118, 28, 115, 118, 96, 32, 114, 116, 114, 8, 79, 116, 79, 24, 114, 79, 116, 28, 98, 95, 98, 24, 78, 95, 78, 1, 98, 78, 95, 32, 116, 118, 116, 24, 98, 118, 98, 28, 116, 98, 118]
        point3f[] points = [(-0.004205849, 0.036805205, -0.105), (0.004205849, 0.036805205, -0.105), (-0.004205849, 0.023194794, -0.105), (0.004205849, 0.023194794, -0.105), (-1.9288188e-17, 0.02579415, -0.09819479), (-1.9288188e-17, 0.03420585, -0.09819479), (-1.9288188e-17, 0.02579415, -0.11180521), (-1.9288188e-17, 0.03420585, -0.11180521), (0.0068052066, 0.03, -0.10920585), (0.0068052066, 0.03, -0.10079415), (-0.0068052066, 0.03, -0.10920585), (-0.0068052066, 0.03, -0.10079415), (-1.9288188e-17, 0.038, -0.105), (-1.9288188e-17, 0.022, -0.105), (-0.002472136, 0.023527864, -0.101), (0.002472136, 0.023527864, -0.101), (-0.002472136, 0.036472134, -0.101), (0.002472136, 0.036472134, -0.101), (-1.9288188e-17, 0.03, -0.097), (-0.002472136, 0.023527864, -0.109), (0.002472136, 0.023527864, -0.109), (-0.002472136, 0.036472134, -0.109), (0.002472136, 0.036472134, -0.109), (-1.9288188e-17, 0.03, -0.113), (0.006472136, 0.034, -0.10747214), (0.006472136, 0.026, -0.10747214), (0.004, 0.027527863, -0.11147214), (0.004, 0.032472137, -0.11147214), (0.006472136, 0.034, -0.102527864), (0.006472136, 0.026, -0.102527864), (0.004, 0.027527863, -0.09852786), (0.004, 0.032472137, -0.09852786), (0.008, 0.03, -0.105), (-0.006472136, 0.034, -0.10747214), (-0.006472136, 0.026, -0.10747214), (-0.004, 0.027527863, -0.11147214), (-0.004, 0.032472137, -0.11147214), (-0.006472136, 0.034, -0.102527864), (-0.006472136, 0.026, -0.102527864), (-0.004, 0.027527863, -0.09852786), (-0.004, 0.032472137, -0.09852786), (-0.008, 0.03, -0.105), (-0.0021861321, 0.03769551, -0.105), (0.0021861321, 0.03769551, -0.105), (-0.0021861321, 0.022304494, -0.105), (0.0021861321, 0.022304494, -0.105), (-0.0034711086, 0.023098651, -0.10292087), (-0.0012849763, 0.024449756, -0.09938363), (-0.0012996788, 0.022391548, -0.10289708), (0.0034711086, 0.023098651, -0.10292087), (0.0012849763, 0.024449756, -0.09938363), (0.0012996788, 0.022391548, -0.10289708), (-1.9288188e-17, 0.023194794, -0.10079415), (-0.0034711086, 0.036901347, -0.10292087), (-0.0012849763, 0.035550244, -0.09938363), (-0.0012996788, 0.037608452, -0.10289708), (0.0034711086, 0.036901347, -0.10292087), (0.0012849763, 0.035550244, -0.09938363), (0.0012996788, 0.037608452, -0.10289708), (-1.9288188e-17, 0.036805205, -0.10079415), (-1.9288188e-17, 0.027813869, -0.09730449), (-1.9288188e-17, 0.032186132, -0.09730449), (-0.0034711086, 0.023098651, -0.10707913), (-0.0012849763, 0.024449756, -0.11061637), (-0.0012996788, 0.022391548, -0.10710292), (0.0034711086, 0.023098651, -0.10707913), (0.0012849763, 0.024449756, -0.11061637), (0.0012996788, 0.022391548, -0.10710292), (-1.9288188e-17, 0.023194794, -0.10920585), (-0.0034711086, 0.036901347, -0.10707913), (-0.0012849763, 0.035550244, -0.11061637), (-0.0012996788, 0.037608452, -0.10710292), (0.0034711086, 0.036901347, -0.10707913), (0.0012849763, 0.035550244, -0.11061637), (0.0012996788, 0.037608452, -0.10710292), (-1.9288188e-17, 0.036805205, -0.10920585), (-1.9288188e-17, 0.027813869, -0.11269551), (-1.9288188e-17, 0.032186132, -0.11269551), (0.005550244, 0.03561637, -0.106284976), (0.006901348, 0.032079134, -0.10847111), (0.004702282, 0.03550553, -0.1084026), (0.005550244, 0.024383629, -0.106284976), (0.006901348, 0.027920865, -0.10847111), (0.004702282, 0.024494473, -0.1084026), (0.0020791353, 0.026528891, -0.11190135), (0.0056163715, 0.028715024, -0.11055025), (0.0034026033, 0.025297718, -0.11050553), (0.0021029245, 0.028700322, -0.112608455), (0.005505528, 0.026597397, -0.10970228), (0.0020791353, 0.033471107, -0.11190135), (0.0056163715, 0.031284977, -0.11055025), (0.0034026033, 0.034702282, -0.11050553), (0.0021029245, 0.03129968, -0.112608455), (0.005505528, 0.033402603, -0.10970228), (0.004205849, 0.03, -0.11180521), (0.005550244, 0.03561637, -0.103715025), (0.006901348, 0.032079134, -0.10152889), (0.004702282, 0.03550553, -0.1015974), (0.0068052066, 0.03420585, -0.105), (0.005550244, 0.024383629, -0.103715025), (0.006901348, 0.027920865, -0.10152889), (0.004702282, 0.024494473, -0.1015974), (0.0068052066, 0.02579415, -0.105), (0.0020791353, 0.026528891, -0.09809865), (0.0056163715, 0.028715024, -0.099449754), (0.0034026033, 0.025297718, -0.09949447), (0.0021029245, 0.028700322, -0.097391546), (0.005505528, 0.026597397, -0.10029772), (0.0020791353, 0.033471107, -0.09809865), (0.0056163715, 0.031284977, -0.099449754), (0.0034026033, 0.034702282, -0.09949447), (0.0021029245, 0.03129968, -0.097391546), (0.005505528, 0.033402603, -0.10029772), (0.004205849, 0.03, -0.09819479), (0.007695507, 0.03, -0.10718613), (0.007695507, 0.03, -0.10281387), (0.0076084523, 0.032102924, -0.106299676), (0.0076084523, 0.027897075, -0.106299676), (0.0076084523, 0.032102924, -0.103700325), (0.0076084523, 0.027897075, -0.103700325), (-0.005550244, 0.03561637, -0.106284976), (-0.006901348, 0.032079134, -0.10847111), (-0.004702282, 0.03550553, -0.1084026), (-0.005550244, 0.024383629, -0.106284976), (-0.006901348, 0.027920865, -0.10847111), (-0.004702282, 0.024494473, -0.1084026), (-0.0020791353, 0.026528891, -0.11190135), (-0.0056163715, 0.028715024, -0.11055025), (-0.0034026033, 0.025297718, -0.11050553), (-0.0021029245, 0.028700322, -0.112608455), (-0.005505528, 0.026597397, -0.10970228), (-0.0020791353, 0.033471107, -0.11190135), (-0.0056163715, 0.031284977, -0.11055025), (-0.0034026033, 0.034702282, -0.11050553), (-0.0021029245, 0.03129968, -0.112608455), (-0.005505528, 0.033402603, -0.10970228), (-0.004205849, 0.03, -0.11180521), (-0.005550244, 0.03561637, -0.103715025), (-0.006901348, 0.032079134, -0.10152889), (-0.004702282, 0.03550553, -0.1015974), (-0.0068052066, 0.03420585, -0.105), (-0.005550244, 0.024383629, -0.103715025), (-0.006901348, 0.027920865, -0.10152889), (-0.004702282, 0.024494473, -0.1015974), (-0.0068052066, 0.02579415, -0.105), (-0.0020791353, 0.026528891, -0.09809865), (-0.0056163715, 0.028715024, -0.099449754), (-0.0034026033, 0.025297718, -0.09949447), (-0.0021029245, 0.028700322, -0.097391546), (-0.005505528, 0.026597397, -0.10029772), (-0.0020791353, 0.033471107, -0.09809865), (-0.0056163715, 0.031284977, -0.099449754), (-0.0034026033, 0.034702282, -0.09949447), (-0.0021029245, 0.03129968, -0.097391546), (-0.005505528, 0.033402603, -0.10029772), (-0.004205849, 0.03, -0.09819479), (-0.007695507, 0.03, -0.10718613), (-0.007695507, 0.03, -0.10281387), (-0.0076084523, 0.032102924, -0.106299676), (-0.0076084523, 0.027897075, -0.106299676), (-0.0076084523, 0.032102924, -0.103700325), (-0.0076084523, 0.027897075, -0.103700325)]
    }
}

