#usda 1.0
(
    defaultPrim = "NeisRoom"
    upAxis = "Y"
)

def Xform "NeisRoom"
{
    def Mesh "floor"
    {
        int[] faceVertexCounts = [3, 3, 3, 3, 3, 3, 3, 3, 3, 3, 3, 3]
        int[] faceVertexIndices = [1, 3, 0, 4, 1, 0, 0, 3, 2, 2, 4, 0, 1, 7, 3, 5, 1, 4, 5, 7, 1, 3, 7, 2, 6, 4, 2, 2, 7, 6, 6, 5, 4, 7, 5, 6]
        point3f[] points = [(0, -0.01, 0), (0, -0.01, 4.5), (0, 0.01, 0), (0, 0.01, 4.5), (4, -0.01, 0), (4, -0.01, 4.5), (4, 0.01, 0), (4, 0.01, 4.5)]
    }

    def Mesh "ceiling"
    {
        int[] faceVertexCounts = [3, 3, 3, 3, 3, 3, 3, 3, 3, 3, 3, 3]
        int[] faceVertexIndices = [1, 3, 0, 4, 1, 0, 0, 3, 2, 2, 4, 0, 1, 7, 3, 5, 1, 4, 5, 7, 1, 3, 7, 2, 6, 4, 2, 2, 7, 6, 6, 5, 4, 7, 5, 6]
        point3f[] points = [(0, 2.49, 0), (0, 2.49, 4.5), (0, 2.51, 0), (0, 2.51, 4.5), (4, 2.49, 0), (4, 2.49, 4.5), (4, 2.51, 0), (4, 2.51, 4.5)]
    }

    def Mesh "wall_n"
    {
        int[] faceVertexCounts = [3, 3, 3, 3, 3, 3, 3, 3, 3, 3, 3, 3]
        int[] faceVertexIndices = [1, 3, 0, 4, 1, 0, 0, 3, 2, 2, 4, 0, 1, 7, 3, 5, 1, 4, 5, 7, 1, 3, 7, 2, 6, 4, 2, 2, 7, 6, 6, 5, 4, 7, 5, 6]
        point3f[] points = [(0, 0, -0.025), (0, 0, 0.025), (0, 2.5, -0.025), (0, 2.5, 0.025), (4, 0, -0.025), (4, 0, 0.025), (4, 2.5, -0.025), (4, 2.5, 0.025)]
    }

    def Mesh "wall_s"
    {
        int[] faceVertexCounts = [3, 3, 3, 3, 3, 3, 3, 3, 3, 3, 3, 3]
        int[] faceVertexIndices = [1, 3, 0, 4, 1, 0, 0, 3, 2, 2, 4, 0, 1, 7, 3, 5, 1, 4, 5, 7, 1, 3, 7, 2, 6, 4, 2, 2, 7, 6, 6, 5, 4, 7, 5, 6]
        point3f[] points = [(0, 0, 4.475), (0, 0, 4.525), (0, 2.5, 4.475), (0, 2.5, 4.525), (4, 0, 4.475), (4, 0, 4.525), (4, 2.5, 4.475), (4, 2.5, 4.525)]
    }

    def Mesh "wall_e"
    {
        int[] faceVertexCounts = [3, 3, 3, 3, 3, 3, 3, 3, 3, 3, 3, 3]
        int[] faceVertexIndices = [1, 3, 0, 4, 1, 0, 0, 3, 2, 2, 4, 0, 1, 7, 3, 5, 1, 4, 5, 7, 1, 3, 7, 2, 6, 4, 2, 2, 7, 6, 6, 5, 4, 7, 5, 6]
        point3f[] points = [(3.975, 0, 0), (3.975, 0, 4.5), (3.975, 2.5, 0), (3.975, 2.5, 4.5), (4.025, 0, 0), (4.025, 0, 4.5), (4.025, 2.5, 0), (4.025, 2.5, 4.5)]
    }

    def Mesh "wall_w"
    {
        int[] faceVertexCounts = [3, 3, 3, 3, 3, 3, 3, 3, 3, 3, 3, 3]
        int[] faceVertexIndices = [1, 3, 0, 4, 1, 0, 0, 3, 2, 2, 4, 0, 1, 7, 3, 5, 1, 4, 5, 7, 1, 3, 7, 2, 6, 4, 2, 2, 7, 6, 6, 5, 4, 7, 5, 6]
        point3f[] points = [(-0.025, 0, 0), (-0.025, 0, 4.5), (-0.025, 2.5, 0), (-0.025, 2.5, 4.5), (0.025, 0, 0), (0.025, 0, 4.5), (0.025, 2.5, 0), (0.025, 2.5, 4.5)]
    }

    def Mesh "window_frame"
    {
        int[] faceVertexCounts = [3, 3, 3, 3, 3, 3, 3, 3, 3, 3, 3, 3]
        int[] faceVertexIndices = [1, 3, 0, 4, 1, 0, 0, 3, 2, 2, 4, 0, 1, 7, 3, 5, 1, 4, 5, 7, 1, 3, 7, 2, 6, 4, 2, 2, 7, 6, 6, 5, 4, 7, 5, 6]
        point3f[] points = [(1.2, 0.85, 0.02), (1.2, 0.85, 0.06), (1.2, 2.35, 0.02), (1.2, 2.35, 0.06), (2.8, 0.85, 0.02), (2.8, 0.85, 0.06), (2.8, 2.35, 0.02), (2.8, 2.35, 0.06)]
    }

    def Mesh "window_pane"
    {
        int[] faceVertexCounts = [3, 3, 3, 3, 3, 3, 3, 3, 3, 3, 3, 3]
        int[] faceVertexIndices = [1, 3, 0, 4, 1, 0, 0, 3, 2, 2, 4, 0, 1, 7, 3, 5, 1, 4, 5, 7, 1, 3, 7, 2, 6, 4, 2, 2, 7, 6, 6, 5, 4, 7, 5, 6]
        point3f[] points = [(1.3, 0.95, 0.055), (1.3, 0.95, 0.065), (1.3, 2.25, 0.055), (1.3, 2.25, 0.065), (2.7, 0.95, 0.055), (2.7, 0.95, 0.065), (2.7, 2.25, 0.055), (2.7, 2.25, 0.065)]
    }

    def Mesh "curtain_l"
    {
        int[] faceVertexCounts = [3, 3, 3, 3, 3, 3, 3, 3, 3, 3, 3, 3]
        int[] faceVertexIndices = [1, 3, 0, 4, 1, 0, 0, 3, 2, 2, 4, 0, 1, 7, 3, 5, 1, 4, 5, 7, 1, 3, 7, 2, 6, 4, 2, 2, 7, 6, 6, 5, 4, 7, 5, 6]
        point3f[] points = [(1.05, 0.7, 0.08), (1.05, 0.7, 0.12), (1.05, 2.5, 0.08), (1.05, 2.5, 0.12), (1.25, 0.7, 0.08), (1.25, 0.7, 0.12), (1.25, 2.5, 0.08), (1.25, 2.5, 0.12)]
    }

    def Mesh "curtain_r"
    {
        int[] faceVertexCounts = [3, 3, 3, 3, 3, 3, 3, 3, 3, 3, 3, 3]
        int[] faceVertexIndices = [1, 3, 0, 4, 1, 0, 0, 3, 2, 2, 4, 0, 1, 7, 3, 5, 1, 4, 5, 7, 1, 3, 7, 2, 6, 4, 2, 2, 7, 6, 6, 5, 4, 7, 5, 6]
        point3f[] points = [(2.75, 0.7, 0.08), (2.75, 0.7, 0.12), (2.75, 2.5, 0.08), (2.75, 2.5, 0.12), (2.95, 0.7, 0.08), (2.95, 0.7, 0.12), (2.95, 2.5, 0.08), (2.95, 2.5, 0.12)]
    }

    def Mesh "bed"
    {
        int[] faceVertexCounts = [3, 3, 3, 3, 3, 3, 3, 3, 3, 3, 3, 3]
        int[] faceVertexIndices = [1, 3, 0, 4, 1, 0, 0, 3, 2, 2, 4, 0, 1, 7, 3, 5, 1, 4, 5, 7, 1, 3, 7, 2, 6, 4, 2, 2, 7, 6, 6, 5, 4, 7, 5, 6]
        point3f[] points = [(0.15, 0.03, 0.5), (0.15, 0.03, 2.5), (0.15, 0.33, 0.5), (0.15, 0.33, 2.5), (1.15, 0.03, 0.5), (1.15, 0.03, 2.5), (1.15, 0.33, 0.5), (1.15, 0.33, 2.5)]
    }

    def Mesh "mattress"
    {
        int[] faceVertexCounts = [3, 3, 3, 3, 3, 3, 3, 3, 3, 3, 3, 3]
        int[] faceVertexIndices = [1, 3, 0, 4, 1, 0, 0, 3, 2, 2, 4, 0, 1, 7, 3, 5, 1, 4, 5, 7, 1, 3, 7, 2, 6, 4, 2, 2, 7, 6, 6, 5, 4, 7, 5, 6]
        point3f[] points = [(0.175, 0.33, 0.525), (0.175, 0.33, 2.475), (0.175, 0.43, 0.525), (0.175, 0.43, 2.475), (1.125, 0.33, 0.525), (1.125, 0.33, 2.475), (1.125, 0.43, 0.525), (1.125, 0.43, 2.475)]
    }

    def Mesh "blanket"
    {
        int[] faceVertexCounts = [3, 3, 3, 3, 3, 3, 3, 3, 3, 3, 3, 3]
        int[] faceVertexIndices = [1, 3, 0, 4, 1, 0, 0, 3, 2, 2, 4, 0, 1, 7, 3, 5, 1, 4, 5, 7, 1, 3, 7, 2, 6, 4, 2, 2, 7, 6, 6, 5, 4, 7, 5, 6]
        point3f[] points = [(0.175, 0.42, 0.65), (0.175, 0.42, 2.15), (0.175, 0.48, 0.65), (0.175, 0.48, 2.15), (1.125, 0.42, 0.65), (1.125, 0.42, 2.15), (1.125, 0.48, 0.65), (1.125, 0.48, 2.15)]
    }

    def Mesh "pillow"
    {
        int[] faceVertexCounts = [3, 3, 3, 3, 3, 3, 3, 3, 3, 3, 3, 3]
        int[] faceVertexIndices = [1, 3, 0, 4, 1, 0, 0, 3, 2, 2, 4, 0, 1, 7, 3, 5, 1, 4, 5, 7, 1, 3, 7, 2, 6, 4, 2, 2, 7, 6, 6, 5, 4, 7, 5, 6]
        point3f[] points = [(0.4, 0.45, 2.15), (0.4, 0.45, 2.45), (0.4, 0.55, 2.15), (0.4, 0.55, 2.45), (0.9, 0.45, 2.15), (0.9, 0.45, 2.45), (0.9, 0.55, 2.15), (0.9, 0.55, 2.45)]
    }

    def Mesh "desk_top"
    {
        int[] faceVertexCounts = [3, 3, 3, 3, 3, 3, 3, 3, 3, 3, 3, 3]
        int[] faceVertexIndices = [1, 3, 0, 4, 1, 0, 0, 3, 2, 2, 4, 0, 1, 7, 3, 5, 1, 4, 5, 7, 1, 3, 7, 2, 6, 4, 2, 2, 7, 6, 6, 5, 4, 7, 5, 6]
        point3f[] points = [(2.2, 0.76, 0.325), (2.2, 0.76, 0.875), (2.2, 0.8, 0.325), (2.2, 0.8, 0.875), (3.4, 0.76, 0.325), (3.4, 0.76, 0.875), (3.4, 0.8, 0.325), (3.4, 0.8, 0.875)]
    }

    def Mesh "desk_leg_0"
    {
        int[] faceVertexCounts = [3, 3, 3, 3, 3, 3, 3, 3, 3, 3, 3, 3]
        int[] faceVertexIndices = [1, 3, 0, 4, 1, 0, 0, 3, 2, 2, 4, 0, 1, 7, 3, 5, 1, 4, 5, 7, 1, 3, 7, 2, 6, 4, 2, 2, 7, 6, 6, 5, 4, 7, 5, 6]
        point3f[] points = [(2.2, 0, 0.32), (2.2, 0, 0.36), (2.2, 0.78, 0.32), (2.2, 0.78, 0.36), (2.24, 0, 0.32), (2.24, 0, 0.36), (2.24, 0.78, 0.32), (2.24, 0.78, 0.36)]
    }

    def Mesh "desk_leg_1"
    {
        int[] faceVertexCounts = [3, 3, 3, 3, 3, 3, 3, 3, 3, 3, 3, 3]
        int[] faceVertexIndices = [1, 3, 0, 4, 1, 0, 0, 3, 2, 2, 4, 0, 1, 7, 3, 5, 1, 4, 5, 7, 1, 3, 7, 2, 6, 4, 2, 2, 7, 6, 6, 5, 4, 7, 5, 6]
        point3f[] points = [(2.2, 0, 0.84), (2.2, 0, 0.88), (2.2, 0.78, 0.84), (2.2, 0.78, 0.88), (2.24, 0, 0.84), (2.24, 0, 0.88), (2.24, 0.78, 0.84), (2.24, 0.78, 0.88)]
    }

    def Mesh "desk_leg_2"
    {
        int[] faceVertexCounts = [3, 3, 3, 3, 3, 3, 3, 3, 3, 3, 3, 3]
        int[] faceVertexIndices = [1, 3, 0, 4, 1, 0, 0, 3, 2, 2, 4, 0, 1, 7, 3, 5, 1, 4, 5, 7, 1, 3, 7, 2, 6, 4, 2, 2, 7, 6, 6, 5, 4, 7, 5, 6]
        point3f[] points = [(3.36, 0, 0.32), (3.36, 0, 0.36), (3.36, 0.78, 0.32), (3.36, 0.78, 0.36), (3.4, 0, 0.32), (3.4, 0, 0.36), (3.4, 0.78, 0.32), (3.4, 0.78, 0.36)]
    }

    def Mesh "desk_leg_3"
    {
        int[] faceVertexCounts = [3, 3, 3, 3, 3, 3, 3, 3, 3, 3, 3, 3]
        int[] faceVertexIndices = [1, 3, 0, 4, 1, 0, 0, 3, 2, 2, 4, 0, 1, 7, 3, 5, 1, 4, 5, 7, 1, 3, 7, 2, 6, 4, 2, 2, 7, 6, 6, 5, 4, 7, 5, 6]
        point3f[] points = [(3.36, 0, 0.84), (3.36, 0, 0.88), (3.36, 0.78, 0.84), (3.36, 0.78, 0.88), (3.4, 0, 0.84), (3.4, 0, 0.88), (3.4, 0.78, 0.84), (3.4, 0.78, 0.88)]
    }

    def Mesh "chair_seat"
    {
        int[] faceVertexCounts = [3, 3, 3, 3, 3, 3, 3, 3, 3, 3, 3, 3]
        int[] faceVertexIndices = [1, 3, 0, 4, 1, 0, 0, 3, 2, 2, 4, 0, 1, 7, 3, 5, 1, 4, 5, 7, 1, 3, 7, 2, 6, 4, 2, 2, 7, 6, 6, 5, 4, 7, 5, 6]
        point3f[] points = [(2.6, 0.4, 0.9), (2.6, 0.4, 1.3), (2.6, 0.44, 0.9), (2.6, 0.44, 1.3), (3, 0.4, 0.9), (3, 0.4, 1.3), (3, 0.44, 0.9), (3, 0.44, 1.3)]
    }

    def Mesh "chair_back"
    {
        int[] faceVertexCounts = [3, 3, 3, 3, 3, 3, 3, 3, 3, 3, 3, 3]
        int[] faceVertexIndices = [1, 3, 0, 4, 1, 0, 0, 3, 2, 2, 4, 0, 1, 7, 3, 5, 1, 4, 5, 7, 1, 3, 7, 2, 6, 4, 2, 2, 7, 6, 6, 5, 4, 7, 5, 6]
        point3f[] points = [(2.6, 0.42, 1.28), (2.6, 0.42, 1.32), (2.6, 0.92, 1.28), (2.6, 0.92, 1.32), (3, 0.42, 1.28), (3, 0.42, 1.32), (3, 0.92, 1.28), (3, 0.92, 1.32)]
    }

    def Mesh "vanity_top"
    {
        int[] faceVertexCounts = [3, 3, 3, 3, 3, 3, 3, 3, 3, 3, 3, 3]
        int[] faceVertexIndices = [1, 3, 0, 4, 1, 0, 0, 3, 2, 2, 4, 0, 1, 7, 3, 5, 1, 4, 5, 7, 1, 3, 7, 2, 6, 4, 2, 2, 7, 6, 6, 5, 4, 7, 5, 6]
        point3f[] points = [(3.1, 0.735, 2.3), (3.1, 0.735, 2.7), (3.1, 0.765, 2.3), (3.1, 0.765, 2.7), (3.9, 0.735, 2.3), (3.9, 0.735, 2.7), (3.9, 0.765, 2.3), (3.9, 0.765, 2.7)]
    }

    def Mesh "mirror"
    {
        int[] faceVertexCounts = [3, 3, 3, 3, 3, 3, 3, 3, 3, 3, 3, 3]
        int[] faceVertexIndices = [1, 3, 0, 4, 1, 0, 0, 3, 2, 2, 4, 0, 1, 7, 3, 5, 1, 4, 5, 7, 1, 3, 7, 2, 6, 4, 2, 2, 7, 6, 6, 5, 4, 7, 5, 6]
        point3f[] points = [(3.15, 0.9, 2.69), (3.15, 0.9, 2.71), (3.15, 1.7, 2.69), (3.15, 1.7, 2.71), (3.85, 0.9, 2.69), (3.85, 0.9, 2.71), (3.85, 1.7, 2.69), (3.85, 1.7, 2.71)]
    }

    def Mesh "jewelry_box"
    {
        int[] faceVertexCounts = [3, 3, 3, 3, 3, 3, 3, 3, 3, 3, 3, 3, 3, 3, 3, 3, 3, 3, 3, 3, 3, 3, 3, 3, 3, 3, 3, 3, 3, 3, 3, 3, 3, 3, 3, 3, 3, 3, 3, 3, 3, 3, 3, 3, 3, 3, 3, 3, 3, 3, 3, 3, 3, 3, 3, 3, 3, 3, 3, 3, 3, 3, 3, 3, 3, 3, 3, 3, 3, 3, 3, 3, 3, 3, 3, 3, 3, 3, 3, 3, 3, 3, 3, 3, 3, 3, 3, 3, 3, 3, 3, 3, 3, 3, 3, 3, 3, 3, 3, 3, 3, 3, 3, 3, 3, 3, 3, 3, 3, 3, 3, 3, 3, 3, 3, 3, 3, 3, 3, 3, 3, 3, 3, 3, 3, 3, 3, 3, 3, 3, 3, 3, 3, 3, 3, 3, 3, 3, 3, 3, 3, 3, 3, 3, 3, 3, 3, 3, 3, 3, 3, 3, 3, 3, 3, 3, 3, 3, 3, 3, 3, 3, 3, 3, 3, 3, 3, 3, 3, 3, 3, 3, 3, 3, 3, 3, 3, 3, 3, 3, 3, 3, 3, 3, 3, 3, 3, 3, 3, 3, 3, 3, 3, 3, 3, 3, 3, 3, 3, 3, 3, 3, 3, 3, 3, 3, 3, 3, 3, 3, 3, 3, 3, 3, 3, 3, 3, 3, 3, 3, 3, 3, 3, 3, 3, 3, 3, 3, 3, 3, 3, 3, 3, 3, 3, 3, 3, 3, 3, 3, 3, 3, 3, 3, 3, 3, 3, 3, 3, 3, 3, 3, 3, 3, 3, 3, 3, 3, 3, 3, 3, 3, 3, 3, 3, 3, 3, 3, 3, 3, 3, 3, 3, 3, 3, 3, 3, 3, 3, 3, 3, 3, 3, 3, 3, 3, 3, 3, 3, 3, 3, 3, 3, 3, 3, 3, 3, 3, 3, 3, 3, 3, 3, 3, 3, 3, 3, 3, 3, 3, 3, 3, 3, 3, 3, 3, 3, 3, 3, 3]
        int[] faceVertexIndices = [0, 137, 53, 137, 37, 139, 53, 139, 16, 137, 139, 53, 37, 138, 154, 138, 11, 151, 154, 151, 40, 138, 151, 154, 16, 152, 54, 152, 40, 150, 54, 150, 5, 152, 150, 54, 37, 154, 139, 154, 40, 152, 139, 152, 16, 154, 152, 139, 0, 53, 42, 53, 16, 55, 42, 55, 12, 53, 55, 42, 16, 54, 59, 54, 5, 57, 59, 57, 17, 54, 57, 59, 12, 58, 43, 58, 17, 56, 43, 56, 1, 58, 56, 43, 16, 59, 55, 59, 17, 58, 55, 58, 12, 59, 58, 55, 0, 42, 69, 42, 12, 71, 69, 71, 21, 42, 71, 69, 12, 43, 74, 43, 1, 72, 74, 72, 22, 43, 72, 74, 21, 75, 70, 75, 22, 73, 70, 73, 7, 75, 73, 70, 12, 74, 71, 74, 22, 75, 71, 75, 21, 74, 75, 71, 0, 69, 120, 69, 21, 122, 120, 122, 33, 69, 122, 120, 21, 70, 133, 70, 7, 131, 133, 131, 36, 70, 131, 133, 33, 135, 121, 135, 36, 132, 121, 132, 10, 135, 132, 121, 21, 133, 122, 133, 36, 135, 122, 135, 33, 133, 135, 122, 0, 120, 137, 120, 33, 140, 137, 140, 37, 120, 140, 137, 33, 121, 158, 121, 10, 156, 158, 156, 41, 121, 156, 158, 37, 160, 138, 160, 41, 157, 138, 157, 11, 160, 157, 138, 33, 158, 140, 158, 41, 160, 140, 160, 37, 158, 160, 140, 1, 56, 95, 56, 17, 97, 95, 97, 28, 56, 97, 95, 17, 57, 110, 57, 5, 108, 110, 108, 31, 57, 108, 110, 28, 112, 96, 112, 31, 109, 96, 109, 9, 112, 109, 96, 17, 110, 97, 110, 31, 112, 97, 112, 28, 110, 112, 97, 5, 150, 61, 150, 40, 153, 61, 153, 18, 150, 153, 61, 40, 151, 155, 151, 11, 146, 155, 146, 39, 151, 146, 155, 18, 148, 60, 148, 39, 145, 60, 145, 4, 148, 145, 60, 40, 155, 153, 155, 39, 148, 153, 148, 18, 155, 148, 153, 11, 157, 142, 157, 41, 161, 142, 161, 38, 157, 161, 142, 41, 156, 159, 156, 10, 124, 159, 124, 34, 156, 124, 159, 38, 144, 141, 144, 34, 123, 141, 123, 2, 144, 123, 141, 41, 159, 161, 159, 34, 144, 161, 144, 38, 159, 144, 161, 10, 132, 127, 132, 36, 136, 127, 136, 35, 132, 136, 127, 36, 131, 134, 131, 7, 77, 134, 77, 23, 131, 77, 134, 35, 129, 126, 129, 23, 76, 126, 76, 6, 129, 76, 126, 36, 134, 136, 134, 23, 129, 136, 129, 35, 134, 129, 136, 7, 73, 89, 73, 22, 91, 89, 91, 27, 73, 91, 89, 22, 72, 80, 72, 1, 78, 80, 78, 24, 72, 78, 80, 27, 93, 90, 93, 24, 79, 90, 79, 8, 93, 79, 90, 22, 80, 91, 80, 24, 93, 91, 93, 27, 80, 93, 91, 3, 99, 49, 99, 29, 101, 49, 101, 15, 99, 101, 49, 29, 100, 107, 100, 9, 104, 107, 104, 30, 100, 104, 107, 15, 105, 50, 105, 30, 103, 50, 103, 4, 105, 103, 50, 29, 107, 101, 107, 30, 105, 101, 105, 15, 107, 105, 101, 3, 49, 45, 49, 15, 51, 45, 51, 13, 49, 51, 45, 15, 50, 52, 50, 4, 47, 52, 47, 14, 50, 47, 52, 13, 48, 44, 48, 14, 46, 44, 46, 2, 48, 46, 44, 15, 52, 51, 52, 14, 48, 51, 48, 13, 52, 48, 51, 3, 45, 65, 45, 13, 67, 65, 67, 20, 45, 67, 65, 13, 44, 64, 44, 2, 62, 64, 62, 19, 44, 62, 64, 20, 68, 66, 68, 19, 63, 66, 63, 6, 68, 63, 66, 13, 64, 67, 64, 19, 68, 67, 68, 20, 64, 68, 67, 3, 65, 81, 65, 20, 83, 81, 83, 25, 65, 83, 81, 20, 66, 86, 66, 6, 84, 86, 84, 26, 66, 84, 86, 25, 88, 82, 88, 26, 85, 82, 85, 8, 88, 85, 82, 20, 86, 83, 86, 26, 88, 83, 88, 25, 86, 88, 83, 3, 81, 99, 81, 25, 102, 99, 102, 29, 81, 102, 99, 25, 82, 117, 82, 8, 114, 117, 114, 32, 82, 114, 117, 29, 119, 100, 119, 32, 115, 100, 115, 9, 119, 115, 100, 25, 117, 102, 117, 32, 119, 102, 119, 29, 117, 119, 102, 4, 103, 60, 103, 30, 106, 60, 106, 18, 103, 106, 60, 30, 104, 113, 104, 9, 109, 113, 109, 31, 104, 109, 113, 18, 111, 61, 111, 31, 108, 61, 108, 5, 111, 108, 61, 30, 113, 106, 113, 31, 111, 106, 111, 18, 113, 111, 106, 2, 46, 141, 46, 14, 143, 141, 143, 38, 46, 143, 141, 14, 47, 147, 47, 4, 145, 147, 145, 39, 47, 145, 147, 38, 149, 142, 149, 39, 146, 142, 146, 11, 149, 146, 142, 14, 147, 143, 147, 39, 149, 143, 149, 38, 147, 149, 143, 6, 63, 126, 63, 19, 128, 126, 128, 35, 63, 128, 126, 19, 62, 125, 62, 2, 123, 125, 123, 34, 62, 123, 125, 35, 130, 127, 130, 34, 124, 127, 124, 10, 130, 124, 127, 19, 125, 128, 125, 34, 130, 128, 130, 35, 125, 130, 128, 8, 85, 90, 85, 26, 94, 90, 94, 27, 85, 94, 90, 26, 84, 87, 84, 6, 76, 87, 76, 23, 84, 76, 87, 27, 92, 89, 92, 23, 77, 89, 77, 7, 92, 77, 89, 26, 87, 94, 87, 23, 92, 94, 92, 27, 87, 92, 94, 9, 115, 96, 115, 32, 118, 96, 118, 28, 115, 118, 96, 32, 114, 116, 114, 8, 79, 116, 79, 24, 114, 79, 116, 28, 98, 95, 98, 24, 78, 95, 78, 1, 98, 78, 95, 32, 116, 118, 116, 24, 98, 118, 98, 28, 116, 98, 118]
        point3f[] points = [(3.2684562, 0.85103905, 2.45), (3.331544, 0.85103905, 2.45), (3.2684562, 0.748961, 2.45), (3.331544, 0.748961, 2.45), (3.3, 0.76845616, 2.501039), (3.3, 0.83154386, 2.501039), (3.3, 0.76845616, 2.398961), (3.3, 0.83154386, 2.398961), (3.351039, 0.8, 2.418456), (3.351039, 0.8, 2.4815438), (3.248961, 0.8, 2.418456), (3.248961, 0.8, 2.4815438), (3.3, 0.86, 2.45), (3.3, 0.74, 2.45), (3.281459, 0.751459, 2.48), (3.318541, 0.751459, 2.48), (3.281459, 0.848541, 2.48), (3.318541, 0.848541, 2.48), (3.3, 0.8, 2.51), (3.281459, 0.751459, 2.42), (3.318541, 0.751459, 2.42), (3.281459, 0.848541, 2.42), (3.318541, 0.848541, 2.42), (3.3, 0.8, 2.39), (3.348541, 0.83, 2.431459), (3.348541, 0.77, 2.431459), (3.33, 0.781459, 2.401459), (3.33, 0.818541, 2.401459), (3.348541, 0.83, 2.468541), (3.348541, 0.77, 2.468541), (3.33, 0.781459, 2.498541), (3.33, 0.818541, 2.498541), (3.36, 0.8, 2.45), (3.251459, 0.83, 2.431459), (3.251459, 0.77, 2.431459), (3.27, 0.781459, 2.401459), (3.27, 0.818541, 2.401459), (3.251459, 0.83, 2.468541), (3.251459, 0.77, 2.468541), (3.27, 0.781459, 2.498541), (3.27, 0.818541, 2.498541), (3.24, 0.8, 2.45), (3.283604, 0.8577163, 2.45), (3.316396, 0.8577163, 2.45), (3.283604, 0.7422837, 2.45), (3.316396, 0.7422837, 2.45), (3.2739668, 0.7482399, 2.4655936), (3.2903626, 0.7583732, 2.492123), (3.2902524, 0.7429366, 2.465772), (3.3260334, 0.7482399, 2.4655936), (3.3096373, 0.7583732, 2.492123), (3.3097477, 0.7429366, 2.465772), (3.3, 0.748961, 2.4815438), (3.2739668, 0.8517601, 2.4655936), (3.2903626, 0.8416268, 2.492123), (3.2902524, 0.8570634, 2.465772), (3.3260334, 0.8517601, 2.4655936), (3.3096373, 0.8416268, 2.492123), (3.3097477, 0.8570634, 2.465772), (3.3, 0.85103905, 2.4815438), (3.3, 0.783604, 2.5077164), (3.3, 0.816396, 2.5077164), (3.2739668, 0.7482399, 2.4344065), (3.2903626, 0.7583732, 2.4078772), (3.2902524, 0.7429366, 2.4342282), (3.3260334, 0.7482399, 2.4344065), (3.3096373, 0.7583732, 2.4078772), (3.3097477, 0.7429366, 2.4342282), (3.3, 0.748961, 2.418456), (3.2739668, 0.8517601, 2.4344065), (3.2903626, 0.8416268, 2.4078772), (3.2902524, 0.8570634, 2.4342282), (3.3260334, 0.8517601, 2.4344065), (3.3096373, 0.8416268, 2.4078772), (3.3097477, 0.8570634, 2.4342282), (3.3, 0.85103905, 2.418456), (3.3, 0.783604, 2.3922837), (3.3, 0.816396, 2.3922837), (3.341627, 0.8421228, 2.4403627), (3.3517601, 0.81559354, 2.4239666), (3.335267, 0.8412915, 2.4244804), (3.341627, 0.75787723, 2.4403627), (3.3517601, 0.7844065, 2.4239666), (3.335267, 0.75870854, 2.4244804), (3.3155935, 0.77396667, 2.3982399), (3.3421228, 0.79036266, 2.408373), (3.3255196, 0.7647329, 2.4087086), (3.3157718, 0.7902524, 2.3929367), (3.3412914, 0.77448046, 2.414733), (3.3155935, 0.8260333, 2.3982399), (3.3421228, 0.8096373, 2.408373), (3.3255196, 0.8352671, 2.4087086), (3.3157718, 0.8097476, 2.3929367), (3.3412914, 0.8255195, 2.414733), (3.331544, 0.8, 2.398961), (3.341627, 0.8421228, 2.4596374), (3.3517601, 0.81559354, 2.4760332), (3.335267, 0.8412915, 2.4755194), (3.351039, 0.83154386, 2.45), (3.341627, 0.75787723, 2.4596374), (3.3517601, 0.7844065, 2.4760332), (3.335267, 0.75870854, 2.4755194), (3.351039, 0.76845616, 2.45), (3.3155935, 0.77396667, 2.50176), (3.3421228, 0.79036266, 2.4916267), (3.3255196, 0.7647329, 2.4912915), (3.3157718, 0.7902524, 2.5070634), (3.3412914, 0.77448046, 2.4852672), (3.3155935, 0.8260333, 2.50176), (3.3421228, 0.8096373, 2.4916267), (3.3255196, 0.8352671, 2.4912915), (3.3157718, 0.8097476, 2.5070634), (3.3412914, 0.8255195, 2.4852672), (3.331544, 0.8, 2.501039), (3.3577163, 0.8, 2.433604), (3.3577163, 0.8, 2.466396), (3.3570633, 0.81577194, 2.4402523), (3.3570633, 0.7842281, 2.4402523), (3.3570633, 0.81577194, 2.4597476), (3.3570633, 0.7842281, 2.4597476), (3.2583733, 0.8421228, 2.4403627), (3.24824, 0.81559354, 2.4239666), (3.2647328, 0.8412915, 2.4244804), (3.2583733, 0.75787723, 2.4403627), (3.24824, 0.7844065, 2.4239666), (3.2647328, 0.75870854, 2.4244804), (3.2844064, 0.77396667, 2.3982399), (3.257877, 0.79036266, 2.408373), (3.2744806, 0.7647329, 2.4087086), (3.284228, 0.7902524, 2.3929367), (3.2587085, 0.77448046, 2.414733), (3.2844064, 0.8260333, 2.3982399), (3.257877, 0.8096373, 2.408373), (3.2744806, 0.8352671, 2.4087086), (3.284228, 0.8097476, 2.3929367), (3.2587085, 0.8255195, 2.414733), (3.2684562, 0.8, 2.398961), (3.2583733, 0.8421228, 2.4596374), (3.24824, 0.81559354, 2.4760332), (3.2647328, 0.8412915, 2.4755194), (3.248961, 0.83154386, 2.45), (3.2583733, 0.75787723, 2.4596374), (3.24824, 0.7844065, 2.4760332), (3.2647328, 0.75870854, 2.4755194), (3.248961, 0.76845616, 2.45), (3.2844064, 0.77396667, 2.50176), (3.257877, 0.79036266, 2.4916267), (3.2744806, 0.7647329, 2.4912915), (3.284228, 0.7902524, 2.5070634), (3.2587085, 0.77448046, 2.4852672), (3.2844064, 0.8260333, 2.50176), (3.257877, 0.8096373, 2.4916267), (3.2744806, 0.8352671, 2.4912915), (3.284228, 0.8097476, 2.5070634), (3.2587085, 0.8255195, 2.4852672), (3.2684562, 0.8, 2.501039), (3.2422836, 0.8, 2.433604), (3.2422836, 0.8, 2.466396), (3.2429366, 0.81577194, 2.4402523), (3.2429366, 0.7842281, 2.4402523), (3.2429366, 0.81577194, 2.4597476), (3.2429366, 0.7842281, 2.4597476)]
    }

    def Mesh "wardrobe"
    {
        int[] faceVertexCounts = [3, 3, 3, 3, 3, 3, 3, 3, 3, 3, 3, 3]
        int[] faceVertexIndices = [1, 3, 0, 4, 1, 0, 0, 3, 2, 2, 4, 0, 1, 7, 3, 5, 1, 4, 5, 7, 1, 3, 7, 2, 6, 4, 2, 2, 7, 6, 6, 5, 4, 7, 5, 6]
        point3f[] points = [(-0.35, 0, 3.25), (-0.35, 0, 3.75), (-0.35, 2.1, 3.25), (-0.35, 2.1, 3.75), (1.05, 0, 3.25), (1.05, 0, 3.75), (1.05, 2.1, 3.25), (1.05, 2.1, 3.75)]
    }

    def Mesh "wardrobe_door_l"
    {
        int[] faceVertexCounts = [3, 3, 3, 3, 3, 3, 3, 3, 3, 3, 3, 3]
        int[] faceVertexIndices = [1, 3, 0, 4, 1, 0, 0, 3, 2, 2, 4, 0, 1, 7, 3, 5, 1, 4, 5, 7, 1, 3, 7, 2, 6, 4, 2, 2, 7, 6, 6, 5, 4, 7, 5, 6]
        point3f[] points = [(-0.24, 0.005, 3.235), (-0.24, 0.005, 3.265), (-0.24, 1.955, 3.235), (-0.24, 1.955, 3.265), (0.44, 0.005, 3.235), (0.44, 0.005, 3.265), (0.44, 1.955, 3.235), (0.44, 1.955, 3.265)]
    }

    def Mesh "wardrobe_door_r"
    {
        int[] faceVertexCounts = [3, 3, 3, 3, 3, 3, 3, 3, 3, 3, 3, 3]
        int[] faceVertexIndices = [1, 3, 0, 4, 1, 0, 0, 3, 2, 2, 4, 0, 1, 7, 3, 5, 1, 4, 5, 7, 1, 3, 7, 2, 6, 4, 2, 2, 7, 6, 6, 5, 4, 7, 5, 6]
        point3f[] points = [(-0.24, 0.005, 3.735), (-0.24, 0.005, 3.765), (-0.24, 1.955, 3.735), (-0.24, 1.955, 3.765), (0.44, 0.005, 3.735), (0.44, 0.005, 3.765), (0.44, 1.955, 3.735), (0.44, 1.955, 3.765)]
    }

    def Mesh "garment_0"
    {
        int[] faceVertexCounts = [3, 3, 3, 3, 3, 3, 3, 3, 3, 3, 3, 3]
        int[] faceVertexIndices = [1, 3, 0, 4, 1, 0, 0, 3, 2, 2, 4, 0, 1, 7, 3, 5, 1, 4, 5, 7, 1, 3, 7, 2, 6, 4, 2, 2, 7, 6, 6, 5, 4, 7, 5, 6]
        point3f[] points = [(0.95, 0.25, 0.2), (0.95, 0.25, 0.5), (0.95, 0.65, 0.2), (0.95, 0.65, 0.5), (1.05, 0.25, 0.2), (1.05, 0.25, 0.5), (1.05, 0.65, 0.2), (1.05, 0.65, 0.5)]
    }

    def Mesh "garment_1"
    {
        int[] faceVertexCounts = [3, 3, 3, 3, 3, 3, 3, 3, 3, 3, 3, 3]
        int[] faceVertexIndices = [1, 3, 0, 4, 1, 0, 0, 3, 2, 2, 4, 0, 1, 7, 3, 5, 1, 4, 5, 7, 1, 3, 7, 2, 6, 4, 2, 2, 7, 6, 6, 5, 4, 7, 5, 6]
        point3f[] points = [(1.1, 0.25, 0.2), (1.1, 0.25, 0.5), (1.1, 0.65, 0.2), (1.1, 0.65, 0.5), (1.2, 0.25, 0.2), (1.2, 0.25, 0.5), (1.2, 0.65, 0.2), (1.2, 0.65, 0.5)]
    }

    def Mesh "garment_2"
    {
        int[] faceVertexCounts = [3, 3, 3, 3, 3, 3, 3, 3, 3, 3, 3, 3]
        int[] faceVertexIndices = [1, 3, 0, 4, 1, 0, 0, 3, 2, 2, 4, 0, 1, 7, 3, 5, 1, 4, 5, 7, 1, 3, 7, 2, 6, 4, 2, 2, 7, 6, 6, 5, 4, 7, 5, 6]
        point3f[] points = [(1.25, 0.25, 0.2), (1.25, 0.25, 0.5), (1.25, 0.65, 0.2), (1.25, 0.65, 0.5), (1.35, 0.25, 0.2), (1.35, 0.25, 0.5), (1.35, 0.65, 0.2), (1.35, 0.65, 0.5)]
    }

    def Mesh "garment_3"
    {
        int[] faceVertexCounts = [3, 3, 3, 3, 3, 3, 3, 3, 3, 3, 3, 3]
        int[] faceVertexIndices = [1, 3, 0, 4, 1, 0, 0, 3, 2, 2, 4, 0, 1, 7, 3, 5, 1, 4, 5, 7, 1, 3, 7, 2, 6, 4, 2, 2, 7, 6, 6, 5, 4, 7, 5, 6]
        point3f[] points = [(1.4, 0.25, 0.2), (1.4, 0.25, 0.5), (1.4, 0.65, 0.2), (1.4, 0.65, 0.5), (1.5, 0.25, 0.2), (1.5, 0.25, 0.5), (1.5, 0.65, 0.2), (1.5, 0.65, 0.5)]
    }

    def Mesh "poster_0"
    {
        int[] faceVertexCounts = [3, 3, 3, 3, 3, 3, 3, 3, 3, 3, 3, 3]
        int[] faceVertexIndices = [1, 3, 0, 4, 1, 0, 0, 3, 2, 2, 4, 0, 1, 7, 3, 5, 1, 4, 5, 7, 1, 3, 7, 2, 6, 4, 2, 2, 7, 6, 6, 5, 4, 7, 5, 6]
        point3f[] points = [(3.91, 1.125, 0.575), (3.91, 1.125, 1.025), (3.91, 1.775, 0.575), (3.91, 1.775, 1.025), (3.95, 1.125, 0.575), (3.95, 1.125, 1.025), (3.95, 1.775, 0.575), (3.95, 1.775, 1.025)]
    }

    def Mesh "poster_1"
    {
        int[] faceVertexCounts = [3, 3, 3, 3, 3, 3, 3, 3, 3, 3, 3, 3]
        int[] faceVertexIndices = [1, 3, 0, 4, 1, 0, 0, 3, 2, 2, 4, 0, 1, 7, 3, 5, 1, 4, 5, 7, 1, 3, 7, 2, 6, 4, 2, 2, 7, 6, 6, 5, 4, 7, 5, 6]
        point3f[] points = [(3.91, 1.125, 1.275), (3.91, 1.125, 1.725), (3.91, 1.775, 1.275), (3.91, 1.775, 1.725), (3.95, 1.125, 1.275), (3.95, 1.125, 1.725), (3.95, 1.775, 1.275), (3.95, 1.775, 1.725)]
    }

    def Mesh "poster_2"
    {
        int[] faceVertexCounts = [3, 3, 3, 3, 3, 3, 3, 3, 3, 3, 3, 3]
        int[] faceVertexIndices = [1, 3, 0, 4, 1, 0, 0, 3, 2, 2, 4, 0, 1, 7, 3, 5, 1, 4, 5, 7, 1, 3, 7, 2, 6, 4, 2, 2, 7, 6, 6, 5, 4, 7, 5, 6]
        point3f[] points = [(3.91, 1.125, 1.975), (3.91, 1.125, 2.425), (3.91, 1.775, 1.975), (3.91, 1.775, 2.425), (3.95, 1.125, 1.975), (3.95, 1.125, 2.425), (3.95, 1.775, 1.975), (3.95, 1.775, 2.425)]
    }

    def Mesh "floor_cushion"
    {
        int[] faceVertexCounts = [3, 3, 3, 3, 3, 3, 3, 3, 3, 3, 3, 3, 3, 3, 3, 3, 3, 3, 3, 3, 3, 3, 3, 3, 3, 3, 3, 3, 3, 3, 3, 3, 3, 3, 3, 3, 3, 3, 3, 3, 3, 3, 3, 3, 3, 3, 3, 3]
        int[] faceVertexIndices = [1, 0, 4, 1, 4, 2, 2, 4, 5, 2, 5, 3, 4, 0, 6, 4, 6, 5, 5, 6, 7, 5, 7, 3, 6, 0, 8, 6, 8, 7, 7, 8, 9, 7, 9, 3, 8, 0, 10, 8, 10, 9, 9, 10, 11, 9, 11, 3, 10, 0, 12, 10, 12, 11, 11, 12, 13, 11, 13, 3, 12, 0, 14, 12, 14, 13, 13, 14, 15, 13, 15, 3, 14, 0, 16, 14, 16, 15, 15, 16, 17, 15, 17, 3, 16, 0, 18, 16, 18, 17, 17, 18, 19, 17, 19, 3, 18, 0, 20, 18, 20, 19, 19, 20, 21, 19, 21, 3, 20, 0, 22, 20, 22, 21, 21, 22, 23, 21, 23, 3, 22, 0, 24, 22, 24, 23, 23, 24, 25, 23, 25, 3, 24, 0, 1, 24, 1, 25, 25, 1, 2, 25, 2, 3]
        point3f[] points = [(2, 0.04, 2.46), (2.4, 0.04, 2.46), (2.4, 0.04, 2.54), (2, 0.04, 2.54), (2.3464103, 0.24, 2.46), (2.3464103, 0.24, 2.54), (2.2, 0.38641015, 2.46), (2.2, 0.38641015, 2.54), (2, 0.44, 2.46), (2, 0.44, 2.54), (1.8, 0.38641015, 2.46), (1.8, 0.38641015, 2.54), (1.6535898, 0.24, 2.46), (1.6535898, 0.24, 2.54), (1.6, 0.04, 2.46), (1.6, 0.04, 2.54), (1.6535898, -0.16, 2.46), (1.6535898, -0.16, 2.54), (1.8, -0.30641016, 2.46), (1.8, -0.30641016, 2.54), (2, -0.36, 2.46), (2, -0.36, 2.54), (2.2, -0.30641016, 2.46), (2.2, -0.30641016, 2.54), (2.3464103, -0.16, 2.46), (2.3464103, -0.16, 2.54)]
    }

    def Mesh "laptop_base"
    {
        int[] faceVertexCounts = [3, 3, 3, 3, 3, 3, 3, 3, 3, 3, 3, 3]
        int[] faceVertexIndices = [1, 3, 0, 4, 1, 0, 0, 3, 2, 2, 4, 0, 1, 7, 3, 5, 1, 4, 5, 7, 1, 3, 7, 2, 6, 4, 2, 2, 7, 6, 6, 5, 4, 7, 5, 6]
        point3f[] points = [(2.64, 0.8, 0.49), (2.64, 0.8, 0.71), (2.64, 0.82, 0.49), (2.64, 0.82, 0.71), (2.96, 0.8, 0.49), (2.96, 0.8, 0.71), (2.96, 0.82, 0.49), (2.96, 0.82, 0.71)]
    }

    def Mesh "laptop_screen"
    {
        int[] faceVertexCounts = [3, 3, 3, 3, 3, 3, 3, 3, 3, 3, 3, 3]
        int[] faceVertexIndices = [1, 3, 0, 4, 1, 0, 0, 3, 2, 2, 4, 0, 1, 7, 3, 5, 1, 4, 5, 7, 1, 3, 7, 2, 6, 4, 2, 2, 7, 6, 6, 5, 4, 7, 5, 6]
        point3f[] points = [(2.64, 0.81, 0.48), (2.64, 0.81, 0.5), (2.64, 1.01, 0.48), (2.64, 1.01, 0.5), (2.96, 0.81, 0.48), (2.96, 0.81, 0.5), (2.96, 1.01, 0.48), (2.96, 1.01, 0.5)]
    }

    def Mesh "phone_nei"
    {
        int[] faceVertexCounts = [3, 3, 3, 3, 3, 3, 3, 3, 3, 3, 3, 3]
        int[] faceVertexIndices = [1, 3, 0, 4, 1, 0, 0, 3, 2, 2, 4, 0, 1, 7, 3, 5, 1, 4, 5, 7, 1, 3, 7, 2, 6, 4, 2, 2, 7, 6, 6, 5, 4, 7, 5, 6]
        point3f[] points = [(3.06, 0.795, 0.52), (3.06, 0.795, 0.68), (3.06, 0.805, 0.52), (3.06, 0.805, 0.68), (3.14, 0.795, 0.52), (3.14, 0.795, 0.68), (3.14, 0.805, 0.52), (3.14, 0.805, 0.68)]
    }

    def "Lights"
    {
        def RectLight "window"
        {
            float inputs:height = 1.4
            float inputs:intensity = 2800
            float inputs:width = 1.4
            double3 xformOp:translate = (2, 1.7, 0.08)
            uniform token[] xformOpOrder = ["xformOp:translate"]
        }

        def DistantLight "ceiling_fill"
        {
            float inputs:intensity = 300
            double3 xformOp:translate = (2, 2.4, 2.25)
            uniform token[] xformOpOrder = ["xformOp:translate"]
        }
    }

    def "Cameras"
    {
        def Camera "nei_at_desk"
        {
            float focalLength = 43.455845
            float horizontalAperture = 36
            float verticalAperture = 24
            matrix4d xformOp:transform = ( (-0.36244626115494843, 0, 0.9320046715412958, 0), (0.23358586433259393, 0.9680836377339725, 0.0908389472404532, 0), (-0.9022584728107541, 0.2506273535585428, -0.35087829498195994, 0), (1, 1.5, 0, 1) )
            uniform token[] xformOpOrder = ["xformOp:transform"]
        }

        def Camera "mirror_view"
        {
            float focalLength = 38.601124
            float horizontalAperture = 36
            float verticalAperture = 24
            matrix4d xformOp:transform = ( (-0.099503719020999, 0, 0.9950371902099892, 0), (0.09852336290568342, 0.9950859653474028, 0.00985233629056835, 0), (-0.9901475429766743, 0.0990147542976674, -0.09901475429766751, 0), (1.5, 1.5, 2.5, 1) )
            uniform token[] xformOpOrder = ["xformOp:transform"]
        }

        def Camera "bed_overhead"
        {
            float focalLength = 28.254341
            float horizontalAperture = 36
            float verticalAperture = 24
            matrix4d xformOp:transform = ( (-0, 0, 0, 0), (0, 0, 0, 0), (-0, 1, -0, 0), (0.65, 2.2, 1.5, 1) )
            uniform token[] xformOpOrder = ["xformOp:transform"]
        }

        def Camera "wardrobe_view"
        {
            float focalLength = 34.57768
            float horizontalAperture = 36
            float verticalAperture = 24
            matrix4d xformOp:transform = ( (-0.7498378553650925, 0, -0.6616216370868464, 0), (-0.1149560297447948, 0.9847899881470755, 0.13028350037743408, 0), (0.6515583641446041, 0.17374889710522773, -0.7384328126972179, 0), (2.5, 1.4, 1.8, 1) )
            uniform token[] xformOpOrder = ["xformOp:transform"]
        }

        def Camera "establish_wide"
        {
            float focalLength = 25.706665
            float horizontalAperture = 36
            float verticalAperture = 24
            matrix4d xformOp:transform = ( (-0.7071067811865475, 0, 0.7071067811865475, 0), (0.23570226039551587, 0.9428090415820635, 0.23570226039551587, 0), (-0.6666666666666666, 0.3333333333333333, -0.6666666666666666, 0), (0.5, 1.7, 0.5, 1) )
            uniform token[] xformOpOrder = ["xformOp:transform"]
        }
    }
}

