#usda 1.0
(
    defaultPrim = "RensRoom"
    upAxis = "Y"
)

def Xform "RensRoom"
{
    def Mesh "floor"
    {
        int[] faceVertexCounts = [3, 3, 3, 3, 3, 3, 3, 3, 3, 3, 3, 3]
        int[] faceVertexIndices = [1, 3, 0, 4, 1, 0, 0, 3, 2, 2, 4, 0, 1, 7, 3, 5, 1, 4, 5, 7, 1, 3, 7, 2, 6, 4, 2, 2, 7, 6, 6, 5, 4, 7, 5, 6]
        point3f[] points = [(0, -0.005, 0), (0, -0.005, 5), (0, 0.005, 0), (0, 0.005, 5), (4, -0.005, 0), (4, -0.005, 5), (4, 0.005, 0), (4, 0.005, 5)]
    }

    def Mesh "ceiling"
    {
        int[] faceVertexCounts = [3, 3, 3, 3, 3, 3, 3, 3, 3, 3, 3, 3]
        int[] faceVertexIndices = [1, 3, 0, 4, 1, 0, 0, 3, 2, 2, 4, 0, 1, 7, 3, 5, 1, 4, 5, 7, 1, 3, 7, 2, 6, 4, 2, 2, 7, 6, 6, 5, 4, 7, 5, 6]
        point3f[] points = [(0, 2.695, 0), (0, 2.695, 5), (0, 2.705, 0), (0, 2.705, 5), (4, 2.695, 0), (4, 2.695, 5), (4, 2.705, 0), (4, 2.705, 5)]
    }

    def Mesh "wall_n"
    {
        int[] faceVertexCounts = [3, 3, 3, 3, 3, 3, 3, 3, 3, 3, 3, 3]
        int[] faceVertexIndices = [1, 3, 0, 4, 1, 0, 0, 3, 2, 2, 4, 0, 1, 7, 3, 5, 1, 4, 5, 7, 1, 3, 7, 2, 6, 4, 2, 2, 7, 6, 6, 5, 4, 7, 5, 6]
        point3f[] points = [(0, 0, -0.05), (0, 0, 0.05), (0, 2.7, -0.05), (0, 2.7, 0.05), (4, 0, -0.05), (4, 0, 0.05), (4, 2.7, -0.05), (4, 2.7, 0.05)]
    }

    def Mesh "wall_s"
    {
        int[] faceVertexCounts = [3, 3, 3, 3, 3, 3, 3, 3, 3, 3, 3, 3]
        int[] faceVertexIndices = [1, 3, 0, 4, 1, 0, 0, 3, 2, 2, 4, 0, 1, 7, 3, 5, 1, 4, 5, 7, 1, 3, 7, 2, 6, 4, 2, 2, 7, 6, 6, 5, 4, 7, 5, 6]
        point3f[] points = [(0, 0, 4.95), (0, 0, 5.05), (0, 2.7, 4.95), (0, 2.7, 5.05), (4, 0, 4.95), (4, 0, 5.05), (4, 2.7, 4.95), (4, 2.7, 5.05)]
    }

    def Mesh "wall_e"
    {
        int[] faceVertexCounts = [3, 3, 3, 3, 3, 3, 3, 3, 3, 3, 3, 3]
        int[] faceVertexIndices = [1, 3, 0, 4, 1, 0, 0, 3, 2, 2, 4, 0, 1, 7, 3, 5, 1, 4, 5, 7, 1, 3, 7, 2, 6, 4, 2, 2, 7, 6, 6, 5, 4, 7, 5, 6]
        point3f[] points = [(3.95, 0, 0), (3.95, 0, 5), (3.95, 2.7, 0), (3.95, 2.7, 5), (4.05, 0, 0), (4.05, 0, 5), (4.05, 2.7, 0), (4.05, 2.7, 5)]
    }

    def Mesh "wall_w"
    {
        int[] faceVertexCounts = [3, 3, 3, 3, 3, 3, 3, 3, 3, 3, 3, 3]
        int[] faceVertexIndices = [1, 3, 0, 4, 1, 0, 0, 3, 2, 2, 4, 0, 1, 7, 3, 5, 1, 4, 5, 7, 1, 3, 7, 2, 6, 4, 2, 2, 7, 6, 6, 5, 4, 7, 5, 6]
        point3f[] points = [(-0.05, 0, 0), (-0.05, 0, 5), (-0.05, 2.7, 0), (-0.05, 2.7, 5), (0.05, 0, 0), (0.05, 0, 5), (0.05, 2.7, 0), (0.05, 2.7, 5)]
    }

    def Mesh "monitor_0_0"
    {
        int[] faceVertexCounts = [3, 3, 3, 3, 3, 3, 3, 3, 3, 3, 3, 3]
        int[] faceVertexIndices = [1, 3, 0, 4, 1, 0, 0, 3, 2, 2, 4, 0, 1, 7, 3, 5, 1, 4, 5, 7, 1, 3, 7, 2, 6, 4, 2, 2, 7, 6, 6, 5, 4, 7, 5, 6]
        point3f[] points = [(0.45, 0.775, 0.055), (0.45, 0.775, 0.105), (0.45, 1.225, 0.055), (0.45, 1.225, 0.105), (1.15, 0.775, 0.055), (1.15, 0.775, 0.105), (1.15, 1.225, 0.055), (1.15, 1.225, 0.105)]
    }

    def Mesh "monitor_0_1"
    {
        int[] faceVertexCounts = [3, 3, 3, 3, 3, 3, 3, 3, 3, 3, 3, 3]
        int[] faceVertexIndices = [1, 3, 0, 4, 1, 0, 0, 3, 2, 2, 4, 0, 1, 7, 3, 5, 1, 4, 5, 7, 1, 3, 7, 2, 6, 4, 2, 2, 7, 6, 6, 5, 4, 7, 5, 6]
        point3f[] points = [(1.3, 0.775, 0.055), (1.3, 0.775, 0.105), (1.3, 1.225, 0.055), (1.3, 1.225, 0.105), (2, 0.775, 0.055), (2, 0.775, 0.105), (2, 1.225, 0.055), (2, 1.225, 0.105)]
    }

    def Mesh "monitor_0_2"
    {
        int[] faceVertexCounts = [3, 3, 3, 3, 3, 3, 3, 3, 3, 3, 3, 3]
        int[] faceVertexIndices = [1, 3, 0, 4, 1, 0, 0, 3, 2, 2, 4, 0, 1, 7, 3, 5, 1, 4, 5, 7, 1, 3, 7, 2, 6, 4, 2, 2, 7, 6, 6, 5, 4, 7, 5, 6]
        point3f[] points = [(2.15, 0.775, 0.055), (2.15, 0.775, 0.105), (2.15, 1.225, 0.055), (2.15, 1.225, 0.105), (2.85, 0.775, 0.055), (2.85, 0.775, 0.105), (2.85, 1.225, 0.055), (2.85, 1.225, 0.105)]
    }

    def Mesh "monitor_0_3"
    {
        int[] faceVertexCounts = [3, 3, 3, 3, 3, 3, 3, 3, 3, 3, 3, 3]
        int[] faceVertexIndices = [1, 3, 0, 4, 1, 0, 0, 3, 2, 2, 4, 0, 1, 7, 3, 5, 1, 4, 5, 7, 1, 3, 7, 2, 6, 4, 2, 2, 7, 6, 6, 5, 4, 7, 5, 6]
        point3f[] points = [(3, 0.775, 0.055), (3, 0.775, 0.105), (3, 1.225, 0.055), (3, 1.225, 0.105), (3.7, 0.775, 0.055), (3.7, 0.775, 0.105), (3.7, 1.225, 0.055), (3.7, 1.225, 0.105)]
    }

    def Mesh "monitor_1_0"
    {
        int[] faceVertexCounts = [3, 3, 3, 3, 3, 3, 3, 3, 3, 3, 3, 3]
        int[] faceVertexIndices = [1, 3, 0, 4, 1, 0, 0, 3, 2, 2, 4, 0, 1, 7, 3, 5, 1, 4, 5, 7, 1, 3, 7, 2, 6, 4, 2, 2, 7, 6, 6, 5, 4, 7, 5, 6]
        point3f[] points = [(0.45, 1.325, 0.055), (0.45, 1.325, 0.105), (0.45, 1.775, 0.055), (0.45, 1.775, 0.105), (1.15, 1.325, 0.055), (1.15, 1.325, 0.105), (1.15, 1.775, 0.055), (1.15, 1.775, 0.105)]
    }

    def Mesh "monitor_1_1"
    {
        int[] faceVertexCounts = [3, 3, 3, 3, 3, 3, 3, 3, 3, 3, 3, 3]
        int[] faceVertexIndices = [1, 3, 0, 4, 1, 0, 0, 3, 2, 2, 4, 0, 1, 7, 3, 5, 1, 4, 5, 7, 1, 3, 7, 2, 6, 4, 2, 2, 7, 6, 6, 5, 4, 7, 5, 6]
        point3f[] points = [(1.3, 1.325, 0.055), (1.3, 1.325, 0.105), (1.3, 1.775, 0.055), (1.3, 1.775, 0.105), (2, 1.325, 0.055), (2, 1.325, 0.105), (2, 1.775, 0.055), (2, 1.775, 0.105)]
    }

    def Mesh "monitor_1_2"
    {
        int[] faceVertexCounts = [3, 3, 3, 3, 3, 3, 3, 3, 3, 3, 3, 3]
        int[] faceVertexIndices = [1, 3, 0, 4, 1, 0, 0, 3, 2, 2, 4, 0, 1, 7, 3, 5, 1, 4, 5, 7, 1, 3, 7, 2, 6, 4, 2, 2, 7, 6, 6, 5, 4, 7, 5, 6]
        point3f[] points = [(2.15, 1.325, 0.055), (2.15, 1.325, 0.105), (2.15, 1.775, 0.055), (2.15, 1.775, 0.105), (2.85, 1.325, 0.055), (2.85, 1.325, 0.105), (2.85, 1.775, 0.055), (2.85, 1.775, 0.105)]
    }

    def Mesh "monitor_1_3"
    {
        int[] faceVertexCounts = [3, 3, 3, 3, 3, 3, 3, 3, 3, 3, 3, 3]
        int[] faceVertexIndices = [1, 3, 0, 4, 1, 0, 0, 3, 2, 2, 4, 0, 1, 7, 3, 5, 1, 4, 5, 7, 1, 3, 7, 2, 6, 4, 2, 2, 7, 6, 6, 5, 4, 7, 5, 6]
        point3f[] points = [(3, 1.325, 0.055), (3, 1.325, 0.105), (3, 1.775, 0.055), (3, 1.775, 0.105), (3.7, 1.325, 0.055), (3.7, 1.325, 0.105), (3.7, 1.775, 0.055), (3.7, 1.775, 0.105)]
    }

    def Mesh "pin_0_0"
    {
        int[] faceVertexCounts = [3, 3, 3, 3, 3, 3, 3, 3, 3, 3, 3, 3]
        int[] faceVertexIndices = [1, 3, 0, 4, 1, 0, 0, 3, 2, 2, 4, 0, 1, 7, 3, 5, 1, 4, 5, 7, 1, 3, 7, 2, 6, 4, 2, 2, 7, 6, 6, 5, 4, 7, 5, 6]
        point3f[] points = [(0.425, 0.8, 4.925), (0.425, 0.8, 4.955), (0.425, 1.2, 4.925), (0.425, 1.2, 4.955), (0.975, 0.8, 4.925), (0.975, 0.8, 4.955), (0.975, 1.2, 4.925), (0.975, 1.2, 4.955)]
    }

    def Mesh "pin_0_1"
    {
        int[] faceVertexCounts = [3, 3, 3, 3, 3, 3, 3, 3, 3, 3, 3, 3]
        int[] faceVertexIndices = [1, 3, 0, 4, 1, 0, 0, 3, 2, 2, 4, 0, 1, 7, 3, 5, 1, 4, 5, 7, 1, 3, 7, 2, 6, 4, 2, 2, 7, 6, 6, 5, 4, 7, 5, 6]
        point3f[] points = [(1.375, 0.8, 4.925), (1.375, 0.8, 4.955), (1.375, 1.2, 4.925), (1.375, 1.2, 4.955), (1.925, 0.8, 4.925), (1.925, 0.8, 4.955), (1.925, 1.2, 4.925), (1.925, 1.2, 4.955)]
    }

    def Mesh "pin_0_2"
    {
        int[] faceVertexCounts = [3, 3, 3, 3, 3, 3, 3, 3, 3, 3, 3, 3]
        int[] faceVertexIndices = [1, 3, 0, 4, 1, 0, 0, 3, 2, 2, 4, 0, 1, 7, 3, 5, 1, 4, 5, 7, 1, 3, 7, 2, 6, 4, 2, 2, 7, 6, 6, 5, 4, 7, 5, 6]
        point3f[] points = [(2.325, 0.8, 4.925), (2.325, 0.8, 4.955), (2.325, 1.2, 4.925), (2.325, 1.2, 4.955), (2.875, 0.8, 4.925), (2.875, 0.8, 4.955), (2.875, 1.2, 4.925), (2.875, 1.2, 4.955)]
    }

    def Mesh "pin_1_0"
    {
        int[] faceVertexCounts = [3, 3, 3, 3, 3, 3, 3, 3, 3, 3, 3, 3]
        int[] faceVertexIndices = [1, 3, 0, 4, 1, 0, 0, 3, 2, 2, 4, 0, 1, 7, 3, 5, 1, 4, 5, 7, 1, 3, 7, 2, 6, 4, 2, 2, 7, 6, 6, 5, 4, 7, 5, 6]
        point3f[] points = [(0.425, 1.35, 4.925), (0.425, 1.35, 4.955), (0.425, 1.75, 4.925), (0.425, 1.75, 4.955), (0.975, 1.35, 4.925), (0.975, 1.35, 4.955), (0.975, 1.75, 4.925), (0.975, 1.75, 4.955)]
    }

    def Mesh "pin_1_1"
    {
        int[] faceVertexCounts = [3, 3, 3, 3, 3, 3, 3, 3, 3, 3, 3, 3]
        int[] faceVertexIndices = [1, 3, 0, 4, 1, 0, 0, 3, 2, 2, 4, 0, 1, 7, 3, 5, 1, 4, 5, 7, 1, 3, 7, 2, 6, 4, 2, 2, 7, 6, 6, 5, 4, 7, 5, 6]
        point3f[] points = [(1.375, 1.35, 4.925), (1.375, 1.35, 4.955), (1.375, 1.75, 4.925), (1.375, 1.75, 4.955), (1.925, 1.35, 4.925), (1.925, 1.35, 4.955), (1.925, 1.75, 4.925), (1.925, 1.75, 4.955)]
    }

    def Mesh "pin_1_2"
    {
        int[] faceVertexCounts = [3, 3, 3, 3, 3, 3, 3, 3, 3, 3, 3, 3]
        int[] faceVertexIndices = [1, 3, 0, 4, 1, 0, 0, 3, 2, 2, 4, 0, 1, 7, 3, 5, 1, 4, 5, 7, 1, 3, 7, 2, 6, 4, 2, 2, 7, 6, 6, 5, 4, 7, 5, 6]
        point3f[] points = [(2.325, 1.35, 4.925), (2.325, 1.35, 4.955), (2.325, 1.75, 4.925), (2.325, 1.75, 4.955), (2.875, 1.35, 4.925), (2.875, 1.35, 4.955), (2.875, 1.75, 4.925), (2.875, 1.75, 4.955)]
    }

    def Mesh "desk_top"
    {
        int[] faceVertexCounts = [3, 3, 3, 3, 3, 3, 3, 3, 3, 3, 3, 3]
        int[] faceVertexIndices = [1, 3, 0, 4, 1, 0, 0, 3, 2, 2, 4, 0, 1, 7, 3, 5, 1, 4, 5, 7, 1, 3, 7, 2, 6, 4, 2, 2, 7, 6, 6, 5, 4, 7, 5, 6]
        point3f[] points = [(3.25, 0.725, 1.4), (3.25, 0.725, 3.6), (3.25, 0.775, 1.4), (3.25, 0.775, 3.6), (3.95, 0.725, 1.4), (3.95, 0.725, 3.6), (3.95, 0.775, 1.4), (3.95, 0.775, 3.6)]
    }

    def Mesh "desk_leg_a0"
    {
        int[] faceVertexCounts = [3, 3, 3, 3, 3, 3, 3, 3, 3, 3, 3, 3]
        int[] faceVertexIndices = [1, 3, 0, 4, 1, 0, 0, 3, 2, 2, 4, 0, 1, 7, 3, 5, 1, 4, 5, 7, 1, 3, 7, 2, 6, 4, 2, 2, 7, 6, 6, 5, 4, 7, 5, 6]
        point3f[] points = [(3.275, 0, 1.375), (3.275, 0, 1.425), (3.275, 0.75, 1.375), (3.275, 0.75, 1.425), (3.325, 0, 1.375), (3.325, 0, 1.425), (3.325, 0.75, 1.375), (3.325, 0.75, 1.425)]
    }

    def Mesh "desk_leg_b0"
    {
        int[] faceVertexCounts = [3, 3, 3, 3, 3, 3, 3, 3, 3, 3, 3, 3]
        int[] faceVertexIndices = [1, 3, 0, 4, 1, 0, 0, 3, 2, 2, 4, 0, 1, 7, 3, 5, 1, 4, 5, 7, 1, 3, 7, 2, 6, 4, 2, 2, 7, 6, 6, 5, 4, 7, 5, 6]
        point3f[] points = [(3.875, 0, 1.375), (3.875, 0, 1.425), (3.875, 0.75, 1.375), (3.875, 0.75, 1.425), (3.925, 0, 1.375), (3.925, 0, 1.425), (3.925, 0.75, 1.375), (3.925, 0.75, 1.425)]
    }

    def Mesh "desk_leg_a1"
    {
        int[] faceVertexCounts = [3, 3, 3, 3, 3, 3, 3, 3, 3, 3, 3, 3]
        int[] faceVertexIndices = [1, 3, 0, 4, 1, 0, 0, 3, 2, 2, 4, 0, 1, 7, 3, 5, 1, 4, 5, 7, 1, 3, 7, 2, 6, 4, 2, 2, 7, 6, 6, 5, 4, 7, 5, 6]
        point3f[] points = [(3.275, 0, 3.575), (3.275, 0, 3.625), (3.275, 0.75, 3.575), (3.275, 0.75, 3.625), (3.325, 0, 3.575), (3.325, 0, 3.625), (3.325, 0.75, 3.575), (3.325, 0.75, 3.625)]
    }

    def Mesh "desk_leg_b1"
    {
        int[] faceVertexCounts = [3, 3, 3, 3, 3, 3, 3, 3, 3, 3, 3, 3]
        int[] faceVertexIndices = [1, 3, 0, 4, 1, 0, 0, 3, 2, 2, 4, 0, 1, 7, 3, 5, 1, 4, 5, 7, 1, 3, 7, 2, 6, 4, 2, 2, 7, 6, 6, 5, 4, 7, 5, 6]
        point3f[] points = [(3.875, 0, 3.575), (3.875, 0, 3.625), (3.875, 0.75, 3.575), (3.875, 0.75, 3.625), (3.925, 0, 3.575), (3.925, 0, 3.625), (3.925, 0.75, 3.575), (3.925, 0.75, 3.625)]
    }

    def Mesh "pc_tower_0"
    {
        int[] faceVertexCounts = [3, 3, 3, 3, 3, 3, 3, 3, 3, 3, 3, 3]
        int[] faceVertexIndices = [1, 3, 0, 4, 1, 0, 0, 3, 2, 2, 4, 0, 1, 7, 3, 5, 1, 4, 5, 7, 1, 3, 7, 2, 6, 4, 2, 2, 7, 6, 6, 5, 4, 7, 5, 6]
        point3f[] points = [(3.6, -0.005, 1.6), (3.6, -0.005, 2), (3.6, 0.445, 1.6), (3.6, 0.445, 2), (3.8, -0.005, 1.6), (3.8, -0.005, 2), (3.8, 0.445, 1.6), (3.8, 0.445, 2)]
    }

    def Mesh "pc_tower_1"
    {
        int[] faceVertexCounts = [3, 3, 3, 3, 3, 3, 3, 3, 3, 3, 3, 3]
        int[] faceVertexIndices = [1, 3, 0, 4, 1, 0, 0, 3, 2, 2, 4, 0, 1, 7, 3, 5, 1, 4, 5, 7, 1, 3, 7, 2, 6, 4, 2, 2, 7, 6, 6, 5, 4, 7, 5, 6]
        point3f[] points = [(3.6, -0.005, 2.1), (3.6, -0.005, 2.5), (3.6, 0.445, 2.1), (3.6, 0.445, 2.5), (3.8, -0.005, 2.1), (3.8, -0.005, 2.5), (3.8, 0.445, 2.1), (3.8, 0.445, 2.5)]
    }

    def Mesh "pc_tower_2"
    {
        int[] faceVertexCounts = [3, 3, 3, 3, 3, 3, 3, 3, 3, 3, 3, 3]
        int[] faceVertexIndices = [1, 3, 0, 4, 1, 0, 0, 3, 2, 2, 4, 0, 1, 7, 3, 5, 1, 4, 5, 7, 1, 3, 7, 2, 6, 4, 2, 2, 7, 6, 6, 5, 4, 7, 5, 6]
        point3f[] points = [(3.6, -0.005, 2.6), (3.6, -0.005, 3), (3.6, 0.445, 2.6), (3.6, 0.445, 3), (3.8, -0.005, 2.6), (3.8, -0.005, 3), (3.8, 0.445, 2.6), (3.8, 0.445, 3)]
    }

    def Mesh "keyboard"
    {
        int[] faceVertexCounts = [3, 3, 3, 3, 3, 3, 3, 3, 3, 3, 3, 3]
        int[] faceVertexIndices = [1, 3, 0, 4, 1, 0, 0, 3, 2, 2, 4, 0, 1, 7, 3, 5, 1, 4, 5, 7, 1, 3, 7, 2, 6, 4, 2, 2, 7, 6, 6, 5, 4, 7, 5, 6]
        point3f[] points = [(3.375, 0.77, 1.925), (3.375, 0.77, 2.075), (3.375, 0.8, 1.925), (3.375, 0.8, 2.075), (3.825, 0.77, 1.925), (3.825, 0.77, 2.075), (3.825, 0.8, 1.925), (3.825, 0.8, 2.075)]
    }

    def Mesh "desk_monitor_0"
    {
        int[] faceVertexCounts = [3, 3, 3, 3, 3, 3, 3, 3, 3, 3, 3, 3]
        int[] faceVertexIndices = [1, 3, 0, 4, 1, 0, 0, 3, 2, 2, 4, 0, 1, 7, 3, 5, 1, 4, 5, 7, 1, 3, 7, 2, 6, 4, 2, 2, 7, 6, 6, 5, 4, 7, 5, 6]
        point3f[] points = [(3.895, 0.85, 1.7), (3.895, 0.85, 2.3), (3.895, 1.25, 1.7), (3.895, 1.25, 2.3), (3.945, 0.85, 1.7), (3.945, 0.85, 2.3), (3.945, 1.25, 1.7), (3.945, 1.25, 2.3)]
    }

    def Mesh "desk_monitor_1"
    {
        int[] faceVertexCounts = [3, 3, 3, 3, 3, 3, 3, 3, 3, 3, 3, 3]
        int[] faceVertexIndices = [1, 3, 0, 4, 1, 0, 0, 3, 2, 2, 4, 0, 1, 7, 3, 5, 1, 4, 5, 7, 1, 3, 7, 2, 6, 4, 2, 2, 7, 6, 6, 5, 4, 7, 5, 6]
        point3f[] points = [(3.895, 0.85, 2.4), (3.895, 0.85, 3), (3.895, 1.25, 2.4), (3.895, 1.25, 3), (3.945, 0.85, 2.4), (3.945, 0.85, 3), (3.945, 1.25, 2.4), (3.945, 1.25, 3)]
    }

    def Mesh "chair_seat"
    {
        int[] faceVertexCounts = [3, 3, 3, 3, 3, 3, 3, 3, 3, 3, 3, 3]
        int[] faceVertexIndices = [1, 3, 0, 4, 1, 0, 0, 3, 2, 2, 4, 0, 1, 7, 3, 5, 1, 4, 5, 7, 1, 3, 7, 2, 6, 4, 2, 2, 7, 6, 6, 5, 4, 7, 5, 6]
        point3f[] points = [(2.625, 0.425, 2.225), (2.625, 0.425, 2.775), (2.625, 0.475, 2.225), (2.625, 0.475, 2.775), (3.175, 0.425, 2.225), (3.175, 0.425, 2.775), (3.175, 0.475, 2.225), (3.175, 0.475, 2.775)]
    }

    def Mesh "chair_back"
    {
        int[] faceVertexCounts = [3, 3, 3, 3, 3, 3, 3, 3, 3, 3, 3, 3]
        int[] faceVertexIndices = [1, 3, 0, 4, 1, 0, 0, 3, 2, 2, 4, 0, 1, 7, 3, 5, 1, 4, 5, 7, 1, 3, 7, 2, 6, 4, 2, 2, 7, 6, 6, 5, 4, 7, 5, 6]
        point3f[] points = [(2.625, 0.45, 2.725), (2.625, 0.45, 2.775), (2.625, 1.25, 2.725), (2.625, 1.25, 2.775), (3.175, 0.45, 2.725), (3.175, 0.45, 2.775), (3.175, 1.25, 2.725), (3.175, 1.25, 2.775)]
    }

    def Mesh "chair_armL"
    {
        int[] faceVertexCounts = [3, 3, 3, 3, 3, 3, 3, 3, 3, 3, 3, 3]
        int[] faceVertexIndices = [1, 3, 0, 4, 1, 0, 0, 3, 2, 2, 4, 0, 1, 7, 3, 5, 1, 4, 5, 7, 1, 3, 7, 2, 6, 4, 2, 2, 7, 6, 6, 5, 4, 7, 5, 6]
        point3f[] points = [(2.625, 0.5, 2.25), (2.625, 0.5, 2.75), (2.625, 0.7, 2.25), (2.625, 0.7, 2.75), (2.675, 0.5, 2.25), (2.675, 0.5, 2.75), (2.675, 0.7, 2.25), (2.675, 0.7, 2.75)]
    }

    def Mesh "chair_armR"
    {
        int[] faceVertexCounts = [3, 3, 3, 3, 3, 3, 3, 3, 3, 3, 3, 3]
        int[] faceVertexIndices = [1, 3, 0, 4, 1, 0, 0, 3, 2, 2, 4, 0, 1, 7, 3, 5, 1, 4, 5, 7, 1, 3, 7, 2, 6, 4, 2, 2, 7, 6, 6, 5, 4, 7, 5, 6]
        point3f[] points = [(3.125, 0.5, 2.25), (3.125, 0.5, 2.75), (3.125, 0.7, 2.25), (3.125, 0.7, 2.75), (3.175, 0.5, 2.25), (3.175, 0.5, 2.75), (3.175, 0.7, 2.25), (3.175, 0.7, 2.75)]
    }

    def Mesh "lamp_stem"
    {
        int[] faceVertexCounts = [3, 3, 3, 3, 3, 3, 3, 3, 3, 3, 3, 3, 3, 3, 3, 3, 3, 3, 3, 3, 3, 3, 3, 3, 3, 3, 3, 3, 3, 3, 3, 3]
        int[] faceVertexIndices = [1, 0, 4, 1, 4, 2, 2, 4, 5, 2, 5, 3, 4, 0, 6, 4, 6, 5, 5, 6, 7, 5, 7, 3, 6, 0, 8, 6, 8, 7, 7, 8, 9, 7, 9, 3, 8, 0, 10, 8, 10, 9, 9, 10, 11, 9, 11, 3, 10, 0, 12, 10, 12, 11, 11, 12, 13, 11, 13, 3, 12, 0, 14, 12, 14, 13, 13, 14, 15, 13, 15, 3, 14, 0, 16, 14, 16, 15, 15, 16, 17, 15, 17, 3, 16, 0, 1, 16, 1, 17, 17, 1, 2, 17, 2, 3]
        point3f[] points = [(0.3, 0.8, 3.9), (0.33, 0.8, 3.9), (0.33, 0.8, 5.5), (0.3, 0.8, 5.5), (0.32121322, 0.8212132, 3.9), (0.32121322, 0.8212132, 5.5), (0.3, 0.83, 3.9), (0.3, 0.83, 5.5), (0.2787868, 0.8212132, 3.9), (0.2787868, 0.8212132, 5.5), (0.27, 0.8, 3.9), (0.27, 0.8, 5.5), (0.2787868, 0.7787868, 3.9), (0.2787868, 0.7787868, 5.5), (0.3, 0.77, 3.9), (0.3, 0.77, 5.5), (0.32121322, 0.7787868, 3.9), (0.32121322, 0.7787868, 5.5)]
    }

    def Mesh "lamp_head"
    {
        int[] faceVertexCounts = [3, 3, 3, 3, 3, 3, 3, 3, 3, 3, 3, 3, 3, 3, 3, 3, 3, 3, 3, 3, 3, 3, 3, 3]
        int[] faceVertexIndices = [1, 0, 3, 1, 3, 2, 3, 0, 4, 3, 4, 2, 4, 0, 5, 4, 5, 2, 5, 0, 6, 5, 6, 2, 6, 0, 7, 6, 7, 2, 7, 0, 8, 7, 8, 2, 8, 0, 9, 8, 9, 2, 9, 0, 10, 9, 10, 2, 10, 0, 11, 10, 11, 2, 11, 0, 12, 11, 12, 2, 12, 0, 13, 12, 13, 2, 13, 0, 1, 13, 1, 2]
        point3f[] points = [(0.3, 1.7, 4.7), (0.48, 1.7, 4.7), (0.3, 1.7, 4.95), (0.45588458, 1.79, 4.7), (0.39, 1.8558846, 4.7), (0.3, 1.88, 4.7), (0.21, 1.8558846, 4.7), (0.14411543, 1.79, 4.7), (0.12, 1.7, 4.7), (0.14411543, 1.61, 4.7), (0.21, 1.5441154, 4.7), (0.3, 1.52, 4.7), (0.39, 1.5441154, 4.7), (0.45588458, 1.61, 4.7)]
    }

    def Mesh "door"
    {
        int[] faceVertexCounts = [3, 3, 3, 3, 3, 3, 3, 3, 3, 3, 3, 3]
        int[] faceVertexIndices = [1, 3, 0, 4, 1, 0, 0, 3, 2, 2, 4, 0, 1, 7, 3, 5, 1, 4, 5, 7, 1, 3, 7, 2, 6, 4, 2, 2, 7, 6, 6, 5, 4, 7, 5, 6]
        point3f[] points = [(0.055, 0, 0.375), (0.055, 0, 1.225), (0.055, 2, 0.375), (0.055, 2, 1.225), (0.105, 0, 0.375), (0.105, 0, 1.225), (0.105, 2, 0.375), (0.105, 2, 1.225)]
    }
}

