#usda 1.0
(
    defaultPrim = "TokyoZenkei"
    upAxis = "Y"
)

def Xform "TokyoZenkei"
{
    def Mesh "ground"
    {
        int[] faceVertexCounts = [3, 3, 3, 3, 3, 3, 3, 3, 3, 3, 3, 3]
        int[] faceVertexIndices = [1, 3, 0, 4, 1, 0, 0, 3, 2, 2, 4, 0, 1, 7, 3, 5, 1, 4, 5, 7, 1, 3, 7, 2, 6, 4, 2, 2, 7, 6, 6, 5, 4, 7, 5, 6]
        point3f[] points = [(-100, -0.025, -100), (-100, -0.025, 100), (-100, 0.025, -100), (-100, 0.025, 100), (100, -0.025, -100), (100, -0.025, 100), (100, 0.025, -100), (100, 0.025, 100)]
    }

    def Mesh "bldg_0_0"
    {
        int[] faceVertexCounts = [3, 3, 3, 3, 3, 3, 3, 3, 3, 3, 3, 3]
        int[] faceVertexIndices = [1, 3, 0, 4, 1, 0, 0, 3, 2, 2, 4, 0, 1, 7, 3, 5, 1, 4, 5, 7, 1, 3, 7, 2, 6, 4, 2, 2, 7, 6, 6, 5, 4, 7, 5, 6]
        point3f[] points = [(-84.11192, 0, -88.10937), (-84.11192, 0, -75.690544), (-84.11192, 13.5005865, -88.10937), (-84.11192, 13.5005865, -75.690544), (-74.77266, 0, -88.10937), (-74.77266, 0, -75.690544), (-74.77266, 13.5005865, -88.10937), (-74.77266, 13.5005865, -75.690544)]
    }

    def Mesh "bldg_0_1"
    {
        int[] faceVertexCounts = [3, 3, 3, 3, 3, 3, 3, 3, 3, 3, 3, 3]
        int[] faceVertexIndices = [1, 3, 0, 4, 1, 0, 0, 3, 2, 2, 4, 0, 1, 7, 3, 5, 1, 4, 5, 7, 1, 3, 7, 2, 6, 4, 2, 2, 7, 6, 6, 5, 4, 7, 5, 6]
        point3f[] points = [(-84.55897, 0, -62.52067), (-84.55897, 0, -54.34189), (-84.55897, 9.738776, -62.52067), (-84.55897, 9.738776, -54.34189), (-74.027435, 0, -62.52067), (-74.027435, 0, -54.34189), (-74.027435, 9.738776, -62.52067), (-74.027435, 9.738776, -54.34189)]
    }

    def Mesh "bldg_0_2"
    {
        int[] faceVertexCounts = [3, 3, 3, 3, 3, 3, 3, 3, 3, 3, 3, 3]
        int[] faceVertexIndices = [1, 3, 0, 4, 1, 0, 0, 3, 2, 2, 4, 0, 1, 7, 3, 5, 1, 4, 5, 7, 1, 3, 7, 2, 6, 4, 2, 2, 7, 6, 6, 5, 4, 7, 5, 6]
        point3f[] points = [(-85.72196, 0, -45.92823), (-85.72196, 0, -34.028927), (-85.72196, 8.53072, -45.92823), (-85.72196, 8.53072, -34.028927), (-76.52894, 0, -45.92823), (-76.52894, 0, -34.028927), (-76.52894, 8.53072, -45.92823), (-76.52894, 8.53072, -34.028927)]
    }

    def Mesh "bldg_0_3"
    {
        int[] faceVertexCounts = [3, 3, 3, 3, 3, 3, 3, 3, 3, 3, 3, 3]
        int[] faceVertexIndices = [1, 3, 0, 4, 1, 0, 0, 3, 2, 2, 4, 0, 1, 7, 3, 5, 1, 4, 5, 7, 1, 3, 7, 2, 6, 4, 2, 2, 7, 6, 6, 5, 4, 7, 5, 6]
        point3f[] points = [(-86.24853, 0, -25.137733), (-86.24853, 0, -17.098742), (-86.24853, 19.785315, -25.137733), (-86.24853, 19.785315, -17.098742), (-73.391945, 0, -25.137733), (-73.391945, 0, -17.098742), (-73.391945, 19.785315, -25.137733), (-73.391945, 19.785315, -17.098742)]
    }

    def Mesh "bldg_0_4"
    {
        int[] faceVertexCounts = [3, 3, 3, 3, 3, 3, 3, 3, 3, 3, 3, 3]
        int[] faceVertexIndices = [1, 3, 0, 4, 1, 0, 0, 3, 2, 2, 4, 0, 1, 7, 3, 5, 1, 4, 5, 7, 1, 3, 7, 2, 6, 4, 2, 2, 7, 6, 6, 5, 4, 7, 5, 6]
        point3f[] points = [(-83.243164, 0, -6.0790815), (-83.243164, 0, 7.664197), (-83.243164, 14.805011, -6.0790815), (-83.243164, 14.805011, 7.664197), (-74.31029, 0, -6.0790815), (-74.31029, 0, 7.664197), (-74.31029, 14.805011, -6.0790815), (-74.31029, 14.805011, 7.664197)]
    }

    def Mesh "bldg_0_5"
    {
        int[] faceVertexCounts = [3, 3, 3, 3, 3, 3, 3, 3, 3, 3, 3, 3]
        int[] faceVertexIndices = [1, 3, 0, 4, 1, 0, 0, 3, 2, 2, 4, 0, 1, 7, 3, 5, 1, 4, 5, 7, 1, 3, 7, 2, 6, 4, 2, 2, 7, 6, 6, 5, 4, 7, 5, 6]
        point3f[] points = [(-87.196106, 0, 12.559805), (-87.196106, 0, 24.182161), (-87.196106, 9.934327, 12.559805), (-87.196106, 9.934327, 24.182161), (-74.11114, 0, 12.559805), (-74.11114, 0, 24.182161), (-74.11114, 9.934327, 12.559805), (-74.11114, 9.934327, 24.182161)]
    }

    def Mesh "bldg_0_6"
    {
        int[] faceVertexCounts = [3, 3, 3, 3, 3, 3, 3, 3, 3, 3, 3, 3]
        int[] faceVertexIndices = [1, 3, 0, 4, 1, 0, 0, 3, 2, 2, 4, 0, 1, 7, 3, 5, 1, 4, 5, 7, 1, 3, 7, 2, 6, 4, 2, 2, 7, 6, 6, 5, 4, 7, 5, 6]
        point3f[] points = [(-85.690834, 0, 35.783325), (-85.690834, 0, 46.05453), (-85.690834, 18.724562, 35.783325), (-85.690834, 18.724562, 46.05453), (-71.85214, 0, 35.783325), (-71.85214, 0, 46.05453), (-71.85214, 18.724562, 35.783325), (-71.85214, 18.724562, 46.05453)]
    }

    def Mesh "bldg_0_7"
    {
        int[] faceVertexCounts = [3, 3, 3, 3, 3, 3, 3, 3, 3, 3, 3, 3]
        int[] faceVertexIndices = [1, 3, 0, 4, 1, 0, 0, 3, 2, 2, 4, 0, 1, 7, 3, 5, 1, 4, 5, 7, 1, 3, 7, 2, 6, 4, 2, 2, 7, 6, 6, 5, 4, 7, 5, 6]
        point3f[] points = [(-86.37696, 0, 55.585564), (-86.37696, 0, 67.049675), (-86.37696, 20.370396, 55.585564), (-86.37696, 20.370396, 67.049675), (-73.20672, 0, 55.585564), (-73.20672, 0, 67.049675), (-73.20672, 20.370396, 55.585564), (-73.20672, 20.370396, 67.049675)]
    }

    def Mesh "bldg_1_0"
    {
        int[] faceVertexCounts = [3, 3, 3, 3, 3, 3, 3, 3, 3, 3, 3, 3]
        int[] faceVertexIndices = [1, 3, 0, 4, 1, 0, 0, 3, 2, 2, 4, 0, 1, 7, 3, 5, 1, 4, 5, 7, 1, 3, 7, 2, 6, 4, 2, 2, 7, 6, 6, 5, 4, 7, 5, 6]
        point3f[] points = [(-64.04987, 0, -86.056076), (-64.04987, 0, -77.577324), (-64.04987, 12.557965, -86.056076), (-64.04987, 12.557965, -77.577324), (-54.31355, 0, -86.056076), (-54.31355, 0, -77.577324), (-54.31355, 12.557965, -86.056076), (-54.31355, 12.557965, -77.577324)]
    }

    def Mesh "bldg_1_1"
    {
        int[] faceVertexCounts = [3, 3, 3, 3, 3, 3, 3, 3, 3, 3, 3, 3]
        int[] faceVertexIndices = [1, 3, 0, 4, 1, 0, 0, 3, 2, 2, 4, 0, 1, 7, 3, 5, 1, 4, 5, 7, 1, 3, 7, 2, 6, 4, 2, 2, 7, 6, 6, 5, 4, 7, 5, 6]
        point3f[] points = [(-66.97589, 0, -66.69049), (-66.97589, 0, -56.5015), (-66.97589, 13.559472, -66.69049), (-66.97589, 13.559472, -56.5015), (-55.16178, 0, -66.69049), (-55.16178, 0, -56.5015), (-55.16178, 13.559472, -66.69049), (-55.16178, 13.559472, -56.5015)]
    }

    def Mesh "bldg_1_2"
    {
        int[] faceVertexCounts = [3, 3, 3, 3, 3, 3, 3, 3, 3, 3, 3, 3]
        int[] faceVertexIndices = [1, 3, 0, 4, 1, 0, 0, 3, 2, 2, 4, 0, 1, 7, 3, 5, 1, 4, 5, 7, 1, 3, 7, 2, 6, 4, 2, 2, 7, 6, 6, 5, 4, 7, 5, 6]
        point3f[] points = [(-67.32924, 0, -47.10608), (-67.32924, 0, -35.217865), (-67.32924, 13.339557, -47.10608), (-67.32924, 13.339557, -35.217865), (-53.709312, 0, -47.10608), (-53.709312, 0, -35.217865), (-53.709312, 13.339557, -47.10608), (-53.709312, 13.339557, -35.217865)]
    }

    def Mesh "bldg_1_3"
    {
        int[] faceVertexCounts = [3, 3, 3, 3, 3, 3, 3, 3, 3, 3, 3, 3]
        int[] faceVertexIndices = [1, 3, 0, 4, 1, 0, 0, 3, 2, 2, 4, 0, 1, 7, 3, 5, 1, 4, 5, 7, 1, 3, 7, 2, 6, 4, 2, 2, 7, 6, 6, 5, 4, 7, 5, 6]
        point3f[] points = [(-64.05368, 0, -26.453812), (-64.05368, 0, -16.177078), (-64.05368, 22.582537, -26.453812), (-64.05368, 22.582537, -16.177078), (-55.07327, 0, -26.453812), (-55.07327, 0, -16.177078), (-55.07327, 22.582537, -26.453812), (-55.07327, 22.582537, -16.177078)]
    }

    def Mesh "bldg_1_4"
    {
        int[] faceVertexCounts = [3, 3, 3, 3, 3, 3, 3, 3, 3, 3, 3, 3]
        int[] faceVertexIndices = [1, 3, 0, 4, 1, 0, 0, 3, 2, 2, 4, 0, 1, 7, 3, 5, 1, 4, 5, 7, 1, 3, 7, 2, 6, 4, 2, 2, 7, 6, 6, 5, 4, 7, 5, 6]
        point3f[] points = [(-64.09575, 0, -5.968557), (-64.09575, 0, 7.088555), (-64.09575, 19.138994, -5.968557), (-64.09575, 19.138994, 7.088555), (-51.988064, 0, -5.968557), (-51.988064, 0, 7.088555), (-51.988064, 19.138994, -5.968557), (-51.988064, 19.138994, 7.088555)]
    }

    def Mesh "bldg_1_5"
    {
        int[] faceVertexCounts = [3, 3, 3, 3, 3, 3, 3, 3, 3, 3, 3, 3]
        int[] faceVertexIndices = [1, 3, 0, 4, 1, 0, 0, 3, 2, 2, 4, 0, 1, 7, 3, 5, 1, 4, 5, 7, 1, 3, 7, 2, 6, 4, 2, 2, 7, 6, 6, 5, 4, 7, 5, 6]
        point3f[] points = [(-63.842358, 0, 14.112969), (-63.842358, 0, 23.719416), (-63.842358, 8.642005, 14.112969), (-63.842358, 8.642005, 23.719416), (-53.949642, 0, 14.112969), (-53.949642, 0, 23.719416), (-53.949642, 8.642005, 14.112969), (-53.949642, 8.642005, 23.719416)]
    }

    def Mesh "bldg_1_6"
    {
        int[] faceVertexCounts = [3, 3, 3, 3, 3, 3, 3, 3, 3, 3, 3, 3]
        int[] faceVertexIndices = [1, 3, 0, 4, 1, 0, 0, 3, 2, 2, 4, 0, 1, 7, 3, 5, 1, 4, 5, 7, 1, 3, 7, 2, 6, 4, 2, 2, 7, 6, 6, 5, 4, 7, 5, 6]
        point3f[] points = [(-66.100105, 0, 35.805325), (-66.100105, 0, 47.737953), (-66.100105, 25.527353, 35.805325), (-66.100105, 25.527353, 47.737953), (-56.212036, 0, 35.805325), (-56.212036, 0, 47.737953), (-56.212036, 25.527353, 35.805325), (-56.212036, 25.527353, 47.737953)]
    }

    def Mesh "bldg_1_7"
    {
        int[] faceVertexCounts = [3, 3, 3, 3, 3, 3, 3, 3, 3, 3, 3, 3]
        int[] faceVertexIndices = [1, 3, 0, 4, 1, 0, 0, 3, 2, 2, 4, 0, 1, 7, 3, 5, 1, 4, 5, 7, 1, 3, 7, 2, 6, 4, 2, 2, 7, 6, 6, 5, 4, 7, 5, 6]
        point3f[] points = [(-65.21211, 0, 56.91831), (-65.21211, 0, 66.39807), (-65.21211, 17.177036, 56.91831), (-65.21211, 17.177036, 66.39807), (-55.622833, 0, 56.91831), (-55.622833, 0, 66.39807), (-55.622833, 17.177036, 56.91831), (-55.622833, 17.177036, 66.39807)]
    }

    def Mesh "bldg_2_0"
    {
        int[] faceVertexCounts = [3, 3, 3, 3, 3, 3, 3, 3, 3, 3, 3, 3]
        int[] faceVertexIndices = [1, 3, 0, 4, 1, 0, 0, 3, 2, 2, 4, 0, 1, 7, 3, 5, 1, 4, 5, 7, 1, 3, 7, 2, 6, 4, 2, 2, 7, 6, 6, 5, 4, 7, 5, 6]
        point3f[] points = [(-46.447994, 0, -86.14723), (-46.447994, 0, -75.75083), (-46.447994, 19.69172, -86.14723), (-46.447994, 19.69172, -75.75083), (-33.061058, 0, -86.14723), (-33.061058, 0, -75.75083), (-33.061058, 19.69172, -86.14723), (-33.061058, 19.69172, -75.75083)]
    }

    def Mesh "bldg_2_1"
    {
        int[] faceVertexCounts = [3, 3, 3, 3, 3, 3, 3, 3, 3, 3, 3, 3]
        int[] faceVertexIndices = [1, 3, 0, 4, 1, 0, 0, 3, 2, 2, 4, 0, 1, 7, 3, 5, 1, 4, 5, 7, 1, 3, 7, 2, 6, 4, 2, 2, 7, 6, 6, 5, 4, 7, 5, 6]
        point3f[] points = [(-45.395447, 0, -62.1512), (-45.395447, 0, -53.8685), (-45.395447, 18.190525, -62.1512), (-45.395447, 18.190525, -53.8685), (-36.849987, 0, -62.1512), (-36.849987, 0, -53.8685), (-36.849987, 18.190525, -62.1512), (-36.849987, 18.190525, -53.8685)]
    }

    def Mesh "bldg_2_2"
    {
        int[] faceVertexCounts = [3, 3, 3, 3, 3, 3, 3, 3, 3, 3, 3, 3]
        int[] faceVertexIndices = [1, 3, 0, 4, 1, 0, 0, 3, 2, 2, 4, 0, 1, 7, 3, 5, 1, 4, 5, 7, 1, 3, 7, 2, 6, 4, 2, 2, 7, 6, 6, 5, 4, 7, 5, 6]
        point3f[] points = [(-46.827885, 0, -43.680798), (-46.827885, 0, -35.299633), (-46.827885, 23.841587, -43.680798), (-46.827885, 23.841587, -35.299633), (-36.29492, 0, -43.680798), (-36.29492, 0, -35.299633), (-36.29492, 23.841587, -43.680798), (-36.29492, 23.841587, -35.299633)]
    }

    def Mesh "bldg_2_3"
    {
        int[] faceVertexCounts = [3, 3, 3, 3, 3, 3, 3, 3, 3, 3, 3, 3]
        int[] faceVertexIndices = [1, 3, 0, 4, 1, 0, 0, 3, 2, 2, 4, 0, 1, 7, 3, 5, 1, 4, 5, 7, 1, 3, 7, 2, 6, 4, 2, 2, 7, 6, 6, 5, 4, 7, 5, 6]
        point3f[] points = [(-47.386757, 0, -24.597853), (-47.386757, 0, -11.433175), (-47.386757, 18.582287, -24.597853), (-47.386757, 18.582287, -11.433175), (-33.560287, 0, -24.597853), (-33.560287, 0, -11.433175), (-33.560287, 18.582287, -24.597853), (-33.560287, 18.582287, -11.433175)]
    }

    def Mesh "bldg_2_4"
    {
        int[] faceVertexCounts = [3, 3, 3, 3, 3, 3, 3, 3, 3, 3, 3, 3]
        int[] faceVertexIndices = [1, 3, 0, 4, 1, 0, 0, 3, 2, 2, 4, 0, 1, 7, 3, 5, 1, 4, 5, 7, 1, 3, 7, 2, 6, 4, 2, 2, 7, 6, 6, 5, 4, 7, 5, 6]
        point3f[] points = [(-47.564987, 0, -3.9175882), (-47.564987, 0, 5.683363), (-47.564987, 21.634207, -3.9175882), (-47.564987, 21.634207, 5.683363), (-36.343166, 0, -3.9175882), (-36.343166, 0, 5.683363), (-36.343166, 21.634207, -3.9175882), (-36.343166, 21.634207, 5.683363)]
    }

    def Mesh "bldg_2_5"
    {
        int[] faceVertexCounts = [3, 3, 3, 3, 3, 3, 3, 3, 3, 3, 3, 3]
        int[] faceVertexIndices = [1, 3, 0, 4, 1, 0, 0, 3, 2, 2, 4, 0, 1, 7, 3, 5, 1, 4, 5, 7, 1, 3, 7, 2, 6, 4, 2, 2, 7, 6, 6, 5, 4, 7, 5, 6]
        point3f[] points = [(-44.797325, 0, 11.584761), (-44.797325, 0, 25.307657), (-44.797325, 16.695305, 11.584761), (-44.797325, 16.695305, 25.307657), (-34.07498, 0, 11.584761), (-34.07498, 0, 25.307657), (-34.07498, 16.695305, 11.584761), (-34.07498, 16.695305, 25.307657)]
    }

    def Mesh "bldg_2_6"
    {
        int[] faceVertexCounts = [3, 3, 3, 3, 3, 3, 3, 3, 3, 3, 3, 3]
        int[] faceVertexIndices = [1, 3, 0, 4, 1, 0, 0, 3, 2, 2, 4, 0, 1, 7, 3, 5, 1, 4, 5, 7, 1, 3, 7, 2, 6, 4, 2, 2, 7, 6, 6, 5, 4, 7, 5, 6]
        point3f[] points = [(-43.032543, 0, 32.315674), (-43.032543, 0, 45.79144), (-43.032543, 18.011723, 32.315674), (-43.032543, 18.011723, 45.79144), (-33.960632, 0, 32.315674), (-33.960632, 0, 45.79144), (-33.960632, 18.011723, 32.315674), (-33.960632, 18.011723, 45.79144)]
    }

    def Mesh "bldg_2_7"
    {
        int[] faceVertexCounts = [3, 3, 3, 3, 3, 3, 3, 3, 3, 3, 3, 3]
        int[] faceVertexIndices = [1, 3, 0, 4, 1, 0, 0, 3, 2, 2, 4, 0, 1, 7, 3, 5, 1, 4, 5, 7, 1, 3, 7, 2, 6, 4, 2, 2, 7, 6, 6, 5, 4, 7, 5, 6]
        point3f[] points = [(-44.344837, 0, 54.73526), (-44.344837, 0, 63.652298), (-44.344837, 20.77899, 54.73526), (-44.344837, 20.77899, 63.652298), (-32.691013, 0, 54.73526), (-32.691013, 0, 63.652298), (-32.691013, 20.77899, 54.73526), (-32.691013, 20.77899, 63.652298)]
    }

    def Mesh "bldg_3_0"
    {
        int[] faceVertexCounts = [3, 3, 3, 3, 3, 3, 3, 3, 3, 3, 3, 3]
        int[] faceVertexIndices = [1, 3, 0, 4, 1, 0, 0, 3, 2, 2, 4, 0, 1, 7, 3, 5, 1, 4, 5, 7, 1, 3, 7, 2, 6, 4, 2, 2, 7, 6, 6, 5, 4, 7, 5, 6]
        point3f[] points = [(-24.541018, 0, -83.8442), (-24.541018, 0, -75.84077), (-24.541018, 23.572529, -83.8442), (-24.541018, 23.572529, -75.84077), (-13.358896, 0, -83.8442), (-13.358896, 0, -75.84077), (-13.358896, 23.572529, -83.8442), (-13.358896, 23.572529, -75.84077)]
    }

    def Mesh "bldg_3_1"
    {
        int[] faceVertexCounts = [3, 3, 3, 3, 3, 3, 3, 3, 3, 3, 3, 3]
        int[] faceVertexIndices = [1, 3, 0, 4, 1, 0, 0, 3, 2, 2, 4, 0, 1, 7, 3, 5, 1, 4, 5, 7, 1, 3, 7, 2, 6, 4, 2, 2, 7, 6, 6, 5, 4, 7, 5, 6]
        point3f[] points = [(-27.33954, 0, -68.41709), (-27.33954, 0, -55.427097), (-27.33954, 26.581972, -68.41709), (-27.33954, 26.581972, -55.427097), (-14.06721, 0, -68.41709), (-14.06721, 0, -55.427097), (-14.06721, 26.581972, -68.41709), (-14.06721, 26.581972, -55.427097)]
    }

    def Mesh "bldg_3_2"
    {
        int[] faceVertexCounts = [3, 3, 3, 3, 3, 3, 3, 3, 3, 3, 3, 3]
        int[] faceVertexIndices = [1, 3, 0, 4, 1, 0, 0, 3, 2, 2, 4, 0, 1, 7, 3, 5, 1, 4, 5, 7, 1, 3, 7, 2, 6, 4, 2, 2, 7, 6, 6, 5, 4, 7, 5, 6]
        point3f[] points = [(-27.610792, 0, -46.02526), (-27.610792, 0, -37.511337), (-27.610792, 25.560192, -46.02526), (-27.610792, 25.560192, -37.511337), (-13.929095, 0, -46.02526), (-13.929095, 0, -37.511337), (-13.929095, 25.560192, -46.02526), (-13.929095, 25.560192, -37.511337)]
    }

    def Mesh "bldg_3_5"
    {
        int[] faceVertexCounts = [3, 3, 3, 3, 3, 3, 3, 3, 3, 3, 3, 3]
        int[] faceVertexIndices = [1, 3, 0, 4, 1, 0, 0, 3, 2, 2, 4, 0, 1, 7, 3, 5, 1, 4, 5, 7, 1, 3, 7, 2, 6, 4, 2, 2, 7, 6, 6, 5, 4, 7, 5, 6]
        point3f[] points = [(-26.353542, 0, 13.891676), (-26.353542, 0, 22.662024), (-26.353542, 23.212044, 13.891676), (-26.353542, 23.212044, 22.662024), (-13.758534, 0, 13.891676), (-13.758534, 0, 22.662024), (-13.758534, 23.212044, 13.891676), (-13.758534, 23.212044, 22.662024)]
    }

    def Mesh "bldg_3_6"
    {
        int[] faceVertexCounts = [3, 3, 3, 3, 3, 3, 3, 3, 3, 3, 3, 3]
        int[] faceVertexIndices = [1, 3, 0, 4, 1, 0, 0, 3, 2, 2, 4, 0, 1, 7, 3, 5, 1, 4, 5, 7, 1, 3, 7, 2, 6, 4, 2, 2, 7, 6, 6, 5, 4, 7, 5, 6]
        point3f[] points = [(-26.71617, 0, 34.929802), (-26.71617, 0, 45.468628), (-26.71617, 13.301132, 34.929802), (-26.71617, 13.301132, 45.468628), (-13.481571, 0, 34.929802), (-13.481571, 0, 45.468628), (-13.481571, 13.301132, 34.929802), (-13.481571, 13.301132, 45.468628)]
    }

    def Mesh "bldg_3_7"
    {
        int[] faceVertexCounts = [3, 3, 3, 3, 3, 3, 3, 3, 3, 3, 3, 3]
        int[] faceVertexIndices = [1, 3, 0, 4, 1, 0, 0, 3, 2, 2, 4, 0, 1, 7, 3, 5, 1, 4, 5, 7, 1, 3, 7, 2, 6, 4, 2, 2, 7, 6, 6, 5, 4, 7, 5, 6]
        point3f[] points = [(-25.75626, 0, 55.222034), (-25.75626, 0, 65.09233), (-25.75626, 22.598621, 55.222034), (-25.75626, 22.598621, 65.09233), (-16.549355, 0, 55.222034), (-16.549355, 0, 65.09233), (-16.549355, 22.598621, 55.222034), (-16.549355, 22.598621, 65.09233)]
    }

    def Mesh "bldg_4_0"
    {
        int[] faceVertexCounts = [3, 3, 3, 3, 3, 3, 3, 3, 3, 3, 3, 3]
        int[] faceVertexIndices = [1, 3, 0, 4, 1, 0, 0, 3, 2, 2, 4, 0, 1, 7, 3, 5, 1, 4, 5, 7, 1, 3, 7, 2, 6, 4, 2, 2, 7, 6, 6, 5, 4, 7, 5, 6]
        point3f[] points = [(-3.5721302, 0, -83.763504), (-3.5721302, 0, -75.037476), (-3.5721302, 16.762001, -83.763504), (-3.5721302, 16.762001, -75.037476), (7.5333247, 0, -83.763504), (7.5333247, 0, -75.037476), (7.5333247, 16.762001, -83.763504), (7.5333247, 16.762001, -75.037476)]
    }

    def Mesh "bldg_4_1"
    {
        int[] faceVertexCounts = [3, 3, 3, 3, 3, 3, 3, 3, 3, 3, 3, 3]
        int[] faceVertexIndices = [1, 3, 0, 4, 1, 0, 0, 3, 2, 2, 4, 0, 1, 7, 3, 5, 1, 4, 5, 7, 1, 3, 7, 2, 6, 4, 2, 2, 7, 6, 6, 5, 4, 7, 5, 6]
        point3f[] points = [(-5.791555, 0, -65.30831), (-5.791555, 0, -55.987007), (-5.791555, 19.766174, -65.30831), (-5.791555, 19.766174, -55.987007), (3.5891335, 0, -65.30831), (3.5891335, 0, -55.987007), (3.5891335, 19.766174, -65.30831), (3.5891335, 19.766174, -55.987007)]
    }

    def Mesh "bldg_4_2"
    {
        int[] faceVertexCounts = [3, 3, 3, 3, 3, 3, 3, 3, 3, 3, 3, 3]
        int[] faceVertexIndices = [1, 3, 0, 4, 1, 0, 0, 3, 2, 2, 4, 0, 1, 7, 3, 5, 1, 4, 5, 7, 1, 3, 7, 2, 6, 4, 2, 2, 7, 6, 6, 5, 4, 7, 5, 6]
        point3f[] points = [(-8.432288, 0, -46.054493), (-8.432288, 0, -32.896683), (-8.432288, 12.5788355, -46.054493), (-8.432288, 12.5788355, -32.896683), (5.000232, 0, -46.054493), (5.000232, 0, -32.896683), (5.000232, 12.5788355, -46.054493), (5.000232, 12.5788355, -32.896683)]
    }

    def Mesh "bldg_4_5"
    {
        int[] faceVertexCounts = [3, 3, 3, 3, 3, 3, 3, 3, 3, 3, 3, 3]
        int[] faceVertexIndices = [1, 3, 0, 4, 1, 0, 0, 3, 2, 2, 4, 0, 1, 7, 3, 5, 1, 4, 5, 7, 1, 3, 7, 2, 6, 4, 2, 2, 7, 6, 6, 5, 4, 7, 5, 6]
        point3f[] points = [(-6.359281, 0, 14.555083), (-6.359281, 0, 23.348953), (-6.359281, 21.379555, 14.555083), (-6.359281, 21.379555, 23.348953), (2.9261398, 0, 14.555083), (2.9261398, 0, 23.348953), (2.9261398, 21.379555, 14.555083), (2.9261398, 21.379555, 23.348953)]
    }

    def Mesh "bldg_4_6"
    {
        int[] faceVertexCounts = [3, 3, 3, 3, 3, 3, 3, 3, 3, 3, 3, 3]
        int[] faceVertexIndices = [1, 3, 0, 4, 1, 0, 0, 3, 2, 2, 4, 0, 1, 7, 3, 5, 1, 4, 5, 7, 1, 3, 7, 2, 6, 4, 2, 2, 7, 6, 6, 5, 4, 7, 5, 6]
        point3f[] points = [(-4.611801, 0, 33.861683), (-4.611801, 0, 46.706665), (-4.611801, 17.45342, 33.861683), (-4.611801, 17.45342, 46.706665), (8.095915, 0, 33.861683), (8.095915, 0, 46.706665), (8.095915, 17.45342, 33.861683), (8.095915, 17.45342, 46.706665)]
    }

    def Mesh "bldg_4_7"
    {
        int[] faceVertexCounts = [3, 3, 3, 3, 3, 3, 3, 3, 3, 3, 3, 3]
        int[] faceVertexIndices = [1, 3, 0, 4, 1, 0, 0, 3, 2, 2, 4, 0, 1, 7, 3, 5, 1, 4, 5, 7, 1, 3, 7, 2, 6, 4, 2, 2, 7, 6, 6, 5, 4, 7, 5, 6]
        point3f[] points = [(-6.509096, 0, 52.98665), (-6.509096, 0, 63.788795), (-6.509096, 16.621023, 52.98665), (-6.509096, 16.621023, 63.788795), (4.0323753, 0, 52.98665), (4.0323753, 0, 63.788795), (4.0323753, 16.621023, 52.98665), (4.0323753, 16.621023, 63.788795)]
    }

    def Mesh "bldg_5_0"
    {
        int[] faceVertexCounts = [3, 3, 3, 3, 3, 3, 3, 3, 3, 3, 3, 3]
        int[] faceVertexIndices = [1, 3, 0, 4, 1, 0, 0, 3, 2, 2, 4, 0, 1, 7, 3, 5, 1, 4, 5, 7, 1, 3, 7, 2, 6, 4, 2, 2, 7, 6, 6, 5, 4, 7, 5, 6]
        point3f[] points = [(16.62105, 0, -84.514404), (16.62105, 0, -74.09868), (16.62105, 27.683304, -84.514404), (16.62105, 27.683304, -74.09868), (25.211557, 0, -84.514404), (25.211557, 0, -74.09868), (25.211557, 27.683304, -84.514404), (25.211557, 27.683304, -74.09868)]
    }

    def Mesh "bldg_5_1"
    {
        int[] faceVertexCounts = [3, 3, 3, 3, 3, 3, 3, 3, 3, 3, 3, 3]
        int[] faceVertexIndices = [1, 3, 0, 4, 1, 0, 0, 3, 2, 2, 4, 0, 1, 7, 3, 5, 1, 4, 5, 7, 1, 3, 7, 2, 6, 4, 2, 2, 7, 6, 6, 5, 4, 7, 5, 6]
        point3f[] points = [(14.786584, 0, -63.89915), (14.786584, 0, -53.20747), (14.786584, 12.973126, -63.89915), (14.786584, 12.973126, -53.20747), (23.927837, 0, -63.89915), (23.927837, 0, -53.20747), (23.927837, 12.973126, -63.89915), (23.927837, 12.973126, -53.20747)]
    }

    def Mesh "bldg_5_2"
    {
        int[] faceVertexCounts = [3, 3, 3, 3, 3, 3, 3, 3, 3, 3, 3, 3]
        int[] faceVertexIndices = [1, 3, 0, 4, 1, 0, 0, 3, 2, 2, 4, 0, 1, 7, 3, 5, 1, 4, 5, 7, 1, 3, 7, 2, 6, 4, 2, 2, 7, 6, 6, 5, 4, 7, 5, 6]
        point3f[] points = [(12.917729, 0, -46.21521), (12.917729, 0, -35.556427), (12.917729, 12.996129, -46.21521), (12.917729, 12.996129, -35.556427), (26.457323, 0, -46.21521), (26.457323, 0, -35.556427), (26.457323, 12.996129, -46.21521), (26.457323, 12.996129, -35.556427)]
    }

    def Mesh "bldg_5_3"
    {
        int[] faceVertexCounts = [3, 3, 3, 3, 3, 3, 3, 3, 3, 3, 3, 3]
        int[] faceVertexIndices = [1, 3, 0, 4, 1, 0, 0, 3, 2, 2, 4, 0, 1, 7, 3, 5, 1, 4, 5, 7, 1, 3, 7, 2, 6, 4, 2, 2, 7, 6, 6, 5, 4, 7, 5, 6]
        point3f[] points = [(14.447549, 0, -26.306782), (14.447549, 0, -13.290616), (14.447549, 9.011766, -26.306782), (14.447549, 9.011766, -13.290616), (28.443243, 0, -26.306782), (28.443243, 0, -13.290616), (28.443243, 9.011766, -26.306782), (28.443243, 9.011766, -13.290616)]
    }

    def Mesh "bldg_5_4"
    {
        int[] faceVertexCounts = [3, 3, 3, 3, 3, 3, 3, 3, 3, 3, 3, 3]
        int[] faceVertexIndices = [1, 3, 0, 4, 1, 0, 0, 3, 2, 2, 4, 0, 1, 7, 3, 5, 1, 4, 5, 7, 1, 3, 7, 2, 6, 4, 2, 2, 7, 6, 6, 5, 4, 7, 5, 6]
        point3f[] points = [(17.377052, 0, -3.7514555), (17.377052, 0, 7.162391), (17.377052, 24.973915, -3.7514555), (17.377052, 24.973915, 7.162391), (26.374918, 0, -3.7514555), (26.374918, 0, 7.162391), (26.374918, 24.973915, -3.7514555), (26.374918, 24.973915, 7.162391)]
    }

    def Mesh "bldg_5_5"
    {
        int[] faceVertexCounts = [3, 3, 3, 3, 3, 3, 3, 3, 3, 3, 3, 3]
        int[] faceVertexIndices = [1, 3, 0, 4, 1, 0, 0, 3, 2, 2, 4, 0, 1, 7, 3, 5, 1, 4, 5, 7, 1, 3, 7, 2, 6, 4, 2, 2, 7, 6, 6, 5, 4, 7, 5, 6]
        point3f[] points = [(13.71807, 0, 12.648234), (13.71807, 0, 26.560087), (13.71807, 9.172708, 12.648234), (13.71807, 9.172708, 26.560087), (23.991909, 0, 12.648234), (23.991909, 0, 26.560087), (23.991909, 9.172708, 12.648234), (23.991909, 9.172708, 26.560087)]
    }

    def Mesh "bldg_5_6"
    {
        int[] faceVertexCounts = [3, 3, 3, 3, 3, 3, 3, 3, 3, 3, 3, 3]
        int[] faceVertexIndices = [1, 3, 0, 4, 1, 0, 0, 3, 2, 2, 4, 0, 1, 7, 3, 5, 1, 4, 5, 7, 1, 3, 7, 2, 6, 4, 2, 2, 7, 6, 6, 5, 4, 7, 5, 6]
        point3f[] points = [(13.79179, 0, 34.264328), (13.79179, 0, 48.008236), (13.79179, 17.100168, 34.264328), (13.79179, 17.100168, 48.008236), (24.329834, 0, 34.264328), (24.329834, 0, 48.008236), (24.329834, 17.100168, 34.264328), (24.329834, 17.100168, 48.008236)]
    }

    def Mesh "bldg_5_7"
    {
        int[] faceVertexCounts = [3, 3, 3, 3, 3, 3, 3, 3, 3, 3, 3, 3]
        int[] faceVertexIndices = [1, 3, 0, 4, 1, 0, 0, 3, 2, 2, 4, 0, 1, 7, 3, 5, 1, 4, 5, 7, 1, 3, 7, 2, 6, 4, 2, 2, 7, 6, 6, 5, 4, 7, 5, 6]
        point3f[] points = [(17.5173, 0, 55.33295), (17.5173, 0, 65.1132), (17.5173, 22.368166, 55.33295), (17.5173, 22.368166, 65.1132), (26.446081, 0, 55.33295), (26.446081, 0, 65.1132), (26.446081, 22.368166, 55.33295), (26.446081, 22.368166, 65.1132)]
    }

    def Mesh "bldg_6_0"
    {
        int[] faceVertexCounts = [3, 3, 3, 3, 3, 3, 3, 3, 3, 3, 3, 3]
        int[] faceVertexIndices = [1, 3, 0, 4, 1, 0, 0, 3, 2, 2, 4, 0, 1, 7, 3, 5, 1, 4, 5, 7, 1, 3, 7, 2, 6, 4, 2, 2, 7, 6, 6, 5, 4, 7, 5, 6]
        point3f[] points = [(35.63091, 0, -83.854774), (35.63091, 0, -75.51178), (35.63091, 18.843904, -83.854774), (35.63091, 18.843904, -75.51178), (48.118763, 0, -83.854774), (48.118763, 0, -75.51178), (48.118763, 18.843904, -83.854774), (48.118763, 18.843904, -75.51178)]
    }

    def Mesh "bldg_6_1"
    {
        int[] faceVertexCounts = [3, 3, 3, 3, 3, 3, 3, 3, 3, 3, 3, 3]
        int[] faceVertexIndices = [1, 3, 0, 4, 1, 0, 0, 3, 2, 2, 4, 0, 1, 7, 3, 5, 1, 4, 5, 7, 1, 3, 7, 2, 6, 4, 2, 2, 7, 6, 6, 5, 4, 7, 5, 6]
        point3f[] points = [(35.86441, 0, -66.87093), (35.86441, 0, -53.106262), (35.86441, 25.054398, -66.87093), (35.86441, 25.054398, -53.106262), (44.80901, 0, -66.87093), (44.80901, 0, -53.106262), (44.80901, 25.054398, -66.87093), (44.80901, 25.054398, -53.106262)]
    }

    def Mesh "bldg_6_2"
    {
        int[] faceVertexCounts = [3, 3, 3, 3, 3, 3, 3, 3, 3, 3, 3, 3]
        int[] faceVertexIndices = [1, 3, 0, 4, 1, 0, 0, 3, 2, 2, 4, 0, 1, 7, 3, 5, 1, 4, 5, 7, 1, 3, 7, 2, 6, 4, 2, 2, 7, 6, 6, 5, 4, 7, 5, 6]
        point3f[] points = [(32.294807, 0, -45.96231), (32.294807, 0, -36.55109), (32.294807, 19.900702, -45.96231), (32.294807, 19.900702, -36.55109), (44.346085, 0, -45.96231), (44.346085, 0, -36.55109), (44.346085, 19.900702, -45.96231), (44.346085, 19.900702, -36.55109)]
    }

    def Mesh "bldg_6_3"
    {
        int[] faceVertexCounts = [3, 3, 3, 3, 3, 3, 3, 3, 3, 3, 3, 3]
        int[] faceVertexIndices = [1, 3, 0, 4, 1, 0, 0, 3, 2, 2, 4, 0, 1, 7, 3, 5, 1, 4, 5, 7, 1, 3, 7, 2, 6, 4, 2, 2, 7, 6, 6, 5, 4, 7, 5, 6]
        point3f[] points = [(32.695988, 0, -24.296995), (32.695988, 0, -12.580707), (32.695988, 12.924307, -24.296995), (32.695988, 12.924307, -12.580707), (44.263103, 0, -24.296995), (44.263103, 0, -12.580707), (44.263103, 12.924307, -24.296995), (44.263103, 12.924307, -12.580707)]
    }

    def Mesh "bldg_6_4"
    {
        int[] faceVertexCounts = [3, 3, 3, 3, 3, 3, 3, 3, 3, 3, 3, 3]
        int[] faceVertexIndices = [1, 3, 0, 4, 1, 0, 0, 3, 2, 2, 4, 0, 1, 7, 3, 5, 1, 4, 5, 7, 1, 3, 7, 2, 6, 4, 2, 2, 7, 6, 6, 5, 4, 7, 5, 6]
        point3f[] points = [(32.87278, 0, -4.2780886), (32.87278, 0, 4.947467), (32.87278, 18.455654, -4.2780886), (32.87278, 18.455654, 4.947467), (46.481018, 0, -4.2780886), (46.481018, 0, 4.947467), (46.481018, 18.455654, -4.2780886), (46.481018, 18.455654, 4.947467)]
    }

    def Mesh "bldg_6_5"
    {
        int[] faceVertexCounts = [3, 3, 3, 3, 3, 3, 3, 3, 3, 3, 3, 3]
        int[] faceVertexIndices = [1, 3, 0, 4, 1, 0, 0, 3, 2, 2, 4, 0, 1, 7, 3, 5, 1, 4, 5, 7, 1, 3, 7, 2, 6, 4, 2, 2, 7, 6, 6, 5, 4, 7, 5, 6]
        point3f[] points = [(34.849697, 0, 14.054752), (34.849697, 0, 23.854734), (34.849697, 15.915717, 14.054752), (34.849697, 15.915717, 23.854734), (46.879837, 0, 14.054752), (46.879837, 0, 23.854734), (46.879837, 15.915717, 14.054752), (46.879837, 15.915717, 23.854734)]
    }

    def Mesh "bldg_6_6"
    {
        int[] faceVertexCounts = [3, 3, 3, 3, 3, 3, 3, 3, 3, 3, 3, 3]
        int[] faceVertexIndices = [1, 3, 0, 4, 1, 0, 0, 3, 2, 2, 4, 0, 1, 7, 3, 5, 1, 4, 5, 7, 1, 3, 7, 2, 6, 4, 2, 2, 7, 6, 6, 5, 4, 7, 5, 6]
        point3f[] points = [(33.88985, 0, 34.012096), (33.88985, 0, 48.002823), (33.88985, 9.450862, 34.012096), (33.88985, 9.450862, 48.002823), (44.639565, 0, 34.012096), (44.639565, 0, 48.002823), (44.639565, 9.450862, 34.012096), (44.639565, 9.450862, 48.002823)]
    }

    def Mesh "bldg_6_7"
    {
        int[] faceVertexCounts = [3, 3, 3, 3, 3, 3, 3, 3, 3, 3, 3, 3]
        int[] faceVertexIndices = [1, 3, 0, 4, 1, 0, 0, 3, 2, 2, 4, 0, 1, 7, 3, 5, 1, 4, 5, 7, 1, 3, 7, 2, 6, 4, 2, 2, 7, 6, 6, 5, 4, 7, 5, 6]
        point3f[] points = [(37.188786, 0, 51.493263), (37.188786, 0, 65.09282), (37.188786, 12.263086, 51.493263), (37.188786, 12.263086, 65.09282), (46.779987, 0, 51.493263), (46.779987, 0, 65.09282), (46.779987, 12.263086, 51.493263), (46.779987, 12.263086, 65.09282)]
    }

    def Mesh "bldg_7_0"
    {
        int[] faceVertexCounts = [3, 3, 3, 3, 3, 3, 3, 3, 3, 3, 3, 3]
        int[] faceVertexIndices = [1, 3, 0, 4, 1, 0, 0, 3, 2, 2, 4, 0, 1, 7, 3, 5, 1, 4, 5, 7, 1, 3, 7, 2, 6, 4, 2, 2, 7, 6, 6, 5, 4, 7, 5, 6]
        point3f[] points = [(57.050217, 0, -84.98415), (57.050217, 0, -71.98168), (57.050217, 15.390542, -84.98415), (57.050217, 15.390542, -71.98168), (65.9967, 0, -84.98415), (65.9967, 0, -71.98168), (65.9967, 15.390542, -84.98415), (65.9967, 15.390542, -71.98168)]
    }

    def Mesh "bldg_7_1"
    {
        int[] faceVertexCounts = [3, 3, 3, 3, 3, 3, 3, 3, 3, 3, 3, 3]
        int[] faceVertexIndices = [1, 3, 0, 4, 1, 0, 0, 3, 2, 2, 4, 0, 1, 7, 3, 5, 1, 4, 5, 7, 1, 3, 7, 2, 6, 4, 2, 2, 7, 6, 6, 5, 4, 7, 5, 6]
        point3f[] points = [(54.85223, 0, -63.57676), (54.85223, 0, -55.52982), (54.85223, 27.744661, -63.57676), (54.85223, 27.744661, -55.52982), (66.776085, 0, -63.57676), (66.776085, 0, -55.52982), (66.776085, 27.744661, -63.57676), (66.776085, 27.744661, -55.52982)]
    }

    def Mesh "bldg_7_2"
    {
        int[] faceVertexCounts = [3, 3, 3, 3, 3, 3, 3, 3, 3, 3, 3, 3]
        int[] faceVertexIndices = [1, 3, 0, 4, 1, 0, 0, 3, 2, 2, 4, 0, 1, 7, 3, 5, 1, 4, 5, 7, 1, 3, 7, 2, 6, 4, 2, 2, 7, 6, 6, 5, 4, 7, 5, 6]
        point3f[] points = [(54.451626, 0, -45.205357), (54.451626, 0, -36.399612), (54.451626, 21.267775, -45.205357), (54.451626, 21.267775, -36.399612), (68.085205, 0, -45.205357), (68.085205, 0, -36.399612), (68.085205, 21.267775, -45.205357), (68.085205, 21.267775, -36.399612)]
    }

    def Mesh "bldg_7_3"
    {
        int[] faceVertexCounts = [3, 3, 3, 3, 3, 3, 3, 3, 3, 3, 3, 3]
        int[] faceVertexIndices = [1, 3, 0, 4, 1, 0, 0, 3, 2, 2, 4, 0, 1, 7, 3, 5, 1, 4, 5, 7, 1, 3, 7, 2, 6, 4, 2, 2, 7, 6, 6, 5, 4, 7, 5, 6]
        point3f[] points = [(53.64467, 0, -27.386345), (53.64467, 0, -15.757366), (53.64467, 19.064472, -27.386345), (53.64467, 19.064472, -15.757366), (63.27876, 0, -27.386345), (63.27876, 0, -15.757366), (63.27876, 19.064472, -27.386345), (63.27876, 19.064472, -15.757366)]
    }

    def Mesh "bldg_7_4"
    {
        int[] faceVertexCounts = [3, 3, 3, 3, 3, 3, 3, 3, 3, 3, 3, 3]
        int[] faceVertexIndices = [1, 3, 0, 4, 1, 0, 0, 3, 2, 2, 4, 0, 1, 7, 3, 5, 1, 4, 5, 7, 1, 3, 7, 2, 6, 4, 2, 2, 7, 6, 6, 5, 4, 7, 5, 6]
        point3f[] points = [(56.0785, 0, -6.6512065), (56.0785, 0, 4.279985), (56.0785, 20.68476, -6.6512065), (56.0785, 20.68476, 4.279985), (65.6624, 0, -6.6512065), (65.6624, 0, 4.279985), (65.6624, 20.68476, -6.6512065), (65.6624, 20.68476, 4.279985)]
    }

    def Mesh "bldg_7_5"
    {
        int[] faceVertexCounts = [3, 3, 3, 3, 3, 3, 3, 3, 3, 3, 3, 3]
        int[] faceVertexIndices = [1, 3, 0, 4, 1, 0, 0, 3, 2, 2, 4, 0, 1, 7, 3, 5, 1, 4, 5, 7, 1, 3, 7, 2, 6, 4, 2, 2, 7, 6, 6, 5, 4, 7, 5, 6]
        point3f[] points = [(56.35062, 0, 16.554375), (56.35062, 0, 26.214455), (56.35062, 9.845969, 16.554375), (56.35062, 9.845969, 26.214455), (66.892075, 0, 16.554375), (66.892075, 0, 26.214455), (66.892075, 9.845969, 16.554375), (66.892075, 9.845969, 26.214455)]
    }

    def Mesh "bldg_7_6"
    {
        int[] faceVertexCounts = [3, 3, 3, 3, 3, 3, 3, 3, 3, 3, 3, 3]
        int[] faceVertexIndices = [1, 3, 0, 4, 1, 0, 0, 3, 2, 2, 4, 0, 1, 7, 3, 5, 1, 4, 5, 7, 1, 3, 7, 2, 6, 4, 2, 2, 7, 6, 6, 5, 4, 7, 5, 6]
        point3f[] points = [(53.228317, 0, 34.860783), (53.228317, 0, 47.30817), (53.228317, 20.742268, 34.860783), (53.228317, 20.742268, 47.30817), (62.80005, 0, 34.860783), (62.80005, 0, 47.30817), (62.80005, 20.742268, 34.860783), (62.80005, 20.742268, 47.30817)]
    }

    def Mesh "bldg_7_7"
    {
        int[] faceVertexCounts = [3, 3, 3, 3, 3, 3, 3, 3, 3, 3, 3, 3]
        int[] faceVertexIndices = [1, 3, 0, 4, 1, 0, 0, 3, 2, 2, 4, 0, 1, 7, 3, 5, 1, 4, 5, 7, 1, 3, 7, 2, 6, 4, 2, 2, 7, 6, 6, 5, 4, 7, 5, 6]
        point3f[] points = [(55.98099, 0, 53.061428), (55.98099, 0, 66.36007), (55.98099, 8.193394, 53.061428), (55.98099, 8.193394, 66.36007), (64.43246, 0, 53.061428), (64.43246, 0, 66.36007), (64.43246, 8.193394, 53.061428), (64.43246, 8.193394, 66.36007)]
    }

    def Mesh "tower_0"
    {
        int[] faceVertexCounts = [3, 3, 3, 3, 3, 3, 3, 3, 3, 3, 3, 3]
        int[] faceVertexIndices = [1, 3, 0, 4, 1, 0, 0, 3, 2, 2, 4, 0, 1, 7, 3, 5, 1, 4, 5, 7, 1, 3, 7, 2, 6, 4, 2, 2, 7, 6, 6, 5, 4, 7, 5, 6]
        point3f[] points = [(34, 0, 34), (34, 0, 46), (34, 80, 34), (34, 80, 46), (46, 0, 34), (46, 0, 46), (46, 80, 34), (46, 80, 46)]
    }

    def Mesh "tower_top_0"
    {
        int[] faceVertexCounts = [3, 3, 3, 3, 3, 3, 3, 3, 3, 3, 3, 3]
        int[] faceVertexIndices = [1, 3, 0, 4, 1, 0, 0, 3, 2, 2, 4, 0, 1, 7, 3, 5, 1, 4, 5, 7, 1, 3, 7, 2, 6, 4, 2, 2, 7, 6, 6, 5, 4, 7, 5, 6]
        point3f[] points = [(37, 80, 37), (37, 80, 43), (37, 92, 37), (37, 92, 43), (43, 80, 37), (43, 80, 43), (43, 92, 37), (43, 92, 43)]
    }

    def Mesh "tower_antenna_0"
    {
        int[] faceVertexCounts = [3, 3, 3, 3, 3, 3, 3, 3, 3, 3, 3, 3, 3, 3, 3, 3, 3, 3, 3, 3, 3, 3, 3, 3, 3, 3, 3, 3, 3, 3, 3, 3, 3, 3, 3, 3, 3, 3, 3, 3, 3, 3, 3, 3, 3, 3, 3, 3]
        int[] faceVertexIndices = [1, 0, 4, 1, 4, 2, 2, 4, 5, 2, 5, 3, 4, 0, 6, 4, 6, 5, 5, 6, 7, 5, 7, 3, 6, 0, 8, 6, 8, 7, 7, 8, 9, 7, 9, 3, 8, 0, 10, 8, 10, 9, 9, 10, 11, 9, 11, 3, 10, 0, 12, 10, 12, 11, 11, 12, 13, 11, 13, 3, 12, 0, 14, 12, 14, 13, 13, 14, 15, 13, 15, 3, 14, 0, 16, 14, 16, 15, 15, 16, 17, 15, 17, 3, 16, 0, 18, 16, 18, 17, 17, 18, 19, 17, 19, 3, 18, 0, 20, 18, 20, 19, 19, 20, 21, 19, 21, 3, 20, 0, 22, 20, 22, 21, 21, 22, 23, 21, 23, 3, 22, 0, 24, 22, 24, 23, 23, 24, 25, 23, 25, 3, 24, 0, 1, 24, 1, 25, 25, 1, 2, 25, 2, 3]
        point3f[] points = [(40, 96, 36), (40.3, 96, 36), (40.3, 96, 44), (40, 96, 44), (40.259808, 96.15, 36), (40.259808, 96.15, 44), (40.15, 96.25981, 36), (40.15, 96.25981, 44), (40, 96.3, 36), (40, 96.3, 44), (39.85, 96.25981, 36), (39.85, 96.25981, 44), (39.740192, 96.15, 36), (39.740192, 96.15, 44), (39.7, 96, 36), (39.7, 96, 44), (39.740192, 95.85, 36), (39.740192, 95.85, 44), (39.85, 95.74019, 36), (39.85, 95.74019, 44), (40, 95.7, 36), (40, 95.7, 44), (40.15, 95.74019, 36), (40.15, 95.74019, 44), (40.259808, 95.85, 36), (40.259808, 95.85, 44)]
    }

    def Mesh "tower_1"
    {
        int[] faceVertexCounts = [3, 3, 3, 3, 3, 3, 3, 3, 3, 3, 3, 3]
        int[] faceVertexIndices = [1, 3, 0, 4, 1, 0, 0, 3, 2, 2, 4, 0, 1, 7, 3, 5, 1, 4, 5, 7, 1, 3, 7, 2, 6, 4, 2, 2, 7, 6, 6, 5, 4, 7, 5, 6]
        point3f[] points = [(-46, 0, 54), (-46, 0, 66), (-46, 65, 54), (-46, 65, 66), (-34, 0, 54), (-34, 0, 66), (-34, 65, 54), (-34, 65, 66)]
    }

    def Mesh "tower_top_1"
    {
        int[] faceVertexCounts = [3, 3, 3, 3, 3, 3, 3, 3, 3, 3, 3, 3]
        int[] faceVertexIndices = [1, 3, 0, 4, 1, 0, 0, 3, 2, 2, 4, 0, 1, 7, 3, 5, 1, 4, 5, 7, 1, 3, 7, 2, 6, 4, 2, 2, 7, 6, 6, 5, 4, 7, 5, 6]
        point3f[] points = [(-43, 65, 57), (-43, 65, 63), (-43, 77, 57), (-43, 77, 63), (-37, 65, 57), (-37, 65, 63), (-37, 77, 57), (-37, 77, 63)]
    }

    def Mesh "tower_antenna_1"
    {
        int[] faceVertexCounts = [3, 3, 3, 3, 3, 3, 3, 3, 3, 3, 3, 3, 3, 3, 3, 3, 3, 3, 3, 3, 3, 3, 3, 3, 3, 3, 3, 3, 3, 3, 3, 3, 3, 3, 3, 3, 3, 3, 3, 3, 3, 3, 3, 3, 3, 3, 3, 3]
        int[] faceVertexIndices = [1, 0, 4, 1, 4, 2, 2, 4, 5, 2, 5, 3, 4, 0, 6, 4, 6, 5, 5, 6, 7, 5, 7, 3, 6, 0, 8, 6, 8, 7, 7, 8, 9, 7, 9, 3, 8, 0, 10, 8, 10, 9, 9, 10, 11, 9, 11, 3, 10, 0, 12, 10, 12, 11, 11, 12, 13, 11, 13, 3, 12, 0, 14, 12, 14, 13, 13, 14, 15, 13, 15, 3, 14, 0, 16, 14, 16, 15, 15, 16, 17, 15, 17, 3, 16, 0, 18, 16, 18, 17, 17, 18, 19, 17, 19, 3, 18, 0, 20, 18, 20, 19, 19, 20, 21, 19, 21, 3, 20, 0, 22, 20, 22, 21, 21, 22, 23, 21, 23, 3, 22, 0, 24, 22, 24, 23, 23, 24, 25, 23, 25, 3, 24, 0, 1, 24, 1, 25, 25, 1, 2, 25, 2, 3]
        point3f[] points = [(-40, 81, 56), (-39.7, 81, 56), (-39.7, 81, 64), (-40, 81, 64), (-39.740192, 81.15, 56), (-39.740192, 81.15, 64), (-39.85, 81.25981, 56), (-39.85, 81.25981, 64), (-40, 81.3, 56), (-40, 81.3, 64), (-40.15, 81.25981, 56), (-40.15, 81.25981, 64), (-40.259808, 81.15, 56), (-40.259808, 81.15, 64), (-40.3, 81, 56), (-40.3, 81, 64), (-40.259808, 80.85, 56), (-40.259808, 80.85, 64), (-40.15, 80.74019, 56), (-40.15, 80.74019, 64), (-40, 80.7, 56), (-40, 80.7, 64), (-39.85, 80.74019, 56), (-39.85, 80.74019, 64), (-39.740192, 80.85, 56), (-39.740192, 80.85, 64)]
    }

    def Mesh "tower_2"
    {
        int[] faceVertexCounts = [3, 3, 3, 3, 3, 3, 3, 3, 3, 3, 3, 3]
        int[] faceVertexIndices = [1, 3, 0, 4, 1, 0, 0, 3, 2, 2, 4, 0, 1, 7, 3, 5, 1, 4, 5, 7, 1, 3, 7, 2, 6, 4, 2, 2, 7, 6, 6, 5, 4, 7, 5, 6]
        point3f[] points = [(54, 0, -56), (54, 0, -44), (54, 100, -56), (54, 100, -44), (66, 0, -56), (66, 0, -44), (66, 100, -56), (66, 100, -44)]
    }

    def Mesh "tower_top_2"
    {
        int[] faceVertexCounts = [3, 3, 3, 3, 3, 3, 3, 3, 3, 3, 3, 3]
        int[] faceVertexIndices = [1, 3, 0, 4, 1, 0, 0, 3, 2, 2, 4, 0, 1, 7, 3, 5, 1, 4, 5, 7, 1, 3, 7, 2, 6, 4, 2, 2, 7, 6, 6, 5, 4, 7, 5, 6]
        point3f[] points = [(57, 100, -53), (57, 100, -47), (57, 112, -53), (57, 112, -47), (63, 100, -53), (63, 100, -47), (63, 112, -53), (63, 112, -47)]
    }

    def Mesh "tower_antenna_2"
    {
        int[] faceVertexCounts = [3, 3, 3, 3, 3, 3, 3, 3, 3, 3, 3, 3, 3, 3, 3, 3, 3, 3, 3, 3, 3, 3, 3, 3, 3, 3, 3, 3, 3, 3, 3, 3, 3, 3, 3, 3, 3, 3, 3, 3, 3, 3, 3, 3, 3, 3, 3, 3]
        int[] faceVertexIndices = [1, 0, 4, 1, 4, 2, 2, 4, 5, 2, 5, 3, 4, 0, 6, 4, 6, 5, 5, 6, 7, 5, 7, 3, 6, 0, 8, 6, 8, 7, 7, 8, 9, 7, 9, 3, 8, 0, 10, 8, 10, 9, 9, 10, 11, 9, 11, 3, 10, 0, 12, 10, 12, 11, 11, 12, 13, 11, 13, 3, 12, 0, 14, 12, 14, 13, 13, 14, 15, 13, 15, 3, 14, 0, 16, 14, 16, 15, 15, 16, 17, 15, 17, 3, 16, 0, 18, 16, 18, 17, 17, 18, 19, 17, 19, 3, 18, 0, 20, 18, 20, 19, 19, 20, 21, 19, 21, 3, 20, 0, 22, 20, 22, 21, 21, 22, 23, 21, 23, 3, 22, 0, 24, 22, 24, 23, 23, 24, 25, 23, 25, 3, 24, 0, 1, 24, 1, 25, 25, 1, 2, 25, 2, 3]
        point3f[] points = [(60, 116, -54), (60.3, 116, -54), (60.3, 116, -46), (60, 116, -46), (60.259808, 116.15, -54), (60.259808, 116.15, -46), (60.15, 116.25981, -54), (60.15, 116.25981, -46), (60, 116.3, -54), (60, 116.3, -46), (59.85, 116.25981, -54), (59.85, 116.25981, -46), (59.740192, 116.15, -54), (59.740192, 116.15, -46), (59.7, 116, -54), (59.7, 116, -46), (59.740192, 115.85, -54), (59.740192, 115.85, -46), (59.85, 115.74019, -54), (59.85, 115.74019, -46), (60, 115.7, -54), (60, 115.7, -46), (60.15, 115.74019, -54), (60.15, 115.74019, -46), (60.259808, 115.85, -54), (60.259808, 115.85, -46)]
    }

    def Mesh "tower_leg_0"
    {
        int[] faceVertexCounts = [3, 3, 3, 3, 3, 3, 3, 3, 3, 3, 3, 3, 3, 3, 3, 3, 3, 3, 3, 3, 3, 3, 3, 3, 3, 3, 3, 3, 3, 3, 3, 3, 3, 3, 3, 3, 3, 3, 3, 3, 3, 3, 3, 3, 3, 3, 3, 3]
        int[] faceVertexIndices = [1, 0, 4, 1, 4, 2, 2, 4, 5, 2, 5, 3, 4, 0, 6, 4, 6, 5, 5, 6, 7, 5, 7, 3, 6, 0, 8, 6, 8, 7, 7, 8, 9, 7, 9, 3, 8, 0, 10, 8, 10, 9, 9, 10, 11, 9, 11, 3, 10, 0, 12, 10, 12, 11, 11, 12, 13, 11, 13, 3, 12, 0, 14, 12, 14, 13, 13, 14, 15, 13, 15, 3, 14, 0, 16, 14, 16, 15, 15, 16, 17, 15, 17, 3, 16, 0, 18, 16, 18, 17, 17, 18, 19, 17, 19, 3, 18, 0, 20, 18, 20, 19, 19, 20, 21, 19, 21, 3, 20, 0, 22, 20, 22, 21, 21, 22, 23, 21, 23, 3, 22, 0, 24, 22, 24, 23, 23, 24, 25, 23, 25, 3, 24, 0, 1, 24, 1, 25, 25, 1, 2, 25, 2, 3]
        point3f[] points = [(-4.5, 25, 40.5), (-3.7, 25, 40.5), (-3.7, 25, 90.5), (-4.5, 25, 90.5), (-3.8071797, 25.4, 40.5), (-3.8071797, 25.4, 90.5), (-4.1, 25.69282, 40.5), (-4.1, 25.69282, 90.5), (-4.5, 25.8, 40.5), (-4.5, 25.8, 90.5), (-4.9, 25.69282, 40.5), (-4.9, 25.69282, 90.5), (-5.1928205, 25.4, 40.5), (-5.1928205, 25.4, 90.5), (-5.3, 25, 40.5), (-5.3, 25, 90.5), (-5.1928205, 24.6, 40.5), (-5.1928205, 24.6, 90.5), (-4.9, 24.30718, 40.5), (-4.9, 24.30718, 90.5), (-4.5, 24.2, 40.5), (-4.5, 24.2, 90.5), (-4.1, 24.30718, 40.5), (-4.1, 24.30718, 90.5), (-3.8071797, 24.6, 40.5), (-3.8071797, 24.6, 90.5)]
    }

    def Mesh "tower_leg_1"
    {
        int[] faceVertexCounts = [3, 3, 3, 3, 3, 3, 3, 3, 3, 3, 3, 3, 3, 3, 3, 3, 3, 3, 3, 3, 3, 3, 3, 3, 3, 3, 3, 3, 3, 3, 3, 3, 3, 3, 3, 3, 3, 3, 3, 3, 3, 3, 3, 3, 3, 3, 3, 3]
        int[] faceVertexIndices = [1, 0, 4, 1, 4, 2, 2, 4, 5, 2, 5, 3, 4, 0, 6, 4, 6, 5, 5, 6, 7, 5, 7, 3, 6, 0, 8, 6, 8, 7, 7, 8, 9, 7, 9, 3, 8, 0, 10, 8, 10, 9, 9, 10, 11, 9, 11, 3, 10, 0, 12, 10, 12, 11, 11, 12, 13, 11, 13, 3, 12, 0, 14, 12, 14, 13, 13, 14, 15, 13, 15, 3, 14, 0, 16, 14, 16, 15, 15, 16, 17, 15, 17, 3, 16, 0, 18, 16, 18, 17, 17, 18, 19, 17, 19, 3, 18, 0, 20, 18, 20, 19, 19, 20, 21, 19, 21, 3, 20, 0, 22, 20, 22, 21, 21, 22, 23, 21, 23, 3, 22, 0, 24, 22, 24, 23, 23, 24, 25, 23, 25, 3, 24, 0, 1, 24, 1, 25, 25, 1, 2, 25, 2, 3]
        point3f[] points = [(4.5, 25, 40.5), (5.3, 25, 40.5), (5.3, 25, 90.5), (4.5, 25, 90.5), (5.1928205, 25.4, 40.5), (5.1928205, 25.4, 90.5), (4.9, 25.69282, 40.5), (4.9, 25.69282, 90.5), (4.5, 25.8, 40.5), (4.5, 25.8, 90.5), (4.1, 25.69282, 40.5), (4.1, 25.69282, 90.5), (3.8071797, 25.4, 40.5), (3.8071797, 25.4, 90.5), (3.7, 25, 40.5), (3.7, 25, 90.5), (3.8071797, 24.6, 40.5), (3.8071797, 24.6, 90.5), (4.1, 24.30718, 40.5), (4.1, 24.30718, 90.5), (4.5, 24.2, 40.5), (4.5, 24.2, 90.5), (4.9, 24.30718, 40.5), (4.9, 24.30718, 90.5), (5.1928205, 24.6, 40.5), (5.1928205, 24.6, 90.5)]
    }

    def Mesh "tower_leg_2"
    {
        int[] faceVertexCounts = [3, 3, 3, 3, 3, 3, 3, 3, 3, 3, 3, 3, 3, 3, 3, 3, 3, 3, 3, 3, 3, 3, 3, 3, 3, 3, 3, 3, 3, 3, 3, 3, 3, 3, 3, 3, 3, 3, 3, 3, 3, 3, 3, 3, 3, 3, 3, 3]
        int[] faceVertexIndices = [1, 0, 4, 1, 4, 2, 2, 4, 5, 2, 5, 3, 4, 0, 6, 4, 6, 5, 5, 6, 7, 5, 7, 3, 6, 0, 8, 6, 8, 7, 7, 8, 9, 7, 9, 3, 8, 0, 10, 8, 10, 9, 9, 10, 11, 9, 11, 3, 10, 0, 12, 10, 12, 11, 11, 12, 13, 11, 13, 3, 12, 0, 14, 12, 14, 13, 13, 14, 15, 13, 15, 3, 14, 0, 16, 14, 16, 15, 15, 16, 17, 15, 17, 3, 16, 0, 18, 16, 18, 17, 17, 18, 19, 17, 19, 3, 18, 0, 20, 18, 20, 19, 19, 20, 21, 19, 21, 3, 20, 0, 22, 20, 22, 21, 21, 22, 23, 21, 23, 3, 22, 0, 24, 22, 24, 23, 23, 24, 25, 23, 25, 3, 24, 0, 1, 24, 1, 25, 25, 1, 2, 25, 2, 3]
        point3f[] points = [(-4.5, 25, 49.5), (-3.7, 25, 49.5), (-3.7, 25, 99.5), (-4.5, 25, 99.5), (-3.8071797, 25.4, 49.5), (-3.8071797, 25.4, 99.5), (-4.1, 25.69282, 49.5), (-4.1, 25.69282, 99.5), (-4.5, 25.8, 49.5), (-4.5, 25.8, 99.5), (-4.9, 25.69282, 49.5), (-4.9, 25.69282, 99.5), (-5.1928205, 25.4, 49.5), (-5.1928205, 25.4, 99.5), (-5.3, 25, 49.5), (-5.3, 25, 99.5), (-5.1928205, 24.6, 49.5), (-5.1928205, 24.6, 99.5), (-4.9, 24.30718, 49.5), (-4.9, 24.30718, 99.5), (-4.5, 24.2, 49.5), (-4.5, 24.2, 99.5), (-4.1, 24.30718, 49.5), (-4.1, 24.30718, 99.5), (-3.8071797, 24.6, 49.5), (-3.8071797, 24.6, 99.5)]
    }

    def Mesh "tower_leg_3"
    {
        int[] faceVertexCounts = [3, 3, 3, 3, 3, 3, 3, 3, 3, 3, 3, 3, 3, 3, 3, 3, 3, 3, 3, 3, 3, 3, 3, 3, 3, 3, 3, 3, 3, 3, 3, 3, 3, 3, 3, 3, 3, 3, 3, 3, 3, 3, 3, 3, 3, 3, 3, 3]
        int[] faceVertexIndices = [1, 0, 4, 1, 4, 2, 2, 4, 5, 2, 5, 3, 4, 0, 6, 4, 6, 5, 5, 6, 7, 5, 7, 3, 6, 0, 8, 6, 8, 7, 7, 8, 9, 7, 9, 3, 8, 0, 10, 8, 10, 9, 9, 10, 11, 9, 11, 3, 10, 0, 12, 10, 12, 11, 11, 12, 13, 11, 13, 3, 12, 0, 14, 12, 14, 13, 13, 14, 15, 13, 15, 3, 14, 0, 16, 14, 16, 15, 15, 16, 17, 15, 17, 3, 16, 0, 18, 16, 18, 17, 17, 18, 19, 17, 19, 3, 18, 0, 20, 18, 20, 19, 19, 20, 21, 19, 21, 3, 20, 0, 22, 20, 22, 21, 21, 22, 23, 21, 23, 3, 22, 0, 24, 22, 24, 23, 23, 24, 25, 23, 25, 3, 24, 0, 1, 24, 1, 25, 25, 1, 2, 25, 2, 3]
        point3f[] points = [(4.5, 25, 49.5), (5.3, 25, 49.5), (5.3, 25, 99.5), (4.5, 25, 99.5), (5.1928205, 25.4, 49.5), (5.1928205, 25.4, 99.5), (4.9, 25.69282, 49.5), (4.9, 25.69282, 99.5), (4.5, 25.8, 49.5), (4.5, 25.8, 99.5), (4.1, 25.69282, 49.5), (4.1, 25.69282, 99.5), (3.8071797, 25.4, 49.5), (3.8071797, 25.4, 99.5), (3.7, 25, 49.5), (3.7, 25, 99.5), (3.8071797, 24.6, 49.5), (3.8071797, 24.6, 99.5), (4.1, 24.30718, 49.5), (4.1, 24.30718, 99.5), (4.5, 24.2, 49.5), (4.5, 24.2, 99.5), (4.9, 24.30718, 49.5), (4.9, 24.30718, 99.5), (5.1928205, 24.6, 49.5), (5.1928205, 24.6, 99.5)]
    }

    def Mesh "tower_observation"
    {
        int[] faceVertexCounts = [3, 3, 3, 3, 3, 3, 3, 3, 3, 3, 3, 3]
        int[] faceVertexIndices = [1, 3, 0, 4, 1, 0, 0, 3, 2, 2, 4, 0, 1, 7, 3, 5, 1, 4, 5, 7, 1, 3, 7, 2, 6, 4, 2, 2, 7, 6, 6, 5, 4, 7, 5, 6]
        point3f[] points = [(-4, 48, 66), (-4, 48, 74), (-4, 52, 66), (-4, 52, 74), (4, 48, 66), (4, 48, 74), (4, 52, 66), (4, 52, 74)]
    }

    def Mesh "tower_spire"
    {
        int[] faceVertexCounts = [3, 3, 3, 3, 3, 3, 3, 3, 3, 3, 3, 3, 3, 3, 3, 3, 3, 3, 3, 3, 3, 3, 3, 3, 3, 3, 3, 3, 3, 3, 3, 3, 3, 3, 3, 3, 3, 3, 3, 3, 3, 3, 3, 3, 3, 3, 3, 3]
        int[] faceVertexIndices = [1, 0, 4, 1, 4, 2, 2, 4, 5, 2, 5, 3, 4, 0, 6, 4, 6, 5, 5, 6, 7, 5, 7, 3, 6, 0, 8, 6, 8, 7, 7, 8, 9, 7, 9, 3, 8, 0, 10, 8, 10, 9, 9, 10, 11, 9, 11, 3, 10, 0, 12, 10, 12, 11, 11, 12, 13, 11, 13, 3, 12, 0, 14, 12, 14, 13, 13, 14, 15, 13, 15, 3, 14, 0, 16, 14, 16, 15, 15, 16, 17, 15, 17, 3, 16, 0, 18, 16, 18, 17, 17, 18, 19, 17, 19, 3, 18, 0, 20, 18, 20, 19, 19, 20, 21, 19, 21, 3, 20, 0, 22, 20, 22, 21, 21, 22, 23, 21, 23, 3, 22, 0, 24, 22, 24, 23, 23, 24, 25, 23, 25, 3, 24, 0, 1, 24, 1, 25, 25, 1, 2, 25, 2, 3]
        point3f[] points = [(0, 80, 55), (0.5, 80, 55), (0.5, 80, 85), (0, 80, 85), (0.4330127, 80.25, 55), (0.4330127, 80.25, 85), (0.25, 80.433014, 55), (0.25, 80.433014, 85), (3.061617e-17, 80.5, 55), (3.061617e-17, 80.5, 85), (-0.25, 80.433014, 55), (-0.25, 80.433014, 85), (-0.4330127, 80.25, 55), (-0.4330127, 80.25, 85), (-0.5, 80, 55), (-0.5, 80, 85), (-0.4330127, 79.75, 55), (-0.4330127, 79.75, 85), (-0.25, 79.566986, 55), (-0.25, 79.566986, 85), (-9.184851e-17, 79.5, 55), (-9.184851e-17, 79.5, 85), (0.25, 79.566986, 55), (0.25, 79.566986, 85), (0.4330127, 79.75, 55), (0.4330127, 79.75, 85)]
    }

    def Mesh "road_h_main"
    {
        int[] faceVertexCounts = [3, 3, 3, 3, 3, 3, 3, 3, 3, 3, 3, 3]
        int[] faceVertexIndices = [1, 3, 0, 4, 1, 0, 0, 3, 2, 2, 4, 0, 1, 7, 3, 5, 1, 4, 5, 7, 1, 3, 7, 2, 6, 4, 2, 2, 7, 6, 6, 5, 4, 7, 5, 6]
        point3f[] points = [(-100, 0.01, -3), (-100, 0.01, 3), (-100, 0.03, -3), (-100, 0.03, 3), (100, 0.01, -3), (100, 0.01, 3), (100, 0.03, -3), (100, 0.03, 3)]
    }

    def Mesh "road_v_main"
    {
        int[] faceVertexCounts = [3, 3, 3, 3, 3, 3, 3, 3, 3, 3, 3, 3]
        int[] faceVertexIndices = [1, 3, 0, 4, 1, 0, 0, 3, 2, 2, 4, 0, 1, 7, 3, 5, 1, 4, 5, 7, 1, 3, 7, 2, 6, 4, 2, 2, 7, 6, 6, 5, 4, 7, 5, 6]
        point3f[] points = [(-3, 0.01, -100), (-3, 0.01, 100), (-3, 0.03, -100), (-3, 0.03, 100), (3, 0.01, -100), (3, 0.01, 100), (3, 0.03, -100), (3, 0.03, 100)]
    }

    def Mesh "highway"
    {
        int[] faceVertexCounts = [3, 3, 3, 3, 3, 3, 3, 3, 3, 3, 3, 3]
        int[] faceVertexIndices = [1, 3, 0, 4, 1, 0, 0, 3, 2, 2, 4, 0, 1, 7, 3, 5, 1, 4, 5, 7, 1, 3, 7, 2, 6, 4, 2, 2, 7, 6, 6, 5, 4, 7, 5, 6]
        point3f[] points = [(-100, 11.75, 26), (-100, 11.75, 34), (-100, 12.25, 26), (-100, 12.25, 34), (100, 11.75, 26), (100, 11.75, 34), (100, 12.25, 26), (100, 12.25, 34)]
    }

    def Mesh "hwy_pillar_0"
    {
        int[] faceVertexCounts = [3, 3, 3, 3, 3, 3, 3, 3, 3, 3, 3, 3, 3, 3, 3, 3, 3, 3, 3, 3, 3, 3, 3, 3, 3, 3, 3, 3, 3, 3, 3, 3, 3, 3, 3, 3, 3, 3, 3, 3, 3, 3, 3, 3, 3, 3, 3, 3]
        int[] faceVertexIndices = [1, 0, 4, 1, 4, 2, 2, 4, 5, 2, 5, 3, 4, 0, 6, 4, 6, 5, 5, 6, 7, 5, 7, 3, 6, 0, 8, 6, 8, 7, 7, 8, 9, 7, 9, 3, 8, 0, 10, 8, 10, 9, 9, 10, 11, 9, 11, 3, 10, 0, 12, 10, 12, 11, 11, 12, 13, 11, 13, 3, 12, 0, 14, 12, 14, 13, 13, 14, 15, 13, 15, 3, 14, 0, 16, 14, 16, 15, 15, 16, 17, 15, 17, 3, 16, 0, 18, 16, 18, 17, 17, 18, 19, 17, 19, 3, 18, 0, 20, 18, 20, 19, 19, 20, 21, 19, 21, 3, 20, 0, 22, 20, 22, 21, 21, 22, 23, 21, 23, 3, 22, 0, 24, 22, 24, 23, 23, 24, 25, 23, 25, 3, 24, 0, 1, 24, 1, 25, 25, 1, 2, 25, 2, 3]
        point3f[] points = [(-100, 6, 24), (-99.2, 6, 24), (-99.2, 6, 36), (-100, 6, 36), (-99.30718, 6.4, 24), (-99.30718, 6.4, 36), (-99.6, 6.6928205, 24), (-99.6, 6.6928205, 36), (-100, 6.8, 24), (-100, 6.8, 36), (-100.4, 6.6928205, 24), (-100.4, 6.6928205, 36), (-100.69282, 6.4, 24), (-100.69282, 6.4, 36), (-100.8, 6, 24), (-100.8, 6, 36), (-100.69282, 5.6, 24), (-100.69282, 5.6, 36), (-100.4, 5.3071795, 24), (-100.4, 5.3071795, 36), (-100, 5.2, 24), (-100, 5.2, 36), (-99.6, 5.3071795, 24), (-99.6, 5.3071795, 36), (-99.30718, 5.6, 24), (-99.30718, 5.6, 36)]
    }

    def Mesh "hwy_pillar_1"
    {
        int[] faceVertexCounts = [3, 3, 3, 3, 3, 3, 3, 3, 3, 3, 3, 3, 3, 3, 3, 3, 3, 3, 3, 3, 3, 3, 3, 3, 3, 3, 3, 3, 3, 3, 3, 3, 3, 3, 3, 3, 3, 3, 3, 3, 3, 3, 3, 3, 3, 3, 3, 3]
        int[] faceVertexIndices = [1, 0, 4, 1, 4, 2, 2, 4, 5, 2, 5, 3, 4, 0, 6, 4, 6, 5, 5, 6, 7, 5, 7, 3, 6, 0, 8, 6, 8, 7, 7, 8, 9, 7, 9, 3, 8, 0, 10, 8, 10, 9, 9, 10, 11, 9, 11, 3, 10, 0, 12, 10, 12, 11, 11, 12, 13, 11, 13, 3, 12, 0, 14, 12, 14, 13, 13, 14, 15, 13, 15, 3, 14, 0, 16, 14, 16, 15, 15, 16, 17, 15, 17, 3, 16, 0, 18, 16, 18, 17, 17, 18, 19, 17, 19, 3, 18, 0, 20, 18, 20, 19, 19, 20, 21, 19, 21, 3, 20, 0, 22, 20, 22, 21, 21, 22, 23, 21, 23, 3, 22, 0, 24, 22, 24, 23, 23, 24, 25, 23, 25, 3, 24, 0, 1, 24, 1, 25, 25, 1, 2, 25, 2, 3]
        point3f[] points = [(-90, 6, 24), (-89.2, 6, 24), (-89.2, 6, 36), (-90, 6, 36), (-89.30718, 6.4, 24), (-89.30718, 6.4, 36), (-89.6, 6.6928205, 24), (-89.6, 6.6928205, 36), (-90, 6.8, 24), (-90, 6.8, 36), (-90.4, 6.6928205, 24), (-90.4, 6.6928205, 36), (-90.69282, 6.4, 24), (-90.69282, 6.4, 36), (-90.8, 6, 24), (-90.8, 6, 36), (-90.69282, 5.6, 24), (-90.69282, 5.6, 36), (-90.4, 5.3071795, 24), (-90.4, 5.3071795, 36), (-90, 5.2, 24), (-90, 5.2, 36), (-89.6, 5.3071795, 24), (-89.6, 5.3071795, 36), (-89.30718, 5.6, 24), (-89.30718, 5.6, 36)]
    }

    def Mesh "hwy_pillar_2"
    {
        int[] faceVertexCounts = [3, 3, 3, 3, 3, 3, 3, 3, 3, 3, 3, 3, 3, 3, 3, 3, 3, 3, 3, 3, 3, 3, 3, 3, 3, 3, 3, 3, 3, 3, 3, 3, 3, 3, 3, 3, 3, 3, 3, 3, 3, 3, 3, 3, 3, 3, 3, 3]
        int[] faceVertexIndices = [1, 0, 4, 1, 4, 2, 2, 4, 5, 2, 5, 3, 4, 0, 6, 4, 6, 5, 5, 6, 7, 5, 7, 3, 6, 0, 8, 6, 8, 7, 7, 8, 9, 7, 9, 3, 8, 0, 10, 8, 10, 9, 9, 10, 11, 9, 11, 3, 10, 0, 12, 10, 12, 11, 11, 12, 13, 11, 13, 3, 12, 0, 14, 12, 14, 13, 13, 14, 15, 13, 15, 3, 14, 0, 16, 14, 16, 15, 15, 16, 17, 15, 17, 3, 16, 0, 18, 16, 18, 17, 17, 18, 19, 17, 19, 3, 18, 0, 20, 18, 20, 19, 19, 20, 21, 19, 21, 3, 20, 0, 22, 20, 22, 21, 21, 22, 23, 21, 23, 3, 22, 0, 24, 22, 24, 23, 23, 24, 25, 23, 25, 3, 24, 0, 1, 24, 1, 25, 25, 1, 2, 25, 2, 3]
        point3f[] points = [(-80, 6, 24), (-79.2, 6, 24), (-79.2, 6, 36), (-80, 6, 36), (-79.30718, 6.4, 24), (-79.30718, 6.4, 36), (-79.6, 6.6928205, 24), (-79.6, 6.6928205, 36), (-80, 6.8, 24), (-80, 6.8, 36), (-80.4, 6.6928205, 24), (-80.4, 6.6928205, 36), (-80.69282, 6.4, 24), (-80.69282, 6.4, 36), (-80.8, 6, 24), (-80.8, 6, 36), (-80.69282, 5.6, 24), (-80.69282, 5.6, 36), (-80.4, 5.3071795, 24), (-80.4, 5.3071795, 36), (-80, 5.2, 24), (-80, 5.2, 36), (-79.6, 5.3071795, 24), (-79.6, 5.3071795, 36), (-79.30718, 5.6, 24), (-79.30718, 5.6, 36)]
    }

    def Mesh "hwy_pillar_3"
    {
        int[] faceVertexCounts = [3, 3, 3, 3, 3, 3, 3, 3, 3, 3, 3, 3, 3, 3, 3, 3, 3, 3, 3, 3, 3, 3, 3, 3, 3, 3, 3, 3, 3, 3, 3, 3, 3, 3, 3, 3, 3, 3, 3, 3, 3, 3, 3, 3, 3, 3, 3, 3]
        int[] faceVertexIndices = [1, 0, 4, 1, 4, 2, 2, 4, 5, 2, 5, 3, 4, 0, 6, 4, 6, 5, 5, 6, 7, 5, 7, 3, 6, 0, 8, 6, 8, 7, 7, 8, 9, 7, 9, 3, 8, 0, 10, 8, 10, 9, 9, 10, 11, 9, 11, 3, 10, 0, 12, 10, 12, 11, 11, 12, 13, 11, 13, 3, 12, 0, 14, 12, 14, 13, 13, 14, 15, 13, 15, 3, 14, 0, 16, 14, 16, 15, 15, 16, 17, 15, 17, 3, 16, 0, 18, 16, 18, 17, 17, 18, 19, 17, 19, 3, 18, 0, 20, 18, 20, 19, 19, 20, 21, 19, 21, 3, 20, 0, 22, 20, 22, 21, 21, 22, 23, 21, 23, 3, 22, 0, 24, 22, 24, 23, 23, 24, 25, 23, 25, 3, 24, 0, 1, 24, 1, 25, 25, 1, 2, 25, 2, 3]
        point3f[] points = [(-70, 6, 24), (-69.2, 6, 24), (-69.2, 6, 36), (-70, 6, 36), (-69.30718, 6.4, 24), (-69.30718, 6.4, 36), (-69.6, 6.6928205, 24), (-69.6, 6.6928205, 36), (-70, 6.8, 24), (-70, 6.8, 36), (-70.4, 6.6928205, 24), (-70.4, 6.6928205, 36), (-70.69282, 6.4, 24), (-70.69282, 6.4, 36), (-70.8, 6, 24), (-70.8, 6, 36), (-70.69282, 5.6, 24), (-70.69282, 5.6, 36), (-70.4, 5.3071795, 24), (-70.4, 5.3071795, 36), (-70, 5.2, 24), (-70, 5.2, 36), (-69.6, 5.3071795, 24), (-69.6, 5.3071795, 36), (-69.30718, 5.6, 24), (-69.30718, 5.6, 36)]
    }

    def Mesh "hwy_pillar_4"
    {
        int[] faceVertexCounts = [3, 3, 3, 3, 3, 3, 3, 3, 3, 3, 3, 3, 3, 3, 3, 3, 3, 3, 3, 3, 3, 3, 3, 3, 3, 3, 3, 3, 3, 3, 3, 3, 3, 3, 3, 3, 3, 3, 3, 3, 3, 3, 3, 3, 3, 3, 3, 3]
        int[] faceVertexIndices = [1, 0, 4, 1, 4, 2, 2, 4, 5, 2, 5, 3, 4, 0, 6, 4, 6, 5, 5, 6, 7, 5, 7, 3, 6, 0, 8, 6, 8, 7, 7, 8, 9, 7, 9, 3, 8, 0, 10, 8, 10, 9, 9, 10, 11, 9, 11, 3, 10, 0, 12, 10, 12, 11, 11, 12, 13, 11, 13, 3, 12, 0, 14, 12, 14, 13, 13, 14, 15, 13, 15, 3, 14, 0, 16, 14, 16, 15, 15, 16, 17, 15, 17, 3, 16, 0, 18, 16, 18, 17, 17, 18, 19, 17, 19, 3, 18, 0, 20, 18, 20, 19, 19, 20, 21, 19, 21, 3, 20, 0, 22, 20, 22, 21, 21, 22, 23, 21, 23, 3, 22, 0, 24, 22, 24, 23, 23, 24, 25, 23, 25, 3, 24, 0, 1, 24, 1, 25, 25, 1, 2, 25, 2, 3]
        point3f[] points = [(-60, 6, 24), (-59.2, 6, 24), (-59.2, 6, 36), (-60, 6, 36), (-59.30718, 6.4, 24), (-59.30718, 6.4, 36), (-59.6, 6.6928205, 24), (-59.6, 6.6928205, 36), (-60, 6.8, 24), (-60, 6.8, 36), (-60.4, 6.6928205, 24), (-60.4, 6.6928205, 36), (-60.69282, 6.4, 24), (-60.69282, 6.4, 36), (-60.8, 6, 24), (-60.8, 6, 36), (-60.69282, 5.6, 24), (-60.69282, 5.6, 36), (-60.4, 5.3071795, 24), (-60.4, 5.3071795, 36), (-60, 5.2, 24), (-60, 5.2, 36), (-59.6, 5.3071795, 24), (-59.6, 5.3071795, 36), (-59.30718, 5.6, 24), (-59.30718, 5.6, 36)]
    }

    def Mesh "hwy_pillar_5"
    {
        int[] faceVertexCounts = [3, 3, 3, 3, 3, 3, 3, 3, 3, 3, 3, 3, 3, 3, 3, 3, 3, 3, 3, 3, 3, 3, 3, 3, 3, 3, 3, 3, 3, 3, 3, 3, 3, 3, 3, 3, 3, 3, 3, 3, 3, 3, 3, 3, 3, 3, 3, 3]
        int[] faceVertexIndices = [1, 0, 4, 1, 4, 2, 2, 4, 5, 2, 5, 3, 4, 0, 6, 4, 6, 5, 5, 6, 7, 5, 7, 3, 6, 0, 8, 6, 8, 7, 7, 8, 9, 7, 9, 3, 8, 0, 10, 8, 10, 9, 9, 10, 11, 9, 11, 3, 10, 0, 12, 10, 12, 11, 11, 12, 13, 11, 13, 3, 12, 0, 14, 12, 14, 13, 13, 14, 15, 13, 15, 3, 14, 0, 16, 14, 16, 15, 15, 16, 17, 15, 17, 3, 16, 0, 18, 16, 18, 17, 17, 18, 19, 17, 19, 3, 18, 0, 20, 18, 20, 19, 19, 20, 21, 19, 21, 3, 20, 0, 22, 20, 22, 21, 21, 22, 23, 21, 23, 3, 22, 0, 24, 22, 24, 23, 23, 24, 25, 23, 25, 3, 24, 0, 1, 24, 1, 25, 25, 1, 2, 25, 2, 3]
        point3f[] points = [(-50, 6, 24), (-49.2, 6, 24), (-49.2, 6, 36), (-50, 6, 36), (-49.30718, 6.4, 24), (-49.30718, 6.4, 36), (-49.6, 6.6928205, 24), (-49.6, 6.6928205, 36), (-50, 6.8, 24), (-50, 6.8, 36), (-50.4, 6.6928205, 24), (-50.4, 6.6928205, 36), (-50.69282, 6.4, 24), (-50.69282, 6.4, 36), (-50.8, 6, 24), (-50.8, 6, 36), (-50.69282, 5.6, 24), (-50.69282, 5.6, 36), (-50.4, 5.3071795, 24), (-50.4, 5.3071795, 36), (-50, 5.2, 24), (-50, 5.2, 36), (-49.6, 5.3071795, 24), (-49.6, 5.3071795, 36), (-49.30718, 5.6, 24), (-49.30718, 5.6, 36)]
    }

    def Mesh "hwy_pillar_6"
    {
        int[] faceVertexCounts = [3, 3, 3, 3, 3, 3, 3, 3, 3, 3, 3, 3, 3, 3, 3, 3, 3, 3, 3, 3, 3, 3, 3, 3, 3, 3, 3, 3, 3, 3, 3, 3, 3, 3, 3, 3, 3, 3, 3, 3, 3, 3, 3, 3, 3, 3, 3, 3]
        int[] faceVertexIndices = [1, 0, 4, 1, 4, 2, 2, 4, 5, 2, 5, 3, 4, 0, 6, 4, 6, 5, 5, 6, 7, 5, 7, 3, 6, 0, 8, 6, 8, 7, 7, 8, 9, 7, 9, 3, 8, 0, 10, 8, 10, 9, 9, 10, 11, 9, 11, 3, 10, 0, 12, 10, 12, 11, 11, 12, 13, 11, 13, 3, 12, 0, 14, 12, 14, 13, 13, 14, 15, 13, 15, 3, 14, 0, 16, 14, 16, 15, 15, 16, 17, 15, 17, 3, 16, 0, 18, 16, 18, 17, 17, 18, 19, 17, 19, 3, 18, 0, 20, 18, 20, 19, 19, 20, 21, 19, 21, 3, 20, 0, 22, 20, 22, 21, 21, 22, 23, 21, 23, 3, 22, 0, 24, 22, 24, 23, 23, 24, 25, 23, 25, 3, 24, 0, 1, 24, 1, 25, 25, 1, 2, 25, 2, 3]
        point3f[] points = [(-40, 6, 24), (-39.2, 6, 24), (-39.2, 6, 36), (-40, 6, 36), (-39.30718, 6.4, 24), (-39.30718, 6.4, 36), (-39.6, 6.6928205, 24), (-39.6, 6.6928205, 36), (-40, 6.8, 24), (-40, 6.8, 36), (-40.4, 6.6928205, 24), (-40.4, 6.6928205, 36), (-40.69282, 6.4, 24), (-40.69282, 6.4, 36), (-40.8, 6, 24), (-40.8, 6, 36), (-40.69282, 5.6, 24), (-40.69282, 5.6, 36), (-40.4, 5.3071795, 24), (-40.4, 5.3071795, 36), (-40, 5.2, 24), (-40, 5.2, 36), (-39.6, 5.3071795, 24), (-39.6, 5.3071795, 36), (-39.30718, 5.6, 24), (-39.30718, 5.6, 36)]
    }

    def Mesh "hwy_pillar_7"
    {
        int[] faceVertexCounts = [3, 3, 3, 3, 3, 3, 3, 3, 3, 3, 3, 3, 3, 3, 3, 3, 3, 3, 3, 3, 3, 3, 3, 3, 3, 3, 3, 3, 3, 3, 3, 3, 3, 3, 3, 3, 3, 3, 3, 3, 3, 3, 3, 3, 3, 3, 3, 3]
        int[] faceVertexIndices = [1, 0, 4, 1, 4, 2, 2, 4, 5, 2, 5, 3, 4, 0, 6, 4, 6, 5, 5, 6, 7, 5, 7, 3, 6, 0, 8, 6, 8, 7, 7, 8, 9, 7, 9, 3, 8, 0, 10, 8, 10, 9, 9, 10, 11, 9, 11, 3, 10, 0, 12, 10, 12, 11, 11, 12, 13, 11, 13, 3, 12, 0, 14, 12, 14, 13, 13, 14, 15, 13, 15, 3, 14, 0, 16, 14, 16, 15, 15, 16, 17, 15, 17, 3, 16, 0, 18, 16, 18, 17, 17, 18, 19, 17, 19, 3, 18, 0, 20, 18, 20, 19, 19, 20, 21, 19, 21, 3, 20, 0, 22, 20, 22, 21, 21, 22, 23, 21, 23, 3, 22, 0, 24, 22, 24, 23, 23, 24, 25, 23, 25, 3, 24, 0, 1, 24, 1, 25, 25, 1, 2, 25, 2, 3]
        point3f[] points = [(-30, 6, 24), (-29.2, 6, 24), (-29.2, 6, 36), (-30, 6, 36), (-29.30718, 6.4, 24), (-29.30718, 6.4, 36), (-29.6, 6.6928205, 24), (-29.6, 6.6928205, 36), (-30, 6.8, 24), (-30, 6.8, 36), (-30.4, 6.6928205, 24), (-30.4, 6.6928205, 36), (-30.69282, 6.4, 24), (-30.69282, 6.4, 36), (-30.8, 6, 24), (-30.8, 6, 36), (-30.69282, 5.6, 24), (-30.69282, 5.6, 36), (-30.4, 5.3071795, 24), (-30.4, 5.3071795, 36), (-30, 5.2, 24), (-30, 5.2, 36), (-29.6, 5.3071795, 24), (-29.6, 5.3071795, 36), (-29.30718, 5.6, 24), (-29.30718, 5.6, 36)]
    }

    def Mesh "hwy_pillar_8"
    {
        int[] faceVertexCounts = [3, 3, 3, 3, 3, 3, 3, 3, 3, 3, 3, 3, 3, 3, 3, 3, 3, 3, 3, 3, 3, 3, 3, 3, 3, 3, 3, 3, 3, 3, 3, 3, 3, 3, 3, 3, 3, 3, 3, 3, 3, 3, 3, 3, 3, 3, 3, 3]
        int[] faceVertexIndices = [1, 0, 4, 1, 4, 2, 2, 4, 5, 2, 5, 3, 4, 0, 6, 4, 6, 5, 5, 6, 7, 5, 7, 3, 6, 0, 8, 6, 8, 7, 7, 8, 9, 7, 9, 3, 8, 0, 10, 8, 10, 9, 9, 10, 11, 9, 11, 3, 10, 0, 12, 10, 12, 11, 11, 12, 13, 11, 13, 3, 12, 0, 14, 12, 14, 13, 13, 14, 15, 13, 15, 3, 14, 0, 16, 14, 16, 15, 15, 16, 17, 15, 17, 3, 16, 0, 18, 16, 18, 17, 17, 18, 19, 17, 19, 3, 18, 0, 20, 18, 20, 19, 19, 20, 21, 19, 21, 3, 20, 0, 22, 20, 22, 21, 21, 22, 23, 21, 23, 3, 22, 0, 24, 22, 24, 23, 23, 24, 25, 23, 25, 3, 24, 0, 1, 24, 1, 25, 25, 1, 2, 25, 2, 3]
        point3f[] points = [(-20, 6, 24), (-19.2, 6, 24), (-19.2, 6, 36), (-20, 6, 36), (-19.30718, 6.4, 24), (-19.30718, 6.4, 36), (-19.6, 6.6928205, 24), (-19.6, 6.6928205, 36), (-20, 6.8, 24), (-20, 6.8, 36), (-20.4, 6.6928205, 24), (-20.4, 6.6928205, 36), (-20.69282, 6.4, 24), (-20.69282, 6.4, 36), (-20.8, 6, 24), (-20.8, 6, 36), (-20.69282, 5.6, 24), (-20.69282, 5.6, 36), (-20.4, 5.3071795, 24), (-20.4, 5.3071795, 36), (-20, 5.2, 24), (-20, 5.2, 36), (-19.6, 5.3071795, 24), (-19.6, 5.3071795, 36), (-19.30718, 5.6, 24), (-19.30718, 5.6, 36)]
    }

    def Mesh "hwy_pillar_9"
    {
        int[] faceVertexCounts = [3, 3, 3, 3, 3, 3, 3, 3, 3, 3, 3, 3, 3, 3, 3, 3, 3, 3, 3, 3, 3, 3, 3, 3, 3, 3, 3, 3, 3, 3, 3, 3, 3, 3, 3, 3, 3, 3, 3, 3, 3, 3, 3, 3, 3, 3, 3, 3]
        int[] faceVertexIndices = [1, 0, 4, 1, 4, 2, 2, 4, 5, 2, 5, 3, 4, 0, 6, 4, 6, 5, 5, 6, 7, 5, 7, 3, 6, 0, 8, 6, 8, 7, 7, 8, 9, 7, 9, 3, 8, 0, 10, 8, 10, 9, 9, 10, 11, 9, 11, 3, 10, 0, 12, 10, 12, 11, 11, 12, 13, 11, 13, 3, 12, 0, 14, 12, 14, 13, 13, 14, 15, 13, 15, 3, 14, 0, 16, 14, 16, 15, 15, 16, 17, 15, 17, 3, 16, 0, 18, 16, 18, 17, 17, 18, 19, 17, 19, 3, 18, 0, 20, 18, 20, 19, 19, 20, 21, 19, 21, 3, 20, 0, 22, 20, 22, 21, 21, 22, 23, 21, 23, 3, 22, 0, 24, 22, 24, 23, 23, 24, 25, 23, 25, 3, 24, 0, 1, 24, 1, 25, 25, 1, 2, 25, 2, 3]
        point3f[] points = [(-10, 6, 24), (-9.2, 6, 24), (-9.2, 6, 36), (-10, 6, 36), (-9.307179, 6.4, 24), (-9.307179, 6.4, 36), (-9.6, 6.6928205, 24), (-9.6, 6.6928205, 36), (-10, 6.8, 24), (-10, 6.8, 36), (-10.4, 6.6928205, 24), (-10.4, 6.6928205, 36), (-10.692821, 6.4, 24), (-10.692821, 6.4, 36), (-10.8, 6, 24), (-10.8, 6, 36), (-10.692821, 5.6, 24), (-10.692821, 5.6, 36), (-10.4, 5.3071795, 24), (-10.4, 5.3071795, 36), (-10, 5.2, 24), (-10, 5.2, 36), (-9.6, 5.3071795, 24), (-9.6, 5.3071795, 36), (-9.307179, 5.6, 24), (-9.307179, 5.6, 36)]
    }

    def Mesh "hwy_pillar_10"
    {
        int[] faceVertexCounts = [3, 3, 3, 3, 3, 3, 3, 3, 3, 3, 3, 3, 3, 3, 3, 3, 3, 3, 3, 3, 3, 3, 3, 3, 3, 3, 3, 3, 3, 3, 3, 3, 3, 3, 3, 3, 3, 3, 3, 3, 3, 3, 3, 3, 3, 3, 3, 3]
        int[] faceVertexIndices = [1, 0, 4, 1, 4, 2, 2, 4, 5, 2, 5, 3, 4, 0, 6, 4, 6, 5, 5, 6, 7, 5, 7, 3, 6, 0, 8, 6, 8, 7, 7, 8, 9, 7, 9, 3, 8, 0, 10, 8, 10, 9, 9, 10, 11, 9, 11, 3, 10, 0, 12, 10, 12, 11, 11, 12, 13, 11, 13, 3, 12, 0, 14, 12, 14, 13, 13, 14, 15, 13, 15, 3, 14, 0, 16, 14, 16, 15, 15, 16, 17, 15, 17, 3, 16, 0, 18, 16, 18, 17, 17, 18, 19, 17, 19, 3, 18, 0, 20, 18, 20, 19, 19, 20, 21, 19, 21, 3, 20, 0, 22, 20, 22, 21, 21, 22, 23, 21, 23, 3, 22, 0, 24, 22, 24, 23, 23, 24, 25, 23, 25, 3, 24, 0, 1, 24, 1, 25, 25, 1, 2, 25, 2, 3]
        point3f[] points = [(0, 6, 24), (0.8, 6, 24), (0.8, 6, 36), (0, 6, 36), (0.6928203, 6.4, 24), (0.6928203, 6.4, 36), (0.4, 6.6928205, 24), (0.4, 6.6928205, 36), (4.898587e-17, 6.8, 24), (4.898587e-17, 6.8, 36), (-0.4, 6.6928205, 24), (-0.4, 6.6928205, 36), (-0.6928203, 6.4, 24), (-0.6928203, 6.4, 36), (-0.8, 6, 24), (-0.8, 6, 36), (-0.6928203, 5.6, 24), (-0.6928203, 5.6, 36), (-0.4, 5.3071795, 24), (-0.4, 5.3071795, 36), (-1.4695762e-16, 5.2, 24), (-1.4695762e-16, 5.2, 36), (0.4, 5.3071795, 24), (0.4, 5.3071795, 36), (0.6928203, 5.6, 24), (0.6928203, 5.6, 36)]
    }

    def Mesh "hwy_pillar_11"
    {
        int[] faceVertexCounts = [3, 3, 3, 3, 3, 3, 3, 3, 3, 3, 3, 3, 3, 3, 3, 3, 3, 3, 3, 3, 3, 3, 3, 3, 3, 3, 3, 3, 3, 3, 3, 3, 3, 3, 3, 3, 3, 3, 3, 3, 3, 3, 3, 3, 3, 3, 3, 3]
        int[] faceVertexIndices = [1, 0, 4, 1, 4, 2, 2, 4, 5, 2, 5, 3, 4, 0, 6, 4, 6, 5, 5, 6, 7, 5, 7, 3, 6, 0, 8, 6, 8, 7, 7, 8, 9, 7, 9, 3, 8, 0, 10, 8, 10, 9, 9, 10, 11, 9, 11, 3, 10, 0, 12, 10, 12, 11, 11, 12, 13, 11, 13, 3, 12, 0, 14, 12, 14, 13, 13, 14, 15, 13, 15, 3, 14, 0, 16, 14, 16, 15, 15, 16, 17, 15, 17, 3, 16, 0, 18, 16, 18, 17, 17, 18, 19, 17, 19, 3, 18, 0, 20, 18, 20, 19, 19, 20, 21, 19, 21, 3, 20, 0, 22, 20, 22, 21, 21, 22, 23, 21, 23, 3, 22, 0, 24, 22, 24, 23, 23, 24, 25, 23, 25, 3, 24, 0, 1, 24, 1, 25, 25, 1, 2, 25, 2, 3]
        point3f[] points = [(10, 6, 24), (10.8, 6, 24), (10.8, 6, 36), (10, 6, 36), (10.692821, 6.4, 24), (10.692821, 6.4, 36), (10.4, 6.6928205, 24), (10.4, 6.6928205, 36), (10, 6.8, 24), (10, 6.8, 36), (9.6, 6.6928205, 24), (9.6, 6.6928205, 36), (9.307179, 6.4, 24), (9.307179, 6.4, 36), (9.2, 6, 24), (9.2, 6, 36), (9.307179, 5.6, 24), (9.307179, 5.6, 36), (9.6, 5.3071795, 24), (9.6, 5.3071795, 36), (10, 5.2, 24), (10, 5.2, 36), (10.4, 5.3071795, 24), (10.4, 5.3071795, 36), (10.692821, 5.6, 24), (10.692821, 5.6, 36)]
    }

    def Mesh "hwy_pillar_12"
    {
        int[] faceVertexCounts = [3, 3, 3, 3, 3, 3, 3, 3, 3, 3, 3, 3, 3, 3, 3, 3, 3, 3, 3, 3, 3, 3, 3, 3, 3, 3, 3, 3, 3, 3, 3, 3, 3, 3, 3, 3, 3, 3, 3, 3, 3, 3, 3, 3, 3, 3, 3, 3]
        int[] faceVertexIndices = [1, 0, 4, 1, 4, 2, 2, 4, 5, 2, 5, 3, 4, 0, 6, 4, 6, 5, 5, 6, 7, 5, 7, 3, 6, 0, 8, 6, 8, 7, 7, 8, 9, 7, 9, 3, 8, 0, 10, 8, 10, 9, 9, 10, 11, 9, 11, 3, 10, 0, 12, 10, 12, 11, 11, 12, 13, 11, 13, 3, 12, 0, 14, 12, 14, 13, 13, 14, 15, 13, 15, 3, 14, 0, 16, 14, 16, 15, 15, 16, 17, 15, 17, 3, 16, 0, 18, 16, 18, 17, 17, 18, 19, 17, 19, 3, 18, 0, 20, 18, 20, 19, 19, 20, 21, 19, 21, 3, 20, 0, 22, 20, 22, 21, 21, 22, 23, 21, 23, 3, 22, 0, 24, 22, 24, 23, 23, 24, 25, 23, 25, 3, 24, 0, 1, 24, 1, 25, 25, 1, 2, 25, 2, 3]
        point3f[] points = [(20, 6, 24), (20.8, 6, 24), (20.8, 6, 36), (20, 6, 36), (20.69282, 6.4, 24), (20.69282, 6.4, 36), (20.4, 6.6928205, 24), (20.4, 6.6928205, 36), (20, 6.8, 24), (20, 6.8, 36), (19.6, 6.6928205, 24), (19.6, 6.6928205, 36), (19.30718, 6.4, 24), (19.30718, 6.4, 36), (19.2, 6, 24), (19.2, 6, 36), (19.30718, 5.6, 24), (19.30718, 5.6, 36), (19.6, 5.3071795, 24), (19.6, 5.3071795, 36), (20, 5.2, 24), (20, 5.2, 36), (20.4, 5.3071795, 24), (20.4, 5.3071795, 36), (20.69282, 5.6, 24), (20.69282, 5.6, 36)]
    }

    def Mesh "hwy_pillar_13"
    {
        int[] faceVertexCounts = [3, 3, 3, 3, 3, 3, 3, 3, 3, 3, 3, 3, 3, 3, 3, 3, 3, 3, 3, 3, 3, 3, 3, 3, 3, 3, 3, 3, 3, 3, 3, 3, 3, 3, 3, 3, 3, 3, 3, 3, 3, 3, 3, 3, 3, 3, 3, 3]
        int[] faceVertexIndices = [1, 0, 4, 1, 4, 2, 2, 4, 5, 2, 5, 3, 4, 0, 6, 4, 6, 5, 5, 6, 7, 5, 7, 3, 6, 0, 8, 6, 8, 7, 7, 8, 9, 7, 9, 3, 8, 0, 10, 8, 10, 9, 9, 10, 11, 9, 11, 3, 10, 0, 12, 10, 12, 11, 11, 12, 13, 11, 13, 3, 12, 0, 14, 12, 14, 13, 13, 14, 15, 13, 15, 3, 14, 0, 16, 14, 16, 15, 15, 16, 17, 15, 17, 3, 16, 0, 18, 16, 18, 17, 17, 18, 19, 17, 19, 3, 18, 0, 20, 18, 20, 19, 19, 20, 21, 19, 21, 3, 20, 0, 22, 20, 22, 21, 21, 22, 23, 21, 23, 3, 22, 0, 24, 22, 24, 23, 23, 24, 25, 23, 25, 3, 24, 0, 1, 24, 1, 25, 25, 1, 2, 25, 2, 3]
        point3f[] points = [(30, 6, 24), (30.8, 6, 24), (30.8, 6, 36), (30, 6, 36), (30.69282, 6.4, 24), (30.69282, 6.4, 36), (30.4, 6.6928205, 24), (30.4, 6.6928205, 36), (30, 6.8, 24), (30, 6.8, 36), (29.6, 6.6928205, 24), (29.6, 6.6928205, 36), (29.30718, 6.4, 24), (29.30718, 6.4, 36), (29.2, 6, 24), (29.2, 6, 36), (29.30718, 5.6, 24), (29.30718, 5.6, 36), (29.6, 5.3071795, 24), (29.6, 5.3071795, 36), (30, 5.2, 24), (30, 5.2, 36), (30.4, 5.3071795, 24), (30.4, 5.3071795, 36), (30.69282, 5.6, 24), (30.69282, 5.6, 36)]
    }

    def Mesh "hwy_pillar_14"
    {
        int[] faceVertexCounts = [3, 3, 3, 3, 3, 3, 3, 3, 3, 3, 3, 3, 3, 3, 3, 3, 3, 3, 3, 3, 3, 3, 3, 3, 3, 3, 3, 3, 3, 3, 3, 3, 3, 3, 3, 3, 3, 3, 3, 3, 3, 3, 3, 3, 3, 3, 3, 3]
        int[] faceVertexIndices = [1, 0, 4, 1, 4, 2, 2, 4, 5, 2, 5, 3, 4, 0, 6, 4, 6, 5, 5, 6, 7, 5, 7, 3, 6, 0, 8, 6, 8, 7, 7, 8, 9, 7, 9, 3, 8, 0, 10, 8, 10, 9, 9, 10, 11, 9, 11, 3, 10, 0, 12, 10, 12, 11, 11, 12, 13, 11, 13, 3, 12, 0, 14, 12, 14, 13, 13, 14, 15, 13, 15, 3, 14, 0, 16, 14, 16, 15, 15, 16, 17, 15, 17, 3, 16, 0, 18, 16, 18, 17, 17, 18, 19, 17, 19, 3, 18, 0, 20, 18, 20, 19, 19, 20, 21, 19, 21, 3, 20, 0, 22, 20, 22, 21, 21, 22, 23, 21, 23, 3, 22, 0, 24, 22, 24, 23, 23, 24, 25, 23, 25, 3, 24, 0, 1, 24, 1, 25, 25, 1, 2, 25, 2, 3]
        point3f[] points = [(40, 6, 24), (40.8, 6, 24), (40.8, 6, 36), (40, 6, 36), (40.69282, 6.4, 24), (40.69282, 6.4, 36), (40.4, 6.6928205, 24), (40.4, 6.6928205, 36), (40, 6.8, 24), (40, 6.8, 36), (39.6, 6.6928205, 24), (39.6, 6.6928205, 36), (39.30718, 6.4, 24), (39.30718, 6.4, 36), (39.2, 6, 24), (39.2, 6, 36), (39.30718, 5.6, 24), (39.30718, 5.6, 36), (39.6, 5.3071795, 24), (39.6, 5.3071795, 36), (40, 5.2, 24), (40, 5.2, 36), (40.4, 5.3071795, 24), (40.4, 5.3071795, 36), (40.69282, 5.6, 24), (40.69282, 5.6, 36)]
    }

    def Mesh "hwy_pillar_15"
    {
        int[] faceVertexCounts = [3, 3, 3, 3, 3, 3, 3, 3, 3, 3, 3, 3, 3, 3, 3, 3, 3, 3, 3, 3, 3, 3, 3, 3, 3, 3, 3, 3, 3, 3, 3, 3, 3, 3, 3, 3, 3, 3, 3, 3, 3, 3, 3, 3, 3, 3, 3, 3]
        int[] faceVertexIndices = [1, 0, 4, 1, 4, 2, 2, 4, 5, 2, 5, 3, 4, 0, 6, 4, 6, 5, 5, 6, 7, 5, 7, 3, 6, 0, 8, 6, 8, 7, 7, 8, 9, 7, 9, 3, 8, 0, 10, 8, 10, 9, 9, 10, 11, 9, 11, 3, 10, 0, 12, 10, 12, 11, 11, 12, 13, 11, 13, 3, 12, 0, 14, 12, 14, 13, 13, 14, 15, 13, 15, 3, 14, 0, 16, 14, 16, 15, 15, 16, 17, 15, 17, 3, 16, 0, 18, 16, 18, 17, 17, 18, 19, 17, 19, 3, 18, 0, 20, 18, 20, 19, 19, 20, 21, 19, 21, 3, 20, 0, 22, 20, 22, 21, 21, 22, 23, 21, 23, 3, 22, 0, 24, 22, 24, 23, 23, 24, 25, 23, 25, 3, 24, 0, 1, 24, 1, 25, 25, 1, 2, 25, 2, 3]
        point3f[] points = [(50, 6, 24), (50.8, 6, 24), (50.8, 6, 36), (50, 6, 36), (50.69282, 6.4, 24), (50.69282, 6.4, 36), (50.4, 6.6928205, 24), (50.4, 6.6928205, 36), (50, 6.8, 24), (50, 6.8, 36), (49.6, 6.6928205, 24), (49.6, 6.6928205, 36), (49.30718, 6.4, 24), (49.30718, 6.4, 36), (49.2, 6, 24), (49.2, 6, 36), (49.30718, 5.6, 24), (49.30718, 5.6, 36), (49.6, 5.3071795, 24), (49.6, 5.3071795, 36), (50, 5.2, 24), (50, 5.2, 36), (50.4, 5.3071795, 24), (50.4, 5.3071795, 36), (50.69282, 5.6, 24), (50.69282, 5.6, 36)]
    }

    def Mesh "hwy_pillar_16"
    {
        int[] faceVertexCounts = [3, 3, 3, 3, 3, 3, 3, 3, 3, 3, 3, 3, 3, 3, 3, 3, 3, 3, 3, 3, 3, 3, 3, 3, 3, 3, 3, 3, 3, 3, 3, 3, 3, 3, 3, 3, 3, 3, 3, 3, 3, 3, 3, 3, 3, 3, 3, 3]
        int[] faceVertexIndices = [1, 0, 4, 1, 4, 2, 2, 4, 5, 2, 5, 3, 4, 0, 6, 4, 6, 5, 5, 6, 7, 5, 7, 3, 6, 0, 8, 6, 8, 7, 7, 8, 9, 7, 9, 3, 8, 0, 10, 8, 10, 9, 9, 10, 11, 9, 11, 3, 10, 0, 12, 10, 12, 11, 11, 12, 13, 11, 13, 3, 12, 0, 14, 12, 14, 13, 13, 14, 15, 13, 15, 3, 14, 0, 16, 14, 16, 15, 15, 16, 17, 15, 17, 3, 16, 0, 18, 16, 18, 17, 17, 18, 19, 17, 19, 3, 18, 0, 20, 18, 20, 19, 19, 20, 21, 19, 21, 3, 20, 0, 22, 20, 22, 21, 21, 22, 23, 21, 23, 3, 22, 0, 24, 22, 24, 23, 23, 24, 25, 23, 25, 3, 24, 0, 1, 24, 1, 25, 25, 1, 2, 25, 2, 3]
        point3f[] points = [(60, 6, 24), (60.8, 6, 24), (60.8, 6, 36), (60, 6, 36), (60.69282, 6.4, 24), (60.69282, 6.4, 36), (60.4, 6.6928205, 24), (60.4, 6.6928205, 36), (60, 6.8, 24), (60, 6.8, 36), (59.6, 6.6928205, 24), (59.6, 6.6928205, 36), (59.30718, 6.4, 24), (59.30718, 6.4, 36), (59.2, 6, 24), (59.2, 6, 36), (59.30718, 5.6, 24), (59.30718, 5.6, 36), (59.6, 5.3071795, 24), (59.6, 5.3071795, 36), (60, 5.2, 24), (60, 5.2, 36), (60.4, 5.3071795, 24), (60.4, 5.3071795, 36), (60.69282, 5.6, 24), (60.69282, 5.6, 36)]
    }

    def Mesh "hwy_pillar_17"
    {
        int[] faceVertexCounts = [3, 3, 3, 3, 3, 3, 3, 3, 3, 3, 3, 3, 3, 3, 3, 3, 3, 3, 3, 3, 3, 3, 3, 3, 3, 3, 3, 3, 3, 3, 3, 3, 3, 3, 3, 3, 3, 3, 3, 3, 3, 3, 3, 3, 3, 3, 3, 3]
        int[] faceVertexIndices = [1, 0, 4, 1, 4, 2, 2, 4, 5, 2, 5, 3, 4, 0, 6, 4, 6, 5, 5, 6, 7, 5, 7, 3, 6, 0, 8, 6, 8, 7, 7, 8, 9, 7, 9, 3, 8, 0, 10, 8, 10, 9, 9, 10, 11, 9, 11, 3, 10, 0, 12, 10, 12, 11, 11, 12, 13, 11, 13, 3, 12, 0, 14, 12, 14, 13, 13, 14, 15, 13, 15, 3, 14, 0, 16, 14, 16, 15, 15, 16, 17, 15, 17, 3, 16, 0, 18, 16, 18, 17, 17, 18, 19, 17, 19, 3, 18, 0, 20, 18, 20, 19, 19, 20, 21, 19, 21, 3, 20, 0, 22, 20, 22, 21, 21, 22, 23, 21, 23, 3, 22, 0, 24, 22, 24, 23, 23, 24, 25, 23, 25, 3, 24, 0, 1, 24, 1, 25, 25, 1, 2, 25, 2, 3]
        point3f[] points = [(70, 6, 24), (70.8, 6, 24), (70.8, 6, 36), (70, 6, 36), (70.69282, 6.4, 24), (70.69282, 6.4, 36), (70.4, 6.6928205, 24), (70.4, 6.6928205, 36), (70, 6.8, 24), (70, 6.8, 36), (69.6, 6.6928205, 24), (69.6, 6.6928205, 36), (69.30718, 6.4, 24), (69.30718, 6.4, 36), (69.2, 6, 24), (69.2, 6, 36), (69.30718, 5.6, 24), (69.30718, 5.6, 36), (69.6, 5.3071795, 24), (69.6, 5.3071795, 36), (70, 5.2, 24), (70, 5.2, 36), (70.4, 5.3071795, 24), (70.4, 5.3071795, 36), (70.69282, 5.6, 24), (70.69282, 5.6, 36)]
    }

    def Mesh "hwy_pillar_18"
    {
        int[] faceVertexCounts = [3, 3, 3, 3, 3, 3, 3, 3, 3, 3, 3, 3, 3, 3, 3, 3, 3, 3, 3, 3, 3, 3, 3, 3, 3, 3, 3, 3, 3, 3, 3, 3, 3, 3, 3, 3, 3, 3, 3, 3, 3, 3, 3, 3, 3, 3, 3, 3]
        int[] faceVertexIndices = [1, 0, 4, 1, 4, 2, 2, 4, 5, 2, 5, 3, 4, 0, 6, 4, 6, 5, 5, 6, 7, 5, 7, 3, 6, 0, 8, 6, 8, 7, 7, 8, 9, 7, 9, 3, 8, 0, 10, 8, 10, 9, 9, 10, 11, 9, 11, 3, 10, 0, 12, 10, 12, 11, 11, 12, 13, 11, 13, 3, 12, 0, 14, 12, 14, 13, 13, 14, 15, 13, 15, 3, 14, 0, 16, 14, 16, 15, 15, 16, 17, 15, 17, 3, 16, 0, 18, 16, 18, 17, 17, 18, 19, 17, 19, 3, 18, 0, 20, 18, 20, 19, 19, 20, 21, 19, 21, 3, 20, 0, 22, 20, 22, 21, 21, 22, 23, 21, 23, 3, 22, 0, 24, 22, 24, 23, 23, 24, 25, 23, 25, 3, 24, 0, 1, 24, 1, 25, 25, 1, 2, 25, 2, 3]
        point3f[] points = [(80, 6, 24), (80.8, 6, 24), (80.8, 6, 36), (80, 6, 36), (80.69282, 6.4, 24), (80.69282, 6.4, 36), (80.4, 6.6928205, 24), (80.4, 6.6928205, 36), (80, 6.8, 24), (80, 6.8, 36), (79.6, 6.6928205, 24), (79.6, 6.6928205, 36), (79.30718, 6.4, 24), (79.30718, 6.4, 36), (79.2, 6, 24), (79.2, 6, 36), (79.30718, 5.6, 24), (79.30718, 5.6, 36), (79.6, 5.3071795, 24), (79.6, 5.3071795, 36), (80, 5.2, 24), (80, 5.2, 36), (80.4, 5.3071795, 24), (80.4, 5.3071795, 36), (80.69282, 5.6, 24), (80.69282, 5.6, 36)]
    }

    def Mesh "hwy_pillar_19"
    {
        int[] faceVertexCounts = [3, 3, 3, 3, 3, 3, 3, 3, 3, 3, 3, 3, 3, 3, 3, 3, 3, 3, 3, 3, 3, 3, 3, 3, 3, 3, 3, 3, 3, 3, 3, 3, 3, 3, 3, 3, 3, 3, 3, 3, 3, 3, 3, 3, 3, 3, 3, 3]
        int[] faceVertexIndices = [1, 0, 4, 1, 4, 2, 2, 4, 5, 2, 5, 3, 4, 0, 6, 4, 6, 5, 5, 6, 7, 5, 7, 3, 6, 0, 8, 6, 8, 7, 7, 8, 9, 7, 9, 3, 8, 0, 10, 8, 10, 9, 9, 10, 11, 9, 11, 3, 10, 0, 12, 10, 12, 11, 11, 12, 13, 11, 13, 3, 12, 0, 14, 12, 14, 13, 13, 14, 15, 13, 15, 3, 14, 0, 16, 14, 16, 15, 15, 16, 17, 15, 17, 3, 16, 0, 18, 16, 18, 17, 17, 18, 19, 17, 19, 3, 18, 0, 20, 18, 20, 19, 19, 20, 21, 19, 21, 3, 20, 0, 22, 20, 22, 21, 21, 22, 23, 21, 23, 3, 22, 0, 24, 22, 24, 23, 23, 24, 25, 23, 25, 3, 24, 0, 1, 24, 1, 25, 25, 1, 2, 25, 2, 3]
        point3f[] points = [(90, 6, 24), (90.8, 6, 24), (90.8, 6, 36), (90, 6, 36), (90.69282, 6.4, 24), (90.69282, 6.4, 36), (90.4, 6.6928205, 24), (90.4, 6.6928205, 36), (90, 6.8, 24), (90, 6.8, 36), (89.6, 6.6928205, 24), (89.6, 6.6928205, 36), (89.30718, 6.4, 24), (89.30718, 6.4, 36), (89.2, 6, 24), (89.2, 6, 36), (89.30718, 5.6, 24), (89.30718, 5.6, 36), (89.6, 5.3071795, 24), (89.6, 5.3071795, 36), (90, 5.2, 24), (90, 5.2, 36), (90.4, 5.3071795, 24), (90.4, 5.3071795, 36), (90.69282, 5.6, 24), (90.69282, 5.6, 36)]
    }

    def Mesh "hwy_pillar_20"
    {
        int[] faceVertexCounts = [3, 3, 3, 3, 3, 3, 3, 3, 3, 3, 3, 3, 3, 3, 3, 3, 3, 3, 3, 3, 3, 3, 3, 3, 3, 3, 3, 3, 3, 3, 3, 3, 3, 3, 3, 3, 3, 3, 3, 3, 3, 3, 3, 3, 3, 3, 3, 3]
        int[] faceVertexIndices = [1, 0, 4, 1, 4, 2, 2, 4, 5, 2, 5, 3, 4, 0, 6, 4, 6, 5, 5, 6, 7, 5, 7, 3, 6, 0, 8, 6, 8, 7, 7, 8, 9, 7, 9, 3, 8, 0, 10, 8, 10, 9, 9, 10, 11, 9, 11, 3, 10, 0, 12, 10, 12, 11, 11, 12, 13, 11, 13, 3, 12, 0, 14, 12, 14, 13, 13, 14, 15, 13, 15, 3, 14, 0, 16, 14, 16, 15, 15, 16, 17, 15, 17, 3, 16, 0, 18, 16, 18, 17, 17, 18, 19, 17, 19, 3, 18, 0, 20, 18, 20, 19, 19, 20, 21, 19, 21, 3, 20, 0, 22, 20, 22, 21, 21, 22, 23, 21, 23, 3, 22, 0, 24, 22, 24, 23, 23, 24, 25, 23, 25, 3, 24, 0, 1, 24, 1, 25, 25, 1, 2, 25, 2, 3]
        point3f[] points = [(100, 6, 24), (100.8, 6, 24), (100.8, 6, 36), (100, 6, 36), (100.69282, 6.4, 24), (100.69282, 6.4, 36), (100.4, 6.6928205, 24), (100.4, 6.6928205, 36), (100, 6.8, 24), (100, 6.8, 36), (99.6, 6.6928205, 24), (99.6, 6.6928205, 36), (99.30718, 6.4, 24), (99.30718, 6.4, 36), (99.2, 6, 24), (99.2, 6, 36), (99.30718, 5.6, 24), (99.30718, 5.6, 36), (99.6, 5.3071795, 24), (99.6, 5.3071795, 36), (100, 5.2, 24), (100, 5.2, 36), (100.4, 5.3071795, 24), (100.4, 5.3071795, 36), (100.69282, 5.6, 24), (100.69282, 5.6, 36)]
    }

    def "Lights"
    {
        def DistantLight "sun"
        {
            float inputs:intensity = 3500
            double3 xformOp:translate = (100, 80, -100)
            uniform token[] xformOpOrder = ["xformOp:translate"]
        }
    }

    def "Cameras"
    {
        def Camera "aerial_wide"
        {
            float focalLength = 31.176914
            float horizontalAperture = 36
            float verticalAperture = 24
            matrix4d xformOp:transform = ( (1, -0, 0, 0), (0, 0.7682212795973759, -0.6401843996644798, 0), (-0, 0.6401843996644798, 0.7682212795973759, 0), (0, 120, 120, 1) )
            uniform token[] xformOpOrder = ["xformOp:transform"]
        }

        def Camera "tower_view"
        {
            float focalLength = 38.601124
            float horizontalAperture = 36
            float verticalAperture = 24
            matrix4d xformOp:transform = ( (0.19611613513818407, 0, -0.9805806756909202, 0), (-0.49724515809884695, 0.8618916073713346, -0.09944903161976941, 0), (0.8451542547285166, 0.50709255283711, 0.16903085094570333, 0), (50, 80, 80, 1) )
            uniform token[] xformOpOrder = ["xformOp:transform"]
        }

        def Camera "ground_pan"
        {
            float focalLength = 23.458057
            float horizontalAperture = 36
            float verticalAperture = 24
            matrix4d xformOp:transform = ( (-0.7071067811865477, 0, 0.7071067811865477, 0), (-0.034957203622308315, 0.9987772463516662, -0.034957203622308315, 0), (-0.7062421637900901, -0.04943695146530631, -0.7062421637900901, 0), (-50, 8, -50, 1) )
            uniform token[] xformOpOrder = ["xformOp:transform"]
        }

        def Camera "dusk_silhouette"
        {
            float focalLength = 28.254341
            float horizontalAperture = 36
            float verticalAperture = 24
            matrix4d xformOp:transform = ( (0.7071067811865475, 0, -0.7071067811865475, 0), (0.09527699174583826, 0.9908807141567179, 0.09527699174583826, 0), (0.7006584723271841, -0.13474201390907387, 0.7006584723271841, 0), (80, 5, 80, 1) )
            uniform token[] xformOpOrder = ["xformOp:transform"]
        }
    }
}

